<?xml version="1.0" standalone="no"?>
<!DOCTYPE svg PUBLIC "-//W3C//DTD SVG 20010904//EN"
 "http://www.w3.org/TR/2001/REC-SVG-20010904/DTD/svg10.dtd">
<svg version="1.0" xmlns="http://www.w3.org/2000/svg"
 width="256.000000pt" height="256.000000pt" viewBox="0 0 256.000000 256.000000"
 preserveAspectRatio="xMidYMid meet">

<g transform="translate(0.000000,256.000000) scale(0.100000,-0.100000)"
fill="#000000" stroke="none">
<path d="M866 2515 c-353 -73 -654 -319 -786 -642 -59 -146 -75 -233 -74 -408
1 -139 4 -173 27 -257 99 -372 375 -656 740 -762 127 -37 274 -51 388 -37 52
6 95 7 97 3 9 -27 86 -131 132 -178 62 -63 110 -99 188 -138 173 -87 421 -87
594 0 82 41 108 63 108 89 0 39 -34 41 -88 6 -67 -42 -189 -81 -280 -87 -229
-17 -472 121 -574 326 -49 98 -68 175 -68 280 0 541 648 811 1031 430 125
-124 179 -254 179 -428 0 -147 -35 -254 -122 -370 -45 -60 -45 -92 0 -91 45 0
127 124 168 254 100 316 -44 663 -338 812 l-58 29 -4 145 c-3 112 -10 166 -29
241 -42 160 -130 327 -230 435 -43 47 -70 54 -87 23 -8 -16 -3 -28 33 -72 101
-124 163 -240 202 -375 26 -90 44 -244 37 -324 l-4 -46 -36 8 c-21 5 -56 9
-79 9 l-43 0 0 79 c0 270 -137 530 -359 680 -278 189 -652 190 -929 2 -296
-201 -434 -591 -326 -923 13 -39 20 -48 39 -48 39 0 47 21 30 76 -58 191 -29
419 77 599 49 83 171 206 251 254 249 147 535 147 784 0 80 -48 202 -171 251
-254 23 -39 53 -104 67 -145 29 -84 50 -233 41 -282 -6 -32 -8 -34 -84 -51
-291 -65 -494 -292 -537 -599 -8 -60 -17 -62 -169 -56 -126 6 -242 39 -343 99
-74 44 -190 153 -240 226 -42 62 -69 76 -89 48 -16 -22 -2 -53 61 -135 110
-143 279 -252 463 -297 43 -11 112 -17 195 -17 l127 -1 0 -25 c0 -14 6 -49 13
-77 l14 -52 -55 -7 c-87 -11 -259 2 -352 26 -172 44 -324 132 -455 264 -122
122 -199 252 -251 422 -26 83 -28 102 -28 269 -1 159 2 189 22 260 102 352
378 621 728 706 126 32 333 32 457 1 117 -29 211 -70 314 -137 88 -58 108 -63
127 -32 9 16 4 25 -34 58 -61 53 -266 153 -370 180 -110 28 -360 36 -464 14z"/>
<path d="M1041 2126 c-17 -21 -10 -97 11 -109 28 -18 48 9 48 63 0 34 -4 50
-16 54 -23 9 -30 8 -43 -8z"/>
<path d="M587 1943 c-15 -15 -5 -41 28 -73 29 -28 39 -32 53 -24 27 18 26 44
-4 75 -26 27 -62 38 -77 22z"/>
<path d="M1467 1922 c-29 -30 -34 -51 -15 -70 19 -19 33 -14 67 20 38 39 38
72 1 76 -17 2 -34 -6 -53 -26z"/>
<path d="M1037 1834 c-4 -4 -7 -70 -7 -146 0 -76 -3 -138 -7 -138 -4 0 -24 16
-44 36 -28 27 -42 34 -58 29 -39 -12 -25 -47 53 -124 57 -56 79 -72 97 -69
l24 3 0 205 0 205 -25 3 c-14 2 -29 0 -33 -4z"/>
<path d="M406 1494 c-19 -18 -19 -20 -6 -45 8 -14 21 -19 53 -19 46 0 67 13
67 42 0 36 -84 53 -114 22z"/>
<path d="M1628 1499 c-21 -12 -23 -40 -6 -57 7 -7 30 -12 53 -12 60 0 83 30
49 64 -17 18 -70 21 -96 5z"/>
<path d="M1813 1170 c-49 -29 -55 -68 -51 -338 3 -255 5 -264 59 -296 56 -33
130 -9 155 49 21 51 20 504 -1 545 -30 57 -104 76 -162 40z m85 -62 c9 -9 12
-79 12 -255 0 -219 -2 -243 -17 -252 -11 -6 -24 -6 -35 0 -17 9 -18 30 -18
252 0 242 3 267 35 267 6 0 16 -5 23 -12z"/>
<path d="M606 1061 c-30 -31 -31 -57 -5 -74 34 -21 106 58 84 92 -12 20 -51
11 -79 -18z"/>
<path d="M1056 894 c-31 -30 -14 -114 22 -114 28 0 42 21 42 61 0 35 -20 69
-40 69 -5 0 -16 -7 -24 -16z"/>
<path d="M1813 480 c-23 -13 -35 -31 -43 -61 -35 -129 57 -227 161 -173 36 18
59 67 59 124 0 104 -93 162 -177 110z m85 -62 c19 -19 15 -95 -5 -107 -31 -17
-53 5 -53 52 0 42 13 67 35 67 6 0 16 -5 23 -12z"/>
</g>
</svg>
