<?xml version="1.0" standalone="no"?>
<!DOCTYPE svg PUBLIC "-//W3C//DTD SVG 20010904//EN"
 "http://www.w3.org/TR/2001/REC-SVG-20010904/DTD/svg10.dtd">
<svg version="1.0" xmlns="http://www.w3.org/2000/svg"
 width="128.000000pt" height="128.000000pt" viewBox="0 0 128.000000 128.000000"
 preserveAspectRatio="xMidYMid meet">

<g transform="translate(0.000000,128.000000) scale(0.100000,-0.100000)"
fill="#000000" stroke="none">
<path d="M416 1264 c-3 -9 -6 -80 -6 -158 l0 -142 -30 -17 c-37 -23 -83 -98
-90 -151 l-5 -41 -140 -5 -140 -5 -3 -208 c-2 -190 -1 -210 18 -246 21 -43 61
-78 97 -87 21 -6 23 -11 23 -79 0 -73 0 -74 -27 -77 -20 -2 -28 -9 -28 -23 0
-18 8 -20 73 -23 80 -3 112 9 91 34 -6 8 -22 14 -35 14 -23 0 -24 3 -24 73 l1
72 44 21 45 21 0 -99 c0 -55 5 -108 10 -119 10 -18 23 -19 210 -19 187 0 200
1 210 19 6 12 10 107 10 240 0 122 3 221 8 221 17 -1 27 -17 28 -48 2 -47 22
-79 61 -97 73 -35 153 15 153 96 0 33 4 41 24 49 35 13 61 57 61 101 0 32 4
40 27 50 42 17 61 54 56 110 -4 40 -2 48 14 52 10 3 18 14 18 24 0 13 12 23
35 32 33 12 75 57 75 80 0 6 -13 19 -29 29 -22 13 -27 22 -20 32 15 26 11 136
-7 150 -17 15 -106 19 -145 7 -21 -7 -27 -4 -37 17 -7 15 -20 26 -31 26 -21 0
-75 -57 -85 -88 -4 -11 -15 -22 -25 -25 -11 -3 -22 -18 -26 -35 -8 -39 -53
-68 -129 -83 -42 -9 -56 -16 -56 -29 0 -24 18 -29 68 -20 45 8 54 3 71 -42 8
-22 6 -28 -18 -46 l-28 -21 -43 21 c-23 12 -46 32 -51 45 -5 13 -29 43 -54 67
l-45 44 0 135 c0 75 -3 142 -6 151 -9 23 -159 23 -168 0z m124 -114 l0 -80
-40 0 -40 0 0 80 0 80 40 0 40 0 0 -80z m480 -72 c0 -36 27 -37 55 -2 14 17
33 27 62 31 39 5 43 3 52 -20 14 -36 4 -68 -31 -99 -39 -34 -32 -58 16 -58 19
0 37 -4 41 -9 8 -14 -30 -32 -69 -34 -26 -2 -32 -6 -34 -29 -3 -21 -9 -28 -26
-28 -32 0 -54 20 -63 60 -8 29 -16 37 -48 48 -45 15 -55 26 -55 63 0 20 5 25
22 25 18 -1 23 6 28 36 8 46 29 75 41 56 5 -7 9 -25 9 -40z m-480 -98 c0 -35
4 -43 38 -64 20 -13 45 -37 54 -54 18 -29 17 -30 -7 -46 -32 -21 -52 -87 -37
-121 l12 -25 -130 0 -130 0 0 73 c0 65 4 79 28 116 16 23 43 51 60 61 27 17
32 25 32 60 l0 40 40 0 c40 0 40 0 40 -40z m361 -62 c29 -30 27 -47 -7 -48
-12 0 -45 65 -37 74 10 10 13 8 44 -26z m83 -77 c3 -4 -3 -16 -14 -26 -16 -15
-23 -16 -33 -6 -9 10 -8 15 7 27 23 16 33 18 40 5z m-254 -71 c39 -39 14 -100
-41 -100 -29 0 -59 31 -59 61 0 19 45 59 66 59 8 0 23 -9 34 -20z m168 4 c26
-18 30 -65 6 -88 -23 -24 -70 -20 -88 6 -22 31 -20 45 9 73 28 29 42 31 73 9z
m170 0 c43 -30 20 -104 -32 -104 -56 0 -80 66 -36 102 27 22 39 22 68 2z
m-788 -149 l0 -75 -115 0 -115 0 0 75 0 75 115 0 115 0 0 -75z m526 7 c13 -8
34 -46 34 -61 0 -19 -39 -51 -62 -51 -53 0 -79 74 -36 104 24 17 47 20 64 8z
m184 -12 c11 -11 20 -29 20 -40 0 -26 -34 -60 -62 -60 -53 0 -79 74 -36 104
30 21 54 20 78 -4z m-330 -190 l0 -180 -160 0 -160 0 0 180 0 180 160 0 160 0
0 -180z m-380 -21 c0 -90 0 -91 -34 -125 -28 -28 -42 -34 -75 -34 -85 0 -121
52 -121 175 l0 75 115 0 115 0 0 -91z m622 64 c36 -32 11 -103 -36 -103 -27 0
-40 9 -55 37 -29 57 43 110 91 66z m-242 -303 l0 -30 -62 0 c-70 0 -94 -10
-85 -34 5 -13 21 -16 77 -16 63 0 70 -2 70 -20 0 -19 -7 -20 -160 -20 l-160 0
0 75 0 75 160 0 160 0 0 -30z"/>
<path d="M463 515 c-62 -27 -74 -106 -22 -149 39 -33 79 -33 118 0 53 44 40
123 -24 150 -40 16 -32 17 -72 -1z m61 -48 c22 -16 18 -55 -6 -71 -40 -24 -80
44 -42 71 10 7 21 13 24 13 3 0 14 -6 24 -13z"/>
<path d="M427 134 c-16 -16 -7 -44 14 -44 15 0 20 5 17 22 -3 22 -19 33 -31
22z"/>
</g>
</svg>
