<?xml version="1.0" standalone="no"?>
<!DOCTYPE svg PUBLIC "-//W3C//DTD SVG 20010904//EN"
 "http://www.w3.org/TR/2001/REC-SVG-20010904/DTD/svg10.dtd">
<svg version="1.0" xmlns="http://www.w3.org/2000/svg"
 width="256.000000pt" height="256.000000pt" viewBox="0 0 256.000000 256.000000"
 preserveAspectRatio="xMidYMid meet">

<g transform="translate(0.000000,256.000000) scale(0.100000,-0.100000)"
fill="#000000" stroke="none">
<path d="M1533 2223 c-180 -122 -634 -441 -656 -462 -42 -38 -57 -73 -57 -136
0 -71 -11 -92 -63 -116 -48 -21 -95 -24 -164 -8 -67 16 -85 6 -333 -167 l-210
-147 0 -382 c0 -380 0 -382 23 -416 12 -19 43 -44 68 -57 l46 -23 609 66 c429
46 620 70 647 82 24 10 51 34 70 62 37 54 53 68 90 75 37 8 73 -8 123 -54 25
-23 57 -42 78 -46 53 -9 586 50 624 70 17 9 41 30 54 48 l23 33 0 425 c-1 409
-2 428 -23 505 -48 170 -146 321 -282 432 -97 79 -280 167 -420 202 -177 44
-201 45 -247 14z m252 -88 c92 -27 218 -85 290 -135 195 -134 322 -347 359
-602 7 -44 5 -48 -16 -52 -26 -5 -2200 -137 -2204 -133 -1 1 68 51 154 111
163 114 165 115 259 101 153 -23 263 57 263 191 0 33 6 66 13 75 7 9 163 122
349 251 l336 235 55 -8 c30 -5 94 -20 142 -34z m655 -1160 l0 -306 -24 -24
c-13 -13 -39 -26 -57 -29 -48 -8 -497 -56 -525 -56 -13 0 -44 19 -73 44 -43
39 -100 66 -136 66 -58 0 -130 -47 -171 -111 -13 -21 -31 -40 -41 -43 -10 -3
-287 -35 -616 -71 -415 -45 -605 -62 -622 -55 -55 21 -55 27 -53 401 l3 344
200 12 c725 43 2045 124 2070 126 17 2 33 5 38 5 4 1 7 -135 7 -303z"/>
<path d="M1571 2043 c-41 -21 -71 -67 -71 -112 0 -50 60 -107 124 -116 86 -13
165 25 186 90 10 30 9 41 -7 72 -27 56 -74 83 -142 83 -32 0 -71 -8 -90 -17z
m155 -78 c30 -30 21 -55 -26 -75 -53 -22 -130 8 -130 51 0 50 112 68 156 24z"/>
<path d="M1285 1746 c-107 -48 -108 -168 -2 -216 99 -45 217 0 233 88 19 100
-121 177 -231 128z m129 -68 c40 -17 44 -47 10 -76 -23 -20 -35 -23 -71 -19
-44 5 -83 30 -83 53 0 22 51 54 86 54 18 0 44 -5 58 -12z"/>
<path d="M1915 1741 c-141 -34 -185 -160 -86 -244 60 -50 156 -59 234 -22 53
25 82 69 82 127 0 40 -5 52 -35 83 -21 22 -53 41 -84 50 -54 16 -65 17 -111 6z
m120 -83 c60 -27 54 -97 -10 -124 -68 -28 -151 -8 -174 43 -10 23 -9 31 7 52
34 47 111 59 177 29z"/>
<path d="M1019 1474 c-17 -21 0 -49 32 -49 27 0 37 28 19 50 -16 19 -34 19
-51 -1z"/>
<path d="M2050 1132 c-50 -25 -80 -75 -80 -132 0 -57 30 -107 80 -132 98 -50
210 21 210 132 0 81 -67 150 -145 150 -16 0 -46 -8 -65 -18z m114 -73 c20 -16
26 -29 26 -59 0 -30 -6 -43 -26 -59 -15 -12 -37 -21 -49 -21 -12 0 -34 9 -49
21 -20 16 -26 29 -26 59 0 30 6 43 26 59 15 12 37 21 49 21 12 0 34 -9 49 -21z"/>
<path d="M1450 1056 c-27 -33 18 -72 48 -42 13 13 14 20 6 34 -15 23 -38 26
-54 8z"/>
<path d="M435 1006 c-119 -54 -99 -228 30 -252 69 -13 155 59 155 130 0 89
-106 159 -185 122z m89 -77 c15 -12 26 -30 26 -44 0 -24 -42 -65 -67 -65 -8 0
-25 11 -39 25 -29 29 -26 58 8 88 26 22 40 22 72 -4z"/>
<path d="M972 983 c-105 -51 -123 -196 -36 -276 103 -96 274 -21 276 121 1
129 -127 211 -240 155z m139 -81 c54 -48 39 -130 -28 -158 -99 -42 -180 80
-104 157 40 39 89 40 132 1z"/>
<path d="M1891 756 c-9 -11 -10 -20 -1 -36 13 -24 38 -23 53 1 23 37 -25 68
-52 35z"/>
<path d="M542 658 c-30 -30 1 -73 36 -51 23 14 25 29 7 47 -20 19 -27 20 -43
4z"/>
</g>
</svg>
