<?xml version="1.0" encoding="utf-8"?>
<!-- Generator: Adobe Illustrator 16.0.0, SVG Export Plug-In . SVG Version: 6.00 Build 0)  -->
<!DOCTYPE svg PUBLIC "-//W3C//DTD SVG 1.1//EN" "http://www.w3.org/Graphics/SVG/1.1/DTD/svg11.dtd">
<svg version="1.1" id="Layer_1" xmlns="http://www.w3.org/2000/svg" xmlns:xlink="http://www.w3.org/1999/xlink" x="0px" y="0px"
	 width="211px" height="62.402px" viewBox="0 0 211 62.402" enable-background="new 0 0 211 62.402" xml:space="preserve">
<path fill="#FFFFFF" d="M49.669,5.756C44.185,2.552,37.73,0.34,31.159,0.74C22.63,1.259,14.051,5.607,8.633,12.012
	C1.736,20.17-0.783,33.846,3.396,43.775c2.04,4.844,5.867,9.49,10.139,12.729c2.476,1.446,5.687,3.445,8.524,4.182
	c3.515,0.911,8.489,1.06,12.327,0.692c11.568-1.109,22.209-9.295,26.427-19.134c2.411-5.622,3.239-12.958,1.801-18.81
	c-1.01-4.11-3.195-7.875-5.928-11.294C54.713,9.672,52.134,7.625,49.669,5.756z"/>
<path fill="#FFFFFF" d="M93.565,30.763c0.526-0.521-0.061-2.414-1.193-3.232c-1.038-0.751-3.331-0.331-3.93,1.053
	c-0.215,0.498,1.364,1.296,2.83,1.768C92.416,30.716,93.494,30.833,93.565,30.763z M94.902,33.079
	c-0.246,1.996-0.705,4.16-1.2,4.923c-0.224,0.347-0.257,0.343-0.439-0.025c-0.28-0.565,0.298-5.51,0.291-5.529
	c-0.436,0.013-1.485-0.053-2.536-0.467c-1.394-0.549-2.746-1.592-2.746-1.487c-0.002,0.532-0.201,2.065,0.008,3.613
	c0.229,1.686,0.788,3.422,0.905,4.146c0.116,0.717-0.712,0.586-0.826,0.454c-1.46-1.671-2.12-7.886-1.157-10.021
	c0.737-1.64,2.31-3.457,4.112-3.076c1.479,0.313,2.705,1.319,3.255,2.638C95.312,30.021,95.129,31.224,94.902,33.079z"/>
<path fill="#FFFFFF" d="M107.449,34.691c-0.114-1.017-0.266-1.928-0.752-2.576c-0.877-1.174-2.384-1.598-3.518-1.273
	c-1.525,0.438-2.342,1.976-2.601,3.199c-0.169,0.798,0.014,1.515-0.011,1.54c-0.058,0.068-1.155-3.082-0.735-3.095
	c0.905-0.028,2.801-2.074,3.644-3.61c1.245-2.269,3.592-10.344,0.093-11.402c-3.313-1.005-5.141,3.606-5.714,7.859
	c-0.126,0.937-0.147,1.857-0.125,2.698c0.055,2.096,0.217,3.354,0.831,5.392c0.173,0.486,0.363,0.992,0.545,1.487
	c0.506,1.371,1.563,2.771,2.52,3.547c1.385,1.124,3.286,1.171,4.394,0.316C107.111,37.93,107.635,36.313,107.449,34.691z
	 M99.26,31.175c-0.856-0.557-0.668-4.478-0.476-5.681c0.38-2.391,1.422-5.495,3.093-6.736c1.124-0.834,2,0.591,2.23,1.893
	C104.796,24.526,100.732,32.129,99.26,31.175z M103.708,38.009c-3.726-0.408-2.101-6.446,0.638-5.858
	c1.333,0.286,1.98,2.313,2.003,3.354C106.382,36.814,105.543,38.212,103.708,38.009z"/>
<path fill="#FFFFFF" d="M171.934,15.267c-0.391,0.256-0.207,1.219-0.059,2.438c0.157,1.304,0.684,4.935,0.548,9.645
	c-0.129,4.515-0.79,7.952-0.758,10.184c0.024,1.722,0.876,1.837,1.198,0.249c0.347-1.691,1.115-9.499,1.423-9.527
	c0.343-0.03,1.121,0.378,1.637,1.405c0.744,1.479,1.192,3.746,1.196,6.172c0.002,1.09,0,2.56,0.563,3.257
	c0.408,0.511,0.868-0.354,0.842-1.079c-0.029-0.768-0.308-0.442-0.346-1.479c-0.078-2.049,0.129-4.313-0.189-6.319
	c-0.273-1.728-1.002-3.457-2.615-4.025c-0.077-0.027,1.496-1.183,2.732-3.601c0.881-1.722,1.508-3.183,1.604-5.682
	c0.063-1.674-0.394-3.927-1.233-3.83c-0.365,0.042,0.153,1.677,0.059,3.778c-0.04,0.879-0.239,2.378-0.896,3.976
	c-1.09,2.647-2.341,4.677-3.382,4.548c-0.399-0.049-0.498-1.809-0.505-2.228c-0.014-0.854-0.066-0.929-0.091-1.838
	c-0.05-1.822-0.38-3.717-0.627-4.458C172.654,15.718,172.298,15.024,171.934,15.267z"/>
<path fill="#FFFFFF" d="M73.832,38.065c-0.508-0.063-1.125-2.913-3.033-2.423c-0.956,0.247-0.209,3.631,2.717,3.594
	c2.164-0.028,2.58-1.491,2.837-2.907c0.31-1.7,0.268-3.999,0.273-4.835c0.016-2.582-0.467-5.599-0.088-8.223
	c0.531-3.68,1.46-6.199,1.883-7.199c0.439-1.038,1.643-3.33,3.077-2.692c0.607,0.271,0.97,0.857,1.35,1.5
	c0.881,1.492,1.08,4.474,0.97,6.169c-0.198,3.001-1.697,10.872-0.764,15.079c0.232,1.046,0.793,1.938,1.763,2.004
	c0.298,0.022-0.439-0.429-0.604-0.951c-0.562-1.791-0.494-3.299-0.467-5.092c0.06-4.104,1.396-8.495,1.685-13.048
	c0.178-2.815-0.754-5.75-3.551-6.592c-1.574-0.474-3.043,0.237-4.5,1.783c-1.21,1.284-2.082,3.629-2.429,4.532
	c-1.355,3.528-0.043,13.207-0.038,15.774C74.916,36.323,74.883,38.196,73.832,38.065z"/>
<path fill="#FFFFFF" d="M111.584,30.931c0.234-1.281,0.021-6.672-0.622-6.854c-0.903-0.259-0.901,1.303-0.661,3.088
	c0.201,1.497,0.242,4.543,0.065,6.875c-0.041,0.554-0.324,5.6,0.72,4.254c0.286-0.367,0.467-3.449,0.455-4.215
	c-0.012-0.784,0.04-1.314,1.189-1.185c2.158,0.24,1.637,5.94,2.039,6.271c0.543,0.447,0.773-1.761,0.771-3.147
	c-0.004-1.843-0.577-2.749-1.689-4.228c0.418-0.455,2.058-2.226,2.854-4.584c0.354-1.051,1.249-4.804-0.07-5.337
	c-0.693-0.282-0.566,2.288-0.855,3.502c-0.438,1.848-1.18,3.692-2.396,5.115c-0.396,0.463-0.854,0.869-1.253,0.96
	C111.669,31.55,111.514,31.319,111.584,30.931z"/>
<path fill="#FFFFFF" d="M127.881,31.035c-0.016,0.096-0.008,0.122,0.113,0.137c0.264,0.029,0.584-0.364,0.949-0.669
	c1.246-1.036,0.882,0.168,0.381,0.848c-0.374,0.507-0.979,0.668-1.453,1.188c-0.238,0.26-0.669,3.174-0.746,3.615
	c-0.031,0.185-0.289,1.3-0.553,1.934c-0.219,0.529-0.564,0.931-0.668-0.038c-0.082-0.76-0.032-2.424,0.512-5.035
	c0.016-0.07-0.689,0.215-1.452,0.229c-0.969,0.021-1.854-0.271-2.11-0.368c-1.151-0.441-2.135-1.126-2.451-2.265
	c-0.508-1.822-0.506,1.95-0.506,2.133c0,1.519,0.563,3.217,1.063,4.364c0.274,0.631,0.656,1.064,0.511,1.31
	c-0.656,1.087-1.484-0.521-1.892-1.205c-1.31-2.191-1.304-7.224-0.242-9.052c0.662-1.141,1.7-2.26,2.927-2.754
	C125.654,24.033,127.65,28.173,127.881,31.035z M126.346,31.64c0.164-1.271-0.662-4.085-2.316-4.65
	c-1.125-0.384-3.762,0.481-2.75,2.446c0.398,0.775,1.098,1.591,1.994,1.959C124.578,31.931,126.314,31.883,126.346,31.64z"/>
<path fill="#FFFFFF" d="M209.458,30.763c0.524-0.521-0.062-2.414-1.194-3.232c-1.037-0.751-3.33-0.331-3.931,1.053
	c-0.215,0.498,1.364,1.296,2.83,1.768C208.309,30.716,209.387,30.833,209.458,30.763z M210.792,33.079
	c-0.245,1.996-0.703,4.16-1.199,4.923c-0.223,0.347-0.256,0.343-0.438-0.025c-0.277-0.565,0.301-5.51,0.291-5.529
	c-0.434,0.013-1.483-0.053-2.534-0.467c-1.396-0.549-2.747-1.592-2.747-1.487c-0.001,0.532-0.2,2.065,0.01,3.613
	c0.229,1.686,0.787,3.422,0.905,4.146c0.114,0.717-0.712,0.586-0.827,0.454c-1.46-1.671-2.118-7.886-1.154-10.021
	c0.735-1.64,2.312-3.457,4.111-3.076c1.479,0.313,2.703,1.319,3.254,2.638C211.204,30.021,211.021,31.224,210.792,33.079z"/>
<path fill="#FFFFFF" d="M167.83,36.957c-1.443,1.498-3.541,1.702-3.813,1.644c-0.021-0.006-0.029,0.002-0.031-0.008
	c-0.022-0.11-0.057-0.254-0.082-0.364c-0.006-0.027-0.012-0.06-0.018-0.079l-0.113-0.469l-0.021-0.083
	c-0.008-0.029,0.023-0.023,0.072-0.021c0.293,0.013,1.352-0.281,2.158-0.778c0.816-0.5,1.584-1.805,1.888-2.688
	c0.532-1.55,0.386-3.186-0.152-4.369c-0.669-1.473-1.937-2.257-3.237-1.34c-0.842,0.593-1.514,1.826-1.576,3.526
	c-0.021,0.644-0.019,1.407,0.087,2.178c0.147,1.09,0.434,2.202,0.647,3.048c0.053,0.199,0.655,2.45,1.063,5.41
	c0.063,0.463,0.273,6.523-0.396,8.719c-0.291,0.949-0.563,0.78-0.72,0.729c-0.226-0.073-0.271-0.419-0.228-1.234
	c0.016-0.308,0.031-0.665,0.047-1.063c0.084-2.125,0.133-5.417-0.191-8.062c-0.429-3.48-1.283-6.014-1.556-8.402
	c-0.229-2.017,0.063-4.135,0.255-4.563c0.736-1.639,1.927-2.685,3.729-2.304c1.479,0.313,2.705,1.322,3.256,2.64
	C169.889,31.389,169.654,35.067,167.83,36.957z"/>
<path fill="#FFFFFF" d="M151.518,37.361c1.459,0.714,2.563-0.193,2.92-1.288c0.271-0.825,0.045-2.756-0.676-3.371
	C151.977,31.177,148.658,35.965,151.518,37.361z M149.257,34.348c0.034-0.02,0.099-0.744,0.521-1.435
	c0.646-1.055,1.914-2.215,3.479-2.107c1.164,0.076,2.43,0.977,2.86,2.364c0.237,0.769,0.077,1.667-0.15,2.65
	c-0.36,1.573-1.383,2.903-2.68,3.325c-1.313,0.424-3.069-0.255-3.988-1.77c-0.636-1.042-1.157-2.699-1.178-4.146
	c-0.011-0.521-0.019-1.061-0.019-1.569c0.088-1.896,0.168-3.659,1.198-5.33c0.652-1.059,1.199-0.771,0.785,0.344
	c-0.503,1.357-0.55,2.03-0.793,3.943C149.033,32.645,149.146,34.374,149.257,34.348z"/>
<path fill="#FFFFFF" d="M158.557,32.23c-0.089,2.645-0.668,5.452-1.041,6.483c-0.168,0.47-0.197,0.47-0.373-0.006
	c-0.174-0.463,0.166-3.229,0.196-5.223c0.042-2.44-0.452-4.308-0.472-6.531c-0.006-0.813,0.248-1.315,0.548-1.282
	c0.269,0.032,0.419,0.529,0.556,1.156C158.357,28.606,158.626,30.172,158.557,32.23z"/>
<path fill="#FFFFFF" d="M142.214,38.158c1.156,0.333,1.651,0.256,2.115-0.459c1.218-1.875,2.157-0.815,1.579,0.449
	c-0.387,0.846-0.756,1.174-1.498,1.566c-1.309,0.693-3.291,0.305-4.541-1.124c-1.533-1.75-1.932-3.631-2.313-5.819
	c-0.281-2.241-0.229-3.587,0.086-5.792c0.125-0.884,0.313-1.848,0.609-2.804c1.354-4.347,4.084-8.844,7.374-7.195
	c1.797,1.135,0.547,3.85-0.188,2.148c-0.381-0.881-0.887-1.577-1.811-1.107c-1.609,0.814-2.521,2.986-3.422,5.093
	c-1.081,2.518-1.188,7.418-0.688,9.977C139.975,35.441,140.939,37.792,142.214,38.158z"/>
<path fill="#FFFFFF" d="M187.277,36.957c-1.443,1.498-3.519,1.769-3.787,1.708c-0.021-0.006-0.032,0.001-0.032-0.008
	c-0.112-0.533-0.251-0.638,0.071-1.082c0.016-0.02,0.035-0.037,0.056-0.062c0.003-0.005,0.011-0.017,0.011-0.021
	s0.002-0.007,0.002-0.009c-0.002-0.003-0.006-0.005-0.002-0.005c0.26-0.107,0.901-0.144,1.84-0.685
	c0.83-0.476,1.582-1.805,1.887-2.688c0.535-1.55,0.388-3.186-0.152-4.369c-0.667-1.473-1.936-2.257-3.234-1.34
	c-0.844,0.593-1.518,1.826-1.576,3.526c-0.023,0.644-0.058,1.412,0.084,2.178l0.24,1.315c0.227,0.878,0.213,1.433,0.908,2.051
	c0.002,0.004,0.006,0.005,0.006,0.007c0.008,0.013-0.007,0.027-0.022,0.055c-0.013,0.014-0.026,0.021-0.04,0.04
	c-0.018,0.021-0.039,0.055-0.061,0.087c-0.054,0.07-0.082,0.131-0.105,0.195c-0.016,0.046-0.032,0.093-0.036,0.152
	c-0.005,0.064,0,0.123,0.015,0.188c0.008,0.038,0.014,0.077,0.023,0.115c0,0.002,0.005,0.002,0.005,0.002
	c0.021,0.1,0.071,0.271,0.086,0.343c0.002,0.009-1.149,0.036-1.546-1.194c-0.48-1.498-0.656-2.896-0.807-4.213
	c-0.229-2.018,0.063-4.136,0.256-4.563c0.736-1.639,1.926-2.685,3.729-2.304c1.479,0.313,2.705,1.322,3.256,2.64
	C189.338,31.389,189.104,35.067,187.277,36.957z"/>
<path fill="#FFFFFF" d="M200.748,34.691c-0.115-1.017-0.266-1.928-0.752-2.577c-0.878-1.173-2.385-1.597-3.518-1.272
	c-1.527,0.438-2.342,1.976-2.604,3.199c-0.169,0.798,0.019,1.515-0.009,1.54c-0.061,0.067-1.155-3.082-0.736-3.095
	c0.905-0.028,2.803-2.074,3.645-3.611c1.244-2.268,3.593-10.343,0.093-11.401c-3.313-1.005-5.14,3.606-5.714,7.859
	c-0.125,0.937-0.146,1.857-0.125,2.698c0.057,2.096,0.219,3.354,0.832,5.391c0.174,0.487,0.361,0.993,0.545,1.488
	c0.507,1.371,1.562,2.771,2.519,3.547c1.388,1.123,3.286,1.17,4.394,0.316C200.41,37.929,200.934,36.313,200.748,34.691z
	 M192.559,31.175c-0.855-0.557-0.668-4.478-0.478-5.681c0.38-2.391,1.423-5.494,3.094-6.735c1.124-0.834,2.001,0.591,2.231,1.893
	C198.096,24.526,194.029,32.129,192.559,31.175z M197.012,38.021c-3.727-0.41-2.102-6.449,0.639-5.861
	c1.332,0.287,1.979,2.314,2.002,3.354C199.686,36.826,198.848,38.223,197.012,38.021z"/>
<g>
	<path d="M44.522,37.89l-1.205-2.356l-0.184-0.36l-0.192,0.356c-0.088,0.164-0.207,0.293-0.338,0.37
		c-0.117,0.068-0.242,0.097-0.363,0.072l0,0l-0.004-0.002c-0.153-0.032-0.278-0.17-0.355-0.35c-0.088-0.2-0.118-0.443-0.073-0.662h0
		l0.001-0.011c0.049-0.223,0.124-0.37,0.218-0.475c0.092-0.1,0.209-0.163,0.341-0.211l0.154-0.057l-0.015-0.163
		c-0.095-1.002-0.383-1.359-0.76-1.831c-0.194-0.242-0.414-0.516-0.638-0.936l-0.091-0.172l-0.179,0.075
		c-0.279,0.117-0.607,0.062-0.915-0.113c-0.339-0.193-0.649-0.528-0.85-0.943c-0.196-0.404-0.26-0.818-0.209-1.177
		c0.05-0.349,0.208-0.641,0.458-0.813l0.114-0.078l-0.025-0.135l-0.032-0.173c-0.132-0.728-0.194-1.066-0.349-1.37
		c-0.135-0.267-0.326-0.473-0.682-0.86c-0.104-0.113-0.225-0.244-0.374-0.411l-0.168-0.187l-0.156,0.197
		c-0.063,0.079-0.136,0.147-0.217,0.201h0.001c-0.077,0.05-0.16,0.088-0.25,0.112l0,0l-0.008,0.002l0,0
		c-0.281,0.068-0.577-0.024-0.83-0.228c-0.268-0.216-0.487-0.558-0.594-0.973l-0.006-0.022h0c-0.097-0.4-0.072-0.792,0.046-1.109
		c0.115-0.302,0.315-0.536,0.574-0.634l0.221-0.085l-0.108-0.21l-2.44-4.774l-0.089-0.174l-0.181,0.075
		c-0.31,0.127-0.682,0.109-1.049-0.034c-0.375-0.146-0.741-0.422-1.031-0.808c-0.105-0.141-0.194-0.289-0.268-0.44
		c-0.074-0.154-0.131-0.312-0.17-0.468l-0.041-0.162l-0.168,0.001c-0.551,0.006-1.098-0.036-1.644-0.078
		c-1.109-0.085-2.219-0.17-3.505,0.128l-0.099,0.022l-0.044,0.089c-0.885,1.752-1.012,2.707-1.222,4.298
		c-0.042,0.318-0.088,0.665-0.152,1.098l-0.026,0.185l0.18,0.051c0.202,0.056,0.395,0.189,0.556,0.38
		c0.162,0.192,0.291,0.439,0.36,0.724c0.095,0.389,0.064,0.767-0.063,1.065c-0.117,0.279-0.32,0.483-0.577,0.549
		c-0.132,0.034-0.266,0.029-0.396-0.008c-0.14-0.041-0.278-0.121-0.404-0.232l-0.239-0.211l-0.103,0.304
		c-0.48,1.425-0.836,2.547-1.13,3.685c-0.296,1.139-0.528,2.292-0.765,3.782l-0.028,0.179l0.172,0.057
		c0.02,0.007,0.041,0.015,0.063,0.025v-0.002c0.018,0.008,0.038,0.018,0.058,0.029l0.008,0.004l0,0.001
		c0.228,0.128,0.367,0.37,0.408,0.662c0.044,0.312-0.023,0.677-0.21,1.021l-0.011,0.019c-0.126,0.226-0.289,0.412-0.47,0.552
		c-0.181,0.141-0.379,0.232-0.573,0.266l-0.137,0.023l-0.034,0.137l-0.687,2.705l-0.074,0.288l0.297-0.023
		c0.197-0.019,0.393-0.002,0.57,0.047c0.166,0.047,0.315,0.121,0.437,0.225c0.057,0.048,0.103,0.101,0.142,0.156
		c0.084,0.126,0.118,0.266,0.104,0.405c-0.015,0.146-0.081,0.294-0.198,0.43c-0.065,0.076-0.146,0.15-0.245,0.215
		c-0.188,0.127-0.406,0.209-0.629,0.248c-0.234,0.041-0.472,0.034-0.687-0.021l-0.206-0.052l-0.052,0.207l-1.016,3.999l-0.037,0.15
		l0.132,0.081c0.258,0.162,0.52,0.314,0.786,0.454c3.619,1.919,8.655,2.409,13.324,1.555c4.678-0.855,9-3.063,11.181-6.543
		c0.131-0.21,0.252-0.42,0.363-0.63l0.052-0.096L44.522,37.89z M29.716,24.787c-0.094,0.215-0.252,0.374-0.455,0.424
		c-0.202,0.052-0.417-0.014-0.601-0.16c-0.199-0.158-0.36-0.408-0.437-0.71l0-0.004c-0.077-0.307-0.053-0.604,0.048-0.837
		c0.093-0.213,0.25-0.371,0.451-0.423l0.005-0.001c0.202-0.051,0.416,0.015,0.6,0.161c0.2,0.158,0.362,0.409,0.438,0.713
		C29.842,24.256,29.817,24.553,29.716,24.787z M28.592,34.422c0.388,0.271,0.711,0.714,0.876,1.262
		c0.165,0.55,0.14,1.097-0.036,1.537c-0.167,0.424-0.476,0.747-0.881,0.869c-0.406,0.121-0.841,0.021-1.216-0.238
		c-0.388-0.271-0.711-0.714-0.875-1.263c-0.166-0.548-0.141-1.096,0.035-1.535c0.168-0.424,0.476-0.748,0.881-0.87
		C27.784,34.061,28.218,34.161,28.592,34.422z M26.603,41.167c0.052,0.178,0.095,0.349,0.129,0.481l0,0l0.023,0.092h0
		c0.024,0.094,0.044,0.166,0.064,0.236c0.094,0.336,0.172,0.614,0.051,0.751c-0.105,0.12-0.238,0.188-0.387,0.214
		c-0.188,0.031-0.4-0.002-0.616-0.084c-0.227-0.086-0.452-0.226-0.65-0.399c-0.328-0.287-0.581-0.665-0.647-1.061
		c-0.076-0.445-0.044-0.876,0.079-1.212c0.109-0.296,0.286-0.511,0.516-0.577C25.957,39.372,26.382,40.422,26.603,41.167z
		 M24.272,28.476c0.253-0.062,0.521,0.021,0.749,0.206c0.246,0.198,0.445,0.51,0.542,0.889h0l0.006,0.02l0,0
		c0.095,0.388,0.063,0.766-0.063,1.063c-0.119,0.28-0.32,0.484-0.579,0.549v0.001l-0.008,0.002v0.001
		c-0.253,0.062-0.521-0.022-0.749-0.206c-0.246-0.198-0.445-0.511-0.542-0.889l-0.005-0.021l0,0
		c-0.094-0.388-0.064-0.767,0.063-1.063c0.119-0.279,0.32-0.484,0.578-0.549L24.272,28.476L24.272,28.476L24.272,28.476z
		 M36.157,33.701c0.205-0.043,0.421,0.036,0.613,0.205c0.213,0.188,0.393,0.479,0.499,0.84c0.018,0.058,0.033,0.117,0.046,0.182
		c0.091,0.43,0.062,0.852-0.061,1.182c-0.112,0.306-0.3,0.529-0.538,0.599c-0.013,0.005-0.027,0.008-0.043,0.011
		c-0.205,0.043-0.422-0.035-0.613-0.204c-0.213-0.188-0.393-0.479-0.499-0.84c-0.017-0.058-0.033-0.118-0.046-0.182
		c-0.091-0.43-0.062-0.852,0.061-1.183c0.112-0.305,0.3-0.528,0.537-0.598C36.126,33.708,36.141,33.704,36.157,33.701z
		 M33.572,26.362c0.141-0.098,0.332-0.106,0.54-0.038c0.238,0.078,0.491,0.252,0.717,0.506c0.063,0.07,0.124,0.146,0.184,0.232
		c0.254,0.361,0.402,0.758,0.435,1.109c0.031,0.321-0.035,0.594-0.203,0.744c-0.012,0.012-0.025,0.022-0.041,0.033
		c-0.14,0.099-0.332,0.107-0.54,0.039c-0.237-0.078-0.49-0.251-0.718-0.505c-0.062-0.07-0.123-0.148-0.184-0.233
		c-0.255-0.361-0.402-0.758-0.435-1.108c-0.031-0.322,0.035-0.594,0.202-0.744C33.542,26.384,33.555,26.373,33.572,26.362z
		 M32.464,31.729c0.215,0.26,0.348,0.622,0.348,1.025c0,0.402-0.132,0.764-0.347,1.023h-0.001c-0.205,0.248-0.485,0.401-0.792,0.401
		c-0.308,0-0.588-0.153-0.793-0.401h-0.001c-0.214-0.26-0.347-0.621-0.347-1.023c0-0.401,0.133-0.763,0.348-1.023v-0.002
		c0.204-0.248,0.485-0.401,0.793-0.401C31.979,31.328,32.26,31.482,32.464,31.729z"/>
	<path d="M49.947,18.457c-3.204-4.845-8.228-8.416-14.309-9.563C29.557,7.745,23.568,9.238,18.8,12.579s-8.313,8.532-9.506,14.78
		l0,0.001c-1.193,6.249,0.193,12.372,3.398,17.218c3.204,4.845,8.226,8.416,14.307,9.563L27,54.142
		c6.082,1.148,12.072-0.345,16.838-3.687c4.769-3.342,8.314-8.532,9.507-14.781S53.152,23.304,49.947,18.457z M35.689,8.625
		c6.158,1.162,11.244,4.777,14.487,9.682c3.242,4.905,4.646,11.098,3.439,17.417c-1.207,6.321-4.794,11.574-9.619,14.955
		c-4.822,3.38-10.88,4.891-17.032,3.733l0,0l-0.015-0.002c-6.158-1.163-11.243-4.778-14.486-9.683
		c-3.241-4.9-4.644-11.088-3.442-17.403v-0.001l0.003-0.013c1.207-6.322,4.793-11.574,9.618-14.955
		C23.468,8.974,29.532,7.463,35.689,8.625z"/>
	<path fill="#E49846" d="M28.209,55.734c0.174,0.107-0.297,0.216-0.651,0.084c-0.345-0.129-0.924-0.618-1.097-0.808
		c-1.195-1.309-3.234-4.975-5.474-4.209c-0.329,0.172-0.428,0.633-0.173,1.175c0.018,0.037-0.313-0.146-0.363-0.222
		c0.044,0.122-0.331-0.854,0.363-1.217c2.216-1.216,4.833,3.122,6.081,4.271c0.355,0.328,0.656,0.59,0.992,0.632L28.209,55.734z"/>
	<path fill="#FFFFFF" d="M32.494,51.955c-0.528-0.358-1.194-0.567-2.103-0.484c-0.918,0.086-1.736,0.406-2.314,0.86
		c-0.564,0.441-0.899,1.005-0.872,1.587c0.003,0.078,0.011,0.157,0.021,0.235c0.064,0.483,0.263,0.919,0.674,1.222
		c0.42,0.31,1.066,0.485,2.019,0.439c0.208-0.01,0.427-0.03,0.662-0.062c1.202-0.16,2.139-0.482,2.726-0.885
		c0.244-0.167,0.424-0.346,0.537-0.533c0.105-0.175,0.149-0.357,0.124-0.539c-0.017-0.138-0.074-0.278-0.17-0.418
		C33.427,52.843,33.028,52.318,32.494,51.955z M30.368,51.197c0.98-0.09,1.702,0.139,2.278,0.53c0.57,0.389,0.989,0.935,1.373,1.492
		c0.121,0.179,0.192,0.357,0.215,0.537c0.034,0.247-0.022,0.49-0.162,0.721c-0.132,0.22-0.339,0.428-0.615,0.617
		c-0.621,0.426-1.599,0.764-2.845,0.93c-0.243,0.033-0.47,0.054-0.683,0.063c-1.021,0.05-1.722-0.146-2.191-0.491
		c-0.478-0.353-0.708-0.854-0.783-1.405c-0.01-0.086-0.018-0.172-0.023-0.26c-0.031-0.677,0.344-1.321,0.978-1.816
		C28.529,51.63,29.397,51.286,30.368,51.197z"/>
	<path fill="#AD0637" d="M30.383,51.381c1.851-0.169,2.722,0.852,3.458,1.925c0.735,1.071-0.634,2.188-3.245,2.538
		c-2.61,0.35-3.398-0.693-3.457-1.926C27.08,52.686,28.533,51.549,30.383,51.381z"/>
	<path fill="#FFFFFF" d="M38.055,51.757c-0.91-0.149-2.048-0.036-3.045,0.267c-0.075,0.021-0.148,0.046-0.221,0.073
		c-0.826,0.305-1.482,0.869-1.888,1.503c-0.4,0.626-0.555,1.315-0.384,1.881c0.01,0.036,0.02,0.063,0.028,0.086
		c0.008,0.021,0.016,0.042,0.024,0.062l0,0c0.227,0.54,0.748,0.898,1.422,1.049c0.692,0.153,1.542,0.087,2.402-0.231
		c0.077-0.027,0.15-0.057,0.223-0.087c0.959-0.401,1.858-1.062,2.431-1.775c0.508-0.634,0.758-1.304,0.552-1.859
		C39.401,52.187,38.811,51.881,38.055,51.757z M34.931,51.759c1.035-0.312,2.218-0.43,3.166-0.273
		c0.85,0.141,1.52,0.502,1.756,1.144c0.243,0.657-0.029,1.421-0.595,2.127c-0.601,0.748-1.539,1.438-2.54,1.855
		c-0.08,0.035-0.157,0.066-0.232,0.092c-0.909,0.336-1.813,0.405-2.554,0.24c-0.759-0.169-1.351-0.584-1.613-1.209v-0.001
		c-0.011-0.025-0.021-0.049-0.029-0.073c-0.014-0.038-0.025-0.073-0.034-0.1v-0.001c-0.195-0.646-0.026-1.418,0.415-2.108
		c0.437-0.681,1.14-1.286,2.024-1.614C34.772,51.809,34.851,51.783,34.931,51.759z"/>
	<path fill="#AD0637" d="M34.992,51.937c1.855-0.561,4.201-0.475,4.661,0.769c0.458,1.243-1.158,2.962-2.999,3.734
		c-1.84,0.772-3.706,0.389-4.164-0.854C32.031,54.344,33.138,52.497,34.992,51.937z"/>
	<path fill="#A74C15" d="M29,21.658c-1.315,3.583,1.062,3.071,1.468,3.69c1.022,1.557,0.076,3.529-3.088,0.566
		c-0.514-0.48-0.397-1.444-0.542-1.528c-0.388-0.222,0.39-1.626,0.703-2.039C27.826,21.975,29.132,21.3,29,21.658z"/>
	<path d="M29.852,25.061c-0.799-0.292-1.902-0.698-0.902-3.422c0.005-0.015,0.007-0.024,0.005-0.027l0,0
		c-0.002-0.005-0.025-0.004-0.061,0c-0.056,0.007-0.133,0.031-0.221,0.065c-0.369,0.145-0.92,0.48-1.089,0.704
		c-0.077,0.101-0.183,0.264-0.293,0.455c-0.161,0.28-0.33,0.62-0.426,0.913c-0.09,0.274-0.119,0.502-0.015,0.583
		c0.005,0.004,0.009,0.006,0.014,0.009v0.001c0.075,0.042,0.095,0.192,0.122,0.396c0.045,0.339,0.111,0.84,0.43,1.139
		c1.138,1.063,1.982,1.485,2.546,1.516c0.235,0.013,0.42-0.043,0.555-0.149c0.135-0.104,0.222-0.26,0.262-0.446
		c0.087-0.396-0.035-0.927-0.358-1.419C30.33,25.237,30.108,25.155,29.852,25.061z M29.052,21.677
		c-0.962,2.622,0.083,3.005,0.838,3.282c0.272,0.1,0.512,0.188,0.625,0.36c0.338,0.516,0.465,1.079,0.373,1.5
		c-0.046,0.212-0.146,0.389-0.302,0.51c-0.156,0.122-0.365,0.186-0.628,0.172c-0.588-0.032-1.456-0.461-2.615-1.546
		c-0.347-0.325-0.417-0.849-0.463-1.202c-0.023-0.174-0.041-0.302-0.068-0.318l0,0c-0.008-0.004-0.016-0.01-0.025-0.017
		c-0.15-0.114-0.128-0.386-0.023-0.705c0.099-0.299,0.271-0.646,0.435-0.931c0.112-0.195,0.22-0.362,0.3-0.467
		c0.181-0.237,0.754-0.59,1.137-0.74c0.096-0.037,0.181-0.063,0.246-0.071c0.086-0.011,0.147,0.006,0.173,0.059v0
		C29.068,21.594,29.069,21.631,29.052,21.677z"/>
	<path fill="#A74C15" d="M31.836,30.511c-1.314,3.582,1.062,3.071,1.467,3.69c1.023,1.557,0.077,3.528-3.088,0.567
		c-0.514-0.481-0.396-1.444-0.541-1.527c-0.388-0.224,0.389-1.628,0.702-2.04C30.661,30.828,31.967,30.153,31.836,30.511z"/>
	<path d="M32.688,33.914c-0.798-0.292-1.903-0.697-0.902-3.421c0.005-0.016,0.006-0.024,0.005-0.027
		c-0.002-0.005-0.025-0.004-0.062,0.001c-0.056,0.007-0.132,0.03-0.22,0.064c-0.369,0.145-0.92,0.482-1.089,0.705
		c-0.077,0.101-0.183,0.264-0.292,0.455c-0.161,0.28-0.33,0.62-0.425,0.912c-0.091,0.275-0.12,0.503-0.016,0.583h0.001
		c0.004,0.004,0.008,0.006,0.013,0.009v0.002c0.075,0.041,0.095,0.191,0.122,0.396c0.045,0.339,0.112,0.84,0.43,1.139
		c1.137,1.064,1.982,1.485,2.545,1.516c0.236,0.014,0.421-0.043,0.556-0.148c0.135-0.104,0.222-0.26,0.263-0.445
		c0.086-0.397-0.036-0.928-0.358-1.419C33.165,34.09,32.942,34.008,32.688,33.914z M31.888,30.531
		c-0.963,2.622,0.082,3.003,0.837,3.282c0.272,0.1,0.511,0.188,0.625,0.359c0.338,0.516,0.465,1.078,0.373,1.501
		c-0.045,0.212-0.146,0.389-0.302,0.51c-0.156,0.122-0.365,0.186-0.628,0.172c-0.587-0.032-1.457-0.462-2.615-1.547
		c-0.347-0.323-0.416-0.85-0.463-1.202c-0.023-0.173-0.041-0.301-0.069-0.316l0,0c-0.008-0.004-0.017-0.011-0.024-0.019
		c-0.15-0.113-0.128-0.386-0.023-0.703c0.098-0.299,0.271-0.646,0.435-0.932c0.112-0.196,0.221-0.361,0.299-0.466
		c0.181-0.238,0.754-0.591,1.137-0.741c0.096-0.036,0.181-0.062,0.246-0.07c0.086-0.012,0.147,0.005,0.174,0.058l0,0
		C31.903,30.447,31.904,30.485,31.888,30.531z"/>
	<path d="M49.669,5.756C44.185,2.552,37.73,0.34,31.159,0.74C22.63,1.259,14.051,5.607,8.633,12.012
		C1.736,20.17-0.783,33.846,3.396,43.775c2.04,4.844,5.867,9.49,10.139,12.729c2.476,1.446,5.687,3.445,8.524,4.182
		c3.515,0.911,8.489,1.06,12.327,0.692c11.568-1.109,22.209-9.295,26.427-19.134c2.411-5.622,3.239-12.958,1.801-18.81
		c-1.01-4.11-3.195-7.875-5.928-11.294C54.713,9.672,52.134,7.625,49.669,5.756z M28.908,0.031
		c10.65-1.02,20.564,3.21,27.076,10.532l0.043,0.048l0.105,0.12c4.185,4.722,6.957,10.725,7.6,17.434
		c1.643,17.147-11.235,32.408-28.765,34.086c-10.65,1.021-20.564-3.21-27.076-10.532l-0.042-0.048
		c-0.035-0.039-0.069-0.079-0.105-0.117c-1.999-2.257-3.676-4.805-4.952-7.582c-1.396-3.037-2.312-6.349-2.647-9.854
		C-1.004,22.129,4.781,10.555,14.622,4.915C18.899,2.463,23.636,0.535,28.908,0.031z"/>
	<path fill="#A74C15" d="M25.948,38.626c-0.418,0.627-1.529,3.573,1.915,4.632c0.609,0.188,0.09,0.625-0.565,0.767
		c-1.331,0.29-1.89,0.263-2.99-0.72c-0.922-0.822-0.851-1.86-0.817-2.989C23.513,39.514,25.098,37.849,25.948,38.626z"/>
	<path d="M25.556,39.376c0.1-0.321,0.225-0.583,0.321-0.739c-0.128-0.104-0.273-0.152-0.425-0.158
		c-0.216-0.006-0.451,0.074-0.678,0.208c-0.23,0.136-0.454,0.326-0.646,0.536c-0.337,0.369-0.576,0.797-0.585,1.095l-0.004,0.133
		c-0.032,1.063-0.063,2.04,0.804,2.814c0.543,0.484,0.951,0.732,1.384,0.824c0.434,0.091,0.9,0.026,1.559-0.117
		c0.288-0.063,0.547-0.183,0.689-0.311c0.05-0.047,0.085-0.092,0.098-0.134c0.012-0.036,0.006-0.068-0.017-0.099
		c-0.032-0.044-0.1-0.085-0.209-0.118c-0.492-0.152-0.894-0.341-1.218-0.559c-0.719-0.479-1.06-1.09-1.184-1.697
		C25.32,40.448,25.411,39.846,25.556,39.376z M25.994,38.657c-0.096,0.143-0.229,0.41-0.334,0.752
		c-0.14,0.456-0.228,1.038-0.108,1.624c0.119,0.58,0.447,1.166,1.138,1.627c0.316,0.212,0.708,0.397,1.19,0.545
		c0.132,0.04,0.218,0.095,0.265,0.156l0,0c0.047,0.062,0.056,0.129,0.033,0.198c-0.019,0.062-0.064,0.122-0.128,0.182
		c-0.156,0.14-0.435,0.271-0.739,0.338c-0.673,0.146-1.152,0.212-1.604,0.115c-0.455-0.096-0.876-0.352-1.435-0.849
		c-0.905-0.808-0.874-1.809-0.839-2.898l0.004-0.133c0.01-0.323,0.259-0.778,0.613-1.166c0.199-0.218,0.431-0.415,0.671-0.556
		c0.244-0.144,0.497-0.229,0.736-0.223c0.191,0.005,0.373,0.071,0.53,0.215l0.035,0.032L25.994,38.657z"/>
	<path fill="#A74C15" d="M32.861,25.2c0.687,0.314,3.182,2.232,0.814,4.946c-0.42,0.48,0.253,0.578,0.884,0.354
		c1.284-0.456,1.745-0.773,2.162-2.188c0.351-1.185-0.256-2.03-0.88-2.97C35.399,24.673,33.176,24.093,32.861,25.2z"/>
	<path d="M33.519,25.715c-0.268-0.235-0.522-0.393-0.68-0.465l-0.043-0.019l0.014-0.045c0.058-0.206,0.176-0.356,0.337-0.462
		c0.199-0.131,0.46-0.191,0.743-0.199c0.279-0.006,0.58,0.04,0.863,0.12c0.503,0.142,0.956,0.398,1.135,0.667l0.074,0.11
		c0.603,0.909,1.157,1.743,0.814,2.906c-0.212,0.717-0.436,1.157-0.771,1.477c-0.335,0.32-0.776,0.517-1.426,0.748
		c-0.294,0.104-0.6,0.14-0.806,0.102c-0.085-0.016-0.156-0.044-0.204-0.086c-0.056-0.048-0.084-0.11-0.076-0.187
		c0.007-0.077,0.052-0.167,0.144-0.271c0.331-0.38,0.566-0.745,0.724-1.09c0.344-0.756,0.313-1.426,0.108-1.983
		C34.26,26.477,33.877,26.028,33.519,25.715z M32.928,25.173c0.166,0.082,0.408,0.238,0.663,0.459
		c0.37,0.324,0.765,0.789,0.979,1.367c0.214,0.582,0.247,1.28-0.112,2.066c-0.162,0.354-0.401,0.728-0.741,1.117
		c-0.075,0.086-0.111,0.156-0.117,0.21c-0.003,0.039,0.011,0.07,0.039,0.094c0.034,0.028,0.086,0.049,0.154,0.062
		c0.188,0.034,0.472,0,0.75-0.099c0.634-0.225,1.066-0.415,1.386-0.722c0.321-0.306,0.537-0.731,0.741-1.429
		c0.33-1.114-0.211-1.929-0.799-2.815l-0.074-0.111c-0.165-0.248-0.592-0.486-1.074-0.622c-0.273-0.078-0.564-0.122-0.831-0.116
		c-0.264,0.006-0.504,0.061-0.685,0.18C33.079,24.899,32.982,25.016,32.928,25.173z"/>
	<path fill="#A74C15" d="M35.825,32.575c0.538,0.529,2.221,3.189-0.936,4.924c-0.56,0.307,0.039,0.63,0.709,0.636
		c1.361,0.016,1.903-0.124,2.783-1.311c0.735-0.991,0.457-1.994,0.195-3.092C38.389,32.953,36.501,31.642,35.825,32.575z"/>
	<path d="M36.266,33.284c-0.172-0.313-0.356-0.549-0.479-0.67l-0.033-0.033l0.028-0.038c0.125-0.172,0.289-0.273,0.475-0.317
		c0.233-0.056,0.499-0.022,0.766,0.068c0.264,0.09,0.531,0.235,0.77,0.409c0.424,0.308,0.762,0.701,0.836,1.018l0,0l0.031,0.129
		c0.254,1.06,0.486,2.034-0.236,3.009c-0.446,0.6-0.807,0.937-1.232,1.121c-0.424,0.186-0.906,0.218-1.595,0.211
		c-0.313-0.003-0.612-0.075-0.793-0.181c-0.074-0.045-0.131-0.096-0.162-0.151c-0.035-0.063-0.041-0.132-0.007-0.201
		c0.033-0.069,0.106-0.14,0.228-0.208c0.441-0.241,0.789-0.502,1.055-0.771c0.583-0.593,0.785-1.232,0.785-1.826
		C36.7,34.254,36.495,33.702,36.266,33.284z M35.897,32.571c0.128,0.134,0.302,0.364,0.465,0.66c0.237,0.431,0.448,1.003,0.448,1.62
		c0.001,0.619-0.209,1.285-0.816,1.901c-0.273,0.278-0.627,0.545-1.081,0.794c-0.1,0.055-0.158,0.108-0.181,0.156
		c-0.016,0.036-0.014,0.07,0.004,0.102c0.022,0.039,0.064,0.077,0.123,0.11c0.166,0.099,0.443,0.162,0.737,0.166
		c0.674,0.006,1.143-0.023,1.551-0.199c0.405-0.179,0.755-0.505,1.188-1.089c0.693-0.935,0.465-1.884,0.217-2.919l-0.031-0.128
		c-0.069-0.29-0.39-0.661-0.794-0.955c-0.229-0.166-0.487-0.308-0.741-0.394c-0.25-0.084-0.494-0.116-0.706-0.066
		C36.134,32.366,36.001,32.443,35.897,32.571z"/>
	<path fill="#A74C15" d="M28.354,33.375c-0.419,0.626-1.529,3.573,1.914,4.63c0.61,0.188,0.089,0.626-0.565,0.769
		c-1.33,0.289-1.89,0.262-2.99-0.72c-0.922-0.824-0.851-1.861-0.817-2.99C25.919,34.261,27.503,32.597,28.354,33.375z"/>
	<path d="M27.962,34.125c0.1-0.322,0.224-0.583,0.321-0.74c-0.128-0.104-0.274-0.152-0.426-0.157
		c-0.217-0.007-0.45,0.074-0.677,0.207c-0.231,0.136-0.454,0.326-0.646,0.536c-0.338,0.369-0.576,0.797-0.585,1.095l-0.004,0.133
		c-0.033,1.064-0.064,2.041,0.804,2.814c0.542,0.484,0.95,0.733,1.384,0.824c0.433,0.092,0.9,0.025,1.559-0.116
		c0.287-0.063,0.546-0.184,0.688-0.312v-0.001c0.051-0.045,0.085-0.091,0.098-0.133c0.011-0.036,0.007-0.068-0.016-0.099h-0.001
		c-0.032-0.044-0.1-0.086-0.208-0.118c-0.493-0.151-0.894-0.341-1.218-0.559c-0.719-0.48-1.06-1.09-1.184-1.697
		C27.727,35.197,27.818,34.594,27.962,34.125z M28.4,33.404c-0.096,0.144-0.229,0.412-0.333,0.754
		c-0.14,0.456-0.229,1.039-0.109,1.623c0.12,0.581,0.446,1.167,1.138,1.629c0.315,0.21,0.708,0.396,1.189,0.543
		c0.132,0.041,0.219,0.096,0.265,0.156v0.001c0.047,0.062,0.055,0.129,0.033,0.196c-0.02,0.063-0.064,0.124-0.128,0.183h-0.001
		c-0.155,0.141-0.434,0.271-0.739,0.338c-0.672,0.146-1.151,0.212-1.604,0.116c-0.455-0.096-0.876-0.352-1.435-0.851
		c-0.905-0.807-0.873-1.809-0.839-2.897l0.003-0.133c0.01-0.324,0.26-0.778,0.613-1.165c0.199-0.218,0.431-0.415,0.671-0.557
		c0.244-0.144,0.497-0.229,0.735-0.222c0.192,0.006,0.373,0.07,0.531,0.215l0.035,0.03L28.4,33.404z"/>
	<path fill="#A74C15" d="M24.748,27.618c-1.314,3.582,1.061,3.07,1.468,3.69c1.022,1.558,0.916,3.182-2.25,0.22
		c-0.515-0.48-0.396-1.443-0.542-1.527c-0.389-0.224-0.449-1.279-0.135-1.691C23.572,27.934,24.88,27.259,24.748,27.618z"/>
	<path d="M25.599,31.021c-0.799-0.293-1.902-0.698-0.902-3.421c0.006-0.015,0.007-0.024,0.006-0.027
		c-0.002-0.006-0.024-0.004-0.062,0c-0.055,0.008-0.132,0.031-0.22,0.065c-0.369,0.145-0.919,0.481-1.089,0.705
		c-0.015,0.02-0.03,0.041-0.042,0.064c-0.12,0.208-0.165,0.532-0.14,0.834c0.025,0.299,0.116,0.575,0.27,0.69h0
		c0.01,0.009,0.021,0.016,0.032,0.022c0.075,0.044,0.094,0.194,0.121,0.398c0.045,0.337,0.112,0.839,0.43,1.137
		c1.108,1.037,1.836,1.508,2.268,1.612c0.169,0.042,0.287,0.026,0.361-0.033h-0.001c0.074-0.063,0.107-0.168,0.106-0.311
		c-0.004-0.352-0.219-0.887-0.567-1.418C26.076,31.196,25.854,31.114,25.599,31.021z M24.799,27.636
		c-0.962,2.622,0.082,3.005,0.838,3.282c0.273,0.101,0.511,0.188,0.625,0.36c0.359,0.549,0.582,1.107,0.584,1.479
		c0.002,0.174-0.044,0.313-0.144,0.394l0,0c-0.101,0.082-0.25,0.108-0.456,0.058c-0.448-0.11-1.193-0.589-2.317-1.64
		c-0.347-0.326-0.417-0.849-0.463-1.203c-0.023-0.173-0.041-0.301-0.068-0.316c-0.016-0.009-0.03-0.019-0.044-0.029h0
		c-0.181-0.138-0.286-0.442-0.313-0.77c-0.026-0.323,0.024-0.669,0.155-0.897c0.016-0.028,0.033-0.052,0.05-0.076
		c0.181-0.238,0.754-0.589,1.137-0.739c0.095-0.038,0.18-0.063,0.246-0.072c0.085-0.012,0.147,0.006,0.173,0.059v0.001
		C24.816,27.554,24.816,27.591,24.799,27.636z"/>
	<path fill="#FAA54C" d="M28.675,22.868c0.54-0.135,1.12,0.326,1.297,1.03c0.176,0.705-0.119,1.384-0.658,1.518
		c-0.54,0.136-1.121-0.325-1.296-1.029C27.841,23.683,28.136,23.004,28.675,22.868z M31.672,31.115c0.747,0,1.353,0.734,1.353,1.64
		c0,0.904-0.606,1.638-1.353,1.638c-0.748,0-1.354-0.734-1.354-1.638C30.318,31.849,30.925,31.115,31.672,31.115z M27.316,33.98
		c0.943-0.284,1.998,0.451,2.356,1.643c0.357,1.191-0.117,2.389-1.06,2.671c-0.943,0.284-1.999-0.452-2.356-1.644
		S26.373,34.262,27.316,33.98z M24.21,28.272c0.652-0.167,1.352,0.402,1.564,1.268c0.213,0.866-0.143,1.706-0.794,1.872
		c-0.651,0.166-1.351-0.402-1.563-1.269C23.204,29.277,23.56,28.438,24.21,28.272z M36.053,33.509
		c0.612-0.181,1.27,0.435,1.47,1.375c0.199,0.94-0.135,1.849-0.747,2.03c-0.612,0.18-1.27-0.436-1.469-1.377
		C35.107,34.597,35.441,33.688,36.053,33.509z M25.106,39.403c1.241-0.367,1.688,1.634,1.854,2.285c0.129,0.5,0.303,0.913,0.07,1.18
		c-0.731,0.832-2.463-0.219-2.671-1.436C24.199,40.484,24.495,39.584,25.106,39.403z M33.39,26.236
		c0.44-0.395,1.245-0.08,1.797,0.704c0.553,0.783,0.642,1.739,0.201,2.133c-0.442,0.395-1.247,0.08-1.799-0.704
		C33.038,27.587,32.948,26.632,33.39,26.236z M31.045,15.597c-1.701,0.015-3.222-0.392-5.103,0.044
		c-1.055,2.086-1.013,3.028-1.353,5.331c0.478,0.134,0.907,0.614,1.066,1.259c0.212,0.867-0.144,1.705-0.794,1.872
		c-0.343,0.088-0.701-0.03-0.993-0.287c-0.96,2.845-1.417,4.469-1.887,7.434c0.054,0.019,0.107,0.041,0.157,0.07
		c0.589,0.322,0.713,1.215,0.277,1.993c-0.287,0.513-0.746,0.847-1.194,0.925l-0.687,2.707c0.435-0.037,0.868,0.07,1.162,0.322
		c0.505,0.432,0.409,1.124-0.216,1.545c-0.433,0.294-1.006,0.378-1.486,0.258l-1.016,4c7.167,4.492,21.318,2.535,25.354-5.082
		l-1.205-2.357c-0.209,0.392-0.577,0.624-0.932,0.551c-0.459-0.095-0.709-0.75-0.595-1.276c0.114-0.525,0.374-0.724,0.695-0.841
		c-0.138-1.465-0.724-1.467-1.375-2.688c-0.697,0.293-1.604-0.263-2.038-1.159c-0.433-0.896-0.277-1.85,0.32-2.258
		c-0.31-1.705-0.225-1.419-1.386-2.71c-0.152,0.192-0.349,0.328-0.58,0.388c-0.706,0.18-1.465-0.436-1.696-1.377
		c-0.217-0.889,0.116-1.75,0.751-1.994c-0.814-1.591-1.628-3.183-2.442-4.774c-0.718,0.296-1.696-0.065-2.332-0.91
		C31.288,16.27,31.128,15.931,31.045,15.597z"/>
	<path d="M21.953,44.451c0.427,0.058,0.784,0.162,1.663,0.341c0.626,0.126,2.138,0.34,3.087,0.404
		c1.676,0.113,6.264-0.176,7.347-1.644c0.719-0.973,0.317-2.094,0.317-3.237c0.033,0.837,0.959,2.348,1.826,2.649
		c0.572,0.198,2.094-0.1,3.32-0.612c0.396-0.167,1.613-0.907,2.609-1.531C37.327,45.269,28.322,46.585,21.953,44.451z"/>
	<path fill="none" stroke="#000000" stroke-width="0.1886" stroke-miterlimit="22.926" d="M21.953,44.451
		c0.427,0.058,0.784,0.162,1.663,0.341c0.626,0.126,2.138,0.34,3.087,0.404c1.676,0.113,6.264-0.176,7.347-1.644
		c0.719-0.973,0.317-2.094,0.317-3.237c0.033,0.837,0.959,2.348,1.826,2.649c0.572,0.198,2.094-0.1,3.32-0.612
		c0.396-0.167,1.613-0.907,2.609-1.531"/>
	<path fill="none" stroke="#000000" stroke-width="0.6191" stroke-miterlimit="22.926" d="M26.407,15.687
		c1.101,2.538,1.829,4.55,2.362,7.165 M32.296,34.21c1.395,3.443,2.116,6.173,3.074,9.838L32.296,34.21z M29.449,25.369
		c0.55,2.194,1.006,3.741,1.831,5.816L29.449,25.369z"/>
	<path d="M37.841,46.981c-0.071,0.027-0.138,0.054-0.199,0.079c-0.874,0.376-1.39,0.804-1.628,1.278l0,0.001
		c-0.234,0.466-0.203,0.988,0.015,1.564c0.009,0.021,0.016,0.04,0.023,0.059c0.224,0.519,0.73,0.861,1.382,0.999
		c0.67,0.144,1.491,0.071,2.321-0.243c0.075-0.027,0.146-0.057,0.214-0.086c0.948-0.407,1.806-0.967,2.331-1.582
		c0.437-0.514,0.636-1.063,0.44-1.578c-0.005-0.013-0.008-0.022-0.013-0.032c-0.223-0.519-0.992-0.798-1.922-0.869
		C39.845,46.497,38.726,46.645,37.841,46.981z"/>
	<path fill="#AD0637" d="M37.589,46.934c1.812-0.777,4.813-0.734,5.277,0.49c0.464,1.223-1.034,2.556-2.844,3.335
		c-1.811,0.777-3.655,0.417-4.12-0.808C35.439,48.729,35.778,47.714,37.589,46.934z"/>
	<path fill="#FFFFFF" d="M41.987,49.224c-0.373,0.241-0.746,0.547-1.107,0.914c-0.826,0.841-1.417,1.843-1.705,2.781
		c-0.283,0.922-0.274,1.777,0.094,2.347c0.059,0.09,0.123,0.169,0.194,0.24c0.31,0.304,0.748,0.43,1.25,0.388
		c0.521-0.043,1.109-0.262,1.703-0.646c0.372-0.24,0.746-0.548,1.106-0.914c0.825-0.841,1.417-1.843,1.706-2.781
		c0.284-0.922,0.274-1.777-0.094-2.347l0,0c-0.058-0.089-0.124-0.17-0.194-0.239c-0.311-0.305-0.747-0.43-1.25-0.388
		C43.168,48.622,42.58,48.843,41.987,49.224z M40.686,49.947c0.374-0.381,0.764-0.698,1.153-0.951
		c0.632-0.408,1.266-0.643,1.829-0.688c0.581-0.048,1.093,0.102,1.463,0.466c0.085,0.084,0.162,0.179,0.231,0.286l0,0
		c0.415,0.642,0.432,1.577,0.125,2.573c-0.299,0.979-0.915,2.021-1.771,2.895c-0.374,0.38-0.764,0.697-1.154,0.949
		c-0.632,0.409-1.264,0.644-1.828,0.69c-0.582,0.047-1.092-0.103-1.463-0.467c-0.085-0.084-0.163-0.179-0.231-0.285v-0.001
		c-0.415-0.641-0.433-1.578-0.126-2.573C39.215,51.862,39.829,50.82,40.686,49.947z"/>
	<path d="M49.299,44.717c-0.08-0.013-0.716-0.508-1.073-0.788l0,0c-0.106-0.082-0.188-0.146-0.213-0.164
		c-0.22-0.167-0.551-0.397-1.012-0.53c-0.461-0.133-1.055-0.17-1.806,0.046c-0.175,0.083-0.316,0.15-0.435,0.208
		c-0.323,0.155-0.49,0.236-0.671,0.296l0,0c-0.173,0.057-0.35,0.093-0.673,0.155c0.289,0.069,0.602,0.157,0.71,0.278
		c0.076,0.085,0.058,0.167-0.027,0.243l0,0c-0.092,0.083-0.346,0.175-0.523,0.238l-0.007,0.003c0.064,0.036,0.155,0.084,0.252,0.132
		c0.291,0.152,0.622,0.322,0.668,0.528c0.041,0.179-0.093,0.333-0.539,0.434c-0.043,0.01-0.081,0.046-0.126,0.09
		c-0.115,0.109-0.264,0.256-0.667,0.331c-0.217,1.14-0.238,1.151-0.576,1.34c-0.103,0.058-0.241,0.136-0.44,0.295
		c0.039,0.006,0.076,0.009,0.111,0.013c0.109,0.011,0.202,0.014,0.28,0.011l0,0c0.176-0.005,0.286-0.039,0.381-0.066
		c0.134-0.04,0.244-0.072,0.439-0.036h0.001c0.068,0.012,0.086,0.04,0.111,0.086v-0.001c0.018,0.03,0.062,0.104,0.377,0.198
		c0.088,0.027,0.156-0.029,0.217-0.08c0.153-0.126,0.282-0.232,0.507,0.017l0,0c0.347,0.382,0.184,0.624-0.064,0.85
		c-0.029,0.025-0.074,0.063-0.118,0.101c-0.109,0.093-0.22,0.186-0.269,0.283l0,0c-0.265,0.54-0.478,0.995-0.647,1.466
		c-0.164,0.456-0.288,0.932-0.383,1.519c0.11-0.036,0.324-0.153,0.576-0.293c0.577-0.317,1.346-0.741,1.935-0.669
		c0.24,0.029,0.29,0.079,0.402,0.195c0.014,0.014,0.028,0.028,0.044,0.044c0.006,0.006,0.014,0.012,0.021,0.017
		c0.039,0.025,0.089,0.021,0.141,0.001c0.069-0.025,0.139-0.077,0.192-0.133c0.028-0.028,0.052-0.057,0.067-0.083h-0.001
		c0.133-0.205,0.231-0.419,0.307-0.629c0.079-0.215,0.136-0.43,0.189-0.633l0.029-0.113l0.117,0.013
		c0.229,0.022,0.265,0.191,0.243,0.415c-0.007,0.065-0.018,0.131-0.03,0.198c-0.035,0.207-0.074,0.436,0.056,0.47l0.083,0.02
		l0.018,0.084l0,0.002l0.001,0.011c0.003,0.021,0.011,0.151,0.004,0.325s-0.028,0.396-0.082,0.607
		c-0.047,0.187-0.119,0.366-0.226,0.51c0.129-0.041,0.269-0.109,0.396-0.224c0.229-0.204,0.431-0.716,0.57-1.063
		c0.025-0.063,0.047-0.118,0.063-0.156c0.047-0.115,0.115-0.146,0.203-0.11l0,0c0.098,0.042,0.1,0.172,0.104,0.344
		c0.003,0.156,0.005,0.364,0.038,0.476c0.04-0.056,0.109-0.168,0.186-0.29c0.113-0.181,0.242-0.385,0.35-0.509
		c0.278-0.322,0.512-0.546,0.702-0.689c0.247-0.188,0.44-0.246,0.572-0.21c0.101,0.025,0.174,0.113,0.232,0.271
		c0.043,0.119,0.082,0.29,0.125,0.519c0.014,0.077,0.017,0.157,0.018,0.241c0.108-0.252,0.25-0.541,0.419-0.762
		c0.183-0.24,0.493-0.326,0.665-0.358c-0.019-0.789,0.126-1.175,0.263-1.538c0.081-0.214,0.159-0.421,0.192-0.706
		c0.002-0.023-0.017,0-0.037-0.043c-0.116-0.233-0.39-0.788-0.428-1.664c-0.004-0.09-0.093-0.182-0.177-0.268
		c-0.039-0.037-0.076-0.075-0.108-0.113v-0.001c-0.335-0.401-0.714-0.488-0.99-0.55c-0.137-0.031-0.251-0.057-0.343-0.112
		c-0.322-0.192-0.24-0.582,0.652-2.073c0.031-0.051,0.075-0.142,0.128-0.258c-0.521,0.758-1.021,1.336-1.31,1.669
		c-0.115,0.132-0.195,0.225-0.223,0.266l-0.048,0.074L49.299,44.717z"/>
	<path fill="#E49846" d="M54.488,35.802c0.182,1.27,1.345,3.229,2.938,2.29c0.631-0.371,1.015-1.233,0.974-1.951
		c-0.064-1.138-1.096-1.969-1.762-1.076c-0.3,0.399,0.041,0.966,0.071,1.304c0.055,0.627-0.478,0.855-0.886,0.601
		c-0.292-0.181-0.479-0.686-0.541-1.129c-0.509-3.63,0.176-7.484-0.439-11.231c-0.873-5.302-3.599-10.311-9.508-13.489
		c-3.912-2.104-7.6-3.441-12.029-3.443c-1.635,0-3.195,0.214-4.586,0.518c-0.128,0.028-0.252,0.053-0.368,0.08
		c-0.185,0.041-0.515,0.32,0.272,0.173c0.245-0.046,0.519-0.038,0.812-0.056c3.418-0.215,4.98-0.095,6.851,0.305
		c1.098,0.235,2.226,0.428,3.909,1.091c8.6,3.391,13.143,9.976,13.908,18.839C54.292,30.827,54.106,33.163,54.488,35.802z"/>
	<path fill="#AD0637" d="M40.812,50.086c1.649-1.68,3.607-2.078,4.375-0.891c0.768,1.187,0.053,3.511-1.595,5.192
		c-1.649,1.681-3.608,2.078-4.375,0.891C38.448,54.092,39.162,51.767,40.812,50.086z"/>
	<path fill="#E49846" d="M49.321,44.581c-0.057-0.009-1.073-0.81-1.226-0.925c-0.458-0.347-1.378-0.958-2.948-0.504
		c-1.256,0.595-0.896,0.486-2.262,0.751c-0.29,0.055,0.951,0.193,1.14,0.405c0.071,0.078-0.474,0.25-0.625,0.312
		c-0.426,0.174,1.89,0.735,0.522,1.043c-0.228,0.051-0.206,0.336-0.879,0.435c-0.33,1.738-0.194,0.908-1.21,1.843
		c0.315,0.06,0.539,0.075,0.706,0.07c0.417-0.013,0.487-0.161,0.792-0.104c0.033,0.006,0.006,0.142,0.474,0.28
		c0.34,0.102,0.404-0.389,0.662-0.104c0.47,0.518-0.287,0.708-0.472,1.082c-0.535,1.087-0.856,1.835-1.051,3.071
		c-0.086,0.55,1.625-0.977,2.636-0.853c0.223,0.026,0.241,0.075,0.368,0.199c0.203,0.2,0.52-0.046,0.632-0.22
		c0.278-0.43,0.405-0.887,0.513-1.303c0.361,0.038-0.222,0.962,0.25,1.081c0.005,0.001,0.096,1.479-0.672,1.582
		c-0.124,0.017,0.509,0.15,0.99-0.279c0.291-0.258,0.527-0.927,0.667-1.267c0.106-0.261-0.06,0.993,0.257,0.81
		c0.093-0.053,0.395-0.625,0.6-0.862c0.582-0.675,0.962-0.904,1.134-0.857c0.108,0.028,0.178,0.24,0.259,0.685
		c0.039,0.214-0.012,0.487,0.046,0.815c0.014,0.079,0.254-0.785,0.633-1.279c0.226-0.294,0.696-0.32,0.696-0.326
		c-0.058-1.354,0.358-1.545,0.45-2.343c0.008-0.065-0.416-0.64-0.463-1.729c-0.008-0.192-0.202-0.325-0.318-0.464
		c-1.021-1.224-1.944,0.388-0.097-2.356c0.615-0.913-0.073-1.238,0.099-1.549l-0.307,0.624
		C50.483,43.669,49.439,44.398,49.321,44.581z"/>
	<path fill="#E49846" d="M15.914,13.458c0.635-1.113,0.921-3.374-0.911-3.612c-0.727-0.094-1.558,0.351-1.968,0.942
		c-0.648,0.938-0.344,2.227,0.729,1.932c0.483-0.133,0.562-0.788,0.746-1.073c0.341-0.528,0.902-0.382,1.068,0.07
		c0.119,0.324-0.044,0.834-0.268,1.224c-1.828,3.177-4.844,5.659-6.554,9.132c-2.347,4.771-2.884,10.646-0.173,16.785
		c1.139,2.579,2.246,4.608,3.834,6.578c0.198,0.248,0.497,0.607,0.758,0.759c0.996,0.578,0.035-0.347-0.158-0.643
		c-0.215-0.326-0.546-0.778-0.689-0.999c-0.345-0.53-0.647-0.883-1.115-1.787c-4.229-8.158-3.76-15.706,0.598-23.409
		C12.897,17.435,14.593,15.774,15.914,13.458z"/>
	<path fill="#FFFFFF" d="M38.606,47.247c0.701-0.076,1.084,0.109,1.13,0.331c-2.551,0.915-2.711,2.017-2.711,2.017
		s-0.483-0.068-0.561-0.478C36.321,48.369,37.876,47.328,38.606,47.247z"/>
	<path fill="#FFFFFF" d="M42.18,49.932c0.464-0.204,0.581,0.214,0.581,0.214s-2.122,1.92-1.993,3.317
		c-0.129,0.144-0.993-0.042-1.116-0.613C39.808,52.113,41.492,50.236,42.18,49.932z"/>
	<path fill="#FFFFFF" d="M36.623,52.37c0.077,0.143-0.108,0.292,0.114,0.508C35.171,53,33.346,55.19,33.346,55.19l-0.224-0.813
		C33.123,54.378,34.149,52.431,36.623,52.37z"/>
	<path fill="#FFFFFF" d="M30.726,52.16c0.28,0.165,0.476,0.341,0.602,0.724c-2.006-0.037-2.909,0.742-3.169,1.104
		c-0.481,0.019-0.521-0.514-0.521-0.514S29.221,51.874,30.726,52.16z"/>
	<path fill="#E49846" d="M21.068,52.443c0.392,0.403,0.526,0.503,0.697,0.625c0.462,0.327,1.678,0.935,2.009,0.472
		c0.364-0.777-0.443-1.298-1.453-1.476c-0.989-0.174-1.149,0.586-2.978,0.932c-0.176,0-0.108-0.131-0.031-0.14
		c1.485-0.178,1.881-1.313,3.315-0.991c1.003,0.226,1.832,0.921,1.436,1.864c-0.521,0.72-2.23-0.162-2.639-0.51
		c-0.296-0.25-0.651-0.695-0.882-1.07c-0.013-0.02,0.31,0.148,0.396,0.165L21.068,52.443z"/>
	<path fill="#FFFFFF" d="M50.742,44.694c0,0-0.959-0.226-1.267-0.019c-0.35,0.234-1.032,0.244-1.032,0.244s-1.175-0.609-0.937-0.508
		c0.237,0.103-0.956-0.348-0.956-0.348l-0.001,0.047c0,0,1.572,0.643,1.514,0.755c-0.125,0.176-1.933-0.125-1.933-0.125
		l-0.001,0.076c0,0,1.173,0.219,1.6,0.249c0.427,0.03,1.303,0.044,1.303,0.044l-0.68,0.863l-0.699,0.065l-0.748-0.076L45.37,45.8
		c0,0-0.394-0.448-0.856-0.37c-0.068,0.019-0.122,0.1,0.065,0.102c0.335-0.026,0.549,0.332,0.549,0.332s-0.804,0.266-0.924,0.288
		c-0.049,0.04-0.105,0.086-0.003,0.106c0.101,0.021,1.134-0.354,1.845-0.191c0.229,0.083-1.053,0.401-1.075,0.434
		c-0.023,0.031-0.102,0.05-0.003,0.107c0.409,0.047,1.206-0.462,1.444-0.441c0.24,0.023,1.229,0.102,1.229,0.102l0.685-0.072
		c0,0-0.065,0.366-0.36,0.857c-0.25,0.439-1.338,1.741-1.695,2.219c-0.357,0.478-0.261,1.027-0.261,1.027l0.15,0.016
		c0,0-0.04-0.64,0.3-1.015c0.372-0.412,1.204-1.453,1.204-1.453s0.048,0.365,0.013,0.666c-0.034,0.301-0.41,0.847-0.449,0.99
		c-0.039,0.143-0.01,0.428-0.01,0.428l0.111,0.046c0,0-0.019-0.148,0.03-0.399c0.051-0.251,0.338-0.508,0.443-0.819
		c0.108-0.32,0.086-1.197,0.086-1.197s0.549-0.715,0.658-1.4c0.219-0.446,0.609-0.896,0.609-0.896s0.003,0.974,0.577,1.242
		c0.275,0.152,0.225,0.174,0.38,0.307c0.189,0.163,0.181,0.169,0.203,0.377c0.023,0.207-0.308,0.859-0.329,0.972
		c-0.021,0.111-0.084,0.409-0.084,0.409l0.125-0.008c0,0,0.028-0.284,0.073-0.394c0.046-0.11,0.094-0.258,0.271-0.617
		c0.177-0.362,0.288,0.138,0.288,0.138l0.122,0.659l0.147,0.084l-0.147-0.907c0,0-0.452-0.829-0.758-1.015
		c-0.105-0.063,0.218-0.104,0.458,0.101c0.376,0.32,0.966,0.816,1.102,0.781c0.151-0.06,0.122-0.011,0.065-0.043
		c-0.547-0.302-0.581-0.492-1.082-0.876c-0.354-0.271-0.64-0.088-0.784-0.186c-0.111-0.075-0.2-0.22-0.2-0.22
		s-0.189-0.186-0.209-0.6c-0.019-0.415,0.302-0.567,0.44-0.615c0.136-0.048,0.77,0.178,0.77,0.178L50.742,44.694z"/>
	<path fill="#E49846" d="M51.171,42.028c0.17-0.453,1.096-0.6,1.276-0.61c0.893-0.181,0.653-1.574,0.335-1.484
		c-0.112,0.045-1.343,0.878-1.716,1.426C50.655,41.965,51.002,42.48,51.171,42.028z"/>
</g>
</svg>
