<?xml version="1.0" encoding="utf-8"?>
<!-- Generator: Adobe Illustrator 16.0.0, SVG Export Plug-In . SVG Version: 6.00 Build 0)  -->
<!DOCTYPE svg PUBLIC "-//W3C//DTD SVG 1.1//EN" "http://www.w3.org/Graphics/SVG/1.1/DTD/svg11.dtd">
<svg version="1.1" id="Layer_1" xmlns="http://www.w3.org/2000/svg" xmlns:xlink="http://www.w3.org/1999/xlink" x="0px" y="0px"
	 width="474.281px" height="451.776px" viewBox="82.359 -24.733 474.281 451.776"
	 enable-background="new 82.359 -24.733 474.281 451.776" xml:space="preserve">
<path fill="#FFFFFF" d="M295.005-23.957c54.829-5.251,105.869,16.53,139.394,54.221l0.221,0.248l0.542,0.615
	c21.544,24.31,35.813,55.216,39.125,89.752c8.454,88.275-57.845,166.843-148.086,175.489
	c-54.829,5.252-105.872-16.532-139.395-54.224l-0.217-0.248c-0.182-0.202-0.358-0.406-0.543-0.609
	c-10.29-11.615-18.924-24.732-25.491-39.028c-7.184-15.64-11.9-32.687-13.63-50.727c-5.914-61.722,23.873-121.31,74.531-150.344
	C243.479-11.437,267.858-21.359,295.005-23.957z"/>
<path d="M373.702,170.045l-6.039-11.814l-0.927-1.81l-0.962,1.788c-0.439,0.821-1.037,1.467-1.696,1.855
	c-0.586,0.343-1.211,0.488-1.819,0.365v-0.001l-0.021-0.007c-0.771-0.166-1.395-0.855-1.782-1.755
	c-0.443-1.006-0.591-2.229-0.369-3.324l0.002,0.001l0.011-0.052c0.242-1.113,0.619-1.856,1.093-2.376
	c0.463-0.5,1.053-0.819,1.713-1.061l0.771-0.286l-0.076-0.817c-0.475-5.022-1.922-6.823-3.813-9.18
	c-0.976-1.212-2.073-2.585-3.198-4.694l-0.456-0.857l-0.895,0.375c-1.397,0.585-3.045,0.311-4.588-0.568
	c-1.697-0.965-3.252-2.643-4.259-4.725c-0.981-2.028-1.307-4.106-1.049-5.909c0.249-1.744,1.04-3.216,2.293-4.074l0.572-0.391
	l-0.125-0.679l-0.159-0.865c-0.661-3.65-0.971-5.345-1.75-6.87c-0.679-1.336-1.636-2.373-3.418-4.311
	c-0.522-0.57-1.131-1.229-1.875-2.062l-0.844-0.936l-0.784,0.985c-0.32,0.395-0.683,0.735-1.088,1.004l0.004,0.003
	c-0.382,0.255-0.798,0.44-1.25,0.558v0.001l-0.039,0.01v0.001c-1.409,0.342-2.892-0.115-4.16-1.136
	c-1.344-1.087-2.443-2.804-2.979-4.888l-0.028-0.108h-0.002c-0.489-2.004-0.365-3.969,0.229-5.558
	c0.574-1.518,1.579-2.686,2.877-3.184l1.107-0.427l-0.544-1.058l-12.237-23.939l-0.448-0.873l-0.903,0.377
	c-1.552,0.639-3.422,0.55-5.26-0.168c-1.885-0.735-3.715-2.121-5.171-4.053c-0.53-0.707-0.976-1.448-1.344-2.207
	c-0.375-0.771-0.658-1.561-0.851-2.344l-0.204-0.813l-0.842,0.007c-2.765,0.027-5.505-0.181-8.241-0.39
	c-5.563-0.426-11.128-0.852-17.577,0.643l-0.49,0.112l-0.225,0.446c-4.438,8.784-5.075,13.571-6.125,21.551
	c-0.212,1.596-0.44,3.331-0.766,5.504l-0.13,0.927l0.904,0.254c1.009,0.282,1.976,0.952,2.785,1.906
	c0.813,0.961,1.456,2.206,1.807,3.631c0.477,1.947,0.321,3.846-0.316,5.34c-0.588,1.396-1.603,2.426-2.893,2.758
	c-0.662,0.17-1.336,0.145-1.987-0.041c-0.703-0.204-1.396-0.603-2.028-1.164l-1.2-1.059l-0.514,1.523
	c-2.409,7.151-4.194,12.775-5.67,18.482c-1.481,5.715-2.647,11.497-3.832,18.964l-0.144,0.901l0.863,0.28
	c0.098,0.033,0.204,0.077,0.318,0.124v-0.005c0.09,0.04,0.191,0.089,0.292,0.144l0.036,0.021l-0.002,0.002
	c1.142,0.64,1.839,1.857,2.047,3.315c0.222,1.57-0.115,3.398-1.054,5.123l-0.054,0.087c-0.634,1.133-1.451,2.073-2.352,2.772
	c-0.909,0.705-1.905,1.164-2.877,1.333l-0.685,0.117l-0.171,0.678l-3.444,13.564l-0.368,1.451l1.492-0.125
	c0.988-0.088,1.969-0.004,2.858,0.24c0.833,0.23,1.584,0.609,2.189,1.127c0.282,0.242,0.518,0.505,0.709,0.785
	c0.422,0.626,0.594,1.326,0.523,2.027c-0.076,0.732-0.404,1.478-0.989,2.159c-0.329,0.381-0.737,0.746-1.232,1.076
	c-0.939,0.636-2.033,1.048-3.155,1.244c-1.17,0.204-2.364,0.168-3.44-0.101l-1.033-0.261l-0.26,1.037l-5.095,20.053l-0.188,0.747
	l0.662,0.417c1.293,0.808,2.606,1.568,3.94,2.273c18.146,9.615,43.398,12.08,66.809,7.8c23.456-4.292,45.127-15.363,56.058-32.813
	c0.659-1.053,1.268-2.104,1.825-3.154l0.26-0.485L373.702,170.045z M299.461,104.345c-0.467,1.073-1.265,1.87-2.278,2.123
	c-1.015,0.256-2.09-0.073-3.013-0.801c-0.996-0.793-1.805-2.045-2.188-3.566l-0.003-0.02c-0.384-1.537-0.266-3.027,0.244-4.2
	c0.462-1.068,1.25-1.86,2.257-2.119l0.023-0.004c1.013-0.254,2.087,0.074,3.01,0.806c1.003,0.792,1.816,2.05,2.194,3.581
	C300.093,101.681,299.971,103.172,299.461,104.345z M293.827,152.655c1.945,1.359,3.566,3.572,4.391,6.327
	c0.826,2.754,0.699,5.499-0.177,7.706c-0.842,2.123-2.385,3.746-4.418,4.359c-2.038,0.609-4.217,0.107-6.095-1.196
	c-1.947-1.362-3.567-3.577-4.39-6.328c-0.828-2.755-0.705-5.498,0.175-7.706c0.842-2.121,2.384-3.744,4.419-4.359
	C289.771,150.844,291.947,151.346,293.827,152.655z M283.849,186.476c0.263,0.894,0.48,1.746,0.649,2.41v0.005l0.117,0.456h0.003
	c0.122,0.475,0.222,0.833,0.317,1.183c0.475,1.685,0.863,3.083,0.261,3.773c-0.53,0.599-1.197,0.937-1.945,1.066
	c-0.941,0.158-2.007-0.007-3.091-0.416c-1.135-0.435-2.267-1.132-3.261-2.008c-1.641-1.436-2.91-3.338-3.244-5.313
	c-0.378-2.235-0.219-4.395,0.397-6.078c0.546-1.481,1.431-2.561,2.588-2.897C280.614,177.477,282.744,182.732,283.849,186.476z
	 M272.165,122.837c1.269-0.306,2.611,0.109,3.755,1.035c1.231,0.992,2.23,2.556,2.715,4.461h0.003l0.026,0.103v-0.001
	c0.477,1.943,0.319,3.839-0.312,5.332c-0.596,1.397-1.606,2.426-2.9,2.757v0.001l-0.037,0.011v0.003
	c-1.271,0.31-2.612-0.108-3.758-1.031c-1.231-0.995-2.234-2.561-2.717-4.462l-0.027-0.1l0,0c-0.474-1.946-0.321-3.84,0.313-5.332
	c0.595-1.396,1.606-2.428,2.899-2.757l0.04-0.012V122.837L272.165,122.837z M331.755,149.041c1.026-0.219,2.113,0.18,3.072,1.024
	c1.072,0.94,1.971,2.41,2.502,4.21c0.088,0.289,0.163,0.595,0.23,0.913c0.459,2.157,0.311,4.264-0.301,5.926
	c-0.563,1.532-1.505,2.652-2.696,3.001c-0.065,0.025-0.138,0.038-0.216,0.055c-1.026,0.216-2.116-0.182-3.073-1.025
	c-1.071-0.942-1.971-2.409-2.504-4.209c-0.083-0.291-0.163-0.595-0.229-0.913c-0.458-2.156-0.312-4.267,0.305-5.928
	c0.56-1.531,1.502-2.651,2.692-3.003C331.601,149.075,331.677,149.056,331.755,149.041z M318.798,112.24
	c0.702-0.495,1.665-0.538,2.707-0.196c1.189,0.39,2.461,1.263,3.594,2.536c0.318,0.35,0.624,0.736,0.927,1.164
	c1.273,1.811,2.016,3.804,2.176,5.562c0.155,1.608-0.176,2.979-1.015,3.73c-0.059,0.056-0.125,0.108-0.204,0.163
	c-0.702,0.494-1.664,0.536-2.707,0.193c-1.189-0.388-2.458-1.261-3.598-2.535c-0.314-0.348-0.619-0.737-0.922-1.165
	c-1.277-1.813-2.016-3.803-2.18-5.559c-0.15-1.61,0.178-2.98,1.017-3.73C318.648,112.352,318.711,112.295,318.798,112.24z
	 M313.241,139.155c1.077,1.308,1.742,3.121,1.742,5.14c0,2.014-0.663,3.828-1.739,5.131h-0.003
	c-1.029,1.248-2.437,2.018-3.972,2.018c-1.543,0-2.948-0.773-3.979-2.018h-0.003c-1.074-1.303-1.741-3.113-1.741-5.131
	s0.667-3.831,1.744-5.134v-0.007c1.025-1.242,2.433-2.011,3.979-2.011C310.805,137.143,312.218,137.914,313.241,139.155z"/>
<path d="M400.903,72.604c-16.063-24.296-41.25-42.2-71.743-47.954c-30.496-5.757-60.527,1.726-84.432,18.479
	c-23.906,16.754-41.685,42.781-47.667,74.109l-0.003,0.006c-5.982,31.335,0.969,62.032,17.039,86.337
	c16.064,24.291,41.248,42.194,71.736,47.951l0.008,0.002c30.494,5.756,60.53-1.728,84.428-18.482
	c23.913-16.754,41.689-42.784,47.673-74.118C423.923,127.603,416.976,96.906,400.903,72.604z M329.409,23.304
	c30.878,5.827,56.377,23.954,72.64,48.55c16.26,24.592,23.296,55.648,17.244,87.335c-6.051,31.698-24.041,58.034-48.228,74.985
	c-24.183,16.945-54.556,24.518-85.403,18.719l0,0l-0.075-0.012c-30.873-5.826-56.373-23.955-72.637-48.55
	c-16.251-24.569-23.284-55.598-17.258-87.263v-0.003l0.014-0.07c6.051-31.694,24.038-58.032,48.226-74.983
	C268.134,25.052,298.537,17.478,329.409,23.304z"/>
<path fill="#E49846" d="M291.902,259.516c0.876,0.547-1.489,1.086-3.262,0.424c-1.727-0.648-4.63-3.097-5.502-4.047
	c-5.99-6.563-16.214-24.941-27.444-21.107c-1.653,0.861-2.148,3.171-0.871,5.891c0.089,0.189-1.568-0.729-1.821-1.11
	c0.219,0.612-1.66-4.278,1.821-6.103c11.11-6.098,24.237,15.653,30.492,21.416c1.779,1.641,3.289,2.955,4.973,3.165L291.902,259.516
	z"/>
<path fill="#FFFFFF" d="M313.387,240.569c-2.644-1.801-5.987-2.844-10.54-2.431c-4.606,0.429-8.704,2.04-11.605,4.313
	c-2.83,2.217-4.508,5.042-4.375,7.956c0.02,0.398,0.054,0.795,0.109,1.186c0.322,2.42,1.32,4.607,3.377,6.121
	c2.111,1.552,5.345,2.434,10.123,2.208c1.042-0.052,2.143-0.149,3.318-0.31c6.028-0.805,10.725-2.415,13.667-4.438
	c1.221-0.836,2.127-1.733,2.689-2.665c0.53-0.883,0.748-1.798,0.622-2.713c-0.089-0.689-0.374-1.39-0.854-2.094
	C318.07,245.016,316.068,242.393,313.387,240.569z M302.733,236.772c4.912-0.45,8.535,0.686,11.42,2.654
	c2.86,1.945,4.964,4.685,6.886,7.484c0.607,0.889,0.962,1.787,1.078,2.688c0.169,1.243-0.112,2.458-0.81,3.614
	c-0.665,1.104-1.705,2.146-3.088,3.098c-3.112,2.131-8.012,3.824-14.26,4.66c-1.219,0.166-2.358,0.271-3.423,0.32
	c-5.123,0.246-8.635-0.737-10.988-2.469c-2.396-1.764-3.553-4.272-3.923-7.045c-0.054-0.426-0.093-0.861-0.118-1.301
	c-0.16-3.393,1.726-6.623,4.903-9.111C293.511,238.94,297.865,237.215,302.733,236.772z"/>
<path fill="#AD0637" d="M302.807,237.686c9.278-0.846,13.65,4.276,17.335,9.656c3.688,5.371-3.178,10.975-16.27,12.727
	c-13.084,1.75-17.04-3.474-17.333-9.658C286.246,244.233,293.53,238.534,302.807,237.686z"/>
<path fill="#FFFFFF" d="M341.272,239.573c-4.558-0.753-10.265-0.176-15.269,1.333c-0.373,0.109-0.74,0.234-1.109,0.371
	c-4.138,1.531-7.431,4.357-9.466,7.538c-2.005,3.134-2.782,6.589-1.927,9.429c0.051,0.178,0.099,0.322,0.137,0.436
	c0.043,0.107,0.084,0.203,0.126,0.306v-0.001c1.132,2.707,3.749,4.506,7.128,5.258c3.467,0.773,7.732,0.434,12.044-1.156
	c0.384-0.143,0.756-0.285,1.116-0.437c4.81-2.013,9.32-5.321,12.19-8.901c2.548-3.176,3.802-6.539,2.771-9.328
	C348.024,241.735,345.063,240.198,341.272,239.573z M325.61,239.587c5.189-1.563,11.118-2.157,15.873-1.372
	c4.264,0.705,7.622,2.518,8.804,5.727c1.218,3.298-0.145,7.127-2.986,10.669c-3.013,3.749-7.716,7.208-12.732,9.31
	c-0.405,0.172-0.79,0.325-1.166,0.457c-4.557,1.684-9.087,2.03-12.803,1.202c-3.807-0.846-6.772-2.925-8.089-6.069v-0.002
	c-0.055-0.122-0.104-0.242-0.146-0.363c-0.071-0.193-0.127-0.364-0.171-0.504v-0.003c-0.978-3.235-0.132-7.107,2.08-10.571
	c2.189-3.414,5.718-6.451,10.15-8.088C324.812,239.838,325.207,239.708,325.61,239.587z"/>
<path fill="#AD0637" d="M325.917,240.479c9.303-2.805,21.064-2.38,23.367,3.859c2.297,6.234-5.808,14.851-15.036,18.723
	c-9.23,3.869-18.58,1.953-20.88-4.283C311.068,252.539,316.617,243.284,325.917,240.479z"/>
<path fill="#A74C15" d="M295.873,88.654c-6.591,17.962,5.321,15.398,7.359,18.504c5.129,7.81,0.382,17.696-15.484,2.84
	c-2.58-2.408-1.991-7.24-2.717-7.658c-1.945-1.118,1.954-8.156,3.525-10.224C289.98,90.242,296.533,86.855,295.873,88.654z"/>
<path d="M300.144,105.715c-4.007-1.467-9.538-3.497-4.527-17.156c0.029-0.078,0.038-0.119,0.031-0.136l0,0
	c-0.013-0.026-0.127-0.022-0.307,0.004c-0.283,0.033-0.667,0.149-1.108,0.322c-1.851,0.727-4.615,2.411-5.459,3.531
	c-0.386,0.508-0.917,1.322-1.472,2.279c-0.804,1.4-1.653,3.105-2.133,4.574c-0.454,1.38-0.597,2.524-0.077,2.922
	c0.026,0.018,0.047,0.031,0.072,0.044v0.001c0.375,0.215,0.477,0.968,0.611,1.991c0.225,1.698,0.56,4.211,2.156,5.708
	c5.705,5.336,9.939,7.449,12.768,7.604c1.178,0.064,2.107-0.218,2.78-0.744c0.678-0.527,1.117-1.307,1.317-2.238
	c0.437-1.987-0.177-4.65-1.794-7.112C302.538,106.597,301.425,106.188,300.144,105.715z M296.13,88.749
	c-4.826,13.148,0.412,15.068,4.201,16.458c1.368,0.5,2.564,0.94,3.133,1.806c1.697,2.583,2.335,5.405,1.873,7.524
	c-0.231,1.061-0.731,1.947-1.517,2.555c-0.783,0.612-1.829,0.929-3.149,0.859c-2.947-0.161-7.299-2.316-13.11-7.751
	c-1.741-1.626-2.089-4.259-2.324-6.031c-0.116-0.868-0.203-1.508-0.34-1.592l0,0c-0.042-0.022-0.085-0.052-0.127-0.084
	c-0.753-0.572-0.643-1.935-0.118-3.529c0.494-1.502,1.363-3.242,2.185-4.673c0.556-0.976,1.102-1.816,1.503-2.339
	c0.901-1.189,3.78-2.96,5.699-3.71c0.478-0.187,0.902-0.313,1.231-0.355c0.433-0.057,0.739,0.029,0.871,0.292v0.001
	C296.213,88.331,296.216,88.52,296.13,88.749z"/>
<path fill="#A74C15" d="M310.091,133.046c-6.591,17.961,5.321,15.399,7.357,18.505c5.13,7.809,0.385,17.689-15.487,2.842
	c-2.574-2.412-1.986-7.24-2.709-7.659c-1.947-1.118,1.95-8.158,3.521-10.224C304.2,134.635,310.753,131.249,310.091,133.046z"/>
<path d="M314.36,150.109c-4.002-1.468-9.539-3.499-4.525-17.159c0.028-0.076,0.033-0.121,0.029-0.134
	c-0.012-0.023-0.126-0.02-0.309,0.006c-0.282,0.035-0.664,0.152-1.104,0.322c-1.851,0.725-4.611,2.41-5.462,3.531
	c-0.387,0.503-0.917,1.319-1.469,2.279c-0.805,1.4-1.654,3.103-2.133,4.571c-0.454,1.379-0.6,2.526-0.077,2.923h0.005
	c0.02,0.02,0.04,0.029,0.065,0.046v0.003c0.376,0.214,0.475,0.964,0.609,1.989c0.226,1.696,0.561,4.21,2.156,5.706
	c5.703,5.339,9.938,7.451,12.766,7.603c1.182,0.066,2.11-0.215,2.783-0.742c0.679-0.525,1.115-1.304,1.318-2.237
	c0.432-1.987-0.18-4.648-1.795-7.113C316.753,150.989,315.64,150.58,314.36,150.109z M310.348,133.139
	c-4.825,13.146,0.412,15.066,4.201,16.456c1.368,0.504,2.563,0.94,3.132,1.805c1.698,2.586,2.334,5.408,1.87,7.528
	c-0.229,1.059-0.734,1.946-1.515,2.555c-0.784,0.609-1.83,0.933-3.151,0.86c-2.942-0.161-7.301-2.314-13.108-7.753
	c-1.742-1.627-2.087-4.26-2.322-6.03c-0.117-0.868-0.203-1.509-0.342-1.589l0,0c-0.04-0.023-0.087-0.052-0.125-0.088
	c-0.755-0.57-0.641-1.938-0.118-3.527c0.494-1.499,1.358-3.238,2.181-4.674c0.56-0.977,1.105-1.815,1.503-2.339
	c0.905-1.19,3.78-2.958,5.698-3.709c0.479-0.185,0.902-0.313,1.234-0.356c0.431-0.057,0.736,0.029,0.871,0.294l0,0
	C310.429,132.725,310.434,132.913,310.348,133.139z"/>
<path d="M399.511,8.92c-27.5-16.065-59.865-27.155-92.813-25.155c-42.766,2.604-85.788,24.406-112.949,56.524
	c-34.586,40.901-47.216,109.476-26.259,159.26c10.228,24.295,29.415,47.589,50.835,63.828c12.416,7.254,28.516,17.274,42.742,20.967
	c17.623,4.569,42.563,5.313,61.805,3.468c58.009-5.558,111.362-46.605,132.513-95.936c12.089-28.19,16.239-64.975,9.029-94.32
	c-5.066-20.611-16.022-39.484-29.723-56.628C424.799,28.552,411.869,18.289,399.511,8.92z M295.411-19.788
	c53.401-5.114,103.112,16.1,135.765,52.809l0.215,0.241l0.527,0.599c20.983,23.677,34.882,53.779,38.106,87.416
	c8.234,85.977-56.339,162.5-144.23,170.92c-53.401,5.115-103.115-16.102-135.765-52.812l-0.211-0.241
	c-0.177-0.197-0.349-0.396-0.529-0.595c-10.022-11.312-18.431-24.088-24.828-38.012c-6.997-15.233-11.591-31.836-13.275-49.406
	c-5.76-60.115,23.251-118.151,72.592-146.43C245.226-7.594,268.972-17.257,295.411-19.788z"/>
<path fill="#A74C15" d="M280.568,173.734c-2.102,3.146-7.67,17.915,9.598,23.223c3.053,0.938,0.452,3.134-2.836,3.846
	c-6.673,1.451-9.473,1.316-14.993-3.61c-4.624-4.126-4.267-9.328-4.095-14.985C268.36,178.189,276.302,169.836,280.568,173.734z"/>
<path d="M278.602,177.498c0.497-1.618,1.124-2.928,1.609-3.712c-0.646-0.524-1.369-0.764-2.131-0.788
	c-1.083-0.031-2.259,0.373-3.399,1.042c-1.154,0.675-2.276,1.631-3.236,2.684c-1.693,1.851-2.886,3.996-2.933,5.491l-0.022,0.666
	c-0.163,5.33-0.32,10.231,4.029,14.11c2.722,2.426,4.767,3.677,6.938,4.136c2.177,0.453,4.514,0.129,7.815-0.59
	c1.443-0.316,2.745-0.917,3.455-1.558c0.252-0.232,0.426-0.458,0.491-0.67c0.057-0.176,0.032-0.343-0.083-0.494
	c-0.163-0.222-0.502-0.429-1.051-0.594c-2.47-0.76-4.482-1.711-6.11-2.801c-3.604-2.406-5.313-5.463-5.936-8.505
	C277.421,182.872,277.875,179.855,278.602,177.498z M280.796,173.885c-0.482,0.721-1.147,2.063-1.676,3.776
	c-0.699,2.287-1.142,5.208-0.545,8.14c0.6,2.914,2.24,5.85,5.706,8.161c1.585,1.063,3.546,1.99,5.966,2.733
	c0.665,0.204,1.095,0.472,1.327,0.785v0.001c0.234,0.308,0.278,0.644,0.166,0.988c-0.094,0.309-0.32,0.617-0.642,0.911
	c-0.782,0.707-2.177,1.359-3.707,1.694c-3.372,0.729-5.774,1.063-8.041,0.585c-2.278-0.479-4.395-1.769-7.192-4.264
	c-4.539-4.047-4.381-9.067-4.209-14.531l0.019-0.666c0.051-1.623,1.302-3.906,3.072-5.843c0.997-1.092,2.159-2.082,3.367-2.789
	c1.222-0.718,2.493-1.152,3.69-1.118c0.959,0.029,1.87,0.358,2.659,1.077l0.174,0.161L280.796,173.885z"/>
<path fill="#A74C15" d="M315.231,106.419c3.446,1.567,15.957,11.187,4.081,24.797c-2.106,2.407,1.268,2.897,4.438,1.772
	c6.435-2.281,8.745-3.874,10.838-10.967c1.762-5.946-1.287-10.179-4.412-14.894C327.955,103.774,316.809,100.86,315.231,106.419z"/>
<path d="M318.529,108.996c-1.342-1.177-2.617-1.97-3.41-2.327l-0.214-0.097l0.068-0.228c0.288-1.029,0.886-1.786,1.691-2.32
	c0.996-0.658,2.306-0.958,3.726-0.995c1.399-0.03,2.907,0.198,4.326,0.597c2.528,0.719,4.794,1.997,5.69,3.347l0.373,0.555
	c3.021,4.556,5.799,8.738,4.081,14.572c-1.066,3.594-2.188,5.801-3.868,7.405c-1.683,1.603-3.895,2.587-7.15,3.742
	c-1.476,0.521-3.007,0.702-4.037,0.512c-0.429-0.079-0.785-0.22-1.024-0.431c-0.277-0.237-0.42-0.55-0.381-0.934
	c0.032-0.384,0.26-0.842,0.721-1.365c1.657-1.902,2.838-3.729,3.628-5.463c1.724-3.795,1.573-7.152,0.546-9.944
	C322.249,112.82,320.33,110.567,318.529,108.996z M315.566,106.276c0.829,0.413,2.046,1.196,3.321,2.308
	c1.857,1.621,3.84,3.949,4.908,6.854c1.072,2.916,1.235,6.415-0.561,10.36c-0.812,1.775-2.016,3.648-3.718,5.6
	c-0.378,0.433-0.561,0.783-0.586,1.056c-0.021,0.192,0.051,0.347,0.193,0.466c0.169,0.145,0.432,0.25,0.771,0.311
	c0.943,0.173,2.367,0,3.762-0.492c3.18-1.13,5.343-2.081,6.947-3.623c1.607-1.533,2.691-3.669,3.718-7.167
	c1.652-5.588-1.058-9.669-4.007-14.114l-0.371-0.554c-0.828-1.247-2.967-2.438-5.382-3.121c-1.371-0.387-2.828-0.61-4.166-0.578
	c-1.325,0.03-2.528,0.307-3.436,0.904C316.323,104.903,315.836,105.495,315.566,106.276z"/>
<path fill="#A74C15" d="M330.092,143.394c2.695,2.656,11.133,15.997-4.693,24.687c-2.805,1.54,0.191,3.162,3.553,3.196
	c6.826,0.071,9.547-0.63,13.957-6.575c3.687-4.973,2.287-10.002,0.975-15.504C342.949,145.286,333.483,138.717,330.092,143.394z"/>
<path d="M332.304,146.947c-0.863-1.571-1.79-2.753-2.408-3.357l-0.164-0.164l0.14-0.19c0.629-0.866,1.452-1.374,2.385-1.598
	c1.168-0.275,2.498-0.108,3.84,0.346c1.327,0.452,2.665,1.184,3.861,2.053c2.128,1.542,3.818,3.52,4.191,5.102l0,0l0.155,0.646
	c1.272,5.314,2.441,10.201-1.184,15.083c-2.234,3.01-4.044,4.697-6.18,5.627c-2.126,0.929-4.542,1.088-7.994,1.054
	c-1.569-0.018-3.069-0.375-3.977-0.903c-0.374-0.225-0.656-0.481-0.813-0.76c-0.175-0.318-0.202-0.661-0.034-1.01
	c0.162-0.35,0.531-0.701,1.142-1.037c2.212-1.216,3.956-2.522,5.291-3.875c2.925-2.973,3.937-6.176,3.932-9.155
	C334.479,151.814,333.453,149.044,332.304,146.947z M330.455,143.373c0.64,0.673,1.515,1.829,2.329,3.313
	c1.187,2.158,2.244,5.022,2.246,8.123c0.008,3.106-1.048,6.446-4.092,9.536c-1.368,1.39-3.146,2.732-5.415,3.977
	c-0.5,0.275-0.793,0.544-0.91,0.787c-0.081,0.175-0.067,0.348,0.023,0.504c0.111,0.198,0.32,0.384,0.614,0.555
	c0.831,0.489,2.224,0.814,3.698,0.834c3.378,0.03,5.733-0.12,7.775-1.008c2.034-0.891,3.786-2.525,5.957-5.454
	c3.474-4.681,2.333-9.445,1.088-14.631l-0.152-0.646c-0.348-1.456-1.953-3.315-3.98-4.787c-1.152-0.838-2.447-1.543-3.714-1.976
	c-1.251-0.425-2.479-0.583-3.539-0.329C331.643,142.346,330.977,142.733,330.455,143.373z"/>
<path fill="#A74C15" d="M292.637,147.399c-2.105,3.145-7.669,17.918,9.595,23.224c3.055,0.941,0.448,3.13-2.836,3.852
	c-6.667,1.451-9.478,1.312-14.992-3.615c-4.622-4.128-4.266-9.329-4.097-14.987C280.423,151.854,288.367,143.502,292.637,147.399z"
	/>
<path d="M290.665,151.165c0.497-1.616,1.123-2.925,1.611-3.712c-0.646-0.525-1.374-0.765-2.134-0.787
	c-1.087-0.031-2.259,0.37-3.398,1.041c-1.157,0.676-2.275,1.632-3.234,2.685c-1.694,1.851-2.885,3.996-2.933,5.492l-0.024,0.665
	c-0.163,5.333-0.319,10.23,4.03,14.109c2.717,2.43,4.765,3.677,6.941,4.134c2.173,0.458,4.511,0.13,7.813-0.585
	c1.44-0.316,2.741-0.918,3.452-1.559v-0.006c0.254-0.228,0.428-0.454,0.491-0.666c0.055-0.178,0.034-0.342-0.078-0.494h-0.005
	c-0.164-0.22-0.502-0.424-1.048-0.593c-2.47-0.758-4.484-1.713-6.108-2.799c-3.606-2.411-5.314-5.466-5.938-8.51
	C289.485,156.542,289.945,153.519,290.665,151.165z M292.864,147.552c-0.483,0.718-1.148,2.063-1.674,3.776
	c-0.702,2.284-1.145,5.209-0.548,8.14c0.603,2.918,2.235,5.85,5.706,8.163c1.584,1.06,3.549,1.987,5.964,2.731
	c0.667,0.204,1.098,0.477,1.329,0.783v0.003c0.234,0.31,0.274,0.644,0.166,0.989c-0.098,0.31-0.322,0.616-0.643,0.908h-0.006
	c-0.776,0.708-2.172,1.36-3.704,1.693c-3.37,0.735-5.771,1.069-8.041,0.587c-2.279-0.481-4.394-1.763-7.193-4.261
	c-4.538-4.049-4.38-9.07-4.208-14.531l0.019-0.669c0.046-1.622,1.306-3.906,3.074-5.842c0.996-1.09,2.16-2.078,3.366-2.787
	c1.222-0.723,2.491-1.15,3.687-1.118c0.962,0.03,1.87,0.358,2.66,1.081l0.174,0.155L292.864,147.552z"/>
<path fill="#A74C15" d="M274.549,118.535c-6.591,17.967,5.317,15.402,7.359,18.509c5.125,7.809,4.591,15.954-11.283,1.101
	c-2.581-2.411-4.965-14.075-3.396-16.141C268.655,120.128,275.211,116.739,274.549,118.535z"/>
<path d="M278.815,135.603c-4.005-1.469-9.536-3.499-4.522-17.157c0.029-0.079,0.035-0.119,0.029-0.139
	c-0.012-0.025-0.124-0.019-0.308,0.005c-0.28,0.036-0.666,0.152-1.105,0.324c-1.851,0.726-4.612,2.409-5.463,3.531
	c-0.077,0.098-0.147,0.207-0.211,0.32c-0.601,1.042-0.827,2.665-0.702,4.183c0.126,1.499,2.687,9.778,4.281,11.27
	c5.56,5.204,9.208,7.563,11.374,8.092c0.848,0.208,1.439,0.126,1.812-0.177h-0.004c0.369-0.307,0.535-0.843,0.532-1.547
	c-0.018-1.764-1.097-4.453-2.844-7.116C281.211,136.481,280.095,136.071,278.815,135.603z M274.805,118.633
	c-4.822,13.146,0.412,15.065,4.204,16.456c1.367,0.503,2.564,0.942,3.133,1.805c1.797,2.749,2.915,5.546,2.929,7.412
	c0.009,0.873-0.219,1.562-0.721,1.976l0,0c-0.506,0.413-1.255,0.54-2.288,0.285c-2.248-0.553-5.983-2.951-11.62-8.223
	c-1.736-1.629-3.224-3.569-3.458-5.343c-0.114-0.867-0.043-2.241-0.043-2.241c-0.904-0.686-0.815-2.402-0.953-4.038
	c-0.131-1.619,0.12-3.359,0.777-4.499c0.077-0.14,0.162-0.264,0.251-0.382c0.905-1.189,3.783-2.957,5.702-3.71
	c0.474-0.186,0.9-0.313,1.233-0.356c0.429-0.059,0.737,0.03,0.868,0.292v0.002C274.89,118.217,274.89,118.405,274.805,118.633z"/>
<path fill="#FAA54C" d="M294.243,94.722c2.708-0.677,5.617,1.633,6.501,5.165c0.886,3.529-0.596,6.937-3.299,7.615
	c-2.706,0.679-5.618-1.633-6.5-5.163C290.063,98.809,291.536,95.402,294.243,94.722z M309.27,136.073
	c3.746,0,6.781,3.683,6.781,8.22c0,4.537-3.038,8.215-6.781,8.215c-3.747,0-6.789-3.68-6.789-8.215
	C302.481,139.754,305.522,136.073,309.27,136.073z M287.425,150.436c4.73-1.423,10.016,2.267,11.815,8.24
	c1.794,5.973-0.585,11.972-5.313,13.392c-4.729,1.423-10.021-2.271-11.816-8.245C280.317,157.849,282.699,151.856,287.425,150.436z
	 M271.856,121.818c3.267-0.836,6.779,2.01,7.84,6.358c1.069,4.346-0.716,8.55-3.979,9.382c-3.264,0.836-6.774-2.012-7.841-6.359
	C266.807,126.853,268.594,122.653,271.856,121.818z M331.237,148.071c3.068-0.906,6.365,2.18,7.369,6.899
	c1,4.712-0.675,9.266-3.743,10.176c-3.07,0.904-6.366-2.183-7.367-6.898C326.496,153.532,328.171,148.975,331.237,148.071z
	 M276.348,177.629c6.222-1.84,8.464,8.196,9.3,11.457c0.649,2.513,1.52,4.586,0.349,5.917c-3.666,4.172-12.351-1.091-13.389-7.199
	C271.796,183.051,273.281,178.535,276.348,177.629z M317.883,111.606c2.209-1.979,6.244-0.4,9.013,3.527
	c2.769,3.924,3.219,8.717,1.006,10.699c-2.215,1.98-6.249,0.401-9.018-3.528C316.116,118.381,315.666,113.589,317.883,111.606z
	 M306.128,58.265c-8.529,0.075-16.157-1.962-25.588,0.223c-5.292,10.463-5.081,15.182-6.785,26.728
	c2.398,0.669,4.549,3.077,5.345,6.313c1.065,4.35-0.722,8.549-3.982,9.383c-1.722,0.438-3.516-0.145-4.978-1.437
	c-4.816,14.267-7.108,22.408-9.462,37.276c0.27,0.091,0.535,0.203,0.787,0.345c2.959,1.62,3.579,6.097,1.391,10
	c-1.438,2.567-3.738,4.245-5.985,4.636l-3.443,13.571c2.178-0.189,4.35,0.354,5.828,1.616c2.533,2.17,2.051,5.638-1.083,7.752
	c-2.17,1.467-5.045,1.891-7.453,1.292l-5.091,20.057c35.935,22.521,106.892,12.708,127.127-25.483l-6.042-11.816
	c-1.053,1.958-2.891,3.122-4.674,2.758c-2.306-0.473-3.555-3.761-2.985-6.401c0.566-2.638,1.875-3.627,3.484-4.219
	c-0.691-7.346-3.631-7.357-6.892-13.474c-3.497,1.465-8.044-1.321-10.218-5.814c-2.171-4.496-1.388-9.276,1.606-11.328
	c-1.558-8.548-1.128-7.113-6.948-13.584c-0.762,0.958-1.75,1.645-2.907,1.939c-3.536,0.908-7.347-2.182-8.507-6.898
	c-1.09-4.462,0.581-8.779,3.765-9.998c-4.083-7.98-8.161-15.958-12.242-23.938c-3.602,1.481-8.503-0.327-11.692-4.564
	C307.342,61.636,306.542,59.939,306.128,58.265z"/>
<path d="M260.537,202.944c2.138,0.283,3.929,0.811,8.336,1.705c3.138,0.633,10.72,1.709,15.479,2.029
	c8.403,0.572,31.409-0.885,36.841-8.241c3.602-4.878,1.587-10.497,1.587-16.234c0.163,4.197,4.812,11.773,9.157,13.287
	c2.866,0.996,10.498-0.499,16.643-3.074c1.987-0.835,8.093-4.544,13.085-7.675C337.625,207.045,292.47,213.643,260.537,202.944z"/>
<path fill="none" stroke="#000000" stroke-width="0.1886" stroke-miterlimit="22.926" d="M260.537,202.944
	c2.138,0.283,3.929,0.811,8.336,1.705c3.138,0.633,10.72,1.709,15.479,2.029c8.403,0.572,31.409-0.885,36.841-8.241
	c3.602-4.878,1.587-10.497,1.587-16.234c0.163,4.197,4.812,11.773,9.157,13.287c2.866,0.996,10.498-0.499,16.643-3.074
	c1.987-0.835,8.093-4.544,13.085-7.675"/>
<path fill="none" stroke="#000000" stroke-width="0.6191" stroke-miterlimit="22.926" d="M281.942,57.621
	c5.52,12.725,10.096,23.908,12.769,37.016 M312.396,151.587c6.992,17.271,10.613,30.955,15.415,49.332L312.396,151.587z
	 M298.121,107.263c2.758,11.004,5.046,18.758,9.181,29.162L298.121,107.263z"/>
<path d="M340.199,215.631c-0.355,0.135-0.688,0.269-0.993,0.398c-4.386,1.884-6.97,4.025-8.168,6.405l0.005,0.003
	c-1.174,2.338-1.019,4.959,0.077,7.848c0.038,0.104,0.079,0.203,0.117,0.294c1.121,2.599,3.663,4.315,6.929,5.011
	c3.359,0.719,7.479,0.357,11.637-1.219c0.376-0.142,0.733-0.287,1.073-0.432c4.752-2.043,9.058-4.851,11.688-7.935
	c2.193-2.571,3.187-5.325,2.204-7.915c-0.022-0.059-0.04-0.111-0.062-0.159c-1.12-2.602-4.976-3.997-9.643-4.359
	C350.25,213.199,344.637,213.947,340.199,215.631z"/>
<path fill="#AD0637" d="M338.938,215.396c9.087-3.899,24.129-3.685,26.458,2.454c2.328,6.131-5.182,12.818-14.26,16.723
	c-9.081,3.903-18.326,2.094-20.652-4.041C328.159,224.39,329.857,219.299,338.938,215.396z"/>
<path fill="#FFFFFF" d="M360.987,226.882c-1.867,1.205-3.74,2.737-5.549,4.577c-4.14,4.219-7.102,9.241-8.55,13.948
	c-1.42,4.62-1.375,8.911,0.473,11.765c0.294,0.447,0.617,0.847,0.976,1.203c1.551,1.521,3.746,2.149,6.266,1.943
	c2.61-0.215,5.561-1.314,8.537-3.238c1.865-1.202,3.741-2.74,5.547-4.578c4.136-4.219,7.103-9.241,8.552-13.947
	c1.422-4.621,1.376-8.91-0.474-11.765v0.001c-0.289-0.449-0.618-0.851-0.976-1.199c-1.553-1.524-3.746-2.154-6.27-1.943
	C366.912,223.858,363.962,224.959,360.987,226.882z M354.467,230.501c1.872-1.907,3.826-3.505,5.777-4.77
	c3.17-2.05,6.346-3.223,9.173-3.454c2.912-0.24,5.477,0.515,7.332,2.334c0.429,0.42,0.816,0.901,1.162,1.433v0.003
	c2.08,3.215,2.168,7.912,0.632,12.907c-1.502,4.907-4.588,10.131-8.881,14.505c-1.875,1.908-3.829,3.502-5.785,4.766
	c-3.171,2.051-6.338,3.225-9.166,3.46c-2.917,0.237-5.476-0.517-7.336-2.341c-0.43-0.419-0.817-0.896-1.158-1.426v-0.002
	c-2.081-3.221-2.175-7.917-0.638-12.912C347.091,240.101,350.172,234.878,354.467,230.501z"/>
<path d="M397.655,204.27c-0.4-0.061-3.589-2.547-5.381-3.943v-0.001c-0.532-0.411-0.943-0.731-1.067-0.825
	c-1.102-0.84-2.762-1.996-5.078-2.66c-2.309-0.668-5.287-0.852-9.051,0.231c-0.88,0.417-1.588,0.752-2.185,1.041
	c-1.614,0.782-2.457,1.185-3.362,1.484v-0.002c-0.869,0.286-1.755,0.47-3.376,0.784c1.448,0.345,3.018,0.784,3.563,1.392
	c0.381,0.43,0.289,0.835-0.138,1.217v0.003c-0.463,0.414-1.732,0.876-2.622,1.194l-0.035,0.02c0.318,0.178,0.778,0.415,1.261,0.662
	c1.459,0.756,3.114,1.608,3.35,2.641c0.204,0.901-0.466,1.678-2.7,2.179c-0.216,0.05-0.406,0.226-0.631,0.452
	c-0.578,0.551-1.327,1.281-3.343,1.662c-1.088,5.709-1.192,5.771-2.886,6.715c-0.514,0.287-1.207,0.675-2.208,1.48
	c0.197,0.025,0.38,0.043,0.56,0.063c0.548,0.052,1.014,0.064,1.402,0.052l0,0c0.883-0.027,1.434-0.193,1.913-0.33
	c0.672-0.203,1.221-0.363,2.204-0.186h0.002c0.346,0.064,0.434,0.203,0.562,0.432v-0.004c0.088,0.154,0.307,0.527,1.887,0.996
	c0.44,0.137,0.785-0.148,1.091-0.401c0.766-0.633,1.413-1.167,2.539,0.081v0.003c1.738,1.914,0.925,3.129-0.319,4.26
	c-0.146,0.131-0.371,0.319-0.593,0.503c-0.547,0.463-1.104,0.933-1.35,1.422l0,0c-1.328,2.706-2.393,4.984-3.247,7.348
	c-0.819,2.29-1.441,4.67-1.919,7.615c0.552-0.18,1.622-0.768,2.892-1.468c2.889-1.597,6.748-3.718,9.696-3.356
	c1.205,0.146,1.453,0.402,2.019,0.979c0.069,0.07,0.143,0.143,0.22,0.223c0.032,0.029,0.071,0.063,0.107,0.086
	c0.199,0.125,0.446,0.104,0.704,0.006c0.348-0.134,0.697-0.393,0.965-0.667c0.143-0.146,0.262-0.286,0.341-0.415l-0.006-0.002
	c0.667-1.031,1.16-2.102,1.537-3.154c0.395-1.078,0.685-2.154,0.952-3.176l0.146-0.566l0.582,0.059
	c1.151,0.121,1.33,0.967,1.216,2.086c-0.034,0.328-0.087,0.658-0.151,0.992c-0.173,1.039-0.371,2.188,0.282,2.354l0.412,0.104
	l0.089,0.419l0.003,0.013l0.009,0.049c0.014,0.107,0.055,0.764,0.023,1.635c-0.032,0.867-0.144,1.98-0.408,3.045
	c-0.237,0.93-0.598,1.836-1.135,2.557c0.648-0.205,1.348-0.552,1.987-1.12c1.143-1.021,2.162-3.589,2.857-5.329
	c0.124-0.314,0.236-0.6,0.314-0.787c0.237-0.574,0.579-0.729,1.019-0.548l0,0c0.494,0.203,0.502,0.86,0.52,1.725
	c0.016,0.778,0.028,1.819,0.187,2.38c0.201-0.279,0.55-0.838,0.936-1.447c0.565-0.91,1.21-1.934,1.752-2.561
	c1.394-1.611,2.567-2.738,3.519-3.455c1.239-0.939,2.205-1.236,2.867-1.058c0.503,0.137,0.871,0.577,1.162,1.364
	c0.213,0.599,0.411,1.452,0.621,2.604c0.073,0.385,0.089,0.785,0.093,1.205c0.538-1.26,1.247-2.709,2.102-3.815
	c0.919-1.204,2.473-1.639,3.333-1.801c-0.096-3.955,0.63-5.888,1.318-7.708c0.405-1.076,0.796-2.111,0.963-3.539
	c0.013-0.125-0.084-0.004-0.186-0.215c-0.581-1.173-1.954-3.954-2.146-8.348c-0.021-0.451-0.47-0.906-0.892-1.338
	c-0.195-0.191-0.384-0.381-0.541-0.575v-0.001c-1.677-2.012-3.584-2.445-4.965-2.756c-0.688-0.154-1.26-0.285-1.719-0.561
	c-1.616-0.971-1.205-2.924,3.271-10.399c0.153-0.257,0.379-0.711,0.645-1.291c-2.61,3.796-5.12,6.699-6.564,8.364
	c-0.58,0.667-0.982,1.13-1.121,1.337l-0.242,0.369L397.655,204.27z"/>
<path fill="#E49846" d="M423.672,159.58c0.91,6.359,6.744,16.189,14.729,11.483c3.164-1.864,5.087-6.191,4.884-9.788
	c-0.321-5.708-5.495-9.871-8.832-5.399c-1.507,2.011,0.204,4.849,0.354,6.542c0.277,3.144-2.393,4.291-4.439,3.014
	c-1.467-0.91-2.399-3.436-2.71-5.664c-2.555-18.202,0.886-37.53-2.203-56.32c-4.376-26.579-18.046-51.699-47.677-67.636
	c-19.613-10.546-38.106-17.254-60.315-17.261c-8.198,0-16.018,1.072-22.996,2.593c-0.645,0.143-1.265,0.268-1.845,0.402
	c-0.926,0.206-2.583,1.606,1.362,0.868c1.231-0.228,2.603-0.187,4.07-0.28c17.138-1.08,24.971-0.477,34.354,1.529
	c5.507,1.178,11.162,2.146,19.596,5.472c43.12,17,65.9,50.021,69.738,94.461C422.688,134.63,421.762,146.343,423.672,159.58z"/>
<path fill="#AD0637" d="M355.097,231.2c8.267-8.427,18.086-10.425,21.937-4.474c3.847,5.955,0.266,17.608-7.998,26.038
	c-8.271,8.422-18.092,10.421-21.937,4.468C343.243,251.279,346.826,239.624,355.097,231.2z"/>
<path fill="#E49846" d="M397.764,203.595c-0.287-0.042-5.383-4.06-6.149-4.641c-2.292-1.741-6.911-4.808-14.778-2.525
	c-6.301,2.979-4.491,2.439-11.339,3.761c-1.454,0.277,4.766,0.974,5.713,2.035c0.354,0.393-2.376,1.254-3.136,1.566
	c-2.137,0.866,9.476,3.688,2.614,5.225c-1.14,0.256-1.031,1.691-4.408,2.182c-1.652,8.713-0.974,4.553-6.066,9.235
	c1.58,0.3,2.7,0.384,3.541,0.358c2.088-0.066,2.442-0.808,3.974-0.53c0.163,0.03,0.03,0.71,2.376,1.41
	c1.705,0.507,2.025-1.947,3.32-0.521c2.354,2.597-1.44,3.552-2.364,5.43c-2.68,5.448-4.295,9.195-5.267,15.398
	c-0.435,2.758,8.144-4.903,13.215-4.28c1.122,0.141,1.208,0.383,1.845,1.008c1.02,1,2.606-0.232,3.169-1.107
	c1.394-2.154,2.031-4.443,2.57-6.53c1.81,0.189-1.113,4.823,1.247,5.421c0.028,0.006,0.483,7.415-3.366,7.931
	c-0.619,0.085,2.55,0.76,4.965-1.396c1.459-1.299,2.645-4.652,3.349-6.357c0.533-1.306-0.304,4.98,1.29,4.063
	c0.465-0.264,1.979-3.133,3.007-4.325c2.918-3.381,4.826-4.533,5.688-4.299c0.542,0.147,0.892,1.204,1.297,3.431
	c0.195,1.074-0.061,2.445,0.233,4.09c0.071,0.401,1.273-3.931,3.17-6.411c1.134-1.478,3.496-1.606,3.496-1.638
	c-0.293-6.791,1.793-7.742,2.251-11.746c0.038-0.328-2.085-3.211-2.324-8.676c-0.039-0.958-1.013-1.628-1.594-2.321
	c-5.119-6.137-9.748,1.938-0.482-11.82c3.08-4.575-0.366-6.206,0.491-7.761l-1.539,3.129
	C403.589,199.019,398.36,202.681,397.764,203.595z"/>
<path fill="#E49846" d="M230.255,47.536c3.181-5.58,4.62-16.917-4.567-18.111c-3.644-0.471-7.814,1.761-9.866,4.726
	c-3.249,4.7-1.726,11.166,3.653,9.688c2.422-0.667,2.816-3.952,3.739-5.38c1.713-2.651,4.523-1.918,5.357,0.348
	c0.596,1.622-0.221,4.183-1.343,6.134c-9.166,15.932-24.292,28.375-32.863,45.79c-11.768,23.924-14.463,53.39-0.872,84.164
	c5.713,12.935,11.259,23.108,19.223,32.987c0.998,1.24,2.494,3.043,3.801,3.8c4.997,2.903,0.174-1.741-0.793-3.22
	c-1.077-1.639-2.736-3.906-3.456-5.012c-1.725-2.655-3.241-4.427-5.594-8.959c-21.205-40.904-18.852-78.753,3.003-117.375
	C215.129,67.477,223.63,59.154,230.255,47.536z"/>
<path fill="#FFFFFF" d="M344.037,216.963c3.516-0.386,5.435,0.549,5.666,1.658c-12.793,4.591-13.596,10.113-13.596,10.113
	s-2.421-0.346-2.814-2.396C332.583,222.585,340.375,217.371,344.037,216.963z"/>
<path fill="#FFFFFF" d="M361.958,230.428c2.331-1.021,2.912,1.071,2.912,1.071s-10.64,9.624-9.993,16.636
	c-0.646,0.724-4.978-0.209-5.597-3.076C350.063,241.359,358.506,231.949,361.958,230.428z"/>
<path fill="#FFFFFF" d="M334.096,242.647c0.383,0.713-0.543,1.47,0.575,2.551c-7.854,0.609-17.009,11.595-17.009,11.595
	l-1.122-4.077C316.541,252.719,321.688,242.958,334.096,242.647z"/>
<path fill="#FFFFFF" d="M304.522,241.595c1.406,0.825,2.389,1.708,3.019,3.626c-10.06-0.188-14.585,3.727-15.891,5.537
	c-2.413,0.095-2.613-2.578-2.613-2.578S296.979,240.161,304.522,241.595z"/>
<path fill="#E49846" d="M256.1,243.019c1.961,2.018,2.638,2.524,3.492,3.13c2.317,1.647,8.416,4.687,10.075,2.365
	c1.824-3.898-2.222-6.51-7.287-7.398c-4.96-0.867-5.759,2.934-14.929,4.672c-0.885-0.002-0.542-0.655-0.154-0.703
	c7.445-0.891,9.432-6.584,16.622-4.969c5.031,1.131,9.189,4.623,7.199,9.348c-2.613,3.609-11.18-0.813-13.233-2.553
	c-1.485-1.258-3.263-3.489-4.425-5.365c-0.061-0.101,1.555,0.738,1.987,0.828L256.1,243.019z"/>
<path fill="#FFFFFF" d="M404.887,204.158c0,0-4.807-1.133-6.352-0.093c-1.757,1.182-5.177,1.228-5.177,1.228s-5.89-3.057-4.692-2.54
	c1.19,0.509-4.796-1.751-4.796-1.751l-0.006,0.238c0,0,7.883,3.225,7.595,3.781c-0.625,0.881-9.692-0.623-9.692-0.623l-0.005,0.377
	c0,0,5.879,1.098,8.021,1.252c2.139,0.152,6.532,0.217,6.532,0.217l-3.409,4.328l-3.506,0.327l-3.744-0.382l-7.701-0.815
	c0,0-1.977-2.249-4.292-1.858c-0.344,0.093-0.609,0.502,0.325,0.514c1.679-0.135,2.75,1.66,2.75,1.66s-4.03,1.338-4.635,1.444
	c-0.245,0.204-0.528,0.43-0.017,0.538c0.506,0.108,5.687-1.779,9.251-0.961c1.148,0.413-5.278,2.016-5.388,2.176
	c-0.114,0.158-0.511,0.25-0.018,0.535c2.053,0.236,6.046-2.314,7.24-2.208c1.201,0.112,6.163,0.507,6.163,0.507l3.435-0.363
	c0,0-0.326,1.839-1.806,4.301c-1.248,2.203-6.707,8.731-8.499,11.122c-1.791,2.392-1.309,5.155-1.309,5.155l0.754,0.076
	c0,0-0.195-3.209,1.503-5.086c1.864-2.068,6.04-7.285,6.04-7.285s0.241,1.828,0.064,3.338c-0.174,1.508-2.056,4.24-2.251,4.961
	c-0.198,0.721-0.053,2.152-0.053,2.152l0.558,0.225c0,0-0.092-0.738,0.151-2c0.251-1.261,1.691-2.549,2.219-4.109
	c0.545-1.607,0.431-6.003,0.431-6.003s2.755-3.584,3.301-7.021c1.1-2.244,3.055-4.49,3.055-4.49s0.018,4.88,2.891,6.23
	c1.38,0.762,1.131,0.866,1.905,1.537c0.952,0.818,0.904,0.85,1.015,1.888c0.119,1.036-1.544,4.312-1.648,4.868
	c-0.106,0.561-0.421,2.06-0.421,2.06l0.626-0.046c0,0,0.141-1.424,0.365-1.973c0.23-0.547,0.473-1.287,1.361-3.098
	c0.888-1.812,1.445,0.693,1.445,0.693l0.609,3.303l0.739,0.426l-0.739-4.549c0,0-2.267-4.158-3.798-5.086
	c-0.528-0.319,1.094-0.526,2.296,0.498c1.89,1.611,4.846,4.094,5.529,3.921c0.76-0.298,0.61-0.056,0.326-0.215
	c-2.746-1.513-2.911-2.468-5.426-4.392c-1.771-1.358-3.205-0.44-3.927-0.927c-0.556-0.378-1.003-1.103-1.003-1.103
	s-0.95-0.934-1.05-3.011c-0.095-2.077,1.515-2.842,2.206-3.081c0.683-0.242,3.861,0.889,3.861,0.889L404.887,204.158z"/>
<path fill="#E49846" d="M407.04,190.791c0.852-2.267,5.492-3.004,6.4-3.059c4.477-0.904,3.272-7.894,1.679-7.443
	c-0.563,0.228-6.736,4.404-8.604,7.153C404.454,190.469,406.193,193.058,407.04,190.791z"/>
<g>
	<g>
		<path fill="#AD0637" d="M454.395,383.023c0.02,0.083,0.038,0.158,0.057,0.244h0.004
			C454.443,383.209,454.421,383.121,454.395,383.023z"/>
		<path fill="#AD0637" d="M454.503,380.014c-0.171,0.232-0.27,0.431-0.347,0.641c-0.054,0.15-0.105,0.306-0.122,0.507
			c-0.004,0.043,0.011,0.083,0.011,0.128c0.003-0.443,0.161-0.877,0.65-1.544c0.025-0.033,0.061-0.07,0.09-0.103
			c-0.025,0.027-0.052,0.055-0.083,0.091C454.643,379.809,454.572,379.913,454.503,380.014z"/>
		<path fill="#AD0637" d="M454.827,379.603c0.004-0.004,0.007-0.007,0.011-0.011c-0.019,0.018-0.033,0.036-0.05,0.051
			C454.803,379.632,454.816,379.617,454.827,379.603z"/>
		<path fill="#AD0637" d="M454.876,379.546c0.007-0.007,0.014-0.026,0.022-0.043c-0.015,0.025-0.038,0.056-0.062,0.09
			C454.852,379.577,454.863,379.564,454.876,379.546z"/>
		<path fill="#AD0637" d="M454.081,381.771c0.024,0.122,0.048,0.246,0.076,0.372c0,0.007,0.013,0.007,0.015,0.014
			c0.052,0.232,0.153,0.599,0.224,0.867c-0.138-0.591-0.27-1.021-0.323-1.395C454.077,381.677,454.071,381.723,454.081,381.771z"/>
		<path fill="#AD0637" d="M151.173,340.65c-5.931-1.244-11.11,4.697-13.536,10.047c-3.167,6.979-0.995,27.277,3.809,32.742
			c0.376,0.428,3.104,0.855,2.722-1.483c-0.384-2.365-2.228-8.042-2.98-13.548c-0.691-5.054-0.035-10.063-0.029-11.803
			c0.002-0.343,4.452,3.063,9.041,4.856c3.458,1.354,6.915,1.568,8.347,1.524c0.025,0.07-1.881,16.218-0.958,18.064
			c0.6,1.208,0.71,1.212,1.445,0.086c1.628-2.49,3.141-9.554,3.949-16.084c0.749-6.055,1.351-9.989-1.094-15.787
			C160.074,344.966,156.038,341.673,151.173,340.65z M158.584,357.49c-0.236,0.231-3.786-0.151-7.552-1.348
			c-4.821-1.53-10.021-4.144-9.312-5.768c1.972-4.525,9.518-5.896,12.936-3.443C158.384,349.606,160.316,355.791,158.584,357.49z"/>
		<path fill="#AD0637" d="M201.807,361.91c-2.889-3.836-7.847-5.217-11.578-4.161c-5.022,1.423-7.708,6.444-8.562,10.45
			c-0.557,2.61,0.048,4.941-0.035,5.035c-0.195,0.22-3.8-10.068-2.418-10.111c2.975-0.094,9.22-6.778,11.993-11.792
			c4.094-7.413,11.823-33.788,0.301-37.25c-10.904-3.276-16.918,11.783-18.804,25.676c-0.414,3.057-0.485,6.068-0.413,8.813
			c0.183,6.848,0.717,10.964,2.738,17.608c0.568,1.589,1.191,3.245,1.792,4.859c1.668,4.48,5.145,9.048,8.29,11.586
			c4.562,3.674,10.82,3.825,14.462,1.036c3.599-2.758,5.318-8.037,4.71-13.336C203.903,367.01,203.408,364.03,201.807,361.91z
			 M177.328,358.838c-2.821-1.818-2.2-14.625-1.568-18.558c1.251-7.809,4.68-17.949,10.181-22.001
			c3.7-2.727,6.584,1.922,7.344,6.176C195.549,337.122,182.17,361.954,177.328,358.838z M191.966,381.162
			c-12.26-1.342-6.915-21.063,2.1-19.146c4.388,0.934,6.51,7.563,6.597,10.953C200.768,377.258,198.007,381.824,191.966,381.162z"/>
		<path fill="#AD0637" d="M438.051,299.704c-1.197,0.136,0.515,5.476,0.196,12.34c-0.134,2.873-0.786,7.771-2.951,12.986
			c-3.587,8.647-7.705,15.277-11.132,14.857c-1.313-0.163-1.638-5.909-1.661-7.278c-0.044-2.791-0.213-3.028-0.293-6.001
			c-0.165-5.956-1.254-12.14-2.067-14.563c-1.236-3.695-2.419-5.96-3.622-5.17c-1.279,0.836-0.676,3.979-0.185,7.968
			c0.52,4.258,2.248,16.114,1.803,31.496c-0.425,14.747-2.603,25.98-2.496,33.267c0.08,5.623,2.883,6,3.95,0.813
			c1.137-5.524,3.663-31.027,4.678-31.12c1.128-0.104,3.689,1.231,5.388,4.583c2.446,4.831,3.927,12.245,3.933,20.163
			c0.005,3.563,0,8.36,1.854,10.641c1.347,1.661,2.857-1.152,2.769-3.519c-0.099-2.515-1.005-1.455-1.133-4.842
			c-0.252-6.696,0.421-14.092-0.624-20.64c-0.904-5.646-3.304-11.293-8.613-13.156c-0.254-0.09,4.923-3.856,8.995-11.754
			c2.9-5.625,4.97-10.396,5.283-18.563C442.326,306.744,440.823,299.389,438.051,299.704z"/>
		<path fill="#AD0637" d="M120.118,297.673c-5.177-1.548-10.011,0.77-14.808,5.823c-3.982,4.196-6.854,11.853-7.994,14.802
			c-4.462,11.53-0.14,43.137-0.126,51.529c0.012,5.827-0.101,11.944-3.56,11.519c-1.673-0.206-3.703-9.518-9.98-7.913
			c-3.146,0.803-0.686,11.858,8.946,11.733c7.12-0.088,8.489-4.867,9.338-9.495c1.017-5.555,0.88-13.061,0.896-15.791
			c0.054-8.436-1.536-18.289-0.288-26.862c1.745-12.012,4.803-20.247,6.198-23.517c1.444-3.393,5.405-10.878,10.126-8.793
			c2,0.885,3.19,2.798,4.443,4.9c2.9,4.872,3.559,14.604,3.191,20.151c-0.652,9.797-5.585,35.514-2.515,49.255
			c0.765,3.413,2.612,6.327,5.805,6.548c0.98,0.068-1.447-1.405-1.99-3.119c-1.85-5.85-1.624-10.764-1.537-16.624
			c0.198-13.405,4.596-27.745,5.547-42.62C132.396,310.003,129.326,300.421,120.118,297.673z"/>
		<path fill="#AD0637" d="M234.514,328.435c-2.28-0.919-1.868,7.477-2.817,11.439c-1.444,6.037-3.88,12.061-7.886,16.711
			c-1.303,1.511-2.812,2.839-4.125,3.137c-1.517,0.343-2.03-0.412-1.796-1.681c0.774-4.186,0.061-21.791-2.048-22.39
			c-2.979-0.847-2.968,4.255-2.177,10.088c0.663,4.889,0.795,14.844,0.217,22.453c-0.137,1.811-1.069,18.288,2.371,13.897
			c0.941-1.201,1.532-11.266,1.496-13.77c-0.035-2.562,0.13-4.294,3.916-3.871c7.099,0.795,5.388,19.416,6.708,20.487
			c1.792,1.458,2.556-5.751,2.549-10.286c-0.012-6.014-1.901-8.979-5.563-13.805c1.372-1.485,6.767-7.264,9.383-14.975
			C235.909,342.438,238.856,330.179,234.514,328.435z"/>
		<path fill="#AD0637" d="M275.03,356.636c-1.205,0.996-2.258,2.289-3.13,2.189c-0.397-0.046-0.417-0.132-0.369-0.442
			c-0.753-9.35-7.328-22.874-18.504-18.392c-4.028,1.617-7.447,5.272-9.625,8.997c-3.491,5.973-3.508,22.404,0.796,29.567
			c1.339,2.227,4.064,7.488,6.221,3.938c0.482-0.798-0.768-2.218-1.675-4.278c-1.651-3.752-3.491-9.3-3.491-14.258
			c0-0.599-0.008-12.919,1.664-6.962c1.042,3.717,4.27,5.947,8.067,7.391c0.836,0.315,3.756,1.275,6.941,1.209
			c2.515-0.055,4.836-0.987,4.786-0.754c-1.79,8.532-1.949,13.971-1.684,16.449c0.338,3.161,1.479,1.857,2.203,0.127
			c0.862-2.071,1.706-5.716,1.813-6.317c0.256-1.44,1.669-10.957,2.457-11.81c1.567-1.703,3.553-2.229,4.783-3.881
			C277.928,357.19,279.13,353.256,275.03,356.636z M266.476,360.355c-0.104,0.796-5.814,0.953-10.112-0.798
			c-2.955-1.202-5.25-3.86-6.563-6.396c-3.328-6.42,5.347-9.248,9.05-7.991C264.298,347.014,267.018,356.206,266.476,360.355z"/>
		<path fill="#AD0637" d="M553.859,356.636c-1.204,0.996-2.258,2.289-3.129,2.189c-0.398-0.046-0.418-0.132-0.369-0.442
			c-0.754-9.35-7.328-22.874-18.504-18.392c-4.028,1.617-7.447,5.272-9.625,8.997c-3.49,5.973-3.508,22.404,0.796,29.567
			c1.339,2.227,4.064,7.488,6.221,3.938c0.482-0.798-0.769-2.218-1.675-4.278c-1.65-3.752-3.49-9.3-3.49-14.258
			c0-0.599-0.009-12.919,1.663-6.962c1.042,3.717,4.27,5.947,8.067,7.391c0.836,0.315,3.756,1.275,6.941,1.209
			c2.515-0.055,4.836-0.987,4.785-0.754c-1.789,8.532-1.948,13.971-1.684,16.449c0.338,3.161,1.479,1.857,2.203,0.127
			c0.861-2.071,1.706-5.716,1.813-6.317c0.256-1.44,1.669-10.957,2.457-11.81c1.567-1.703,3.553-2.229,4.782-3.881
			C556.758,357.19,557.96,353.256,553.859,356.636z M545.306,360.355c-0.104,0.796-5.813,0.953-10.112-0.798
			c-2.955-1.202-5.25-3.86-6.563-6.396c-3.328-6.42,5.347-9.248,9.051-7.991C543.129,347.014,545.848,356.206,545.306,360.355z"/>
		<path fill="#AD0637" d="M508.896,361.91c-2.889-3.833-7.848-5.217-11.58-4.161c-5.024,1.423-7.708,6.444-8.562,10.448
			c-0.557,2.612,0.047,4.943-0.037,5.037c-0.193,0.22-3.801-10.068-2.42-10.113c2.978-0.094,9.221-6.776,11.994-11.792
			c4.093-7.411,11.821-33.786,0.301-37.25c-10.905-3.275-16.916,11.784-18.806,25.677c-0.414,3.057-0.482,6.067-0.409,8.813
			c0.178,6.851,0.714,10.964,2.736,17.609c0.566,1.589,1.188,3.245,1.79,4.859c1.67,4.479,5.146,9.046,8.293,11.585
			c4.56,3.675,10.817,3.826,14.461,1.037c3.6-2.758,5.319-8.036,4.71-13.336C510.989,367.01,510.497,364.03,508.896,361.91z
			 M484.411,358.838c-2.821-1.818-2.198-14.627-1.569-18.558c1.251-7.809,4.682-17.949,10.183-22.001
			c3.699-2.727,6.586,1.922,7.344,6.176C502.634,337.121,489.258,361.952,484.411,358.838z M499.068,381.198
			c-12.263-1.344-6.915-21.064,2.099-19.146c4.39,0.933,6.512,7.562,6.596,10.95C507.867,377.293,505.111,381.86,499.068,381.198z"
			/>
		<path fill="#AD0637" d="M395.816,343.176c-5.93-1.244-9.849,2.171-12.274,7.52c-0.633,1.397-1.6,8.319-0.84,14.911
			c0.898,7.803,3.711,16.077,5.118,27.448c1.069,8.637,0.907,19.386,0.635,26.328c-0.051,1.307-0.107,2.477-0.155,3.474
			c-0.139,2.672,0.003,3.797,0.745,4.04c0.519,0.17,1.409,0.714,2.367-2.383c2.206-7.166,1.518-26.967,1.31-28.478
			c-0.724-5.236-1.635-9.788-2.351-12.966c0-0.001-0.001,0-0.001-0.001c-0.005-0.028-0.013-0.061-0.016-0.091
			c-0.597-2.643-1.047-4.32-1.123-4.616c-0.709-2.762-1.654-6.394-2.138-9.955c-0.344-2.512-0.353-5.016-0.278-7.106
			c0.202-5.563,2.416-9.59,5.183-11.525c4.29-2.997,8.463-0.434,10.661,4.379c1.771,3.873,2.262,9.206,0.503,14.268
			c-1.004,2.885-3.522,7.147-6.208,8.786c-2.661,1.618-6.146,2.577-7.109,2.537c-0.157-0.005-0.264-0.026-0.237,0.068l0.07,0.271
			l0.369,1.528c0.019,0.073,0.034,0.169,0.057,0.261c0.075,0.335,0.175,0.752,0.252,1.104c0.007,0.03,0.011,0.062,0.019,0.092
			c0.008,0.024,0.032,0.007,0.104,0.022c0.896,0.192,7.79-0.474,12.545-5.366c6.009-6.175,6.773-18.188,3.511-25.933
			C404.718,347.491,400.683,344.198,395.816,343.176z"/>
		<path fill="#AD0637" d="M355.047,357.632c-5.148-0.345-9.321,3.445-11.45,6.893c-1.382,2.245-1.597,4.619-1.704,4.679
			c-0.367,0.087-0.738-5.563,0.108-12.176c0.801-6.248,0.958-8.446,2.612-12.879c1.361-3.65-0.438-4.583-2.586-1.123
			c-3.391,5.456-3.65,11.216-3.944,17.41c0.002,1.671,0.031,3.42,0.053,5.124c0.069,4.727,1.791,10.142,3.878,13.551
			c3.028,4.938,8.809,7.157,13.132,5.771c4.27-1.374,7.626-5.719,8.819-10.859c0.747-3.212,1.276-6.154,0.491-8.662
			C363.035,360.823,358.879,357.887,355.047,357.632z M358.942,374.835c-1.179,3.581-4.813,6.543-9.616,4.211
			c-9.405-4.562,1.513-20.2,7.389-15.222C359.086,365.834,359.829,372.143,358.942,374.835z"/>
		<path fill="#AD0637" d="M368.739,340.871c-0.983-0.116-1.822,1.53-1.798,4.184c0.064,7.267,1.685,13.363,1.552,21.335
			c-0.106,6.514-1.217,15.549-0.648,17.063c0.583,1.549,0.675,1.549,1.228,0.017c1.228-3.379,3.132-12.549,3.43-21.182
			c0.225-6.726-0.662-11.839-1.935-17.641C370.116,342.599,369.625,340.975,368.739,340.871z"/>
		<path fill="#AD0637" d="M329.944,312.473c-10.826-5.38-19.817,9.309-24.274,23.509c-0.981,3.124-1.596,6.267-2.007,9.152
			c-1.037,7.201-1.212,11.601-0.286,18.92c1.254,7.152,2.567,13.297,7.613,19.016c4.116,4.659,10.636,5.938,14.95,3.665
			c2.442-1.282,3.654-2.356,4.93-5.117c1.897-4.129-1.19-7.593-5.196-1.466c-1.527,2.335-3.158,2.587-6.963,1.5
			c-4.195-1.197-7.377-8.874-8.88-16.553c-1.635-8.354-1.288-24.364,2.265-32.589c2.972-6.87,5.968-13.971,11.27-16.633
			c3.04-1.529,4.703,0.743,5.959,3.621C331.741,325.05,335.861,316.18,329.944,312.473z"/>
		<path fill="#AD0637" d="M459.832,343.176c-5.93-1.244-9.849,2.171-12.274,7.52c-0.633,1.397-1.59,8.317-0.837,14.911
			c0.488,4.3,1.066,8.871,2.653,13.763c1.301,4.004,5.057,3.929,5.078,3.898c-0.018-0.086-0.037-0.161-0.058-0.244
			c-0.068-0.269-0.17-0.637-0.223-0.87c-0.001-0.006-0.014-0.006-0.016-0.011c-0.027-0.126-0.05-0.251-0.076-0.372
			c-0.009-0.05-0.003-0.094-0.009-0.142c0.054,0.373,0.187,0.804,0.322,1.395c0.025,0.099,0.048,0.187,0.058,0.244h-0.001
			c0.001,0.007,0.001,0.008,0.001,0.013c0.009,0.028,0.039,0.007,0.111,0.024c0.894,0.191,7.716-0.685,12.471-5.576
			c6.008-6.176,6.774-18.189,3.51-25.934C468.733,347.491,464.698,344.198,459.832,343.176z M454.876,379.546
			c-0.015,0.018-0.024,0.031-0.039,0.047c-0.005,0.004-0.007,0.006-0.011,0.01c-0.013,0.016-0.025,0.029-0.041,0.041
			c-0.029,0.033-0.065,0.07-0.091,0.103c-0.49,0.669-0.647,1.102-0.649,1.545c0-0.045-0.016-0.084-0.012-0.129
			c0.016-0.2,0.068-0.356,0.122-0.506c0.076-0.211,0.175-0.408,0.347-0.641c0.07-0.103,0.139-0.205,0.199-0.28
			c0.031-0.036,0.058-0.063,0.084-0.092c0.018-0.015,0.029-0.031,0.047-0.049c0.025-0.036,0.049-0.064,0.063-0.091
			C454.89,379.52,454.883,379.539,454.876,379.546z M467.177,368.421c-1.004,2.883-3.479,7.226-6.209,8.786
			c-3.088,1.763-5.203,1.875-6.059,2.222c-0.012,0.005,0.005,0.006,0.009,0.018c0.004,0.005-0.003,0.014-0.003,0.024
			c0,0.01-0.008,0.016-0.015,0.026c0.016-0.029,0.021-0.051,0.007-0.075c-0.004-0.004-0.008-0.011-0.014-0.015
			c-2.296-2.025-2.251-3.826-2.997-6.7l-0.791-4.302c-0.457-2.494-0.35-5.016-0.276-7.107c0.205-5.563,2.415-9.589,5.186-11.524
			c4.285-2.997,8.459-0.434,10.658,4.379C468.443,358.027,468.933,363.36,467.177,368.421z"/>
	</g>
</g>
<circle fill="#E49846" cx="239.652" cy="240.218" r="3.941"/>
<circle fill="#E49846" cx="233.203" cy="234.008" r="2.568"/>
<circle fill="#E49846" cx="227.59" cy="228.633" r="2.209"/>
</svg>
