<?xml version="1.0" encoding="utf-8"?>
<!-- Generator: Adobe Illustrator 16.0.0, SVG Export Plug-In . SVG Version: 6.00 Build 0)  -->
<!DOCTYPE svg PUBLIC "-//W3C//DTD SVG 1.1//EN" "http://www.w3.org/Graphics/SVG/1.1/DTD/svg11.dtd">
<svg version="1.1" id="Layer_1" xmlns="http://www.w3.org/2000/svg" xmlns:xlink="http://www.w3.org/1999/xlink" x="0px" y="0px"
	 width="211px" height="62.402px" viewBox="0 0 211 62.402" enable-background="new 0 0 211 62.402" xml:space="preserve">
<path fill="#FFFFFF" d="M49.669,5.756C44.185,2.552,37.73,0.34,31.159,0.74C22.63,1.259,14.051,5.607,8.633,12.012
	C1.736,20.17-0.783,33.846,3.396,43.775c2.04,4.844,5.867,9.49,10.139,12.729c2.476,1.446,5.687,3.445,8.524,4.183
	c3.515,0.911,8.489,1.06,12.327,0.691c11.568-1.108,22.209-9.295,26.427-19.134c2.411-5.622,3.239-12.958,1.801-18.81
	c-1.01-4.11-3.195-7.875-5.928-11.294C54.713,9.672,52.134,7.625,49.669,5.756z"/>
<path fill="#FFFFFF" d="M93.565,30.763c0.526-0.521-0.061-2.414-1.193-3.232c-1.038-0.751-3.331-0.331-3.93,1.053
	c-0.215,0.498,1.364,1.296,2.83,1.769C92.416,30.716,93.494,30.833,93.565,30.763z M94.902,33.079
	c-0.246,1.996-0.705,4.16-1.2,4.923c-0.224,0.348-0.257,0.343-0.439-0.024c-0.28-0.565,0.298-5.511,0.291-5.529
	c-0.436,0.013-1.485-0.053-2.536-0.467c-1.394-0.549-2.746-1.592-2.746-1.487c-0.002,0.532-0.201,2.065,0.008,3.613
	c0.229,1.686,0.788,3.422,0.905,4.146c0.116,0.717-0.712,0.586-0.826,0.454c-1.46-1.671-2.12-7.886-1.157-10.021
	c0.737-1.641,2.31-3.457,4.112-3.076c1.479,0.313,2.705,1.319,3.255,2.638C95.312,30.021,95.129,31.224,94.902,33.079z"/>
<path fill="#FFFFFF" d="M107.449,34.691c-0.114-1.018-0.266-1.928-0.752-2.576c-0.877-1.174-2.384-1.598-3.518-1.273
	c-1.525,0.438-2.342,1.977-2.601,3.199c-0.169,0.798,0.014,1.516-0.011,1.54c-0.058,0.068-1.155-3.082-0.735-3.095
	c0.905-0.028,2.801-2.074,3.644-3.61c1.245-2.269,3.592-10.344,0.093-11.401c-3.313-1.006-5.141,3.605-5.714,7.858
	c-0.126,0.938-0.147,1.857-0.125,2.698c0.055,2.096,0.217,3.354,0.831,5.392c0.173,0.486,0.363,0.992,0.545,1.487
	c0.506,1.371,1.563,2.771,2.52,3.547c1.385,1.124,3.286,1.171,4.394,0.316C107.111,37.93,107.635,36.313,107.449,34.691z
	 M99.26,31.175c-0.856-0.557-0.668-4.478-0.476-5.681c0.38-2.391,1.422-5.495,3.093-6.736c1.124-0.834,2,0.592,2.23,1.894
	C104.796,24.526,100.732,32.129,99.26,31.175z M103.708,38.009c-3.726-0.407-2.101-6.445,0.638-5.857
	c1.333,0.286,1.98,2.313,2.003,3.354C106.382,36.814,105.543,38.212,103.708,38.009z"/>
<path fill="#FFFFFF" d="M171.934,15.267c-0.391,0.256-0.207,1.219-0.059,2.438c0.157,1.304,0.684,4.936,0.548,9.646
	c-0.129,4.515-0.79,7.951-0.758,10.184c0.024,1.722,0.876,1.837,1.198,0.249c0.347-1.691,1.115-9.499,1.423-9.527
	c0.343-0.029,1.121,0.378,1.637,1.405c0.744,1.479,1.192,3.746,1.196,6.172c0.002,1.09,0,2.561,0.563,3.257
	c0.408,0.512,0.868-0.354,0.842-1.079c-0.028-0.768-0.308-0.441-0.346-1.479c-0.078-2.049,0.129-4.313-0.189-6.319
	c-0.272-1.728-1.002-3.457-2.614-4.024c-0.077-0.027,1.496-1.184,2.731-3.602c0.881-1.722,1.508-3.183,1.604-5.682
	c0.063-1.674-0.394-3.927-1.233-3.83c-0.365,0.042,0.153,1.677,0.06,3.778c-0.04,0.879-0.239,2.378-0.896,3.976
	c-1.091,2.647-2.342,4.677-3.383,4.548c-0.398-0.049-0.498-1.809-0.505-2.228c-0.015-0.854-0.065-0.93-0.091-1.838
	c-0.051-1.822-0.38-3.718-0.627-4.458C172.654,15.718,172.298,15.024,171.934,15.267z"/>
<path fill="#FFFFFF" d="M73.832,38.065c-0.508-0.063-1.125-2.913-3.033-2.423c-0.956,0.247-0.209,3.631,2.717,3.594
	c2.164-0.028,2.58-1.491,2.837-2.907c0.31-1.7,0.268-3.999,0.273-4.835c0.016-2.582-0.467-5.599-0.088-8.223
	c0.531-3.681,1.46-6.199,1.883-7.199c0.439-1.038,1.643-3.33,3.077-2.692c0.607,0.271,0.97,0.857,1.35,1.5
	c0.881,1.492,1.08,4.475,0.97,6.169c-0.198,3.001-1.697,10.872-0.764,15.079c0.232,1.046,0.793,1.938,1.763,2.004
	c0.298,0.022-0.439-0.429-0.604-0.95c-0.562-1.791-0.494-3.3-0.467-5.093c0.06-4.104,1.396-8.495,1.685-13.048
	c0.178-2.814-0.754-5.75-3.551-6.592c-1.574-0.474-3.043,0.237-4.5,1.783c-1.21,1.284-2.082,3.629-2.429,4.532
	c-1.355,3.527-0.043,13.207-0.038,15.773C74.916,36.323,74.883,38.196,73.832,38.065z"/>
<path fill="#FFFFFF" d="M111.584,30.931c0.234-1.281,0.021-6.673-0.622-6.854c-0.903-0.259-0.901,1.303-0.661,3.088
	c0.201,1.497,0.242,4.543,0.065,6.875c-0.041,0.554-0.324,5.601,0.72,4.254c0.286-0.367,0.467-3.449,0.455-4.215
	c-0.012-0.784,0.04-1.313,1.189-1.185c2.158,0.239,1.637,5.939,2.039,6.271c0.543,0.447,0.772-1.761,0.771-3.146
	c-0.004-1.844-0.577-2.749-1.688-4.229c0.418-0.455,2.058-2.226,2.854-4.584c0.354-1.051,1.249-4.804-0.07-5.337
	c-0.693-0.282-0.566,2.288-0.855,3.502c-0.438,1.848-1.18,3.692-2.396,5.115c-0.396,0.463-0.854,0.869-1.253,0.96
	C111.669,31.55,111.514,31.319,111.584,30.931z"/>
<path fill="#FFFFFF" d="M127.881,31.035c-0.016,0.096-0.008,0.122,0.113,0.137c0.264,0.029,0.584-0.363,0.949-0.669
	c1.246-1.036,0.882,0.168,0.381,0.849c-0.374,0.507-0.979,0.668-1.453,1.188c-0.238,0.26-0.669,3.174-0.746,3.615
	c-0.031,0.185-0.289,1.3-0.553,1.934c-0.219,0.529-0.564,0.932-0.668-0.038c-0.082-0.76-0.032-2.424,0.512-5.034
	c0.016-0.07-0.689,0.215-1.452,0.229c-0.969,0.021-1.854-0.271-2.11-0.368c-1.15-0.44-2.135-1.126-2.451-2.265
	c-0.508-1.822-0.506,1.95-0.506,2.133c0,1.52,0.563,3.217,1.063,4.364c0.274,0.631,0.656,1.063,0.511,1.31
	c-0.656,1.087-1.484-0.521-1.892-1.205c-1.31-2.19-1.304-7.224-0.242-9.052c0.662-1.141,1.7-2.26,2.927-2.754
	C125.654,24.033,127.65,28.173,127.881,31.035z M126.346,31.64c0.164-1.271-0.662-4.085-2.316-4.65
	c-1.125-0.384-3.762,0.481-2.75,2.446c0.398,0.774,1.099,1.591,1.994,1.959C124.578,31.931,126.314,31.883,126.346,31.64z"/>
<path fill="#FFFFFF" d="M209.458,30.763c0.524-0.521-0.062-2.414-1.194-3.232c-1.037-0.751-3.33-0.331-3.931,1.053
	c-0.215,0.498,1.364,1.296,2.83,1.769C208.309,30.716,209.387,30.833,209.458,30.763z M210.792,33.079
	c-0.245,1.996-0.703,4.16-1.199,4.923c-0.223,0.348-0.256,0.343-0.438-0.024c-0.276-0.565,0.302-5.511,0.291-5.529
	c-0.434,0.013-1.482-0.053-2.533-0.467c-1.396-0.549-2.747-1.592-2.747-1.487c-0.001,0.532-0.2,2.065,0.01,3.613
	c0.229,1.686,0.787,3.422,0.905,4.146c0.113,0.717-0.712,0.586-0.827,0.454c-1.46-1.671-2.118-7.886-1.153-10.021
	c0.734-1.641,2.312-3.457,4.11-3.076c1.479,0.313,2.703,1.319,3.254,2.638C211.204,30.021,211.021,31.224,210.792,33.079z"/>
<path fill="#FFFFFF" d="M167.83,36.957c-1.443,1.498-3.541,1.702-3.813,1.645c-0.021-0.007-0.029,0.002-0.031-0.009
	c-0.022-0.109-0.057-0.254-0.082-0.363c-0.006-0.027-0.012-0.061-0.018-0.079l-0.113-0.469l-0.021-0.083
	c-0.008-0.029,0.023-0.023,0.072-0.021c0.293,0.013,1.352-0.281,2.158-0.778c0.815-0.5,1.584-1.805,1.888-2.688
	c0.532-1.55,0.386-3.187-0.152-4.369c-0.669-1.473-1.937-2.257-3.237-1.34c-0.842,0.593-1.514,1.826-1.576,3.525
	c-0.021,0.645-0.018,1.407,0.088,2.179c0.146,1.09,0.434,2.202,0.646,3.048c0.053,0.199,0.655,2.45,1.063,5.41
	c0.063,0.463,0.272,6.522-0.396,8.719c-0.291,0.949-0.563,0.78-0.721,0.729c-0.227-0.073-0.271-0.42-0.229-1.234
	c0.017-0.308,0.031-0.665,0.047-1.063c0.084-2.125,0.134-5.417-0.19-8.062c-0.429-3.48-1.282-6.014-1.556-8.402
	c-0.229-2.017,0.063-4.135,0.255-4.563c0.735-1.64,1.927-2.686,3.729-2.305c1.479,0.313,2.705,1.322,3.256,2.641
	C169.889,31.389,169.654,35.067,167.83,36.957z"/>
<path fill="#FFFFFF" d="M151.518,37.361c1.459,0.714,2.563-0.193,2.92-1.288c0.271-0.825,0.045-2.756-0.676-3.371
	C151.977,31.177,148.658,35.965,151.518,37.361z M149.257,34.348c0.034-0.021,0.099-0.744,0.521-1.436
	c0.646-1.055,1.914-2.215,3.479-2.106c1.164,0.075,2.431,0.977,2.86,2.363c0.236,0.77,0.076,1.667-0.15,2.65
	c-0.359,1.573-1.383,2.903-2.68,3.325c-1.313,0.424-3.068-0.255-3.988-1.771c-0.636-1.042-1.156-2.699-1.178-4.146
	c-0.012-0.521-0.02-1.062-0.02-1.569c0.088-1.896,0.168-3.659,1.198-5.33c0.652-1.059,1.199-0.771,0.785,0.344
	c-0.503,1.357-0.55,2.03-0.793,3.943C149.033,32.645,149.146,34.374,149.257,34.348z"/>
<path fill="#FFFFFF" d="M158.557,32.23c-0.089,2.645-0.668,5.452-1.041,6.482c-0.168,0.471-0.197,0.471-0.373-0.006
	c-0.174-0.463,0.166-3.229,0.196-5.223c0.042-2.44-0.452-4.309-0.472-6.531c-0.006-0.813,0.248-1.314,0.548-1.282
	c0.269,0.032,0.419,0.529,0.556,1.156C158.357,28.606,158.626,30.172,158.557,32.23z"/>
<path fill="#FFFFFF" d="M142.214,38.158c1.156,0.333,1.651,0.256,2.115-0.459c1.218-1.875,2.157-0.815,1.579,0.449
	c-0.387,0.846-0.756,1.174-1.498,1.565c-1.309,0.693-3.291,0.306-4.541-1.124c-1.533-1.75-1.932-3.631-2.313-5.818
	c-0.281-2.241-0.229-3.587,0.086-5.792c0.125-0.884,0.313-1.849,0.608-2.805c1.354-4.347,4.084-8.844,7.374-7.194
	c1.797,1.135,0.547,3.85-0.188,2.147c-0.381-0.881-0.888-1.577-1.812-1.106c-1.608,0.813-2.521,2.985-3.422,5.093
	c-1.081,2.518-1.188,7.418-0.688,9.977C139.975,35.441,140.939,37.792,142.214,38.158z"/>
<path fill="#FFFFFF" d="M187.277,36.957c-1.443,1.498-3.52,1.77-3.787,1.708c-0.021-0.006-0.032,0.001-0.032-0.008
	c-0.112-0.533-0.251-0.638,0.071-1.082c0.016-0.02,0.035-0.037,0.056-0.062c0.003-0.006,0.011-0.018,0.011-0.021
	s0.002-0.007,0.002-0.009c-0.002-0.003-0.006-0.005-0.002-0.005c0.26-0.107,0.901-0.145,1.84-0.686
	c0.83-0.476,1.582-1.805,1.887-2.688c0.535-1.55,0.389-3.187-0.151-4.369c-0.667-1.473-1.937-2.257-3.233-1.34
	c-0.845,0.593-1.519,1.826-1.576,3.525c-0.023,0.645-0.059,1.412,0.084,2.179l0.24,1.314c0.227,0.878,0.213,1.434,0.907,2.051
	c0.003,0.004,0.007,0.006,0.007,0.008c0.008,0.013-0.008,0.026-0.022,0.055c-0.013,0.014-0.026,0.021-0.04,0.04
	c-0.018,0.021-0.039,0.055-0.061,0.087c-0.055,0.07-0.082,0.131-0.105,0.195c-0.016,0.046-0.032,0.093-0.036,0.151
	c-0.005,0.064,0,0.123,0.015,0.188c0.008,0.038,0.014,0.077,0.023,0.115c0,0.002,0.005,0.002,0.005,0.002
	c0.021,0.1,0.071,0.271,0.086,0.343c0.002,0.009-1.149,0.036-1.546-1.194c-0.48-1.498-0.656-2.896-0.807-4.213
	c-0.229-2.018,0.063-4.136,0.256-4.563c0.736-1.64,1.926-2.686,3.729-2.305c1.479,0.313,2.705,1.322,3.256,2.641
	C189.338,31.389,189.104,35.067,187.277,36.957z"/>
<path fill="#FFFFFF" d="M200.748,34.691c-0.115-1.018-0.266-1.928-0.752-2.577c-0.878-1.173-2.385-1.597-3.518-1.272
	c-1.527,0.438-2.342,1.977-2.604,3.199c-0.169,0.798,0.019,1.516-0.009,1.54c-0.061,0.067-1.155-3.082-0.736-3.095
	c0.905-0.028,2.803-2.074,3.645-3.611c1.244-2.268,3.594-10.343,0.094-11.4c-3.313-1.006-5.141,3.605-5.715,7.858
	c-0.125,0.938-0.146,1.857-0.125,2.698c0.058,2.096,0.22,3.354,0.832,5.391c0.175,0.487,0.361,0.993,0.545,1.488
	c0.508,1.371,1.563,2.771,2.52,3.547c1.389,1.123,3.286,1.17,4.395,0.316C200.41,37.929,200.934,36.313,200.748,34.691z
	 M192.559,31.175c-0.854-0.557-0.668-4.478-0.478-5.681c0.38-2.391,1.423-5.494,3.094-6.735c1.124-0.834,2.001,0.592,2.231,1.894
	C198.096,24.526,194.029,32.129,192.559,31.175z M197.012,38.021c-3.727-0.41-2.102-6.449,0.639-5.861
	c1.332,0.287,1.979,2.314,2.002,3.354C199.686,36.826,198.848,38.223,197.012,38.021z"/>
<g>
	<path d="M44.522,37.889l-1.205-2.355l-0.185-0.36l-0.192,0.355c-0.088,0.164-0.207,0.293-0.338,0.371
		c-0.117,0.068-0.242,0.096-0.363,0.072l0,0l-0.004-0.002c-0.154-0.033-0.278-0.17-0.356-0.35c-0.088-0.2-0.117-0.444-0.074-0.663
		h0.001l0.001-0.01c0.048-0.223,0.125-0.37,0.219-0.474c0.092-0.101,0.209-0.164,0.341-0.213l0.154-0.057l-0.015-0.162
		c-0.095-1.002-0.384-1.361-0.761-1.831c-0.194-0.241-0.414-0.516-0.638-0.937l-0.091-0.17l-0.179,0.074
		c-0.278,0.117-0.606,0.062-0.914-0.113c-0.338-0.193-0.649-0.527-0.85-0.942c-0.195-0.404-0.26-0.819-0.208-1.178
		c0.05-0.348,0.208-0.642,0.457-0.813l0.114-0.078l-0.025-0.136l-0.032-0.172c-0.132-0.728-0.193-1.066-0.349-1.37
		c-0.136-0.266-0.326-0.473-0.682-0.859c-0.104-0.114-0.225-0.246-0.374-0.412l-0.168-0.187l-0.156,0.197
		c-0.064,0.079-0.137,0.146-0.218,0.2l0.001,0c-0.076,0.051-0.159,0.087-0.249,0.111l0,0l-0.008,0.002v0
		c-0.281,0.068-0.577-0.023-0.83-0.227c-0.268-0.217-0.488-0.559-0.594-0.975l-0.006-0.022l0,0
		c-0.098-0.399-0.073-0.792,0.045-1.108c0.115-0.303,0.315-0.536,0.574-0.635l0.221-0.085l-0.107-0.21l-2.441-4.774l-0.089-0.174
		l-0.181,0.075c-0.31,0.127-0.682,0.11-1.049-0.033c-0.375-0.147-0.741-0.423-1.031-0.809c-0.106-0.141-0.194-0.289-0.268-0.44
		c-0.075-0.154-0.131-0.312-0.17-0.468l-0.041-0.162l-0.168,0.001c-0.551,0.006-1.098-0.036-1.643-0.077
		c-1.11-0.085-2.22-0.17-3.505,0.128l-0.098,0.022l-0.045,0.089c-0.885,1.752-1.012,2.707-1.222,4.298
		c-0.042,0.318-0.088,0.665-0.153,1.098l-0.026,0.185l0.18,0.051c0.201,0.056,0.395,0.189,0.556,0.38
		c0.163,0.191,0.29,0.44,0.36,0.724c0.095,0.388,0.064,0.767-0.063,1.065c-0.117,0.279-0.319,0.484-0.577,0.55
		c-0.132,0.034-0.267,0.028-0.396-0.008c-0.14-0.041-0.278-0.121-0.404-0.232l-0.24-0.211l-0.103,0.304
		c-0.48,1.426-0.836,2.548-1.13,3.686c-0.296,1.139-0.528,2.293-0.765,3.782l-0.029,0.18l0.172,0.056
		c0.02,0.006,0.041,0.015,0.063,0.024v-0.001c0.019,0.008,0.038,0.018,0.059,0.029l0.007,0.003l0,0.001
		c0.228,0.127,0.367,0.37,0.409,0.661c0.044,0.314-0.023,0.678-0.21,1.022l-0.011,0.018c-0.126,0.226-0.29,0.413-0.469,0.553
		c-0.182,0.141-0.38,0.232-0.574,0.267l-0.137,0.023l-0.035,0.135l-0.686,2.705l-0.073,0.289l0.297-0.025
		c0.197-0.018,0.393,0,0.57,0.049c0.166,0.046,0.316,0.121,0.437,0.225c0.056,0.049,0.103,0.102,0.141,0.156
		c0.084,0.125,0.119,0.266,0.104,0.404c-0.015,0.146-0.08,0.295-0.197,0.431c-0.066,0.076-0.147,0.149-0.246,0.214
		c-0.187,0.128-0.405,0.21-0.629,0.249c-0.233,0.04-0.471,0.034-0.686-0.021l-0.207-0.052l-0.052,0.207l-1.016,3.999l-0.037,0.148
		l0.132,0.085c0.258,0.16,0.52,0.311,0.786,0.451c3.619,1.918,8.655,2.41,13.324,1.556c4.677-0.855,9-3.063,11.18-6.543
		c0.131-0.21,0.253-0.42,0.364-0.629l0.052-0.097L44.522,37.889z M29.716,24.787c-0.093,0.215-0.252,0.373-0.454,0.424
		s-0.417-0.014-0.601-0.16c-0.199-0.158-0.36-0.408-0.437-0.711l0-0.004c-0.077-0.306-0.053-0.604,0.048-0.837
		c0.092-0.213,0.25-0.371,0.451-0.422l0.004-0.001c0.203-0.051,0.417,0.015,0.601,0.161c0.2,0.158,0.362,0.409,0.438,0.714
		C29.842,24.256,29.818,24.553,29.716,24.787z M28.592,34.422c0.388,0.271,0.711,0.713,0.876,1.262
		c0.165,0.55,0.139,1.097-0.035,1.537c-0.168,0.424-0.476,0.747-0.881,0.869c-0.406,0.122-0.841,0.021-1.216-0.238
		c-0.388-0.271-0.711-0.714-0.875-1.262c-0.166-0.551-0.141-1.098,0.035-1.537c0.167-0.424,0.476-0.748,0.881-0.869
		C27.784,34.06,28.217,34.161,28.592,34.422z M26.603,41.167c0.052,0.179,0.095,0.348,0.129,0.479v0.002l0.023,0.092h0
		c0.024,0.094,0.045,0.165,0.064,0.236c0.095,0.336,0.172,0.613,0.051,0.751c-0.105,0.119-0.238,0.188-0.387,0.214
		c-0.188,0.031-0.401-0.002-0.616-0.083c-0.227-0.088-0.452-0.227-0.65-0.4c-0.327-0.286-0.581-0.665-0.647-1.062
		c-0.076-0.445-0.043-0.875,0.079-1.211c0.109-0.296,0.286-0.511,0.516-0.578C25.957,39.373,26.382,40.42,26.603,41.167z
		 M24.272,28.475c0.253-0.061,0.52,0.022,0.749,0.207c0.246,0.198,0.445,0.51,0.542,0.89h0.001l0.005,0.021v0
		c0.095,0.388,0.064,0.766-0.062,1.064c-0.119,0.278-0.321,0.483-0.579,0.55l0,0l-0.007,0.002l0,0
		c-0.253,0.062-0.521-0.021-0.75-0.206c-0.246-0.198-0.446-0.51-0.542-0.89l-0.006-0.021l0,0c-0.094-0.388-0.064-0.766,0.063-1.063
		c0.118-0.279,0.32-0.484,0.578-0.55l0.008-0.002V28.475L24.272,28.475z M36.157,33.701c0.205-0.044,0.421,0.035,0.612,0.205
		c0.214,0.188,0.393,0.479,0.499,0.84c0.018,0.058,0.032,0.117,0.046,0.182c0.091,0.43,0.062,0.851-0.06,1.182
		c-0.113,0.307-0.301,0.529-0.538,0.6c-0.012,0.004-0.027,0.007-0.043,0.01c-0.205,0.043-0.422-0.035-0.612-0.204
		c-0.214-0.188-0.393-0.479-0.5-0.84c-0.017-0.058-0.032-0.118-0.045-0.183c-0.091-0.429-0.062-0.85,0.061-1.182
		c0.112-0.305,0.3-0.529,0.537-0.599C36.126,33.708,36.141,33.705,36.157,33.701z M33.573,26.362c0.14-0.099,0.332-0.107,0.54-0.039
		c0.237,0.078,0.491,0.251,0.717,0.506c0.063,0.07,0.125,0.146,0.185,0.232c0.253,0.361,0.402,0.759,0.435,1.109
		c0.031,0.32-0.036,0.594-0.203,0.744c-0.013,0.011-0.026,0.022-0.041,0.033c-0.14,0.099-0.333,0.107-0.541,0.038
		c-0.237-0.078-0.49-0.251-0.717-0.506c-0.063-0.069-0.124-0.146-0.185-0.232c-0.254-0.361-0.401-0.759-0.435-1.109
		c-0.03-0.321,0.036-0.594,0.203-0.744C33.542,26.384,33.556,26.373,33.573,26.362z M32.464,31.729
		c0.215,0.261,0.348,0.622,0.348,1.025c0,0.401-0.132,0.764-0.347,1.022h0c-0.205,0.249-0.485,0.402-0.792,0.402
		c-0.308,0-0.588-0.153-0.794-0.402l0,0c-0.214-0.259-0.348-0.621-0.348-1.022c0-0.402,0.133-0.765,0.348-1.024v-0.001
		c0.205-0.248,0.485-0.401,0.794-0.401C31.979,31.328,32.26,31.482,32.464,31.729z"/>
	<path d="M49.947,18.457c-3.204-4.846-8.228-8.417-14.308-9.563C29.557,7.745,23.568,9.238,18.8,12.578
		c-4.768,3.341-8.313,8.532-9.506,14.78l0,0.001c-1.193,6.249,0.193,12.371,3.398,17.218c3.204,4.846,8.226,8.415,14.307,9.563H27
		c6.082,1.148,12.072-0.345,16.837-3.686c4.77-3.341,8.315-8.533,9.507-14.781C54.538,29.426,53.153,23.303,49.947,18.457z
		 M35.688,8.625c6.159,1.162,11.244,4.777,14.487,9.682c3.243,4.904,4.646,11.098,3.439,17.417
		c-1.207,6.323-4.794,11.574-9.619,14.955c-4.822,3.379-10.88,4.89-17.032,3.733l0,0l-0.015-0.004
		c-6.157-1.161-11.243-4.775-14.486-9.681c-3.241-4.9-4.644-11.088-3.442-17.404v0l0.003-0.014
		c1.207-6.321,4.794-11.573,9.618-14.954C23.468,8.973,29.532,7.463,35.688,8.625z"/>
	<path fill="#E49846" d="M28.208,55.733c0.175,0.109-0.297,0.217-0.65,0.085c-0.344-0.13-0.923-0.618-1.097-0.808
		c-1.195-1.31-3.234-4.974-5.474-4.209c-0.33,0.172-0.428,0.632-0.174,1.175c0.018,0.037-0.313-0.146-0.363-0.222
		c0.043,0.123-0.332-0.854,0.363-1.218c2.216-1.215,4.833,3.123,6.081,4.271c0.355,0.327,0.656,0.589,0.992,0.632L28.208,55.733z"/>
	<path fill="#FFFFFF" d="M32.493,51.955c-0.527-0.358-1.194-0.567-2.102-0.484c-0.918,0.086-1.736,0.407-2.314,0.86
		c-0.564,0.441-0.899,1.005-0.873,1.585c0.004,0.08,0.011,0.159,0.022,0.237c0.064,0.483,0.263,0.918,0.674,1.221
		c0.42,0.31,1.066,0.485,2.019,0.44c0.208-0.01,0.427-0.029,0.662-0.062c1.202-0.16,2.139-0.482,2.726-0.885
		c0.244-0.167,0.424-0.346,0.536-0.533c0.106-0.175,0.15-0.357,0.124-0.539c-0.017-0.138-0.074-0.278-0.169-0.419
		C33.427,52.843,33.028,52.319,32.493,51.955z M30.369,51.197c0.979-0.089,1.702,0.138,2.278,0.529
		c0.57,0.39,0.989,0.936,1.373,1.493c0.121,0.177,0.192,0.357,0.215,0.536c0.034,0.248-0.022,0.49-0.162,0.722
		c-0.132,0.22-0.34,0.427-0.615,0.617c-0.621,0.426-1.599,0.763-2.845,0.93c-0.243,0.033-0.47,0.054-0.683,0.063
		c-1.021,0.05-1.722-0.147-2.191-0.492c-0.478-0.352-0.708-0.852-0.782-1.404c-0.011-0.086-0.019-0.173-0.024-0.26
		c-0.032-0.677,0.344-1.321,0.978-1.817C28.529,51.631,29.397,51.287,30.369,51.197z"/>
	<path fill="#AD0637" d="M30.383,51.38c1.85-0.169,2.723,0.854,3.458,1.926c0.736,1.071-0.634,2.188-3.245,2.539
		c-2.609,0.348-3.398-0.693-3.457-1.927C27.08,52.685,28.533,51.55,30.383,51.38z"/>
	<path fill="#FFFFFF" d="M38.055,51.757c-0.909-0.15-2.048-0.035-3.045,0.265c-0.075,0.023-0.148,0.048-0.222,0.074
		c-0.825,0.307-1.482,0.869-1.888,1.505c-0.4,0.624-0.555,1.313-0.384,1.88c0.01,0.034,0.02,0.064,0.028,0.086
		c0.008,0.021,0.016,0.041,0.024,0.062l0,0c0.226,0.539,0.748,0.898,1.422,1.049c0.691,0.154,1.542,0.086,2.401-0.231
		c0.077-0.028,0.15-0.057,0.223-0.086c0.959-0.402,1.858-1.063,2.431-1.776c0.508-0.634,0.758-1.304,0.553-1.859
		C39.4,52.187,38.811,51.881,38.055,51.757z M34.931,51.76c1.035-0.313,2.218-0.43,3.166-0.274c0.851,0.141,1.52,0.501,1.756,1.142
		c0.242,0.659-0.029,1.422-0.595,2.129c-0.602,0.748-1.539,1.438-2.54,1.856c-0.081,0.035-0.158,0.064-0.232,0.091
		c-0.908,0.336-1.812,0.405-2.553,0.24c-0.76-0.169-1.352-0.583-1.614-1.21v-0.002c-0.011-0.022-0.02-0.048-0.029-0.07
		c-0.014-0.04-0.025-0.073-0.034-0.102v-0.001c-0.195-0.645-0.026-1.417,0.415-2.107c0.437-0.682,1.14-1.287,2.024-1.613
		C34.772,51.809,34.851,51.783,34.931,51.76z"/>
	<path fill="#AD0637" d="M34.992,51.937c1.856-0.56,4.201-0.476,4.661,0.77c0.458,1.242-1.158,2.962-2.999,3.733
		c-1.841,0.772-3.706,0.389-4.165-0.854C32.031,54.342,33.138,52.496,34.992,51.937z"/>
	<path fill="#A74C15" d="M29,21.657c-1.314,3.583,1.061,3.071,1.468,3.69c1.022,1.558,0.076,3.529-3.088,0.566
		c-0.514-0.48-0.397-1.443-0.542-1.527c-0.388-0.223,0.39-1.627,0.703-2.039C27.825,21.974,29.132,21.299,29,21.657z"/>
	<path d="M29.852,25.06c-0.799-0.292-1.902-0.697-0.903-3.421c0.005-0.016,0.008-0.024,0.006-0.027l0,0
		c-0.002-0.005-0.025-0.004-0.061,0c-0.057,0.007-0.133,0.03-0.221,0.065c-0.369,0.145-0.92,0.48-1.089,0.704
		c-0.077,0.101-0.183,0.263-0.293,0.455c-0.16,0.279-0.329,0.619-0.425,0.912c-0.09,0.275-0.119,0.504-0.015,0.583
		c0.005,0.003,0.009,0.006,0.015,0.009v0c0.075,0.043,0.095,0.193,0.122,0.397c0.044,0.338,0.112,0.84,0.43,1.138
		c1.138,1.065,1.982,1.486,2.546,1.517c0.235,0.013,0.42-0.043,0.555-0.148c0.135-0.105,0.223-0.261,0.263-0.447
		c0.087-0.396-0.036-0.927-0.358-1.418C30.33,25.236,30.108,25.155,29.852,25.06z M29.052,21.677
		c-0.962,2.622,0.082,3.005,0.838,3.282c0.273,0.1,0.511,0.188,0.625,0.36c0.338,0.515,0.465,1.078,0.373,1.5
		c-0.046,0.211-0.146,0.389-0.302,0.51c-0.156,0.122-0.365,0.185-0.628,0.171c-0.588-0.033-1.456-0.462-2.615-1.546
		c-0.347-0.324-0.417-0.849-0.464-1.203c-0.023-0.173-0.041-0.301-0.068-0.317l0,0c-0.008-0.004-0.016-0.01-0.025-0.017
		c-0.151-0.114-0.128-0.385-0.024-0.704c0.099-0.3,0.271-0.646,0.436-0.933c0.111-0.194,0.22-0.361,0.299-0.466
		c0.181-0.237,0.754-0.59,1.137-0.74c0.095-0.037,0.18-0.063,0.245-0.071c0.086-0.011,0.148,0.006,0.174,0.059v0
		C29.068,21.594,29.069,21.631,29.052,21.677z"/>
	<path fill="#A74C15" d="M31.836,30.511c-1.314,3.583,1.061,3.071,1.467,3.691c1.023,1.558,0.077,3.528-3.089,0.566
		c-0.513-0.48-0.396-1.444-0.54-1.527c-0.389-0.224,0.389-1.627,0.702-2.039C30.661,30.828,31.968,30.153,31.836,30.511z"/>
	<path d="M32.688,33.914c-0.798-0.292-1.902-0.697-0.902-3.422c0.005-0.016,0.006-0.024,0.006-0.027
		c-0.002-0.004-0.025-0.003-0.062,0.001c-0.056,0.007-0.132,0.03-0.22,0.064c-0.369,0.145-0.92,0.482-1.089,0.705
		c-0.078,0.1-0.184,0.263-0.293,0.455c-0.161,0.279-0.33,0.619-0.425,0.912c-0.091,0.275-0.12,0.503-0.016,0.582h0.001
		c0.004,0.005,0.008,0.006,0.013,0.01l0,0c0.075,0.044,0.095,0.193,0.122,0.396c0.045,0.339,0.112,0.84,0.43,1.139
		c1.137,1.064,1.981,1.486,2.545,1.517c0.236,0.013,0.421-0.044,0.555-0.148c0.136-0.104,0.223-0.26,0.263-0.446
		c0.086-0.396-0.036-0.928-0.358-1.418C33.165,34.09,32.943,34.008,32.688,33.914z M31.887,30.53
		c-0.962,2.623,0.082,3.005,0.838,3.282c0.272,0.101,0.512,0.188,0.625,0.36c0.338,0.516,0.465,1.078,0.373,1.502
		c-0.045,0.211-0.146,0.387-0.302,0.509c-0.156,0.121-0.365,0.186-0.628,0.171c-0.587-0.031-1.456-0.461-2.614-1.545
		c-0.348-0.325-0.416-0.85-0.463-1.203c-0.023-0.173-0.041-0.301-0.068-0.316l0,0c-0.008-0.005-0.018-0.012-0.025-0.018
		c-0.15-0.115-0.127-0.387-0.023-0.703c0.098-0.301,0.271-0.646,0.435-0.933c0.112-0.194,0.22-0.362,0.3-0.466
		c0.181-0.238,0.754-0.591,1.136-0.74c0.096-0.037,0.181-0.063,0.246-0.071c0.086-0.012,0.147,0.006,0.174,0.059l0,0
		C31.903,30.447,31.905,30.485,31.887,30.53z"/>
	<path d="M49.669,5.756C44.185,2.552,37.73,0.34,31.159,0.74C22.63,1.259,14.051,5.607,8.633,12.012
		c-6.897,8.157-9.417,21.833-5.237,31.763c2.04,4.844,5.867,9.49,10.139,12.728c2.476,1.448,5.687,3.445,8.524,4.182
		c3.515,0.912,8.489,1.06,12.326,0.692c11.569-1.109,22.21-9.294,26.427-19.133c2.411-5.622,3.24-12.958,1.801-18.811
		c-1.011-4.11-3.195-7.875-5.928-11.294C54.712,9.671,52.134,7.625,49.669,5.756z M28.909,0.031
		c10.65-1.02,20.563,3.211,27.076,10.532l0.043,0.048l0.105,0.119c4.185,4.722,6.958,10.725,7.6,17.434
		c1.643,17.146-11.235,32.408-28.765,34.087c-10.649,1.02-20.564-3.212-27.076-10.533l-0.042-0.048
		c-0.035-0.04-0.07-0.08-0.105-0.117c-1.999-2.258-3.676-4.805-4.951-7.582c-1.396-3.038-2.312-6.349-2.648-9.854
		C-1.004,22.129,4.782,10.554,14.622,4.915C18.899,2.463,23.635,0.535,28.909,0.031z"/>
	<path fill="#A74C15" d="M25.948,38.625c-0.419,0.629-1.53,3.574,1.914,4.632c0.609,0.188,0.09,0.626-0.566,0.769
		c-1.331,0.289-1.889,0.261-2.99-0.722c-0.922-0.822-0.851-1.86-0.817-2.987C23.514,39.513,25.097,37.848,25.948,38.625z"/>
	<path d="M25.556,39.377c0.099-0.322,0.224-0.584,0.321-0.74c-0.128-0.105-0.273-0.152-0.425-0.158
		c-0.216-0.006-0.451,0.075-0.678,0.208c-0.23,0.136-0.453,0.325-0.645,0.536c-0.338,0.369-0.576,0.797-0.584,1.096l-0.005,0.132
		c-0.032,1.063-0.063,2.041,0.804,2.813c0.543,0.485,0.951,0.733,1.384,0.824c0.434,0.091,0.9,0.026,1.559-0.116
		c0.287-0.063,0.547-0.184,0.688-0.311c0.051-0.047,0.085-0.091,0.098-0.134c0.012-0.035,0.006-0.068-0.017-0.1
		c-0.032-0.043-0.1-0.085-0.209-0.117c-0.493-0.152-0.894-0.342-1.219-0.56c-0.719-0.48-1.06-1.089-1.184-1.696
		C25.321,40.449,25.411,39.846,25.556,39.377z M25.994,38.656c-0.096,0.143-0.229,0.411-0.334,0.753
		c-0.14,0.456-0.228,1.038-0.109,1.624c0.12,0.58,0.447,1.166,1.138,1.627c0.316,0.211,0.708,0.396,1.19,0.544
		c0.133,0.041,0.219,0.095,0.265,0.157l0,0c0.047,0.062,0.056,0.129,0.033,0.197c-0.019,0.061-0.064,0.124-0.128,0.182
		c-0.156,0.141-0.435,0.271-0.739,0.338c-0.673,0.146-1.151,0.212-1.604,0.117c-0.455-0.096-0.876-0.353-1.435-0.851
		c-0.905-0.808-0.874-1.809-0.839-2.897l0.004-0.133c0.01-0.324,0.26-0.779,0.613-1.166c0.199-0.218,0.43-0.414,0.671-0.557
		c0.244-0.143,0.497-0.229,0.736-0.223c0.191,0.006,0.373,0.072,0.53,0.215l0.035,0.032L25.994,38.656z"/>
	<path fill="#A74C15" d="M32.861,25.2c0.688,0.313,3.182,2.231,0.814,4.945c-0.42,0.48,0.252,0.578,0.885,0.354
		c1.283-0.455,1.744-0.773,2.162-2.187c0.35-1.186-0.257-2.03-0.88-2.971C35.399,24.673,33.176,24.092,32.861,25.2z"/>
	<path d="M33.519,25.715c-0.268-0.234-0.522-0.393-0.68-0.464l-0.043-0.02l0.014-0.045c0.058-0.206,0.177-0.357,0.337-0.463
		c0.199-0.131,0.46-0.191,0.743-0.198c0.279-0.006,0.58,0.039,0.863,0.119c0.504,0.143,0.956,0.397,1.135,0.667l0.074,0.111
		c0.602,0.908,1.157,1.743,0.813,2.906c-0.211,0.717-0.436,1.157-0.771,1.477s-0.776,0.516-1.426,0.747
		c-0.294,0.103-0.6,0.14-0.805,0.102c-0.085-0.016-0.156-0.044-0.204-0.086c-0.056-0.047-0.084-0.109-0.076-0.186
		c0.006-0.077,0.051-0.168,0.143-0.272c0.331-0.38,0.566-0.744,0.724-1.09c0.343-0.757,0.313-1.426,0.108-1.983
		C34.26,26.477,33.878,26.028,33.519,25.715z M32.927,25.172c0.166,0.082,0.409,0.239,0.663,0.46
		c0.371,0.323,0.765,0.787,0.979,1.367c0.214,0.582,0.247,1.279-0.111,2.066c-0.162,0.354-0.402,0.728-0.742,1.116
		c-0.075,0.086-0.111,0.156-0.117,0.211c-0.004,0.039,0.01,0.069,0.038,0.093c0.034,0.029,0.086,0.05,0.154,0.062
		c0.188,0.035,0.472,0,0.75-0.098c0.634-0.225,1.065-0.415,1.385-0.722c0.321-0.306,0.537-0.732,0.742-1.43
		c0.33-1.114-0.21-1.928-0.799-2.815l-0.074-0.11c-0.165-0.249-0.592-0.486-1.073-0.623c-0.273-0.077-0.564-0.121-0.831-0.115
		c-0.264,0.006-0.504,0.061-0.686,0.181C33.079,24.898,32.982,25.016,32.927,25.172z"/>
	<path fill="#A74C15" d="M35.825,32.575c0.537,0.529,2.22,3.19-0.937,4.923c-0.56,0.307,0.039,0.631,0.709,0.638
		c1.361,0.015,1.904-0.126,2.783-1.312c0.735-0.991,0.457-1.994,0.195-3.092C38.39,32.953,36.501,31.642,35.825,32.575z"/>
	<path d="M36.266,33.283c-0.172-0.313-0.356-0.549-0.48-0.669l-0.033-0.033l0.028-0.038c0.125-0.172,0.289-0.273,0.475-0.318
		c0.233-0.055,0.499-0.021,0.766,0.069c0.264,0.09,0.531,0.235,0.77,0.409c0.424,0.307,0.761,0.702,0.836,1.018l0,0l0.031,0.129
		c0.254,1.06,0.486,2.033-0.236,3.008c-0.446,0.601-0.807,0.937-1.232,1.121c-0.425,0.186-0.906,0.219-1.595,0.212
		c-0.313-0.005-0.612-0.075-0.793-0.182c-0.074-0.044-0.131-0.095-0.162-0.151c-0.035-0.063-0.041-0.131-0.007-0.201
		c0.032-0.069,0.106-0.14,0.228-0.207c0.441-0.242,0.789-0.502,1.055-0.772c0.583-0.593,0.785-1.231,0.785-1.825
		C36.7,34.254,36.496,33.702,36.266,33.283z M35.897,32.57c0.127,0.135,0.302,0.365,0.465,0.661c0.236,0.431,0.447,1.002,0.448,1.62
		c0.001,0.619-0.209,1.285-0.816,1.901c-0.273,0.277-0.627,0.546-1.08,0.794c-0.1,0.055-0.158,0.107-0.181,0.156
		c-0.017,0.035-0.014,0.069,0.004,0.101c0.022,0.04,0.064,0.077,0.123,0.112c0.166,0.096,0.444,0.162,0.738,0.165
		c0.673,0.007,1.143-0.024,1.551-0.2c0.405-0.178,0.754-0.504,1.187-1.088c0.694-0.935,0.466-1.885,0.218-2.918l-0.031-0.129
		c-0.069-0.291-0.39-0.661-0.793-0.955c-0.23-0.167-0.488-0.308-0.741-0.394c-0.249-0.085-0.494-0.116-0.706-0.065
		C36.134,32.365,36.001,32.443,35.897,32.57z"/>
	<path fill="#A74C15" d="M28.355,33.373c-0.419,0.628-1.53,3.574,1.914,4.633c0.609,0.188,0.089,0.623-0.566,0.768
		c-1.33,0.289-1.89,0.262-2.99-0.721c-0.922-0.823-0.85-1.861-0.817-2.989C25.919,34.261,27.503,32.596,28.355,33.373z"/>
	<path d="M27.962,34.125c0.099-0.322,0.224-0.584,0.321-0.74c-0.128-0.104-0.274-0.152-0.426-0.158
		c-0.217-0.006-0.45,0.074-0.677,0.209c-0.231,0.135-0.454,0.325-0.646,0.535c-0.337,0.369-0.575,0.797-0.584,1.096l-0.004,0.132
		c-0.033,1.063-0.064,2.04,0.803,2.813c0.542,0.485,0.951,0.734,1.384,0.824c0.434,0.092,0.9,0.027,1.559-0.116
		c0.287-0.063,0.547-0.183,0.688-0.312l0,0c0.051-0.046,0.085-0.092,0.098-0.134c0.011-0.034,0.007-0.067-0.015-0.099h-0.001
		c-0.032-0.043-0.1-0.084-0.209-0.118c-0.492-0.151-0.894-0.341-1.218-0.558c-0.719-0.48-1.06-1.09-1.185-1.697
		C27.727,35.197,27.818,34.594,27.962,34.125z M28.4,33.404c-0.096,0.143-0.229,0.412-0.334,0.753
		c-0.14,0.456-0.228,1.039-0.109,1.624c0.12,0.582,0.446,1.166,1.138,1.628c0.315,0.211,0.708,0.396,1.19,0.544
		c0.132,0.041,0.218,0.096,0.265,0.156l0,0c0.047,0.063,0.055,0.129,0.033,0.198c-0.02,0.062-0.065,0.122-0.128,0.181h-0.001
		c-0.155,0.141-0.434,0.271-0.739,0.338c-0.672,0.146-1.151,0.213-1.604,0.117c-0.455-0.096-0.876-0.352-1.435-0.85
		c-0.905-0.809-0.873-1.809-0.839-2.898l0.004-0.134c0.009-0.323,0.26-0.778,0.613-1.165c0.199-0.217,0.431-0.414,0.671-0.555
		c0.244-0.145,0.497-0.23,0.735-0.224c0.192,0.005,0.373,0.071,0.531,0.216l0.035,0.031L28.4,33.404z"/>
	<path fill="#A74C15" d="M24.748,27.617c-1.314,3.583,1.061,3.072,1.468,3.69c1.022,1.557,0.916,3.182-2.25,0.22
		c-0.515-0.48-0.99-2.807-0.677-3.219C23.572,27.934,24.879,27.259,24.748,27.617z"/>
	<path d="M25.599,31.021c-0.799-0.293-1.902-0.697-0.902-3.421c0.006-0.016,0.007-0.024,0.006-0.028
		c-0.002-0.004-0.024-0.003-0.062,0.001c-0.056,0.007-0.133,0.031-0.22,0.064c-0.369,0.145-0.92,0.481-1.09,0.704
		c-0.015,0.02-0.029,0.042-0.042,0.064c-0.12,0.208-0.165,0.532-0.14,0.835c0.025,0.298,0.536,1.949,0.854,2.247
		c1.109,1.038,1.836,1.508,2.268,1.614c0.169,0.041,0.287,0.024,0.361-0.035h0c0.073-0.061,0.106-0.168,0.106-0.309
		c-0.004-0.353-0.219-0.889-0.567-1.42C26.077,31.197,25.854,31.115,25.599,31.021z M24.799,27.636
		c-0.962,2.622,0.082,3.005,0.838,3.282c0.272,0.1,0.511,0.188,0.625,0.36c0.359,0.548,0.582,1.106,0.584,1.479
		c0.001,0.174-0.044,0.311-0.144,0.393l0,0c-0.101,0.082-0.25,0.108-0.457,0.057c-0.448-0.109-1.193-0.588-2.317-1.64
		c-0.346-0.324-0.643-0.712-0.69-1.065c-0.023-0.173-0.009-0.448-0.009-0.448c-0.18-0.137-0.163-0.479-0.19-0.805
		c-0.026-0.323,0.024-0.67,0.155-0.897c0.015-0.027,0.032-0.052,0.05-0.076c0.181-0.237,0.754-0.589,1.137-0.74
		c0.094-0.037,0.179-0.063,0.246-0.071c0.086-0.012,0.147,0.006,0.173,0.058v0C24.815,27.553,24.815,27.591,24.799,27.636z"/>
	<path fill="#FAA54C" d="M28.675,22.868c0.54-0.135,1.121,0.326,1.297,1.03s-0.119,1.384-0.658,1.519
		c-0.54,0.136-1.121-0.326-1.296-1.029C27.842,23.683,28.136,23.003,28.675,22.868z M31.672,31.115c0.747,0,1.352,0.734,1.352,1.639
		c0,0.904-0.605,1.638-1.352,1.638c-0.748,0-1.354-0.733-1.354-1.638C30.318,31.848,30.924,31.115,31.672,31.115z M27.315,33.979
		c0.943-0.284,1.998,0.452,2.356,1.644c0.358,1.191-0.117,2.388-1.06,2.67c-0.943,0.285-1.999-0.452-2.356-1.644
		S26.373,34.263,27.315,33.979z M24.21,28.272c0.652-0.167,1.352,0.401,1.564,1.268c0.213,0.867-0.143,1.706-0.794,1.871
		c-0.651,0.167-1.351-0.401-1.564-1.268C23.204,29.276,23.56,28.438,24.21,28.272z M36.053,33.508
		c0.612-0.181,1.27,0.436,1.47,1.376c0.199,0.94-0.135,1.849-0.746,2.03c-0.612,0.18-1.271-0.436-1.47-1.377
		C35.108,34.597,35.441,33.687,36.053,33.508z M25.107,39.402c1.241-0.366,1.688,1.636,1.854,2.286
		c0.129,0.5,0.303,0.913,0.069,1.18c-0.731,0.831-2.463-0.219-2.67-1.437C24.199,40.483,24.495,39.583,25.107,39.402z
		 M33.389,26.235c0.441-0.395,1.246-0.08,1.798,0.704c0.553,0.783,0.642,1.738,0.2,2.134c-0.441,0.395-1.246,0.08-1.798-0.704
		C33.038,27.586,32.948,26.631,33.389,26.235z M31.046,15.597c-1.701,0.015-3.222-0.391-5.104,0.044
		c-1.055,2.087-1.013,3.028-1.353,5.331c0.478,0.134,0.907,0.614,1.066,1.259c0.212,0.868-0.144,1.705-0.794,1.872
		c-0.344,0.087-0.701-0.029-0.993-0.287c-0.961,2.846-1.417,4.469-1.887,7.435c0.054,0.018,0.107,0.041,0.157,0.068
		c0.59,0.324,0.714,1.216,0.277,1.994c-0.287,0.513-0.745,0.848-1.194,0.926l-0.687,2.707c0.434-0.039,0.868,0.07,1.162,0.321
		c0.505,0.433,0.409,1.124-0.216,1.547c-0.433,0.292-1.006,0.377-1.486,0.257l-1.015,4c7.167,4.491,21.317,2.535,25.353-5.082
		l-1.205-2.356c-0.209,0.391-0.577,0.622-0.932,0.55c-0.46-0.095-0.709-0.75-0.596-1.276c0.114-0.526,0.374-0.724,0.695-0.841
		c-0.138-1.467-0.724-1.468-1.375-2.688c-0.697,0.292-1.604-0.263-2.037-1.159c-0.434-0.896-0.277-1.85,0.32-2.259
		c-0.311-1.705-0.225-1.419-1.386-2.709c-0.152,0.19-0.349,0.328-0.58,0.386c-0.705,0.181-1.464-0.435-1.696-1.375
		c-0.217-0.89,0.116-1.75,0.751-1.994c-0.815-1.591-1.628-3.183-2.442-4.774c-0.718,0.296-1.695-0.065-2.332-0.91
		C31.288,16.269,31.128,15.931,31.046,15.597z"/>
	<path d="M21.953,44.452c0.427,0.056,0.784,0.16,1.663,0.339c0.626,0.126,2.138,0.341,3.087,0.405
		c1.676,0.114,6.264-0.177,7.347-1.645c0.718-0.973,0.317-2.093,0.317-3.237c0.032,0.838,0.96,2.349,1.826,2.649
		c0.572,0.199,2.093-0.099,3.32-0.612c0.396-0.167,1.613-0.906,2.609-1.53C37.327,45.269,28.322,46.585,21.953,44.452z"/>
	<path d="M27.463,45.245c-0.29,0-0.547-0.009-0.762-0.023c-0.901-0.06-2.428-0.271-3.09-0.404c-0.353-0.072-0.626-0.132-0.845-0.182
		c-0.326-0.073-0.562-0.124-0.815-0.159l0.006-0.051c0.256,0.033,0.493,0.086,0.821,0.158c0.219,0.05,0.491,0.109,0.844,0.181
		c0.581,0.117,2.108,0.34,3.084,0.405c1.714,0.114,6.257-0.188,7.325-1.633c0.52-0.705,0.446-1.484,0.368-2.309
		c-0.027-0.299-0.057-0.605-0.057-0.914l0.052-0.002c0.033,0.836,0.974,2.336,1.809,2.627c0.543,0.188,2.056-0.091,3.301-0.612
		c0.458-0.192,1.975-1.134,2.605-1.527l0.028,0.043c-0.632,0.397-2.151,1.339-2.613,1.532c-1.276,0.534-2.773,0.811-3.339,0.614
		c-0.75-0.262-1.544-1.407-1.776-2.271c0.011,0.17,0.027,0.339,0.043,0.504c0.079,0.836,0.153,1.624-0.379,2.346
		C33.126,44.847,29.504,45.245,27.463,45.245z"/>
	<path d="M35.287,44.073l-3.073-9.839l0.162-0.057c1.423,3.514,2.153,6.309,3.077,9.849L35.287,44.073z M33.37,37.359l0.741,2.37
		C33.881,38.939,33.638,38.157,33.37,37.359z M31.2,31.217c-0.851-2.142-1.301-3.7-1.834-5.827l0.166-0.046l1.831,5.815L31.2,31.217
		z M28.685,22.868c-0.536-2.628-1.468-4.89-2.542-7.365l0.158-0.068c1.077,2.484,2.013,4.755,2.552,7.399L28.685,22.868z"/>
	<path d="M37.841,46.98c-0.071,0.028-0.137,0.055-0.199,0.081c-0.874,0.374-1.39,0.801-1.628,1.276l0.001,0.002
		c-0.234,0.465-0.204,0.987,0.015,1.563c0.008,0.021,0.016,0.041,0.023,0.06c0.224,0.518,0.73,0.86,1.382,1
		c0.67,0.142,1.492,0.07,2.321-0.244c0.076-0.027,0.146-0.058,0.214-0.086c0.948-0.407,1.807-0.968,2.33-1.582
		c0.438-0.513,0.636-1.063,0.44-1.578c-0.005-0.012-0.008-0.023-0.013-0.032c-0.223-0.52-0.992-0.797-1.923-0.87
		C39.845,46.496,38.726,46.646,37.841,46.98z"/>
	<path fill="#AD0637" d="M37.589,46.934c1.811-0.778,4.812-0.735,5.276,0.489c0.464,1.224-1.033,2.558-2.844,3.335
		c-1.811,0.778-3.655,0.417-4.119-0.806C35.439,48.728,35.778,47.714,37.589,46.934z"/>
	<path fill="#FFFFFF" d="M41.986,49.224c-0.372,0.242-0.746,0.546-1.106,0.914c-0.826,0.84-1.417,1.843-1.705,2.781
		c-0.283,0.922-0.274,1.777,0.094,2.347c0.059,0.09,0.123,0.169,0.194,0.24c0.31,0.303,0.747,0.429,1.25,0.388
		c0.521-0.044,1.109-0.262,1.703-0.646c0.372-0.24,0.746-0.548,1.106-0.914c0.825-0.842,1.417-1.844,1.706-2.781
		c0.284-0.922,0.275-1.778-0.094-2.347l0,0c-0.058-0.09-0.124-0.169-0.194-0.239c-0.311-0.304-0.748-0.43-1.25-0.387
		C43.168,48.622,42.58,48.843,41.986,49.224z M40.686,49.946c0.373-0.381,0.763-0.698,1.153-0.95
		c0.632-0.408,1.265-0.644,1.83-0.688c0.581-0.048,1.092,0.103,1.462,0.466c0.085,0.082,0.163,0.179,0.232,0.284v0.002
		c0.415,0.641,0.433,1.577,0.126,2.573c-0.3,0.979-0.915,2.021-1.771,2.893c-0.374,0.381-0.764,0.698-1.154,0.951
		c-0.632,0.409-1.264,0.643-1.828,0.688c-0.582,0.049-1.092-0.103-1.463-0.465c-0.085-0.084-0.163-0.179-0.231-0.284v-0.002
		c-0.415-0.642-0.434-1.579-0.127-2.575C39.214,51.861,39.829,50.82,40.686,49.946z"/>
	<path d="M49.299,44.715c-0.08-0.012-0.716-0.508-1.073-0.786l0,0c-0.106-0.082-0.188-0.146-0.212-0.163
		c-0.22-0.169-0.551-0.399-1.013-0.531c-0.461-0.133-1.054-0.171-1.806,0.046c-0.175,0.083-0.316,0.15-0.435,0.207
		c-0.323,0.155-0.49,0.236-0.671,0.296l0,0c-0.173,0.059-0.349,0.095-0.673,0.156c0.289,0.069,0.602,0.157,0.71,0.277
		c0.076,0.086,0.058,0.167-0.026,0.243l0,0c-0.093,0.083-0.346,0.176-0.523,0.238l-0.007,0.004c0.063,0.036,0.155,0.082,0.251,0.132
		c0.292,0.151,0.622,0.321,0.668,0.526c0.041,0.181-0.093,0.336-0.538,0.436c-0.043,0.01-0.081,0.045-0.126,0.089
		c-0.115,0.111-0.264,0.257-0.666,0.333c-0.217,1.139-0.238,1.15-0.576,1.339c-0.103,0.058-0.241,0.134-0.44,0.295
		c0.039,0.005,0.076,0.008,0.111,0.013c0.109,0.01,0.202,0.014,0.28,0.01l0,0c0.176-0.005,0.286-0.038,0.381-0.065
		c0.134-0.04,0.244-0.071,0.439-0.037h0.001c0.069,0.014,0.086,0.04,0.112,0.086v-0.001c0.018,0.031,0.061,0.105,0.376,0.2
		c0.087,0.026,0.156-0.03,0.218-0.081c0.153-0.126,0.282-0.233,0.506,0.017l0,0c0.347,0.382,0.185,0.624-0.064,0.849
		c-0.03,0.026-0.074,0.064-0.118,0.101c-0.109,0.093-0.22,0.186-0.269,0.285l0,0c-0.265,0.539-0.478,0.993-0.648,1.465
		c-0.163,0.456-0.287,0.932-0.382,1.519c0.11-0.036,0.324-0.153,0.577-0.293c0.576-0.319,1.346-0.741,1.934-0.67
		c0.24,0.03,0.29,0.081,0.402,0.195c0.014,0.015,0.029,0.028,0.045,0.045c0.006,0.006,0.014,0.013,0.021,0.017
		c0.04,0.024,0.089,0.021,0.141,0.001c0.07-0.026,0.139-0.077,0.193-0.132c0.028-0.03,0.052-0.059,0.068-0.083h-0.001
		c0.133-0.207,0.231-0.42,0.307-0.631c0.079-0.215,0.137-0.429,0.19-0.632l0.029-0.114l0.116,0.012
		c0.229,0.024,0.266,0.193,0.242,0.417c-0.006,0.064-0.017,0.131-0.03,0.197c-0.035,0.208-0.074,0.437,0.056,0.47l0.083,0.021
		l0.018,0.083l0.001,0.003l0.001,0.009c0.003,0.021,0.011,0.152,0.005,0.325c-0.006,0.174-0.029,0.396-0.082,0.607
		c-0.047,0.186-0.119,0.368-0.226,0.51c0.129-0.039,0.268-0.109,0.396-0.223c0.228-0.204,0.431-0.716,0.569-1.063
		c0.025-0.063,0.047-0.119,0.063-0.157c0.047-0.114,0.115-0.146,0.203-0.109l0,0c0.099,0.041,0.1,0.172,0.104,0.344
		c0.003,0.156,0.005,0.362,0.037,0.476c0.04-0.057,0.109-0.168,0.186-0.288c0.113-0.183,0.242-0.386,0.35-0.512
		c0.278-0.321,0.512-0.546,0.702-0.688c0.247-0.187,0.439-0.246,0.571-0.212c0.101,0.028,0.173,0.116,0.231,0.273
		c0.043,0.119,0.082,0.289,0.125,0.518c0.014,0.078,0.018,0.157,0.018,0.242c0.108-0.252,0.249-0.541,0.419-0.762
		c0.184-0.24,0.493-0.327,0.665-0.359c-0.019-0.789,0.125-1.175,0.263-1.537c0.081-0.215,0.159-0.42,0.192-0.705
		c0.003-0.026-0.016-0.002-0.037-0.045c-0.117-0.233-0.39-0.787-0.429-1.663c-0.003-0.091-0.093-0.182-0.177-0.268
		c-0.039-0.038-0.077-0.076-0.108-0.114l0,0c-0.334-0.402-0.714-0.488-0.99-0.55c-0.138-0.031-0.251-0.058-0.344-0.112
		c-0.322-0.193-0.24-0.583,0.653-2.073c0.03-0.052,0.075-0.143,0.128-0.259c-0.521,0.758-1.021,1.338-1.309,1.668
		c-0.116,0.135-0.195,0.228-0.223,0.269l-0.049,0.073L49.299,44.715z"/>
	<path fill="#E49846" d="M54.488,35.802c0.182,1.269,1.345,3.229,2.937,2.291c0.631-0.373,1.016-1.234,0.975-1.952
		c-0.064-1.139-1.097-1.969-1.762-1.077c-0.3,0.4,0.041,0.967,0.07,1.305c0.055,0.627-0.477,0.855-0.885,0.602
		c-0.292-0.182-0.479-0.686-0.541-1.129c-0.51-3.631,0.176-7.486-0.439-11.233c-0.873-5.301-3.599-10.311-9.508-13.489
		c-3.911-2.104-7.599-3.441-12.029-3.442c-1.635,0-3.194,0.213-4.586,0.517c-0.128,0.028-0.252,0.054-0.368,0.08
		c-0.186,0.042-0.515,0.321,0.271,0.173c0.245-0.046,0.519-0.037,0.812-0.056c3.418-0.216,4.98-0.096,6.851,0.304
		c1.098,0.235,2.227,0.428,3.909,1.092c8.6,3.39,13.143,9.976,13.908,18.838C54.292,30.827,54.107,33.164,54.488,35.802z"/>
	<path fill="#AD0637" d="M40.812,50.087c1.648-1.682,3.607-2.078,4.375-0.892s0.053,3.512-1.594,5.192
		c-1.65,1.679-3.609,2.079-4.376,0.891C38.448,54.09,39.162,51.766,40.812,50.087z"/>
	<path fill="#E49846" d="M49.321,44.581c-0.057-0.008-1.074-0.81-1.226-0.925c-0.458-0.348-1.378-0.96-2.947-0.505
		c-1.256,0.594-0.896,0.486-2.262,0.751c-0.291,0.055,0.95,0.194,1.14,0.405c0.07,0.08-0.474,0.25-0.625,0.313
		c-0.426,0.172,1.89,0.734,0.521,1.041c-0.228,0.051-0.206,0.337-0.879,0.435c-0.329,1.739-0.194,0.909-1.209,1.842
		c0.315,0.062,0.539,0.078,0.706,0.071c0.417-0.012,0.487-0.16,0.793-0.104c0.032,0.005,0.006,0.141,0.473,0.281
		c0.34,0.101,0.404-0.39,0.663-0.104c0.469,0.518-0.288,0.708-0.472,1.082c-0.535,1.088-0.856,1.834-1.051,3.071
		c-0.086,0.55,1.625-0.978,2.636-0.854c0.224,0.028,0.242,0.076,0.368,0.2c0.204,0.2,0.52-0.046,0.632-0.22
		c0.278-0.431,0.404-0.888,0.512-1.303c0.361,0.038-0.222,0.962,0.249,1.081c0.006,0.001,0.096,1.479-0.671,1.582
		c-0.124,0.017,0.509,0.152,0.99-0.278c0.292-0.26,0.528-0.929,0.668-1.27c0.106-0.26-0.061,0.995,0.257,0.811
		c0.093-0.053,0.395-0.625,0.6-0.861c0.582-0.676,0.962-0.904,1.135-0.857c0.108,0.029,0.178,0.239,0.258,0.684
		c0.039,0.215-0.011,0.488,0.047,0.815c0.014,0.079,0.254-0.784,0.632-1.279c0.226-0.294,0.697-0.319,0.697-0.326
		c-0.059-1.354,0.357-1.544,0.449-2.342c0.007-0.065-0.417-0.64-0.463-1.73c-0.008-0.19-0.202-0.324-0.318-0.464
		c-1.021-1.223-1.944,0.388-0.097-2.356c0.615-0.912-0.073-1.237,0.098-1.548l-0.307,0.625
		C50.483,43.669,49.44,44.399,49.321,44.581z"/>
	<path fill="#E49846" d="M15.914,13.457c0.635-1.112,0.921-3.374-0.911-3.612c-0.727-0.094-1.559,0.351-1.968,0.942
		c-0.647,0.938-0.344,2.228,0.729,1.932c0.482-0.133,0.561-0.788,0.745-1.073c0.341-0.528,0.902-0.382,1.068,0.07
		c0.119,0.323-0.044,0.834-0.268,1.223c-1.828,3.178-4.845,5.66-6.554,9.133c-2.347,4.771-2.885,10.647-0.174,16.785
		c1.139,2.579,2.246,4.608,3.834,6.579c0.199,0.247,0.497,0.605,0.757,0.758c0.997,0.578,0.035-0.348-0.158-0.642
		c-0.215-0.328-0.546-0.779-0.69-1c-0.344-0.529-0.646-0.884-1.115-1.787c-4.229-8.158-3.76-15.707,0.599-23.409
		C12.897,17.434,14.593,15.774,15.914,13.457z"/>
	<path fill="#FFFFFF" d="M38.606,47.247c0.701-0.078,1.084,0.109,1.129,0.331c-2.551,0.915-2.711,2.018-2.711,2.018
		s-0.483-0.069-0.561-0.479C36.322,48.369,37.875,47.328,38.606,47.247z"/>
	<path fill="#FFFFFF" d="M42.18,49.932c0.465-0.205,0.581,0.214,0.581,0.214s-2.122,1.92-1.993,3.318
		c-0.129,0.144-0.993-0.043-1.116-0.614C39.808,52.112,41.492,50.236,42.18,49.932z"/>
	<path fill="#E49846" d="M21.068,52.443c0.391,0.402,0.526,0.503,0.696,0.624c0.462,0.329,1.678,0.936,2.009,0.472
		c0.364-0.776-0.443-1.298-1.453-1.475c-0.989-0.174-1.148,0.584-2.978,0.932c-0.176,0-0.108-0.131-0.031-0.141
		c1.485-0.177,1.881-1.313,3.315-0.991c1.003,0.226,1.833,0.922,1.436,1.865c-0.521,0.72-2.23-0.162-2.639-0.51
		c-0.296-0.252-0.651-0.695-0.883-1.07c-0.012-0.021,0.311,0.148,0.396,0.165L21.068,52.443z"/>
	<path fill="#FFFFFF" d="M50.742,44.693c0,0-0.959-0.225-1.267-0.018c-0.35,0.234-1.032,0.244-1.032,0.244s-1.175-0.61-0.937-0.508
		c0.237,0.103-0.956-0.348-0.956-0.348l-0.002,0.047c0,0,1.572,0.644,1.514,0.755c-0.124,0.175-1.932-0.125-1.932-0.125
		l-0.002,0.075c0,0,1.172,0.22,1.6,0.25c0.427,0.031,1.303,0.043,1.303,0.043l-0.68,0.863l-0.698,0.066l-0.748-0.078l-1.536-0.162
		c0,0-0.395-0.448-0.856-0.37c-0.068,0.02-0.122,0.101,0.064,0.103c0.335-0.026,0.549,0.331,0.549,0.331s-0.804,0.268-0.924,0.288
		c-0.049,0.041-0.105,0.086-0.003,0.107c0.101,0.021,1.135-0.354,1.845-0.192c0.229,0.083-1.053,0.402-1.075,0.434
		c-0.023,0.031-0.102,0.052-0.003,0.107c0.41,0.047,1.206-0.462,1.444-0.44c0.24,0.022,1.23,0.102,1.23,0.102l0.685-0.073
		c0,0-0.066,0.368-0.361,0.857c-0.249,0.44-1.338,1.743-1.695,2.22c-0.357,0.477-0.261,1.027-0.261,1.027l0.15,0.015
		c0,0-0.039-0.639,0.3-1.015c0.372-0.412,1.205-1.452,1.205-1.452s0.048,0.365,0.013,0.666c-0.035,0.3-0.41,0.846-0.449,0.988
		c-0.04,0.145-0.011,0.431-0.011,0.431l0.112,0.045c0,0-0.019-0.147,0.03-0.399c0.05-0.251,0.337-0.508,0.442-0.819
		c0.108-0.32,0.086-1.198,0.086-1.198s0.548-0.715,0.658-1.399c0.219-0.447,0.61-0.896,0.61-0.896s0.003,0.973,0.576,1.243
		c0.275,0.151,0.226,0.172,0.38,0.306c0.19,0.164,0.181,0.169,0.204,0.377c0.023,0.207-0.309,0.859-0.33,0.971
		c-0.021,0.112-0.083,0.41-0.083,0.41l0.125-0.009c0,0,0.027-0.282,0.073-0.394c0.045-0.109,0.094-0.257,0.271-0.617
		c0.177-0.361,0.288,0.138,0.288,0.138l0.122,0.66l0.147,0.084l-0.147-0.907c0,0-0.452-0.83-0.757-1.014
		c-0.105-0.064,0.219-0.106,0.458,0.099c0.376,0.321,0.966,0.816,1.102,0.781c0.152-0.06,0.122-0.01,0.065-0.043
		c-0.548-0.301-0.581-0.491-1.082-0.875c-0.354-0.271-0.64-0.088-0.783-0.186c-0.111-0.074-0.201-0.22-0.201-0.22
		s-0.189-0.186-0.209-0.6c-0.019-0.415,0.302-0.567,0.44-0.615c0.136-0.048,0.77,0.177,0.77,0.177L50.742,44.693z"/>
	<path fill="#E49846" d="M51.171,42.027c0.17-0.451,1.096-0.599,1.276-0.61c0.894-0.181,0.653-1.573,0.335-1.483
		c-0.113,0.045-1.343,0.877-1.716,1.426C50.655,41.963,51.002,42.479,51.171,42.027z"/>
</g>
</svg>
