<?xml version="1.0" encoding="utf-8"?>
<!-- Generator: Adobe Illustrator 16.0.0, SVG Export Plug-In . SVG Version: 6.00 Build 0)  -->
<!DOCTYPE svg PUBLIC "-//W3C//DTD SVG 1.1//EN" "http://www.w3.org/Graphics/SVG/1.1/DTD/svg11.dtd">
<svg version="1.1" id="Layer_1" xmlns="http://www.w3.org/2000/svg" xmlns:xlink="http://www.w3.org/1999/xlink" x="0px" y="0px"
	 width="211px" height="62.402px" viewBox="0 0 211 62.402" enable-background="new 0 0 211 62.402" xml:space="preserve">
<circle fill="#FFFFFF" cx="31.672" cy="31.211" r="31.211"/>
<path d="M49.405,18.556c-3.172-4.835-8.146-8.397-14.167-9.542c-6.022-1.146-11.954,0.344-16.673,3.677
	c-4.721,3.334-8.232,8.513-9.413,14.746v0.001c-1.182,6.234,0.191,12.343,3.364,17.179c3.173,4.834,8.146,8.396,14.167,9.542
	l0.002,0.001c6.022,1.146,11.953-0.345,16.673-3.679c4.722-3.333,8.233-8.515,9.414-14.747C53.951,29.5,52.579,23.392,49.405,18.556
	z M35.286,8.746c6.098,1.16,11.133,4.768,14.345,9.661c3.211,4.894,4.6,11.072,3.405,17.379c-1.194,6.306-4.747,11.546-9.524,14.92
	c-4.774,3.371-10.773,4.879-16.865,3.726l0,0l-0.014-0.002c-6.097-1.161-11.133-4.769-14.344-9.661
	C9.08,39.878,7.691,33.704,8.88,27.403l0,0l0.002-0.015c1.195-6.307,4.748-11.548,9.524-14.921
	C23.186,9.094,29.19,7.586,35.286,8.746z"/>
<path fill="#E49846" d="M27.879,55.749c0.173,0.107-0.293,0.216-0.645,0.083c-0.34-0.128-0.914-0.616-1.086-0.805
	c-1.183-1.306-3.202-4.964-5.42-4.2c-0.326,0.172-0.424,0.631-0.172,1.172c0.019,0.037-0.309-0.146-0.359-0.221
	c0.043,0.122-0.327-0.853,0.359-1.214c2.194-1.213,4.786,3.113,6.022,4.261c0.35,0.325,0.649,0.588,0.981,0.631L27.879,55.749z"/>
<path fill="#FFFFFF" d="M32.123,51.979c-0.523-0.358-1.183-0.566-2.082-0.483c-0.909,0.084-1.719,0.405-2.292,0.857
	c-0.559,0.438-0.891,1.003-0.863,1.582c0.003,0.08,0.01,0.158,0.02,0.236c0.064,0.48,0.262,0.916,0.668,1.219
	c0.417,0.309,1.055,0.483,1.999,0.438c0.205-0.012,0.423-0.031,0.655-0.063c1.19-0.159,2.118-0.48,2.698-0.884
	c0.241-0.166,0.42-0.346,0.531-0.53c0.104-0.176,0.147-0.357,0.123-0.539c-0.018-0.138-0.073-0.276-0.169-0.416
	C33.048,52.862,32.651,52.341,32.123,51.979z M30.018,51.224c0.97-0.092,1.686,0.136,2.256,0.526
	c0.564,0.388,0.979,0.934,1.359,1.489c0.12,0.177,0.19,0.356,0.214,0.535c0.033,0.248-0.023,0.489-0.16,0.72
	c-0.132,0.219-0.338,0.428-0.61,0.615c-0.614,0.425-1.583,0.762-2.816,0.927c-0.241,0.034-0.466,0.055-0.676,0.065
	c-1.011,0.048-1.706-0.147-2.17-0.491c-0.473-0.353-0.701-0.853-0.774-1.403c-0.012-0.084-0.019-0.171-0.023-0.258
	c-0.032-0.676,0.341-1.317,0.968-1.813C28.197,51.653,29.057,51.311,30.018,51.224z"/>
<path fill="#AD0637" d="M30.033,51.404c1.832-0.168,2.696,0.852,3.423,1.921c0.729,1.07-0.627,2.184-3.212,2.533
	c-2.584,0.348-3.365-0.692-3.424-1.922C26.763,52.708,28.201,51.573,30.033,51.404z"/>
<path fill="#FFFFFF" d="M37.629,51.78c-0.9-0.149-2.027-0.035-3.015,0.265c-0.074,0.023-0.146,0.048-0.219,0.074
	c-0.817,0.304-1.468,0.866-1.87,1.5c-0.396,0.623-0.549,1.312-0.38,1.876c0.01,0.035,0.02,0.064,0.028,0.087
	c0.007,0.021,0.015,0.041,0.023,0.061l0,0c0.224,0.537,0.741,0.896,1.408,1.046c0.685,0.154,1.527,0.087,2.379-0.229
	c0.076-0.027,0.149-0.058,0.219-0.088c0.951-0.399,1.84-1.06,2.408-1.771c0.504-0.633,0.75-1.302,0.547-1.855
	C38.962,52.211,38.377,51.903,37.629,51.78z M34.537,51.782c1.023-0.311,2.194-0.428,3.135-0.273
	c0.841,0.141,1.504,0.501,1.738,1.142c0.241,0.656-0.028,1.419-0.589,2.123c-0.595,0.746-1.524,1.434-2.514,1.852
	c-0.08,0.033-0.156,0.064-0.23,0.092c-0.899,0.335-1.794,0.403-2.528,0.238c-0.752-0.168-1.337-0.581-1.598-1.206v-0.001
	c-0.01-0.022-0.019-0.049-0.028-0.072c-0.014-0.038-0.025-0.071-0.034-0.101v-0.001c-0.192-0.645-0.025-1.413,0.412-2.104
	c0.432-0.68,1.129-1.282,2.004-1.607C34.378,51.833,34.457,51.807,34.537,51.782z"/>
<path fill="#AD0637" d="M34.597,51.961c1.837-0.559,4.16-0.474,4.615,0.768c0.454,1.239-1.147,2.954-2.969,3.726
	c-1.823,0.771-3.668,0.389-4.123-0.853C31.665,54.359,32.76,52.519,34.597,51.961z"/>
<path fill="#A74C15" d="M28.664,21.75c-1.301,3.574,1.051,3.064,1.454,3.683c1.013,1.554,0.076,3.521-3.058,0.564
	c-0.509-0.479-0.393-1.439-0.536-1.523c-0.385-0.224,0.386-1.623,0.696-2.034C27.5,22.065,28.794,21.392,28.664,21.75z"/>
<path d="M29.507,25.145c-0.791-0.292-1.883-0.696-0.894-3.415c0.006-0.016,0.007-0.023,0.006-0.026l0,0
	c-0.003-0.005-0.025-0.004-0.061,0c-0.056,0.007-0.131,0.03-0.218,0.064c-0.365,0.145-0.911,0.479-1.079,0.703
	c-0.076,0.101-0.181,0.263-0.29,0.453c-0.16,0.279-0.326,0.617-0.421,0.91c-0.09,0.274-0.118,0.502-0.015,0.582
	c0.004,0.003,0.008,0.006,0.014,0.009l0,0c0.073,0.042,0.093,0.192,0.12,0.396c0.044,0.338,0.11,0.838,0.426,1.136
	c1.126,1.063,1.963,1.482,2.521,1.514c0.233,0.013,0.416-0.044,0.55-0.148c0.134-0.105,0.22-0.26,0.26-0.446
	c0.086-0.395-0.035-0.925-0.354-1.415C29.98,25.32,29.76,25.238,29.507,25.145z M28.715,21.768c-0.953,2.614,0.081,2.998,0.83,3.273
	c0.271,0.102,0.506,0.188,0.619,0.36c0.335,0.515,0.461,1.076,0.37,1.498c-0.046,0.21-0.145,0.387-0.3,0.508
	c-0.154,0.121-0.36,0.185-0.622,0.17c-0.582-0.032-1.442-0.46-2.589-1.542c-0.343-0.323-0.412-0.848-0.459-1.201
	c-0.022-0.172-0.039-0.299-0.067-0.315l0,0c-0.009-0.005-0.017-0.012-0.025-0.018c-0.149-0.113-0.127-0.385-0.023-0.702
	c0.098-0.299,0.269-0.645,0.432-0.93c0.11-0.194,0.218-0.361,0.296-0.466c0.179-0.237,0.747-0.588,1.126-0.738
	c0.094-0.037,0.178-0.062,0.243-0.069c0.085-0.012,0.146,0.005,0.171,0.058l0,0C28.731,21.685,28.731,21.723,28.715,21.768z"/>
<path fill="#A74C15" d="M31.471,30.583c-1.301,3.574,1.051,3.063,1.454,3.683c1.013,1.554,0.076,3.521-3.059,0.564
	c-0.509-0.479-0.392-1.44-0.536-1.522c-0.385-0.225,0.386-1.623,0.696-2.035C30.308,30.898,31.603,30.225,31.471,30.583z"/>
<path d="M32.314,33.978c-0.791-0.292-1.883-0.696-0.893-3.414c0.005-0.016,0.007-0.023,0.006-0.026l0,0
	c-0.002-0.005-0.025-0.005-0.061,0.002c-0.056,0.006-0.132,0.029-0.218,0.063c-0.365,0.146-0.911,0.479-1.079,0.703
	c-0.077,0.102-0.182,0.264-0.29,0.453c-0.159,0.277-0.326,0.617-0.42,0.909c-0.09,0.275-0.119,0.504-0.016,0.582l0,0
	c0.004,0.003,0.008,0.006,0.014,0.009l0,0c0.074,0.045,0.093,0.193,0.12,0.396c0.044,0.338,0.11,0.837,0.426,1.136
	c1.126,1.063,1.962,1.481,2.521,1.514c0.233,0.014,0.416-0.043,0.55-0.147c0.133-0.105,0.22-0.261,0.261-0.446
	c0.085-0.396-0.036-0.925-0.355-1.415C32.787,34.152,32.567,34.071,32.314,33.978z M31.522,30.601
	c-0.952,2.616,0.082,2.999,0.83,3.272c0.27,0.103,0.506,0.189,0.618,0.36c0.336,0.516,0.462,1.076,0.37,1.498
	c-0.045,0.21-0.145,0.388-0.3,0.509c-0.154,0.122-0.361,0.186-0.622,0.171c-0.582-0.032-1.441-0.46-2.589-1.541
	c-0.343-0.324-0.412-0.848-0.458-1.2c-0.023-0.174-0.04-0.301-0.067-0.316l0,0c-0.009-0.004-0.017-0.012-0.025-0.018
	c-0.148-0.113-0.126-0.385-0.022-0.702c0.097-0.299,0.268-0.646,0.431-0.93c0.111-0.194,0.218-0.362,0.297-0.464
	c0.179-0.237,0.747-0.59,1.125-0.738c0.095-0.039,0.178-0.063,0.244-0.072c0.085-0.012,0.146,0.006,0.172,0.06l0,0
	C31.539,30.519,31.539,30.556,31.522,30.601z"/>
<path d="M49.13,5.883c-5.431-3.195-11.822-5.403-18.329-5.005c-8.445,0.519-16.94,4.856-22.305,11.247
	c-6.83,8.14-9.324,21.784-5.185,31.69c2.02,4.834,5.808,9.47,10.039,12.701c2.452,1.441,5.631,3.438,8.44,4.173
	c3.48,0.907,8.405,1.056,12.205,0.688c11.455-1.104,21.992-9.271,26.168-19.09c2.387-5.609,3.207-12.929,1.782-18.767
	c-1-4.103-3.164-7.857-5.869-11.269C54.124,9.79,51.57,7.748,49.13,5.883z M28.573,0.171c10.546-1.018,20.363,3.204,26.81,10.51
	l0.043,0.048l0.104,0.119c4.144,4.711,6.888,10.7,7.525,17.395c1.626,17.107-11.126,32.335-28.482,34.01
	C24.027,63.27,14.209,59.049,7.762,51.743L7.72,51.694c-0.035-0.039-0.069-0.077-0.104-0.118c-1.98-2.25-3.64-4.793-4.904-7.563
	c-1.381-3.031-2.289-6.334-2.622-9.831C-1.046,22.219,4.683,10.671,14.426,5.044C18.662,2.597,23.351,0.675,28.573,0.171z"/>
<path fill="#A74C15" d="M25.641,38.679c-0.415,0.626-1.514,3.563,1.896,4.62c0.603,0.188,0.089,0.623-0.56,0.766
	c-1.318,0.29-1.871,0.263-2.961-0.717c-0.913-0.822-0.842-1.858-0.809-2.982C23.23,39.565,24.799,37.904,25.641,38.679z"/>
<path d="M25.253,39.427c0.098-0.32,0.221-0.581,0.318-0.737c-0.127-0.105-0.27-0.152-0.421-0.156
	c-0.214-0.007-0.445,0.072-0.671,0.206c-0.228,0.136-0.449,0.325-0.639,0.535c-0.334,0.369-0.57,0.795-0.579,1.092L23.257,40.5
	c-0.033,1.062-0.063,2.035,0.795,2.809c0.537,0.481,0.94,0.73,1.37,0.821c0.43,0.093,0.892,0.025,1.544-0.115
	c0.285-0.063,0.541-0.184,0.682-0.313c0.049-0.045,0.084-0.09,0.097-0.133c0.011-0.035,0.006-0.068-0.016-0.098
	c-0.033-0.046-0.1-0.087-0.208-0.119c-0.489-0.151-0.886-0.34-1.207-0.558c-0.711-0.479-1.049-1.088-1.172-1.691
	C25.02,40.498,25.109,39.897,25.253,39.427z M25.687,38.709c-0.095,0.143-0.227,0.411-0.331,0.751
	c-0.138,0.454-0.226,1.036-0.107,1.62c0.119,0.58,0.442,1.163,1.126,1.623c0.313,0.212,0.701,0.397,1.179,0.546
	c0.131,0.04,0.216,0.094,0.262,0.154l0,0c0.046,0.063,0.055,0.129,0.034,0.198c-0.019,0.06-0.063,0.123-0.127,0.181
	c-0.154,0.14-0.43,0.27-0.732,0.337c-0.666,0.146-1.139,0.212-1.588,0.116c-0.449-0.096-0.867-0.354-1.42-0.847
	c-0.896-0.809-0.865-1.808-0.832-2.895l0.004-0.132c0.009-0.323,0.257-0.776,0.606-1.164c0.197-0.215,0.427-0.413,0.665-0.554
	c0.242-0.144,0.492-0.229,0.729-0.223c0.19,0.006,0.369,0.071,0.525,0.216l0.034,0.03L25.687,38.709z"/>
<path fill="#A74C15" d="M32.487,25.284c0.68,0.313,3.151,2.227,0.805,4.934c-0.415,0.479,0.251,0.577,0.877,0.354
	c1.271-0.454,1.727-0.771,2.141-2.182c0.346-1.184-0.255-2.025-0.871-2.965C35,24.757,32.798,24.179,32.487,25.284z"/>
<path d="M33.138,25.797c-0.265-0.232-0.518-0.392-0.674-0.462l-0.042-0.02l0.012-0.045c0.058-0.205,0.175-0.355,0.334-0.461
	c0.197-0.132,0.456-0.191,0.736-0.198c0.276-0.007,0.574,0.038,0.854,0.119c0.499,0.142,0.947,0.396,1.125,0.666l0.072,0.11
	c0.597,0.905,1.146,1.738,0.806,2.898c-0.21,0.716-0.432,1.155-0.764,1.475c-0.332,0.318-0.769,0.516-1.412,0.743
	c-0.292,0.104-0.594,0.142-0.798,0.104c-0.084-0.017-0.155-0.045-0.202-0.085c-0.054-0.05-0.083-0.11-0.076-0.188
	c0.007-0.075,0.051-0.166,0.142-0.271c0.328-0.381,0.562-0.742,0.718-1.088c0.34-0.756,0.31-1.423,0.107-1.979
	C33.873,26.558,33.493,26.109,33.138,25.797z M32.552,25.255c0.164,0.083,0.404,0.238,0.657,0.46
	c0.366,0.322,0.758,0.786,0.969,1.364c0.212,0.58,0.244,1.276-0.111,2.063c-0.159,0.353-0.398,0.725-0.734,1.112
	c-0.074,0.087-0.11,0.156-0.115,0.21c-0.003,0.039,0.011,0.069,0.039,0.094c0.033,0.028,0.085,0.05,0.151,0.062
	c0.187,0.036,0.468,0,0.744-0.097c0.628-0.226,1.054-0.416,1.372-0.722c0.318-0.307,0.531-0.73,0.734-1.427
	c0.327-1.11-0.208-1.924-0.792-2.808l-0.072-0.11c-0.164-0.248-0.587-0.484-1.063-0.622c-0.271-0.077-0.559-0.121-0.823-0.115
	c-0.261,0.008-0.5,0.062-0.678,0.182C32.703,24.983,32.606,25.1,32.552,25.255z"/>
<path fill="#A74C15" d="M35.422,32.642c0.532,0.527,2.198,3.183-0.929,4.912c-0.552,0.305,0.039,0.628,0.703,0.636
	c1.348,0.014,1.886-0.126,2.756-1.309c0.729-0.989,0.452-1.989,0.193-3.084C37.96,33.018,36.091,31.712,35.422,32.642z"/>
<path d="M35.858,33.349c-0.17-0.313-0.353-0.548-0.475-0.668l-0.034-0.033l0.028-0.038c0.125-0.173,0.287-0.273,0.472-0.318
	c0.229-0.054,0.493-0.021,0.757,0.069c0.262,0.09,0.526,0.236,0.763,0.408c0.419,0.308,0.753,0.7,0.828,1.017l0,0l0.031,0.128
	c0.251,1.058,0.482,2.028-0.233,3c-0.44,0.601-0.798,0.936-1.22,1.12c-0.42,0.185-0.897,0.217-1.579,0.209
	c-0.31-0.003-0.606-0.073-0.785-0.179c-0.074-0.045-0.13-0.096-0.161-0.15c-0.035-0.063-0.04-0.132-0.007-0.2
	c0.032-0.07,0.105-0.141,0.226-0.207c0.438-0.241,0.781-0.503,1.045-0.771c0.578-0.59,0.777-1.229,0.776-1.821
	C36.288,34.318,36.085,33.765,35.858,33.349z M35.493,32.637c0.126,0.135,0.299,0.363,0.459,0.658
	c0.234,0.432,0.443,1.001,0.445,1.616c0.001,0.62-0.207,1.284-0.808,1.898c-0.271,0.277-0.622,0.544-1.069,0.791
	c-0.1,0.056-0.157,0.107-0.18,0.156c-0.017,0.036-0.014,0.069,0.003,0.101c0.022,0.04,0.063,0.077,0.122,0.11
	c0.165,0.099,0.439,0.162,0.731,0.166c0.667,0.008,1.132-0.023,1.535-0.2c0.402-0.179,0.748-0.502,1.176-1.085
	c0.686-0.933,0.46-1.881,0.215-2.911l-0.03-0.128c-0.068-0.291-0.386-0.66-0.786-0.953c-0.228-0.166-0.483-0.308-0.733-0.394
	c-0.247-0.085-0.49-0.115-0.699-0.065C35.728,32.434,35.597,32.51,35.493,32.637z"/>
<path fill="#A74C15" d="M28.024,33.439c-0.415,0.625-1.515,3.563,1.896,4.621c0.603,0.186,0.088,0.623-0.56,0.765
	c-1.317,0.29-1.872,0.263-2.961-0.719c-0.913-0.819-0.842-1.856-0.81-2.98C25.613,34.324,27.182,32.663,28.024,33.439z"/>
<path d="M27.635,34.188c0.099-0.322,0.222-0.583,0.318-0.739c-0.127-0.104-0.27-0.152-0.421-0.157
	c-0.214-0.006-0.446,0.073-0.67,0.207c-0.228,0.136-0.449,0.325-0.639,0.535c-0.334,0.368-0.57,0.794-0.579,1.094l-0.004,0.131
	c-0.033,1.063-0.063,2.036,0.795,2.809c0.537,0.482,0.941,0.731,1.371,0.822c0.429,0.091,0.892,0.025,1.543-0.116
	c0.285-0.063,0.542-0.185,0.683-0.313l0,0c0.049-0.045,0.083-0.09,0.096-0.133c0.011-0.034,0.006-0.067-0.016-0.1l0,0
	c-0.033-0.042-0.1-0.083-0.207-0.116c-0.488-0.151-0.885-0.341-1.207-0.557c-0.712-0.48-1.049-1.088-1.173-1.694
	C27.402,35.258,27.493,34.656,27.635,34.188z M28.069,33.468c-0.095,0.146-0.227,0.411-0.331,0.752
	c-0.139,0.455-0.227,1.037-0.108,1.62c0.119,0.581,0.442,1.164,1.127,1.625c0.313,0.21,0.7,0.396,1.177,0.542
	c0.131,0.042,0.217,0.096,0.262,0.157v0.001c0.046,0.061,0.055,0.128,0.034,0.196c-0.02,0.062-0.063,0.121-0.127,0.18h-0.001
	c-0.154,0.142-0.429,0.271-0.732,0.338c-0.666,0.146-1.139,0.211-1.588,0.117c-0.45-0.097-0.868-0.352-1.42-0.849
	c-0.896-0.807-0.865-1.806-0.832-2.892l0.004-0.134c0.01-0.322,0.258-0.777,0.607-1.162c0.197-0.218,0.426-0.414,0.665-0.556
	c0.242-0.145,0.493-0.229,0.729-0.221c0.19,0.005,0.37,0.069,0.525,0.214l0.035,0.03L28.069,33.468z"/>
<path fill="#A74C15" d="M24.453,27.696c-1.302,3.574,1.051,3.063,1.453,3.682c1.012,1.556,0.906,3.175-2.228,0.221
	c-0.509-0.479-0.393-1.44-0.536-1.523c-0.385-0.225-0.445-1.278-0.135-1.689C23.289,28.012,24.583,27.338,24.453,27.696z"/>
<path d="M25.295,31.092c-0.79-0.293-1.883-0.696-0.893-3.415c0.005-0.015,0.007-0.022,0.006-0.025
	c-0.002-0.005-0.025-0.004-0.062,0.001c-0.055,0.007-0.13,0.03-0.218,0.063c-0.366,0.145-0.911,0.479-1.079,0.703
	c-0.016,0.021-0.029,0.042-0.042,0.064c-0.119,0.207-0.163,0.53-0.139,0.832c0.024,0.298,0.115,0.574,0.267,0.689l0,0
	c0.01,0.009,0.021,0.017,0.032,0.021c0.074,0.043,0.093,0.192,0.12,0.396c0.045,0.338,0.11,0.838,0.426,1.136
	c1.098,1.035,1.818,1.505,2.246,1.609c0.168,0.042,0.285,0.024,0.357-0.036l0,0c0.072-0.06,0.105-0.167,0.104-0.307
	c-0.003-0.352-0.217-0.888-0.562-1.417C25.769,31.267,25.548,31.185,25.295,31.092z M24.503,27.715
	c-0.952,2.615,0.081,2.998,0.83,3.274c0.271,0.1,0.506,0.187,0.619,0.359c0.355,0.546,0.576,1.104,0.579,1.474
	c0.001,0.174-0.043,0.311-0.143,0.395h-0.001c-0.099,0.082-0.247,0.107-0.451,0.057c-0.443-0.109-1.181-0.586-2.294-1.636
	c-0.343-0.324-0.412-0.849-0.458-1.2c-0.023-0.173-0.04-0.302-0.067-0.316c-0.015-0.01-0.03-0.019-0.044-0.029l0,0
	c-0.179-0.137-0.283-0.44-0.31-0.767c-0.026-0.323,0.023-0.669,0.153-0.896c0.015-0.027,0.032-0.054,0.05-0.076
	c0.179-0.237,0.747-0.589,1.126-0.739c0.093-0.037,0.178-0.063,0.243-0.071c0.085-0.011,0.146,0.006,0.171,0.06l0,0
	C24.52,27.632,24.52,27.669,24.503,27.715z"/>
<path d="M28.319,22.745c0.325-0.072,0.656,0.026,0.931,0.246c0.267,0.214,0.481,0.545,0.58,0.942l0,0
	c0.099,0.396,0.063,0.791-0.072,1.105c-0.144,0.334-0.399,0.583-0.733,0.667c-0.335,0.084-0.676-0.013-0.959-0.239
	c-0.267-0.214-0.481-0.544-0.58-0.941l-0.007-0.027v-0.001c-0.09-0.388-0.054-0.77,0.078-1.078c0.144-0.333,0.399-0.583,0.734-0.667
	l0.026-0.006L28.319,22.745L28.319,22.745z M28.394,23.163h-0.005c-0.198,0.052-0.354,0.209-0.446,0.422
	c-0.101,0.233-0.125,0.53-0.049,0.835l0.001,0.004c0.076,0.304,0.235,0.552,0.432,0.708c0.182,0.146,0.395,0.21,0.595,0.16
	c0.2-0.051,0.358-0.208,0.45-0.423c0.1-0.234,0.125-0.53,0.048-0.835c-0.076-0.305-0.235-0.555-0.433-0.712
	C28.806,23.177,28.593,23.113,28.394,23.163z M32.094,31.798c0.212,0.261,0.344,0.622,0.344,1.022c0,0.401-0.131,0.762-0.343,1.021
	l0,0c-0.204,0.247-0.481,0.399-0.785,0.399c-0.304,0-0.582-0.152-0.785-0.399l0,0c-0.212-0.261-0.344-0.62-0.344-1.021
	c0-0.4,0.131-0.763,0.344-1.021v-0.002c0.203-0.247,0.48-0.399,0.785-0.399S31.891,31.55,32.094,31.798z M31.309,30.973
	c-0.435,0-0.828,0.213-1.11,0.556l0,0c-0.272,0.333-0.441,0.791-0.441,1.292c0,0.503,0.168,0.959,0.441,1.291v0.001
	c0.282,0.344,0.674,0.557,1.11,0.557c0.437,0,0.828-0.213,1.11-0.557v-0.001c0.272-0.332,0.441-0.788,0.441-1.291
	c0-0.501-0.169-0.958-0.441-1.29C32.137,31.186,31.744,30.973,31.309,30.973z M28.259,34.483c0.385,0.271,0.705,0.713,0.869,1.26
	c0.162,0.549,0.138,1.095-0.036,1.533c-0.167,0.423-0.471,0.746-0.872,0.868c-0.403,0.121-0.833,0.021-1.204-0.238
	c-0.384-0.271-0.705-0.711-0.867-1.26c-0.164-0.548-0.139-1.094,0.035-1.532c0.167-0.424,0.471-0.747,0.873-0.868
	C27.458,34.124,27.889,34.225,28.259,34.483z M26.936,33.839c-0.532,0.16-0.93,0.577-1.143,1.118
	c-0.207,0.526-0.239,1.17-0.048,1.812s0.571,1.162,1.031,1.484c0.475,0.333,1.033,0.459,1.564,0.299
	c0.532-0.16,0.93-0.576,1.143-1.118c0.207-0.525,0.239-1.17,0.048-1.811c-0.192-0.642-0.571-1.163-1.031-1.484
	C28.026,33.804,27.467,33.68,26.936,33.839z M23.982,28.552c0.25-0.062,0.515,0.021,0.742,0.205c0.243,0.198,0.44,0.511,0.536,0.889
	l0,0l0.005,0.02l0,0c0.095,0.388,0.063,0.765-0.062,1.062c-0.117,0.277-0.317,0.482-0.572,0.55l0,0l-0.008,0.002v0.001
	c-0.251,0.061-0.516-0.021-0.742-0.206c-0.243-0.197-0.44-0.51-0.537-0.889l-0.005-0.021l0,0c-0.093-0.386-0.063-0.764,0.063-1.061
	c0.117-0.278,0.317-0.482,0.572-0.549L23.982,28.552z M23.871,28.142L23.871,28.142c-0.39,0.101-0.688,0.396-0.856,0.794
	c-0.16,0.377-0.2,0.852-0.084,1.329v0.002l0.006,0.02v0.002c0.119,0.47,0.37,0.861,0.681,1.112c0.327,0.268,0.721,0.384,1.107,0.287
	h0.001l0.008-0.002h0.001c0.39-0.102,0.688-0.396,0.855-0.794c0.159-0.377,0.2-0.852,0.083-1.329v-0.001l-0.006-0.021V29.54
	c-0.119-0.469-0.37-0.859-0.682-1.113c-0.326-0.266-0.721-0.382-1.106-0.286h-0.002L23.871,28.142z M35.75,33.765
	c0.203-0.043,0.417,0.036,0.607,0.204c0.211,0.188,0.389,0.479,0.494,0.838c0.017,0.059,0.033,0.117,0.045,0.184
	c0.09,0.428,0.062,0.848-0.06,1.178c-0.111,0.306-0.297,0.529-0.532,0.6c-0.013,0.003-0.027,0.007-0.043,0.011
	c-0.203,0.043-0.417-0.035-0.607-0.204c-0.21-0.187-0.389-0.479-0.494-0.839c-0.016-0.059-0.032-0.117-0.045-0.181
	c-0.091-0.43-0.061-0.851,0.06-1.181c0.11-0.306,0.297-0.527,0.531-0.598C35.721,33.772,35.734,33.768,35.75,33.765z M35.588,33.369
	c-0.371,0.109-0.653,0.431-0.809,0.858c-0.146,0.401-0.184,0.903-0.076,1.414c0.015,0.071,0.032,0.143,0.053,0.214
	c0.128,0.438,0.352,0.799,0.62,1.037c0.289,0.256,0.631,0.372,0.973,0.299c0.023-0.004,0.048-0.01,0.073-0.018
	c0.371-0.11,0.653-0.431,0.81-0.858c0.146-0.402,0.184-0.906,0.076-1.414c-0.015-0.072-0.034-0.145-0.054-0.213
	c-0.128-0.439-0.352-0.801-0.619-1.037c-0.29-0.258-0.632-0.375-0.974-0.302C35.639,33.354,35.614,33.361,35.588,33.369z
	 M26.29,41.215c0.052,0.178,0.094,0.349,0.127,0.479v0.001l0.023,0.091l0,0c0.024,0.094,0.044,0.166,0.063,0.235
	c0.093,0.335,0.169,0.612,0.05,0.751c-0.104,0.119-0.237,0.186-0.384,0.212c-0.185,0.031-0.397,0-0.61-0.082
	c-0.224-0.087-0.448-0.228-0.644-0.4c-0.323-0.286-0.574-0.663-0.641-1.058c-0.076-0.445-0.043-0.874,0.079-1.21
	c0.107-0.295,0.283-0.509,0.511-0.577C25.65,39.424,26.071,40.469,26.29,41.215z M24.749,39.251
	c-0.367,0.108-0.636,0.418-0.789,0.837c-0.146,0.401-0.186,0.909-0.099,1.426c0.083,0.495,0.388,0.963,0.779,1.309
	c0.235,0.208,0.502,0.373,0.771,0.477c0.28,0.107,0.567,0.15,0.83,0.105c0.241-0.041,0.458-0.153,0.63-0.354
	c0.27-0.307,0.166-0.687,0.039-1.142c-0.022-0.08-0.045-0.162-0.062-0.227l0,0l-0.022-0.092l0,0
	c-0.033-0.133-0.076-0.302-0.132-0.496C26.426,40.183,25.887,38.911,24.749,39.251z M33.191,26.443
	c0.139-0.1,0.329-0.107,0.535-0.039c0.235,0.078,0.485,0.252,0.71,0.505c0.062,0.069,0.123,0.146,0.182,0.232
	c0.252,0.359,0.398,0.757,0.43,1.106c0.03,0.319-0.035,0.593-0.2,0.741c-0.012,0.011-0.026,0.021-0.042,0.033
	c-0.138,0.098-0.328,0.106-0.534,0.038c-0.236-0.078-0.486-0.251-0.711-0.505c-0.062-0.069-0.123-0.146-0.182-0.231
	c-0.252-0.36-0.398-0.757-0.431-1.106c-0.03-0.32,0.034-0.593,0.2-0.742C33.161,26.464,33.175,26.454,33.191,26.443z M32.869,26.159
	c-0.271,0.244-0.38,0.646-0.338,1.096c0.039,0.42,0.21,0.893,0.505,1.313c0.066,0.095,0.138,0.185,0.213,0.27
	c0.276,0.312,0.591,0.525,0.895,0.626c0.331,0.109,0.651,0.085,0.905-0.095l0.002-0.002c0.025-0.018,0.051-0.038,0.078-0.063
	c0.271-0.244,0.381-0.646,0.339-1.097c-0.039-0.42-0.21-0.892-0.505-1.313c-0.066-0.095-0.137-0.186-0.212-0.27
	c-0.276-0.311-0.591-0.525-0.894-0.627c-0.333-0.109-0.653-0.086-0.907,0.095C32.922,26.113,32.896,26.134,32.869,26.159z
	 M29.06,15.412c-1.099-0.085-2.198-0.169-3.471,0.128l-0.096,0.022l-0.045,0.089c-0.877,1.748-1.003,2.701-1.211,4.289
	c-0.042,0.316-0.086,0.663-0.15,1.095l-0.026,0.185l0.179,0.052c0.199,0.056,0.39,0.188,0.55,0.379
	c0.161,0.19,0.288,0.438,0.356,0.723c0.095,0.387,0.064,0.766-0.062,1.063c-0.117,0.277-0.317,0.482-0.572,0.549
	c-0.13,0.034-0.264,0.029-0.392-0.008c-0.139-0.04-0.275-0.12-0.401-0.231l-0.237-0.21l-0.102,0.303
	c-0.477,1.423-0.829,2.542-1.121,3.679c-0.291,1.137-0.522,2.288-0.755,3.773l-0.028,0.179l0.17,0.058
	c0.02,0.006,0.04,0.015,0.062,0.022l0,0c0.019,0.008,0.038,0.018,0.058,0.027l0.007,0.005l0,0c0.226,0.127,0.363,0.37,0.404,0.66
	c0.044,0.312-0.022,0.675-0.208,1.019l-0.011,0.018l0,0c-0.125,0.227-0.286,0.414-0.464,0.553c-0.18,0.142-0.376,0.231-0.569,0.267
	l-0.135,0.022l-0.034,0.134l-0.68,2.701l-0.073,0.287l0.294-0.024c0.196-0.017,0.39,0,0.565,0.048
	c0.164,0.049,0.313,0.12,0.431,0.225c0.056,0.049,0.103,0.102,0.141,0.156c0.083,0.125,0.117,0.266,0.103,0.403
	c-0.014,0.146-0.08,0.294-0.195,0.43c-0.065,0.076-0.146,0.148-0.243,0.215c-0.186,0.127-0.401,0.209-0.624,0.247
	c-0.23,0.041-0.466,0.033-0.679-0.021l-0.204-0.052l-0.052,0.206l-1.005,3.99L18.5,43.209l0.13,0.083
	c0.256,0.16,0.515,0.313,0.779,0.452c3.583,1.915,8.569,2.404,13.192,1.553c4.633-0.854,8.912-3.059,11.071-6.528
	c0.129-0.209,0.25-0.418,0.36-0.626l0.051-0.099l-0.05-0.099l-1.193-2.352l-0.183-0.359l-0.19,0.355
	c-0.087,0.162-0.205,0.291-0.336,0.369c-0.114,0.067-0.239,0.097-0.358,0.071l0,0l-0.005-0.002c-0.152-0.032-0.274-0.17-0.352-0.349
	c-0.087-0.2-0.116-0.443-0.072-0.66l0,0l0.002-0.012c0.048-0.223,0.122-0.368,0.216-0.472c0.091-0.102,0.208-0.164,0.338-0.213
	l0.152-0.056l-0.015-0.163c-0.094-0.999-0.38-1.357-0.753-1.827c-0.192-0.24-0.409-0.514-0.632-0.934l-0.09-0.171l-0.176,0.073
	c-0.276,0.116-0.601,0.063-0.906-0.113c-0.334-0.191-0.642-0.525-0.841-0.938c-0.194-0.403-0.258-0.818-0.207-1.176
	c0.049-0.348,0.206-0.641,0.453-0.812L39,28.132l-0.025-0.135l-0.031-0.173c-0.13-0.726-0.191-1.063-0.346-1.367
	c-0.134-0.266-0.323-0.472-0.674-0.856c-0.104-0.114-0.224-0.245-0.371-0.411l-0.167-0.187l-0.155,0.196
	c-0.063,0.079-0.135,0.146-0.215,0.2l0,0c-0.075,0.051-0.158,0.088-0.247,0.111l0,0l-0.008,0.003l0,0
	c-0.278,0.067-0.572-0.023-0.822-0.228c-0.266-0.217-0.483-0.557-0.588-0.973l-0.005-0.021l0,0c-0.096-0.398-0.072-0.79,0.046-1.105
	c0.113-0.303,0.312-0.535,0.568-0.634l0.219-0.085l-0.107-0.21l-2.417-4.764l-0.088-0.174l-0.179,0.075
	c-0.307,0.127-0.676,0.108-1.039-0.034c-0.371-0.146-0.734-0.422-1.021-0.806c-0.104-0.142-0.193-0.288-0.265-0.439
	c-0.074-0.154-0.129-0.311-0.168-0.467l-0.04-0.162l-0.166,0.001C30.141,15.495,29.6,15.454,29.06,15.412z M30.529,15.914
	c-0.518-0.003-1.009-0.04-1.5-0.079c-1.04-0.08-2.079-0.16-3.25,0.098c-0.805,1.628-0.926,2.549-1.124,4.063
	c-0.039,0.295-0.08,0.613-0.125,0.931c0.214,0.096,0.415,0.25,0.582,0.45c0.201,0.239,0.359,0.546,0.444,0.897
	c0.117,0.478,0.076,0.951-0.083,1.328c-0.167,0.397-0.466,0.693-0.855,0.794c-0.203,0.053-0.411,0.045-0.611-0.014
	c-0.109-0.03-0.215-0.077-0.316-0.138c-0.428,1.287-0.751,2.326-1.021,3.376c-0.277,1.081-0.5,2.177-0.723,3.569l0.024,0.013
	l0.001,0.001l0.008,0.005l0,0c0.346,0.196,0.556,0.555,0.615,0.974c0.056,0.397-0.025,0.854-0.257,1.28v0.002l-0.011,0.02v0.001
	c-0.154,0.273-0.353,0.505-0.576,0.679c-0.193,0.15-0.404,0.26-0.617,0.317l-0.581,2.305c0.145,0.009,0.288,0.032,0.423,0.069
	c0.222,0.063,0.426,0.166,0.593,0.31c0.086,0.074,0.159,0.155,0.216,0.242c0.14,0.208,0.197,0.444,0.173,0.682
	c-0.023,0.231-0.123,0.461-0.295,0.665c-0.089,0.106-0.199,0.203-0.327,0.291c-0.236,0.159-0.509,0.266-0.788,0.313
	c-0.215,0.037-0.436,0.041-0.646,0.013l-0.918,3.646c0.2,0.122,0.407,0.238,0.621,0.354c3.502,1.869,8.385,2.346,12.921,1.509
	c4.527-0.833,8.699-2.972,10.791-6.337c0.101-0.161,0.198-0.329,0.292-0.503l-0.986-1.94c-0.084,0.09-0.178,0.167-0.277,0.229
	c-0.203,0.12-0.43,0.167-0.658,0.12h-0.001h-0.005c-0.297-0.065-0.521-0.299-0.651-0.597c-0.12-0.275-0.159-0.613-0.097-0.916
	v-0.001l0.002-0.012v-0.001c0.065-0.304,0.175-0.516,0.317-0.672c0.105-0.112,0.223-0.193,0.35-0.257
	c-0.096-0.758-0.337-1.059-0.646-1.448c-0.179-0.224-0.378-0.475-0.589-0.845c-0.356,0.088-0.74,0.008-1.095-0.195
	c-0.406-0.231-0.776-0.631-1.012-1.125c-0.231-0.479-0.306-0.98-0.245-1.417c0.058-0.414,0.236-0.772,0.521-1.018l-0.007-0.046
	c-0.124-0.685-0.181-1.001-0.306-1.249c-0.108-0.211-0.284-0.404-0.611-0.763c-0.068-0.075-0.143-0.156-0.222-0.244
	c-0.045,0.041-0.092,0.076-0.141,0.109h-0.001c-0.115,0.077-0.241,0.136-0.376,0.169h-0.001l-0.01,0.002l0,0
	c-0.412,0.103-0.834-0.021-1.185-0.308c-0.334-0.271-0.605-0.692-0.734-1.198v-0.001l-0.005-0.022v-0.002
	c-0.118-0.484-0.087-0.963,0.06-1.356c0.125-0.333,0.332-0.608,0.604-0.777l-2.239-4.41c-0.365,0.099-0.773,0.063-1.168-0.093
	c-0.439-0.173-0.867-0.497-1.204-0.947c-0.123-0.164-0.225-0.335-0.308-0.509C30.621,16.174,30.57,16.043,30.529,15.914z"/>
<path fill="#FAA54C" d="M28.342,22.957c0.534-0.135,1.109,0.325,1.284,1.027c0.175,0.703-0.117,1.381-0.652,1.516
	c-0.534,0.135-1.109-0.326-1.284-1.026C27.516,23.771,27.808,23.092,28.342,22.957z M31.309,31.186c0.74,0,1.34,0.73,1.34,1.635
	s-0.6,1.636-1.34,1.636c-0.74,0-1.34-0.731-1.34-1.636S30.568,31.186,31.309,31.186z M26.996,34.043
	c0.934-0.283,1.978,0.45,2.333,1.641c0.355,1.188-0.115,2.382-1.049,2.664c-0.935,0.283-1.979-0.451-2.333-1.64
	C25.592,35.519,26.062,34.325,26.996,34.043z M23.922,28.349c0.644-0.166,1.338,0.399,1.548,1.266c0.21,0.864-0.141,1.7-0.786,1.867
	c-0.645,0.166-1.338-0.4-1.548-1.267C22.924,29.351,23.277,28.514,23.922,28.349z M35.647,33.572
	c0.605-0.18,1.256,0.434,1.455,1.372c0.199,0.938-0.133,1.845-0.739,2.024c-0.605,0.181-1.257-0.435-1.455-1.372
	C34.711,34.658,35.042,33.752,35.647,33.572z M24.808,39.453c1.229-0.365,1.671,1.632,1.837,2.279c0.127,0.5,0.3,0.914,0.068,1.179
	c-0.723,0.83-2.438-0.219-2.645-1.433C23.91,40.533,24.202,39.635,24.808,39.453z M33.01,26.317c0.437-0.395,1.234-0.08,1.781,0.702
	c0.546,0.78,0.635,1.733,0.198,2.129c-0.438,0.394-1.234,0.08-1.78-0.702C32.661,27.664,32.573,26.71,33.01,26.317z M30.688,15.703
	c-1.684,0.015-3.189-0.391-5.053,0.044c-1.044,2.083-1.002,3.021-1.34,5.318c0.474,0.133,0.898,0.611,1.055,1.257
	c0.21,0.865-0.141,1.701-0.787,1.867c-0.34,0.087-0.694-0.029-0.983-0.287c-0.952,2.839-1.403,4.459-1.869,7.417
	c0.054,0.019,0.107,0.042,0.157,0.069c0.584,0.32,0.707,1.213,0.274,1.987c-0.284,0.514-0.738,0.848-1.182,0.924L20.28,37
	c0.43-0.036,0.858,0.071,1.151,0.322c0.5,0.431,0.404,1.122-0.214,1.543c-0.429,0.291-0.997,0.377-1.472,0.256l-1.005,3.991
	c7.096,4.48,21.109,2.528,25.105-5.071l-1.194-2.351c-0.208,0.39-0.571,0.619-0.922,0.549c-0.456-0.095-0.702-0.749-0.589-1.274
	c0.112-0.524,0.37-0.722,0.688-0.84c-0.137-1.461-0.716-1.463-1.361-2.682c-0.69,0.292-1.588-0.262-2.017-1.155
	c-0.429-0.895-0.274-1.846,0.316-2.255c-0.307-1.7-0.223-1.415-1.372-2.702c-0.15,0.189-0.345,0.326-0.574,0.385
	c-0.699,0.181-1.451-0.435-1.68-1.373c-0.216-0.888,0.115-1.746,0.743-1.988c-0.806-1.588-1.611-3.177-2.417-4.765
	c-0.71,0.295-1.679-0.064-2.308-0.907C30.928,16.373,30.771,16.036,30.688,15.703z"/>
<path d="M21.686,44.49c0.422,0.058,0.776,0.162,1.646,0.34c0.62,0.126,2.118,0.341,3.057,0.404c1.66,0.114,6.203-0.176,7.276-1.64
	c0.711-0.971,0.313-2.091,0.313-3.23c0.033,0.835,0.95,2.342,1.808,2.644c0.567,0.197,2.074-0.1,3.288-0.61
	c0.392-0.167,1.598-0.904,2.584-1.526C36.908,45.309,27.992,46.62,21.686,44.49z"/>
<path fill="none" stroke="#000000" stroke-width="0.238" stroke-miterlimit="22.926" d="M21.686,44.49
	c0.422,0.058,0.776,0.162,1.646,0.34c0.62,0.126,2.118,0.341,3.057,0.404c1.66,0.114,6.203-0.176,7.276-1.64
	c0.711-0.971,0.313-2.091,0.313-3.23c0.033,0.835,0.95,2.342,1.808,2.644c0.567,0.197,2.074-0.1,3.288-0.61
	c0.392-0.167,1.598-0.904,2.584-1.526"/>
<path fill="none" stroke="#000000" stroke-width="0.7812" stroke-miterlimit="22.926" d="M26.096,15.792
	c1.09,2.532,1.811,4.539,2.339,7.148 M31.927,34.272c1.381,3.436,2.096,6.158,3.043,9.815L31.927,34.272z M29.107,25.452
	c0.545,2.189,0.997,3.732,1.813,5.803L29.107,25.452z"/>
<path d="M37.417,47.015c-0.071,0.027-0.136,0.054-0.197,0.078c-0.866,0.378-1.376,0.803-1.612,1.276l0,0
	c-0.232,0.465-0.202,0.986,0.015,1.563c0.008,0.021,0.016,0.04,0.023,0.058c0.221,0.519,0.723,0.858,1.368,0.999
	c0.664,0.143,1.477,0.069,2.298-0.243c0.074-0.028,0.145-0.058,0.212-0.086c0.938-0.406,1.789-0.966,2.307-1.579
	c0.434-0.511,0.63-1.061,0.436-1.575c-0.004-0.011-0.008-0.021-0.013-0.03c-0.22-0.52-0.983-0.798-1.903-0.868
	C39.402,46.532,38.293,46.682,37.417,47.015z"/>
<path fill="#AD0637" d="M37.168,46.969c1.793-0.776,4.766-0.733,5.225,0.486c0.459,1.222-1.023,2.553-2.816,3.329
	c-1.792,0.775-3.62,0.416-4.079-0.805C35.039,48.758,35.375,47.746,37.168,46.969z"/>
<path fill="#FFFFFF" d="M41.522,49.254c-0.368,0.24-0.738,0.545-1.096,0.912c-0.818,0.84-1.403,1.838-1.688,2.775
	c-0.281,0.918-0.271,1.771,0.093,2.341c0.058,0.09,0.122,0.168,0.192,0.238c0.306,0.305,0.74,0.429,1.238,0.388
	c0.516-0.043,1.099-0.263,1.685-0.646c0.369-0.239,0.739-0.546,1.096-0.911c0.817-0.839,1.404-1.838,1.688-2.775
	c0.28-0.918,0.272-1.771-0.093-2.34l0,0c-0.057-0.09-0.122-0.17-0.193-0.239c-0.306-0.303-0.739-0.428-1.237-0.388
	C42.693,48.652,42.11,48.872,41.522,49.254z M40.234,49.975c0.37-0.381,0.756-0.698,1.142-0.95c0.626-0.406,1.253-0.642,1.812-0.687
	c0.575-0.049,1.082,0.104,1.448,0.466c0.084,0.081,0.161,0.178,0.229,0.283l0,0c0.411,0.641,0.428,1.575,0.126,2.568
	c-0.298,0.977-0.906,2.016-1.755,2.887c-0.37,0.38-0.756,0.696-1.143,0.948c-0.626,0.408-1.252,0.641-1.81,0.688
	c-0.576,0.049-1.082-0.103-1.449-0.465c-0.084-0.084-0.162-0.179-0.229-0.284v-0.003c-0.411-0.639-0.428-1.572-0.125-2.566
	C38.778,51.885,39.386,50.846,40.234,49.975z"/>
<path d="M48.763,44.755c-0.079-0.012-0.709-0.507-1.063-0.783l0,0c-0.104-0.083-0.186-0.146-0.21-0.165
	c-0.218-0.166-0.545-0.396-1.003-0.529c-0.456-0.132-1.043-0.169-1.786,0.046c-0.175,0.083-0.314,0.15-0.432,0.208
	c-0.32,0.154-0.485,0.235-0.665,0.295l0,0c-0.171,0.057-0.346,0.094-0.667,0.155c0.287,0.067,0.597,0.156,0.703,0.276
	c0.076,0.086,0.058,0.165-0.026,0.242v0.001c-0.092,0.082-0.343,0.174-0.518,0.238l-0.008,0.003
	c0.064,0.035,0.154,0.082,0.249,0.131c0.289,0.15,0.616,0.321,0.662,0.525c0.04,0.18-0.092,0.333-0.533,0.434
	c-0.042,0.01-0.079,0.045-0.124,0.09c-0.114,0.11-0.262,0.255-0.661,0.332c-0.214,1.137-0.235,1.147-0.57,1.336
	c-0.102,0.058-0.239,0.136-0.436,0.295c0.039,0.005,0.075,0.009,0.11,0.014c0.109,0.01,0.199,0.012,0.277,0.01l0,0
	c0.173-0.006,0.283-0.038,0.377-0.065c0.133-0.042,0.242-0.072,0.436-0.036l0,0c0.068,0.012,0.084,0.04,0.11,0.085l0,0
	c0.017,0.029,0.061,0.104,0.373,0.197c0.087,0.026,0.155-0.03,0.215-0.081c0.152-0.125,0.279-0.23,0.502,0.018v0.001
	c0.343,0.38,0.183,0.622-0.064,0.847c-0.029,0.025-0.073,0.064-0.116,0.102c-0.108,0.093-0.219,0.186-0.267,0.282l0,0
	c-0.262,0.539-0.473,0.992-0.64,1.462c-0.163,0.455-0.286,0.931-0.38,1.517c0.109-0.036,0.32-0.152,0.571-0.293
	c0.571-0.316,1.333-0.739,1.914-0.667c0.238,0.027,0.288,0.08,0.399,0.194c0.013,0.015,0.027,0.027,0.043,0.044
	c0.007,0.007,0.014,0.012,0.021,0.018c0.039,0.024,0.088,0.021,0.139,0.001c0.069-0.026,0.137-0.079,0.191-0.132
	c0.027-0.03,0.051-0.06,0.067-0.084l0,0c0.132-0.204,0.228-0.418,0.304-0.627c0.078-0.215,0.135-0.429,0.187-0.633l0.029-0.111
	l0.115,0.011c0.228,0.023,0.262,0.192,0.24,0.415c-0.006,0.065-0.018,0.131-0.029,0.197c-0.035,0.208-0.074,0.436,0.055,0.469
	l0.082,0.021l0.018,0.084v0.002l0.001,0.01c0.003,0.021,0.011,0.151,0.004,0.325c-0.006,0.173-0.026,0.393-0.08,0.605
	c-0.046,0.186-0.117,0.366-0.225,0.508c0.128-0.042,0.267-0.109,0.393-0.223c0.225-0.204,0.427-0.714,0.564-1.061
	c0.024-0.063,0.047-0.12,0.062-0.156c0.047-0.115,0.114-0.146,0.201-0.109v0.001c0.097,0.04,0.1,0.17,0.102,0.344
	c0.003,0.153,0.006,0.36,0.038,0.473c0.038-0.056,0.107-0.166,0.184-0.288c0.112-0.181,0.239-0.385,0.346-0.508
	c0.275-0.321,0.507-0.546,0.695-0.688c0.245-0.187,0.436-0.245,0.566-0.21c0.099,0.026,0.172,0.115,0.229,0.271
	c0.043,0.119,0.082,0.288,0.124,0.518c0.014,0.077,0.018,0.157,0.018,0.24c0.106-0.251,0.247-0.539,0.415-0.76
	c0.182-0.239,0.488-0.325,0.658-0.357c-0.019-0.787,0.125-1.172,0.26-1.535c0.081-0.213,0.158-0.419,0.19-0.702
	c0.002-0.025-0.016-0.001-0.037-0.044c-0.115-0.233-0.386-0.787-0.424-1.66c-0.004-0.092-0.093-0.183-0.176-0.268
	c-0.038-0.038-0.075-0.076-0.106-0.115l0,0c-0.331-0.399-0.708-0.485-0.98-0.548c-0.135-0.03-0.249-0.057-0.339-0.11
	c-0.32-0.193-0.239-0.582,0.646-2.069c0.031-0.051,0.074-0.142,0.127-0.257c-0.515,0.756-1.011,1.333-1.296,1.664
	c-0.115,0.134-0.193,0.225-0.221,0.267L48.85,44.77L48.763,44.755z"/>
<path fill="#E49846" d="M53.901,35.862c0.18,1.265,1.332,3.221,2.908,2.285c0.625-0.37,1.005-1.231,0.965-1.947
	c-0.064-1.136-1.085-1.964-1.745-1.074c-0.296,0.399,0.041,0.964,0.07,1.301c0.055,0.626-0.472,0.854-0.876,0.601
	c-0.29-0.183-0.473-0.684-0.535-1.126c-0.505-3.623,0.175-7.468-0.436-11.208c-0.863-5.289-3.563-10.287-9.415-13.458
	c-3.873-2.101-7.524-3.435-11.91-3.436c-1.618-0.001-3.163,0.213-4.541,0.517c-0.127,0.027-0.25,0.054-0.365,0.08
	c-0.182,0.042-0.509,0.318,0.27,0.173c0.243-0.045,0.514-0.038,0.804-0.056c3.384-0.216,4.931-0.096,6.784,0.304
	c1.087,0.233,2.205,0.427,3.87,1.088c8.516,3.383,13.015,9.953,13.771,18.797C53.707,30.898,53.523,33.229,53.901,35.862z"/>
<path fill="#AD0637" d="M40.359,50.114c1.633-1.676,3.572-2.075,4.333-0.892c0.759,1.187,0.052,3.505-1.58,5.182
	c-1.633,1.677-3.573,2.074-4.333,0.89C38.019,54.108,38.727,51.791,40.359,50.114z"/>
<path fill="#E49846" d="M48.784,44.621c-0.056-0.008-1.063-0.81-1.213-0.924c-0.453-0.346-1.365-0.956-2.919-0.503
	c-1.244,0.594-0.887,0.485-2.238,0.749c-0.288,0.055,0.941,0.192,1.128,0.405c0.07,0.076-0.47,0.249-0.62,0.312
	c-0.422,0.173,1.872,0.733,0.517,1.04c-0.226,0.05-0.204,0.336-0.871,0.435c-0.327,1.733-0.193,0.905-1.198,1.838
	c0.313,0.059,0.533,0.075,0.699,0.069c0.413-0.013,0.482-0.16,0.785-0.104c0.033,0.005,0.005,0.143,0.47,0.28
	c0.336,0.102,0.399-0.388,0.656-0.104c0.465,0.516-0.285,0.706-0.467,1.08c-0.53,1.084-0.848,1.829-1.04,3.063
	c-0.085,0.552,1.608-0.975,2.609-0.852c0.222,0.027,0.239,0.077,0.364,0.202c0.202,0.197,0.516-0.048,0.626-0.223
	c0.275-0.429,0.401-0.884,0.508-1.299c0.358,0.038-0.22,0.96,0.246,1.078c0.005,0.001,0.096,1.477-0.665,1.578
	c-0.123,0.018,0.504,0.15,0.981-0.277c0.288-0.258,0.522-0.926,0.66-1.266c0.106-0.259-0.059,0.991,0.255,0.81
	c0.092-0.054,0.392-0.624,0.595-0.86c0.576-0.674,0.953-0.902,1.124-0.856c0.106,0.03,0.175,0.241,0.255,0.685
	c0.038,0.214-0.011,0.485,0.046,0.813c0.014,0.079,0.251-0.782,0.626-1.274c0.224-0.294,0.69-0.321,0.69-0.326
	c-0.058-1.352,0.354-1.541,0.446-2.337c0.007-0.066-0.413-0.64-0.459-1.727c-0.008-0.19-0.2-0.323-0.314-0.463
	c-1.011-1.22-1.925,0.386-0.096-2.353c0.608-0.91-0.071-1.234,0.098-1.544l-0.305,0.623C49.936,43.71,48.902,44.438,48.784,44.621z"
	/>
<path fill="#E49846" d="M15.706,13.567c0.629-1.11,0.913-3.366-0.902-3.604c-0.72-0.094-1.543,0.351-1.948,0.939
	c-0.642,0.936-0.341,2.222,0.721,1.928c0.478-0.132,0.556-0.786,0.738-1.07c0.338-0.526,0.894-0.382,1.058,0.069
	c0.118,0.323-0.043,0.833-0.266,1.221c-1.81,3.17-4.796,5.646-6.489,9.112c-2.324,4.761-2.856,10.623-0.172,16.747
	c1.128,2.574,2.223,4.599,3.796,6.564c0.197,0.245,0.492,0.604,0.75,0.755c0.987,0.578,0.035-0.348-0.157-0.64
	c-0.213-0.326-0.54-0.775-0.682-0.998c-0.341-0.527-0.641-0.88-1.105-1.781c-4.187-8.142-3.722-15.671,0.594-23.356
	C12.719,17.535,14.397,15.88,15.706,13.567z"/>
<path fill="#FFFFFF" d="M38.175,47.282c0.695-0.078,1.073,0.107,1.119,0.329c-2.526,0.912-2.685,2.012-2.685,2.012
	s-0.478-0.067-0.556-0.478C35.913,48.399,37.452,47.361,38.175,47.282z"/>
<path fill="#FFFFFF" d="M41.714,49.96c0.459-0.203,0.575,0.213,0.575,0.213s-2.101,1.915-1.973,3.312
	c-0.128,0.144-0.983-0.041-1.104-0.612C39.366,52.135,41.032,50.263,41.714,49.96z"/>
<path fill="#FFFFFF" d="M36.213,52.392c0.075,0.142-0.108,0.293,0.112,0.508c-1.55,0.121-3.358,2.307-3.358,2.307l-0.222-0.811
	C32.745,54.396,33.762,52.454,36.213,52.392z"/>
<path fill="#FFFFFF" d="M30.372,52.183c0.277,0.164,0.472,0.34,0.596,0.721c-1.986-0.037-2.879,0.742-3.138,1.103
	c-0.477,0.021-0.516-0.513-0.516-0.513S28.883,51.897,30.372,52.183z"/>
<path fill="#E49846" d="M20.809,52.466c0.388,0.401,0.521,0.501,0.689,0.623c0.458,0.327,1.662,0.934,1.99,0.471
	c0.36-0.775-0.438-1.294-1.438-1.472c-0.98-0.174-1.138,0.583-2.948,0.93c-0.176-0.001-0.107-0.13-0.031-0.141
	c1.47-0.178,1.862-1.311,3.282-0.988c0.994,0.224,1.814,0.921,1.421,1.858c-0.515,0.719-2.208-0.161-2.613-0.508
	c-0.293-0.25-0.644-0.693-0.874-1.067c-0.012-0.02,0.307,0.147,0.392,0.166L20.809,52.466z"/>
<path fill="#FFFFFF" d="M50.192,44.733c0,0-0.949-0.228-1.254-0.021c-0.347,0.235-1.021,0.244-1.021,0.244s-1.163-0.606-0.927-0.505
	c0.234,0.104-0.947-0.348-0.947-0.348l-0.001,0.047c0,0,1.557,0.641,1.5,0.751c-0.123,0.177-1.914-0.124-1.914-0.124l-0.001,0.077
	c0,0,1.16,0.217,1.583,0.248c0.422,0.029,1.291,0.044,1.291,0.044l-0.674,0.86l-0.692,0.064l-0.74-0.075l-1.521-0.161
	c0,0-0.39-0.45-0.847-0.37c-0.068,0.019-0.12,0.1,0.064,0.102c0.331-0.025,0.542,0.331,0.542,0.331s-0.795,0.267-0.915,0.288
	c-0.049,0.04-0.104,0.085-0.003,0.105c0.1,0.021,1.122-0.354,1.827-0.191c0.226,0.083-1.042,0.401-1.065,0.434
	c-0.022,0.032-0.101,0.049-0.003,0.106c0.406,0.047,1.194-0.461,1.431-0.439c0.237,0.022,1.217,0.101,1.217,0.101l0.678-0.07
	c0,0-0.065,0.365-0.357,0.854c-0.247,0.439-1.324,1.738-1.678,2.215s-0.259,1.025-0.259,1.025l0.15,0.016
	c0,0-0.039-0.639,0.296-1.013c0.369-0.411,1.192-1.45,1.192-1.45s0.048,0.364,0.013,0.664c-0.034,0.301-0.405,0.844-0.444,0.988
	c-0.04,0.142-0.011,0.428-0.011,0.428l0.11,0.043c0,0-0.019-0.146,0.03-0.396c0.05-0.251,0.334-0.507,0.438-0.818
	c0.107-0.319,0.085-1.192,0.085-1.192s0.544-0.714,0.652-1.397c0.217-0.447,0.604-0.893,0.604-0.893s0.004,0.971,0.571,1.238
	c0.272,0.151,0.223,0.173,0.375,0.306c0.188,0.164,0.18,0.17,0.202,0.377c0.023,0.205-0.306,0.856-0.326,0.969
	c-0.02,0.11-0.082,0.409-0.082,0.409l0.123-0.011c0,0,0.027-0.28,0.072-0.392c0.045-0.108,0.094-0.257,0.268-0.616
	c0.176-0.359,0.286,0.14,0.286,0.14l0.121,0.655l0.146,0.085L50.23,47.56c0,0-0.448-0.828-0.75-1.013
	c-0.104-0.064,0.215-0.104,0.453,0.101c0.374,0.318,0.958,0.813,1.092,0.778c0.15-0.059,0.121-0.012,0.064-0.043
	c-0.542-0.302-0.575-0.49-1.071-0.874c-0.351-0.271-0.634-0.088-0.776-0.185c-0.11-0.076-0.197-0.22-0.197-0.22
	s-0.189-0.186-0.208-0.601c-0.02-0.413,0.299-0.563,0.435-0.612c0.136-0.048,0.763,0.178,0.763,0.178L50.192,44.733z"/>
<path fill="#E49846" d="M50.617,42.073c0.168-0.451,1.084-0.599,1.263-0.609c0.884-0.18,0.646-1.57,0.333-1.479
	c-0.112,0.045-1.331,0.876-1.7,1.423C50.106,42.009,50.449,42.524,50.617,42.073z"/>
<path fill="#FFFFFF" d="M93.565,30.763c0.526-0.521-0.061-2.414-1.193-3.232c-1.038-0.751-3.331-0.331-3.93,1.053
	c-0.215,0.498,1.364,1.296,2.83,1.767C92.416,30.716,93.494,30.833,93.565,30.763z M94.902,33.079
	c-0.246,1.996-0.705,4.16-1.2,4.923c-0.224,0.346-0.257,0.343-0.439-0.026c-0.28-0.565,0.298-5.509,0.291-5.529
	c-0.436,0.013-1.485-0.053-2.536-0.467c-1.394-0.549-2.746-1.592-2.746-1.487c-0.002,0.532-0.201,2.065,0.008,3.613
	c0.229,1.686,0.788,3.422,0.905,4.146c0.116,0.717-0.712,0.586-0.826,0.454c-1.46-1.671-2.12-7.886-1.157-10.022
	c0.737-1.639,2.31-3.457,4.112-3.076c1.479,0.313,2.705,1.32,3.255,2.638C95.312,30.021,95.129,31.224,94.902,33.079z"/>
<path fill="#FFFFFF" d="M107.449,34.691c-0.114-1.016-0.266-1.928-0.751-2.576c-0.878-1.174-2.385-1.598-3.519-1.273
	c-1.525,0.437-2.342,1.975-2.601,3.199c-0.169,0.798,0.014,1.514-0.011,1.54c-0.058,0.068-1.155-3.082-0.735-3.095
	c0.905-0.028,2.801-2.074,3.644-3.61c1.245-2.269,3.592-10.344,0.093-11.403c-3.313-1.004-5.141,3.607-5.714,7.86
	c-0.126,0.936-0.147,1.857-0.125,2.698c0.055,2.096,0.217,3.354,0.831,5.392c0.173,0.486,0.363,0.992,0.545,1.487
	c0.506,1.371,1.563,2.771,2.52,3.547c1.385,1.124,3.286,1.171,4.394,0.316C107.111,37.93,107.635,36.313,107.449,34.691z
	 M99.26,31.175c-0.856-0.557-0.668-4.478-0.476-5.681c0.38-2.391,1.422-5.495,3.093-6.736c1.124-0.834,2,0.59,2.23,1.892
	C104.796,24.526,100.732,32.129,99.26,31.175z M103.708,38.009c-3.726-0.409-2.101-6.447,0.638-5.859
	c1.333,0.286,1.98,2.313,2.003,3.354C106.382,36.814,105.543,38.212,103.708,38.009z"/>
<path fill="#FFFFFF" d="M171.934,15.267c-0.391,0.256-0.207,1.219-0.059,2.438c0.157,1.304,0.684,4.934,0.548,9.644
	c-0.129,4.515-0.79,7.953-0.758,10.184c0.024,1.722,0.876,1.837,1.198,0.249c0.347-1.691,1.115-9.499,1.423-9.527
	c0.343-0.031,1.121,0.378,1.637,1.405c0.744,1.478,1.192,3.746,1.196,6.172c0.002,1.09,0,2.559,0.563,3.257
	c0.408,0.51,0.868-0.354,0.842-1.079c-0.03-0.768-0.308-0.443-0.346-1.479c-0.078-2.049,0.129-4.313-0.189-6.319
	c-0.274-1.728-1.002-3.457-2.616-4.026c-0.077-0.027,1.496-1.182,2.733-3.6c0.881-1.722,1.508-3.183,1.604-5.682
	c0.063-1.674-0.394-3.927-1.233-3.83c-0.365,0.042,0.153,1.677,0.058,3.778c-0.04,0.879-0.239,2.378-0.896,3.976
	c-1.09,2.647-2.341,4.677-3.382,4.548c-0.399-0.049-0.498-1.809-0.505-2.228c-0.014-0.854-0.066-0.928-0.091-1.838
	c-0.05-1.822-0.38-3.716-0.627-4.458C172.654,15.718,172.298,15.024,171.934,15.267z"/>
<path fill="#FFFFFF" d="M73.832,38.065c-0.508-0.063-1.125-2.913-3.033-2.423c-0.956,0.247-0.209,3.631,2.717,3.594
	c2.164-0.028,2.58-1.491,2.837-2.907c0.31-1.7,0.268-3.999,0.273-4.835c0.016-2.582-0.467-5.599-0.088-8.223
	c0.531-3.679,1.46-6.199,1.883-7.199c0.439-1.038,1.643-3.33,3.077-2.692c0.607,0.271,0.97,0.857,1.35,1.5
	c0.881,1.492,1.08,4.473,0.97,6.169c-0.198,3.001-1.697,10.872-0.764,15.079c0.232,1.046,0.793,1.938,1.763,2.004
	c0.298,0.022-0.439-0.429-0.604-0.952c-0.562-1.791-0.494-3.298-0.467-5.091c0.06-4.104,1.396-8.495,1.685-13.048
	c0.178-2.816-0.754-5.75-3.551-6.592c-1.574-0.474-3.043,0.237-4.5,1.783c-1.21,1.284-2.082,3.629-2.429,4.532
	c-1.355,3.529-0.043,13.207-0.038,15.775C74.916,36.323,74.883,38.196,73.832,38.065z"/>
<path fill="#FFFFFF" d="M111.584,30.931c0.234-1.281,0.021-6.671-0.622-6.854c-0.903-0.259-0.901,1.303-0.661,3.088
	c0.201,1.497,0.242,4.543,0.065,6.875c-0.041,0.554-0.324,5.599,0.72,4.254c0.286-0.367,0.466-3.449,0.455-4.215
	c-0.012-0.784,0.04-1.315,1.189-1.185c2.158,0.241,1.637,5.941,2.039,6.271c0.543,0.447,0.774-1.761,0.772-3.148
	c-0.004-1.842-0.577-2.749-1.69-4.227c0.418-0.455,2.058-2.226,2.854-4.584c0.354-1.051,1.249-4.804-0.07-5.337
	c-0.693-0.282-0.566,2.288-0.855,3.502c-0.438,1.848-1.18,3.692-2.396,5.115c-0.396,0.463-0.854,0.869-1.253,0.96
	C111.669,31.55,111.514,31.319,111.584,30.931z"/>
<path fill="#FFFFFF" d="M127.881,31.035c-0.016,0.096-0.008,0.122,0.113,0.137c0.264,0.029,0.584-0.365,0.949-0.669
	c1.246-1.036,0.882,0.168,0.381,0.847c-0.374,0.507-0.979,0.668-1.453,1.188c-0.238,0.26-0.669,3.174-0.746,3.615
	c-0.031,0.185-0.289,1.3-0.552,1.934c-0.22,0.529-0.565,0.93-0.669-0.038c-0.081-0.76-0.032-2.424,0.512-5.036
	c0.016-0.07-0.689,0.215-1.452,0.229c-0.969,0.021-1.854-0.271-2.11-0.368c-1.152-0.442-2.135-1.126-2.451-2.265
	c-0.508-1.822-0.506,1.95-0.506,2.133c0,1.519,0.562,3.217,1.063,4.364c0.275,0.631,0.656,1.065,0.51,1.31
	c-0.656,1.087-1.484-0.521-1.891-1.205c-1.309-2.192-1.303-7.224-0.242-9.052c0.662-1.141,1.7-2.26,2.926-2.754
	C125.654,24.033,127.65,28.173,127.881,31.035z M126.346,31.64c0.164-1.271-0.662-4.085-2.316-4.65
	c-1.125-0.384-3.762,0.481-2.75,2.446c0.398,0.776,1.097,1.591,1.994,1.959C124.578,31.931,126.314,31.883,126.346,31.64z"/>
<path fill="#FFFFFF" d="M209.458,30.763c0.524-0.521-0.062-2.414-1.194-3.232c-1.037-0.751-3.33-0.331-3.931,1.053
	c-0.215,0.498,1.364,1.296,2.83,1.767C208.309,30.716,209.387,30.833,209.458,30.763z M210.792,33.079
	c-0.245,1.996-0.703,4.16-1.199,4.923c-0.223,0.346-0.256,0.343-0.438-0.026c-0.278-0.565,0.3-5.509,0.291-5.529
	c-0.434,0.013-1.484-0.053-2.535-0.467c-1.395-0.549-2.747-1.592-2.747-1.487c-0.001,0.532-0.2,2.065,0.01,3.613
	c0.229,1.686,0.787,3.422,0.905,4.146c0.115,0.717-0.712,0.586-0.827,0.454c-1.46-1.671-2.118-7.886-1.155-10.022
	c0.736-1.639,2.312-3.457,4.112-3.076c1.478,0.313,2.703,1.32,3.254,2.638C211.204,30.021,211.021,31.224,210.792,33.079z"/>
<path fill="#FFFFFF" d="M167.83,36.957c-1.443,1.498-3.541,1.702-3.813,1.643c-0.021-0.005-0.029,0.002-0.031-0.007
	c-0.022-0.111-0.057-0.254-0.082-0.365c-0.006-0.027-0.012-0.059-0.018-0.079l-0.113-0.469l-0.021-0.083
	c-0.008-0.029,0.024-0.023,0.072-0.021c0.293,0.013,1.352-0.281,2.159-0.778c0.816-0.5,1.584-1.805,1.887-2.688
	c0.533-1.55,0.386-3.185-0.152-4.369c-0.669-1.473-1.937-2.257-3.238-1.34c-0.842,0.593-1.513,1.826-1.576,3.527
	c-0.021,0.643-0.018,1.407,0.087,2.177c0.147,1.09,0.434,2.202,0.647,3.048c0.053,0.199,0.656,2.45,1.063,5.41
	c0.063,0.463,0.273,6.524-0.396,8.719c-0.291,0.949-0.563,0.78-0.72,0.729c-0.226-0.074-0.271-0.419-0.228-1.235
	c0.016-0.307,0.031-0.665,0.047-1.063c0.084-2.125,0.133-5.417-0.191-8.062c-0.429-3.48-1.283-6.014-1.556-8.402
	c-0.229-2.017,0.063-4.135,0.255-4.564c0.736-1.638,1.927-2.684,3.729-2.303c1.479,0.313,2.705,1.322,3.256,2.639
	C169.889,31.389,169.654,35.067,167.83,36.957z"/>
<path fill="#FFFFFF" d="M151.518,37.361c1.459,0.714,2.563-0.193,2.92-1.288c0.27-0.825,0.045-2.756-0.676-3.371
	C151.977,31.177,148.658,35.965,151.518,37.361z M149.257,34.348c0.034-0.019,0.099-0.744,0.521-1.434
	c0.646-1.055,1.914-2.215,3.478-2.108c1.164,0.077,2.429,0.977,2.86,2.365c0.238,0.768,0.078,1.667-0.15,2.65
	c-0.361,1.573-1.383,2.903-2.68,3.325c-1.313,0.424-3.069-0.255-3.988-1.769c-0.636-1.042-1.158-2.699-1.178-4.146
	c-0.01-0.521-0.018-1.06-0.018-1.569c0.088-1.896,0.168-3.659,1.198-5.33c0.652-1.059,1.199-0.772,0.785,0.344
	c-0.503,1.357-0.55,2.03-0.793,3.943C149.033,32.645,149.146,34.374,149.257,34.348z"/>
<path fill="#FFFFFF" d="M158.557,32.23c-0.089,2.645-0.668,5.452-1.041,6.484c-0.168,0.469-0.197,0.469-0.373-0.006
	c-0.174-0.463,0.166-3.229,0.196-5.223c0.042-2.44-0.452-4.307-0.472-6.531c-0.006-0.813,0.248-1.316,0.548-1.282
	c0.269,0.032,0.419,0.529,0.556,1.156C158.357,28.606,158.626,30.172,158.557,32.23z"/>
<path fill="#FFFFFF" d="M142.214,38.158c1.156,0.333,1.651,0.256,2.115-0.459c1.218-1.875,2.157-0.815,1.579,0.449
	c-0.387,0.846-0.756,1.174-1.498,1.567c-1.309,0.693-3.291,0.304-4.541-1.124c-1.533-1.75-1.932-3.631-2.313-5.82
	c-0.281-2.241-0.229-3.587,0.086-5.792c0.125-0.884,0.313-1.847,0.61-2.803c1.354-4.347,4.084-8.844,7.374-7.196
	c1.797,1.135,0.547,3.85-0.189,2.149c-0.381-0.881-0.886-1.577-1.81-1.108c-1.61,0.815-2.521,2.987-3.422,5.093
	c-1.081,2.518-1.187,7.418-0.688,9.977C139.975,35.441,140.939,37.792,142.214,38.158z"/>
<path fill="#FFFFFF" d="M187.277,36.957c-1.443,1.498-3.518,1.768-3.787,1.708c-0.021-0.006-0.032,0.001-0.032-0.008
	c-0.112-0.533-0.251-0.638,0.071-1.082c0.016-0.02,0.035-0.037,0.056-0.062c0.003-0.004,0.011-0.016,0.011-0.021
	c0-0.005,0.002-0.007,0.002-0.009c-0.002-0.003-0.006-0.005-0.002-0.005c0.26-0.107,0.901-0.143,1.84-0.684
	c0.83-0.476,1.582-1.805,1.887-2.688c0.535-1.55,0.387-3.185-0.153-4.369c-0.667-1.473-1.935-2.257-3.235-1.34
	c-0.843,0.593-1.517,1.826-1.576,3.527c-0.023,0.643-0.057,1.412,0.084,2.177l0.24,1.316c0.227,0.878,0.213,1.432,0.909,2.051
	c0.002,0.003,0.005,0.004,0.005,0.006c0.008,0.013-0.006,0.028-0.022,0.055c-0.013,0.014-0.026,0.022-0.04,0.04
	c-0.018,0.021-0.039,0.055-0.061,0.087c-0.053,0.07-0.082,0.131-0.105,0.195c-0.016,0.046-0.032,0.093-0.036,0.153
	c-0.005,0.064,0,0.123,0.015,0.188c0.008,0.038,0.014,0.077,0.023,0.115c0,0.002,0.005,0.002,0.005,0.002
	c0.021,0.1,0.071,0.272,0.086,0.343c0.002,0.009-1.149,0.036-1.546-1.194c-0.48-1.498-0.656-2.896-0.807-4.213
	c-0.229-2.018,0.063-4.136,0.256-4.564c0.736-1.638,1.926-2.684,3.729-2.303c1.479,0.313,2.705,1.322,3.256,2.639
	C189.338,31.389,189.104,35.067,187.277,36.957z"/>
<path fill="#FFFFFF" d="M200.748,34.691c-0.115-1.016-0.266-1.928-0.752-2.577c-0.878-1.173-2.385-1.597-3.518-1.272
	c-1.527,0.437-2.342,1.975-2.604,3.199c-0.169,0.798,0.018,1.514-0.009,1.54c-0.06,0.067-1.155-3.082-0.736-3.095
	c0.905-0.028,2.802-2.074,3.644-3.611c1.244-2.268,3.593-10.343,0.093-11.402c-3.313-1.004-5.14,3.607-5.714,7.86
	c-0.125,0.936-0.146,1.857-0.125,2.698c0.057,2.096,0.219,3.354,0.832,5.391c0.174,0.487,0.361,0.993,0.545,1.488
	c0.507,1.371,1.562,2.771,2.519,3.547c1.388,1.123,3.286,1.17,4.394,0.316C200.41,37.929,200.934,36.313,200.748,34.691z
	 M192.559,31.175c-0.856-0.557-0.668-4.478-0.478-5.681c0.38-2.391,1.423-5.494,3.094-6.735c1.124-0.834,2.001,0.59,2.231,1.892
	C198.096,24.526,194.029,32.129,192.559,31.175z M197.012,38.021c-3.727-0.41-2.102-6.449,0.639-5.861
	c1.332,0.287,1.979,2.314,2.002,3.354C199.686,36.826,198.848,38.223,197.012,38.021z"/>
</svg>
