<?xml version="1.0" encoding="UTF-8"?> <svg xmlns="http://www.w3.org/2000/svg" width="265" height="258" viewBox="0 0 265 258" fill="none"> <path fill-rule="evenodd" clip-rule="evenodd" d="M206.772 76.8049C193.57 56.8399 172.875 42.127 147.817 37.398C122.758 32.668 98.079 38.8169 78.438 52.5839C58.792 66.3529 44.183 87.7389 39.267 113.48L39.266 113.487C34.35 139.234 40.062 164.46 53.267 184.431C66.469 204.393 87.16 219.105 112.215 223.836L112.222 223.837C137.28 228.566 161.959 222.416 181.6 208.651C201.249 194.881 215.86 173.492 220.773 147.747C225.691 122.001 219.979 96.7749 206.772 76.8049ZM148.024 36.293C173.397 41.081 194.349 55.977 207.714 76.189C221.076 96.396 226.857 121.914 221.885 147.955C216.913 174 202.131 195.641 182.252 209.571C162.384 223.496 137.424 229.719 112.074 224.953H112.073L112.013 224.943C86.642 220.155 65.689 205.257 52.324 185.047C38.971 164.858 33.192 139.361 38.143 113.341V113.34L38.154 113.281C43.126 87.237 57.907 65.596 77.785 51.666C97.671 37.73 122.655 31.505 148.024 36.293Z" fill="black"></path> <path fill-rule="evenodd" clip-rule="evenodd" d="M117.201 230.398C117.922 230.846 115.98 231.291 114.522 230.744C113.103 230.212 110.717 228.202 110.001 227.419C105.079 222.025 96.678 206.923 87.448 210.078C86.091 210.783 85.684 212.681 86.733 214.914C86.806 215.07 85.445 214.316 85.236 214.002C85.416 214.508 83.872 210.486 86.733 208.986C95.863 203.979 106.647 221.851 111.789 226.588C113.249 227.933 114.493 229.016 115.876 229.19L117.201 230.398Z" fill="#E49846"></path> <path fill-rule="evenodd" clip-rule="evenodd" d="M134.858 214.828C132.682 213.348 129.937 212.49 126.194 212.832C122.412 213.179 119.045 214.506 116.658 216.373C114.332 218.193 112.951 220.517 113.066 222.911C113.082 223.239 113.11 223.564 113.153 223.886C113.419 225.873 114.239 227.669 115.93 228.914C117.663 230.19 120.322 230.914 124.249 230.727C125.103 230.686 126.009 230.604 126.973 230.475C131.927 229.812 135.786 228.489 138.203 226.829C139.205 226.142 139.951 225.402 140.412 224.637C140.848 223.913 141.027 223.16 140.926 222.406C140.852 221.843 140.619 221.266 140.223 220.686C138.708 218.48 137.06 216.327 134.858 214.828ZM126.1 211.707C130.136 211.338 133.114 212.273 135.488 213.891C137.836 215.489 139.564 217.739 141.144 220.041C141.644 220.77 141.937 221.51 142.035 222.25C142.172 223.27 141.94 224.27 141.369 225.218C140.822 226.125 139.965 226.985 138.83 227.764C136.273 229.516 132.246 230.908 127.113 231.594C126.111 231.729 125.173 231.815 124.299 231.856C120.092 232.058 117.2 231.249 115.272 229.829C113.302 228.379 112.351 226.315 112.046 224.04C112 223.689 111.968 223.331 111.95 222.97C111.817 220.185 113.367 217.529 115.977 215.484C118.524 213.489 122.102 212.073 126.1 211.707Z" fill="white"></path> <path fill-rule="evenodd" clip-rule="evenodd" d="M126.163 212.459C133.788 211.762 137.38 215.975 140.409 220.393C143.44 224.808 137.798 229.41 127.042 230.849C116.288 232.287 113.04 227.995 112.797 222.916C112.554 217.839 118.54 213.156 126.163 212.459Z" fill="#AD0637"></path> <path fill-rule="evenodd" clip-rule="evenodd" d="M157.771 214.01C154.025 213.392 149.335 213.865 145.226 215.106C144.919 215.196 144.615 215.299 144.314 215.411C140.914 216.666 138.206 218.991 136.533 221.606C134.886 224.179 134.248 227.018 134.95 229.353C134.994 229.498 135.033 229.616 135.067 229.709C135.099 229.797 135.132 229.88 135.165 229.959V229.958C136.098 232.181 138.247 233.661 141.023 234.279C143.874 234.913 147.377 234.637 150.921 233.33C151.237 233.214 151.542 233.094 151.835 232.971C155.791 231.314 159.493 228.596 161.856 225.655C163.95 223.046 164.977 220.282 164.132 217.992C163.319 215.787 160.886 214.523 157.771 214.01ZM144.902 214.021C149.162 212.737 154.035 212.249 157.946 212.893C161.445 213.47 164.206 214.959 165.179 217.6C166.179 220.309 165.061 223.457 162.725 226.366C160.249 229.448 156.385 232.289 152.263 234.016C151.931 234.156 151.612 234.282 151.306 234.393C147.563 235.776 143.839 236.06 140.785 235.381C137.656 234.685 135.218 232.978 134.137 230.397L134.135 230.395C134.093 230.293 134.053 230.194 134.018 230.096C133.959 229.935 133.913 229.796 133.877 229.68L133.875 229.678C133.074 227.018 133.769 223.837 135.59 220.991C137.386 218.185 140.285 215.689 143.928 214.345C144.245 214.229 144.569 214.121 144.902 214.021Z" fill="white"></path> <path fill-rule="evenodd" clip-rule="evenodd" d="M145.153 214.755C152.797 212.451 162.464 212.8 164.355 217.924C166.245 223.047 159.584 230.128 152 233.308C144.415 236.488 136.733 234.912 134.843 229.788C132.952 224.664 137.511 217.058 145.153 214.755Z" fill="#AD0637"></path> <path fill-rule="evenodd" clip-rule="evenodd" d="M120.466 89.9929C115.049 104.753 124.838 102.647 126.513 105.2C130.727 111.616 126.829 119.74 113.786 107.533C111.669 105.553 112.153 101.585 111.556 101.241C109.956 100.322 113.161 94.5369 114.452 92.8399C115.624 91.2989 121.01 88.5149 120.466 89.9929Z" fill="#A74C15"></path> <path fill-rule="evenodd" clip-rule="evenodd" d="M123.974 104.015C120.682 102.808 116.137 101.14 120.255 89.9161C120.278 89.8531 120.286 89.8181 120.28 89.8051V89.8061C120.271 89.7861 120.178 89.7891 120.028 89.8091C119.796 89.8391 119.482 89.9341 119.12 90.0761C117.598 90.6721 115.329 92.0571 114.63 92.9771C114.314 93.3941 113.877 94.0641 113.425 94.8501C112.763 96.0011 112.069 97.3991 111.671 98.6091C111.297 99.7421 111.181 100.683 111.611 101.01C111.628 101.022 111.646 101.035 111.668 101.047V101.048C111.974 101.224 112.056 101.844 112.168 102.683C112.353 104.077 112.628 106.143 113.939 107.371C118.627 111.757 122.105 113.493 124.43 113.62C125.4 113.673 126.16 113.442 126.718 113.009C127.273 112.577 127.633 111.936 127.801 111.168C128.157 109.536 127.654 107.348 126.324 105.323C125.942 104.738 125.026 104.401 123.974 104.015ZM120.678 90.0711C116.714 100.873 121.015 102.451 124.129 103.593C125.255 104.006 126.236 104.366 126.702 105.076C128.098 107.202 128.622 109.519 128.242 111.262C128.052 112.131 127.638 112.862 126.995 113.362C126.354 113.862 125.493 114.127 124.408 114.068C121.987 113.936 118.408 112.165 113.634 107.698C112.204 106.362 111.918 104.199 111.724 102.742C111.629 102.029 111.559 101.503 111.446 101.437H111.445C111.409 101.417 111.375 101.393 111.341 101.367C110.722 100.896 110.813 99.7771 111.245 98.4671C111.651 97.2331 112.361 95.8031 113.038 94.6251C113.499 93.8231 113.946 93.1351 114.274 92.7041C115.017 91.7271 117.381 90.2731 118.958 89.6561C119.35 89.5021 119.699 89.3981 119.97 89.3631C120.324 89.3171 120.577 89.3871 120.685 89.6041V89.6051C120.745 89.7281 120.747 89.8831 120.678 90.0711Z" fill="black"></path> <path fill-rule="evenodd" clip-rule="evenodd" d="M132.149 126.472C126.732 141.232 136.521 139.126 138.196 141.679C142.409 148.096 138.512 156.217 125.47 144.013C123.352 142.032 123.836 138.065 123.24 137.721C121.639 136.801 124.844 131.018 126.135 129.319C127.308 127.778 132.692 124.994 132.149 126.472Z" fill="#A74C15"></path> <path fill-rule="evenodd" clip-rule="evenodd" d="M135.656 140.494C132.366 139.287 127.819 137.619 131.938 126.394C131.961 126.331 131.969 126.295 131.963 126.283C131.953 126.264 131.861 126.266 131.709 126.287C131.478 126.317 131.164 126.412 130.803 126.553C129.282 127.149 127.012 128.534 126.314 129.454C125.996 129.871 125.56 130.542 125.109 131.327C124.447 132.478 123.752 133.877 123.355 135.085C122.981 136.22 122.864 137.16 123.294 137.487H123.295C123.312 137.501 123.33 137.512 123.351 137.524V137.525C123.657 137.702 123.739 138.321 123.85 139.161C124.036 140.554 124.311 142.621 125.622 143.849C130.31 148.236 133.787 149.97 136.112 150.098C137.082 150.15 137.843 149.919 138.401 149.486C138.955 149.054 139.316 148.414 139.483 147.646C139.839 146.013 139.336 143.826 138.007 141.801C137.624 141.217 136.708 140.881 135.656 140.494ZM132.36 126.549C128.395 137.351 132.698 138.929 135.811 140.07C136.938 140.484 137.918 140.844 138.385 141.554C139.781 143.679 140.305 145.997 139.924 147.74C139.735 148.609 139.32 149.34 138.676 149.84C138.035 150.34 137.174 150.606 136.09 150.547C133.669 150.415 130.09 148.645 125.316 144.177C123.887 142.84 123.6 140.678 123.406 139.221C123.312 138.508 123.241 137.983 123.128 137.916H123.127C123.092 137.896 123.057 137.872 123.023 137.846C122.404 137.375 122.497 136.254 122.928 134.946C123.334 133.712 124.044 132.283 124.721 131.106C125.181 130.303 125.629 129.614 125.956 129.185C126.7 128.207 129.063 126.753 130.64 126.136C131.031 125.983 131.381 125.878 131.652 125.842C132.006 125.796 132.259 125.866 132.367 126.084V126.085C132.427 126.207 132.43 126.362 132.36 126.549Z" fill="black"></path> <path fill-rule="evenodd" clip-rule="evenodd" d="M205.628 24.473C183.031 11.272 156.435 2.15698 129.36 3.80398C94.217 5.94298 58.866 23.86 36.547 50.251C8.12598 83.86 -2.25302 140.213 14.969 181.12C23.374 201.084 39.139 220.227 56.745 233.57C66.946 239.532 80.175 247.767 91.865 250.799C106.348 254.554 126.842 255.163 142.652 253.65C190.32 249.083 234.163 215.351 251.542 174.816C261.474 151.65 264.887 121.424 258.961 97.31C254.798 80.374 245.794 64.864 234.537 50.778C226.409 40.607 215.785 32.172 205.628 24.473ZM120.085 0.884001C163.968 -3.32 204.819 14.112 231.647 44.281L231.824 44.478L232.257 44.968C249.501 64.425 260.921 89.159 263.57 116.803C270.339 187.452 217.275 250.334 145.052 257.253C101.17 261.456 60.318 244.024 33.49 213.855L33.315 213.658C33.169 213.496 33.027 213.332 32.882 213.17C24.644 203.875 17.736 193.376 12.477 181.934C6.72798 169.418 2.95198 155.774 1.56798 141.334C-3.16402 91.936 20.675 44.244 61.219 21.007C78.847 10.903 98.359 2.964 120.085 0.884001Z" fill="black"></path> <path fill-rule="evenodd" clip-rule="evenodd" d="M107.889 159.906C106.163 162.491 101.588 174.629 115.776 178.99C118.285 179.761 116.146 181.564 113.446 182.151C107.963 183.344 105.66 183.232 101.125 179.183C97.325 175.792 97.62 171.517 97.758 166.87C97.857 163.566 104.383 156.705 107.889 159.906Z" fill="#A74C15"></path> <path fill-rule="evenodd" clip-rule="evenodd" d="M106.271 163.001C106.68 161.672 107.194 160.596 107.595 159.949C107.066 159.519 106.47 159.32 105.842 159.303C104.95 159.276 103.987 159.607 103.05 160.158C102.1 160.716 101.181 161.498 100.391 162.364C99.001 163.886 98.018 165.648 97.982 166.876L97.965 167.422C97.828 171.803 97.703 175.828 101.275 179.017C103.51 181.012 105.19 182.038 106.975 182.413C108.764 182.789 110.686 182.52 113.398 181.932C114.584 181.674 115.652 181.178 116.238 180.649C116.444 180.461 116.586 180.274 116.641 180.099C116.687 179.955 116.668 179.817 116.574 179.69C116.438 179.51 116.16 179.342 115.711 179.206C113.679 178.581 112.026 177.798 110.69 176.905C107.728 174.926 106.325 172.415 105.812 169.913C105.301 167.417 105.677 164.936 106.271 163.001ZM108.076 160.031C107.681 160.621 107.133 161.726 106.701 163.133C106.125 165.01 105.76 167.414 106.253 169.821C106.744 172.218 108.092 174.629 110.939 176.53C112.241 177.4 113.855 178.164 115.843 178.775C116.389 178.943 116.743 179.165 116.933 179.418V179.42C117.124 179.673 117.161 179.95 117.071 180.233C116.992 180.486 116.806 180.74 116.542 180.98C115.901 181.56 114.753 182.097 113.496 182.372C110.725 182.975 108.753 183.246 106.886 182.853C105.017 182.459 103.276 181.402 100.977 179.352C97.249 176.023 97.378 171.9 97.518 167.41L97.535 166.863C97.576 165.529 98.605 163.655 100.06 162.061C100.878 161.165 101.834 160.352 102.826 159.769C103.831 159.179 104.875 158.824 105.857 158.853C106.648 158.876 107.395 159.146 108.044 159.74L108.186 159.871L108.076 160.031Z" fill="black"></path> <path fill-rule="evenodd" clip-rule="evenodd" d="M136.373 104.592C139.203 105.88 149.486 113.786 139.724 124.968C137.997 126.945 140.767 127.35 143.37 126.427C148.659 124.553 150.559 123.243 152.28 117.414C153.722 112.529 151.219 109.05 148.654 105.174C146.829 102.418 137.667 100.024 136.373 104.592Z" fill="#A74C15"></path> <path fill-rule="evenodd" clip-rule="evenodd" d="M139.083 106.709C137.978 105.743 136.929 105.092 136.28 104.798L136.104 104.718L136.157 104.531C136.396 103.685 136.887 103.063 137.548 102.625C138.366 102.083 139.443 101.835 140.609 101.807C141.757 101.78 142.998 101.968 144.166 102.298C146.242 102.886 148.105 103.936 148.842 105.049L149.144 105.504C151.629 109.247 153.911 112.684 152.497 117.477C151.624 120.432 150.7 122.246 149.32 123.566C147.939 124.883 146.12 125.691 143.446 126.638C142.232 127.068 140.975 127.217 140.125 127.061C139.773 126.997 139.482 126.878 139.282 126.706C139.055 126.512 138.94 126.257 138.969 125.94C138.997 125.624 139.181 125.25 139.558 124.819C140.924 123.253 141.892 121.753 142.542 120.328C143.96 117.21 143.835 114.453 142.991 112.156C142.139 109.851 140.562 108 139.083 106.709ZM136.646 104.474C137.327 104.812 138.329 105.456 139.378 106.371C140.902 107.703 142.531 109.615 143.409 112.003C144.292 114.4 144.424 117.274 142.948 120.517C142.283 121.976 141.291 123.514 139.892 125.116C139.581 125.471 139.432 125.76 139.413 125.984C139.397 126.142 139.456 126.269 139.57 126.367C139.71 126.486 139.926 126.572 140.202 126.622C140.979 126.765 142.149 126.622 143.294 126.217C145.909 125.29 147.683 124.506 149.005 123.242C150.325 121.982 151.214 120.226 152.061 117.352C153.417 112.76 151.191 109.406 148.767 105.754L148.464 105.299C147.784 104.274 146.023 103.294 144.041 102.732C142.913 102.413 141.717 102.232 140.616 102.257C139.53 102.282 138.536 102.508 137.794 103.001C137.271 103.347 136.87 103.831 136.646 104.474Z" fill="black"></path> <path fill-rule="evenodd" clip-rule="evenodd" d="M148.585 134.977C150.8 137.159 157.735 148.12 144.724 155.262C142.423 156.524 144.884 157.857 147.646 157.886C153.257 157.945 155.492 157.368 159.113 152.487C162.146 148.397 160.994 144.268 159.917 139.746C159.149 136.53 151.371 131.132 148.585 134.977Z" fill="#A74C15"></path> <path fill-rule="evenodd" clip-rule="evenodd" d="M150.401 137.895C149.694 136.606 148.932 135.634 148.426 135.136L148.289 135L148.403 134.844C148.919 134.133 149.595 133.715 150.364 133.532C151.32 133.304 152.415 133.441 153.518 133.816C154.607 134.187 155.707 134.789 156.69 135.502C158.437 136.769 159.827 138.395 160.135 139.693H160.134L160.261 140.224C161.307 144.591 162.268 148.607 159.29 152.62C157.456 155.094 155.966 156.48 154.214 157.244C152.464 158.008 150.479 158.139 147.643 158.109C146.354 158.096 145.122 157.803 144.377 157.365C144.069 157.182 143.836 156.972 143.707 156.742C143.562 156.482 143.541 156.201 143.678 155.915C143.813 155.628 144.114 155.339 144.616 155.063C146.438 154.063 147.866 152.988 148.964 151.875C151.367 149.435 152.199 146.803 152.195 144.354C152.191 141.897 151.347 139.617 150.401 137.895ZM148.882 134.959C149.407 135.512 150.127 136.461 150.796 137.679C151.769 139.453 152.64 141.808 152.644 144.355C152.649 146.91 151.784 149.653 149.283 152.19C148.156 153.335 146.695 154.436 144.834 155.458C144.42 155.686 144.181 155.905 144.086 156.108C144.018 156.251 144.029 156.391 144.102 156.522C144.194 156.682 144.368 156.837 144.608 156.978C145.291 157.38 146.436 157.649 147.649 157.663C150.424 157.69 152.36 157.565 154.037 156.834C155.71 156.105 157.147 154.761 158.933 152.353C161.787 148.507 160.849 144.591 159.828 140.33L159.701 139.8C159.415 138.604 158.096 137.076 156.429 135.867C155.48 135.179 154.42 134.599 153.378 134.244C152.35 133.894 151.34 133.765 150.471 133.973C149.858 134.116 149.313 134.432 148.882 134.959Z" fill="black"></path> <path fill-rule="evenodd" clip-rule="evenodd" d="M117.804 138.268C116.077 140.852 111.503 152.991 125.691 157.352C128.2 158.123 126.059 159.926 123.36 160.513C117.878 161.707 115.573 161.594 111.041 157.545C107.241 154.154 107.535 149.878 107.673 145.231C107.771 141.928 114.298 135.065 117.804 138.268Z" fill="#A74C15"></path> <path fill-rule="evenodd" clip-rule="evenodd" d="M116.187 141.361C116.596 140.033 117.108 138.957 117.509 138.31C116.981 137.88 116.384 137.681 115.757 137.662C114.865 137.637 113.902 137.967 112.966 138.518C112.016 139.076 111.097 139.859 110.306 140.724C108.917 142.245 107.935 144.008 107.898 145.238L107.881 145.783C107.745 150.164 107.619 154.19 111.191 157.378C113.425 159.374 115.106 160.399 116.893 160.774C118.681 161.15 120.603 160.881 123.316 160.293C124.5 160.035 125.57 159.539 126.154 159.01V159.008C126.36 158.821 126.502 158.634 126.556 158.459C126.601 158.315 126.583 158.177 126.49 158.051H126.489C126.353 157.87 126.075 157.704 125.627 157.567C123.595 156.942 121.942 156.159 120.607 155.266C117.644 153.287 116.241 150.776 115.728 148.272C115.216 145.779 115.593 143.297 116.187 141.361ZM117.991 138.392C117.597 138.983 117.049 140.088 116.616 141.495C116.039 143.372 115.674 145.776 116.167 148.184C116.66 150.582 118.006 152.991 120.855 154.893C122.155 155.762 123.771 156.526 125.757 157.137C126.303 157.304 126.657 157.527 126.846 157.78V157.781C127.038 158.035 127.075 158.311 126.985 158.596C126.905 158.848 126.72 159.102 126.456 159.341H126.455C125.814 159.922 124.667 160.459 123.408 160.733C120.638 161.336 118.667 161.608 116.8 161.215C114.928 160.82 113.189 159.765 110.891 157.713C107.162 154.385 107.291 150.26 107.431 145.772L107.45 145.225C107.489 143.89 108.52 142.016 109.975 140.422C110.792 139.526 111.749 138.713 112.74 138.131C113.746 137.54 114.79 137.186 115.771 137.214C116.562 137.237 117.309 137.509 117.957 138.102L118.101 138.231L117.991 138.392Z" fill="black"></path> <path fill-rule="evenodd" clip-rule="evenodd" d="M102.942 114.55C97.525 129.31 107.314 127.204 108.989 129.758C113.202 136.174 112.762 142.867 99.719 130.661C97.601 128.681 98.086 124.712 97.489 124.369C95.888 123.449 95.637 119.096 96.927 117.398C98.101 115.856 103.485 113.073 102.942 114.55Z" fill="#A74C15"></path> <path fill-rule="evenodd" clip-rule="evenodd" d="M106.449 128.573C103.158 127.366 98.612 125.698 102.732 114.474C102.755 114.411 102.762 114.375 102.758 114.363C102.748 114.343 102.656 114.347 102.504 114.367C102.273 114.397 101.958 114.492 101.596 114.634C100.075 115.23 97.807 116.614 97.108 117.534C97.045 117.617 96.986 117.706 96.931 117.801C96.44 118.656 96.254 119.989 96.356 121.238C96.457 122.469 96.834 123.604 97.468 124.085H97.469C97.513 124.12 97.559 124.149 97.603 124.175C97.91 124.352 97.992 124.971 98.103 125.811C98.288 127.204 98.563 129.271 99.874 130.498C104.442 134.773 107.44 136.711 109.221 137.145C109.918 137.318 110.405 137.249 110.707 136.999H110.706C111.008 136.751 111.144 136.308 111.139 135.728C111.127 134.278 110.24 132.068 108.803 129.879C108.418 129.295 107.501 128.958 106.449 128.573ZM103.154 114.628C99.189 125.43 103.491 127.008 106.604 128.15C107.73 128.564 108.712 128.923 109.179 129.634C110.658 131.89 111.574 134.191 111.587 135.724C111.593 136.441 111.405 137.007 110.993 137.347H110.992C110.579 137.687 109.963 137.79 109.115 137.583C107.268 137.129 104.199 135.158 99.567 130.824C98.139 129.487 97.852 127.325 97.658 125.868C97.563 125.155 97.492 124.629 97.379 124.563C97.314 124.525 97.253 124.485 97.195 124.441H97.196C96.452 123.876 96.018 122.618 95.907 121.273C95.799 119.943 96.005 118.513 96.543 117.576C96.607 117.464 96.677 117.359 96.751 117.262C97.494 116.284 99.858 114.832 101.434 114.214C101.825 114.061 102.175 113.956 102.447 113.921C102.8 113.874 103.053 113.944 103.161 114.162V114.163C103.221 114.286 103.223 114.441 103.154 114.628Z" fill="black"></path> <path fill-rule="evenodd" clip-rule="evenodd" d="M119.032 94.103C120.385 93.806 121.762 94.213 122.905 95.12C124.015 96.002 124.907 97.368 125.319 99.01L125.32 99.011C125.73 100.65 125.586 102.275 125.022 103.577C124.424 104.956 123.358 105.984 121.969 106.332C120.577 106.68 119.154 106.276 117.979 105.343C116.868 104.46 115.976 103.094 115.564 101.452L115.537 101.342V101.338C115.16 99.738 115.31 98.158 115.862 96.885C116.46 95.506 117.525 94.478 118.915 94.13L119.024 94.103H119.032ZM119.34 95.832L119.321 95.836C118.496 96.05 117.848 96.7 117.467 97.577C117.05 98.539 116.949 99.766 117.265 101.026L117.269 101.044C117.585 102.294 118.249 103.321 119.068 103.971C119.825 104.572 120.71 104.84 121.543 104.632C122.376 104.423 123.032 103.77 123.415 102.885C123.833 101.922 123.933 100.696 123.618 99.436C123.304 98.178 122.637 97.145 121.814 96.492C121.056 95.892 120.172 95.624 119.34 95.832ZM134.737 131.494C135.621 132.565 136.169 134.057 136.169 135.715C136.169 137.371 135.622 138.861 134.739 139.932H134.737C133.891 140.955 132.735 141.59 131.471 141.59C130.205 141.59 129.05 140.955 128.203 139.932H128.2C127.318 138.862 126.771 137.371 126.771 135.715C126.771 134.059 127.319 132.569 128.203 131.498V131.494C129.047 130.472 130.203 129.839 131.471 129.839C132.737 129.839 133.895 130.472 134.737 131.494ZM131.472 128.083C129.659 128.083 128.028 128.961 126.854 130.38H126.853C125.718 131.753 125.017 133.64 125.017 135.714C125.017 137.786 125.719 139.671 126.853 141.044V141.049C128.024 142.468 129.657 143.345 131.472 143.345C133.286 143.345 134.918 142.468 136.089 141.049V141.044C137.224 139.671 137.926 137.786 137.926 135.714C137.926 133.642 137.224 131.756 136.089 130.382C134.917 128.962 133.282 128.083 131.472 128.083ZM118.782 142.586C120.382 143.703 121.713 145.524 122.394 147.785C123.072 150.048 122.968 152.303 122.248 154.117C121.556 155.863 120.29 157.195 118.617 157.699C116.942 158.201 115.151 157.789 113.609 156.715C112.009 155.598 110.678 153.777 109.999 151.516C109.319 149.252 109.423 146.998 110.144 145.184C110.836 143.437 112.102 142.106 113.775 141.602C115.45 141.098 117.241 141.512 118.782 142.586ZM113.273 139.921C111.061 140.586 109.404 142.303 108.518 144.538C107.657 146.707 107.523 149.371 108.318 152.016C109.114 154.664 110.694 156.814 112.608 158.149C114.582 159.525 116.908 160.045 119.118 159.38C121.331 158.714 122.988 156.998 123.875 154.762C124.735 152.595 124.868 149.93 124.074 147.285C123.277 144.637 121.696 142.486 119.783 141.152C117.81 139.776 115.484 139.256 113.273 139.921ZM100.982 118.085C102.025 117.833 103.127 118.174 104.07 118.935C105.08 119.749 105.902 121.035 106.302 122.601H106.303L106.325 122.685L106.326 122.684C106.716 124.28 106.589 125.838 106.068 127.066C105.581 128.214 104.749 129.06 103.686 129.331L103.687 129.332L103.653 129.34V129.342C102.609 129.596 101.507 129.254 100.565 128.494C99.554 127.679 98.732 126.392 98.332 124.827L98.311 124.744H98.31C97.921 123.148 98.047 121.59 98.569 120.362C99.056 119.215 99.888 118.368 100.949 118.097L100.983 118.088L100.982 118.085ZM100.519 116.395H100.516C98.895 116.81 97.653 118.034 96.956 119.676C96.294 121.236 96.125 123.189 96.609 125.162V125.169L96.631 125.255V125.258C97.127 127.198 98.173 128.814 99.467 129.857C100.828 130.955 102.468 131.435 104.072 131.041H104.079L104.115 131.033H104.119C105.741 130.617 106.982 129.394 107.679 127.751C108.341 126.191 108.51 124.239 108.026 122.266V122.259L108.003 122.171V122.169C107.507 120.228 106.462 118.614 105.167 117.57C103.807 116.472 102.167 115.993 100.563 116.387H100.557L100.519 116.395ZM149.949 139.615C150.794 139.436 151.686 139.763 152.476 140.459C153.355 141.232 154.095 142.438 154.533 143.919C154.602 144.157 154.667 144.408 154.721 144.67C155.097 146.441 154.975 148.174 154.473 149.54C154.01 150.798 153.236 151.721 152.259 152.009C152.205 152.026 152.145 152.039 152.082 152.053C151.236 152.233 150.344 151.905 149.555 151.21C148.677 150.438 147.936 149.232 147.498 147.75C147.429 147.512 147.363 147.262 147.309 147C146.933 145.228 147.055 143.494 147.559 142.129C148.022 140.871 148.795 139.948 149.772 139.66C149.827 139.645 149.885 139.629 149.949 139.615ZM149.279 137.979C147.737 138.434 146.561 139.756 145.912 141.526C145.303 143.184 145.148 145.262 145.595 147.364C145.658 147.66 145.733 147.955 145.819 148.245C146.353 150.054 147.282 151.548 148.398 152.528C149.599 153.587 151.025 154.071 152.447 153.768C152.545 153.748 152.646 153.722 152.752 153.692C154.296 153.236 155.469 151.914 156.121 150.145C156.73 148.486 156.885 146.409 156.439 144.306C156.376 144.01 156.298 143.716 156.214 143.426C155.681 141.616 154.751 140.123 153.637 139.142C152.433 138.082 151.007 137.599 149.586 137.901C149.489 137.922 149.386 137.947 149.279 137.979ZM110.585 170.379C110.802 171.111 110.979 171.812 111.117 172.36V172.363L111.213 172.738H111.216C111.316 173.129 111.399 173.424 111.479 173.709C111.865 175.095 112.185 176.244 111.689 176.81C111.256 177.303 110.704 177.582 110.092 177.686C109.32 177.819 108.441 177.681 107.554 177.344C106.62 176.988 105.691 176.414 104.874 175.696C103.528 174.514 102.486 172.952 102.208 171.327C101.895 169.491 102.029 167.714 102.537 166.33C102.983 165.115 103.713 164.229 104.664 163.948C107.925 162.985 109.677 167.301 110.585 170.379ZM104.172 162.268C102.646 162.717 101.527 163.999 100.893 165.725C100.284 167.384 100.118 169.48 100.481 171.615C100.829 173.66 102.096 175.586 103.721 177.014C104.698 177.871 105.81 178.557 106.93 178.984C108.097 179.428 109.29 179.602 110.382 179.417C111.382 179.247 112.287 178.782 113.007 177.963C114.128 176.688 113.693 175.126 113.167 173.243C113.075 172.913 112.979 172.572 112.912 172.307H112.915L112.82 171.932H112.819C112.681 171.383 112.504 170.686 112.267 169.885C111.154 166.117 108.91 160.868 104.172 162.268ZM139.302 109.375C139.88 108.968 140.671 108.934 141.529 109.216C142.508 109.537 143.549 110.254 144.485 111.301C144.74 111.588 144.996 111.906 145.242 112.257C146.291 113.746 146.898 115.383 147.033 116.828C147.158 118.149 146.888 119.276 146.2 119.892C146.15 119.937 146.094 119.982 146.029 120.026C145.453 120.433 144.662 120.467 143.804 120.185C142.825 119.864 141.784 119.146 140.847 118.1C140.591 117.814 140.337 117.494 140.09 117.143C139.041 115.655 138.433 114.017 138.298 112.574C138.175 111.252 138.443 110.126 139.132 109.509C139.179 109.466 139.235 109.42 139.302 109.375ZM137.966 108.205C136.837 109.215 136.382 110.872 136.555 112.731C136.718 114.468 137.432 116.413 138.657 118.151C138.932 118.542 139.23 118.914 139.545 119.266C140.692 120.548 142.003 121.437 143.264 121.851C144.643 122.305 145.979 122.205 147.037 121.459L147.041 121.456C147.147 121.381 147.256 121.294 147.366 121.195C148.494 120.186 148.951 118.529 148.775 116.67C148.613 114.932 147.901 112.988 146.675 111.248C146.4 110.858 146.103 110.486 145.788 110.135C144.641 108.853 143.331 107.963 142.069 107.548C140.688 107.094 139.352 107.195 138.294 107.941C138.188 108.015 138.077 108.103 137.966 108.205ZM122.113 63.822C117.542 63.472 112.969 63.123 107.67 64.351L107.269 64.443L107.083 64.809C103.434 72.027 102.913 75.964 102.047 82.519C101.874 83.832 101.685 85.256 101.422 87.042L101.31 87.804L102.056 88.012C102.884 88.244 103.681 88.794 104.345 89.579C105.014 90.371 105.542 91.392 105.829 92.565C106.221 94.163 106.094 95.723 105.572 96.953C105.085 98.1 104.253 98.947 103.192 99.218C102.65 99.357 102.095 99.337 101.562 99.183C100.983 99.016 100.415 98.688 99.895 98.228L98.908 97.358L98.485 98.609C96.502 104.486 95.037 109.107 93.823 113.797C92.609 118.49 91.649 123.244 90.676 129.381L90.559 130.119L91.269 130.351C91.35 130.378 91.436 130.412 91.528 130.45V130.448C91.604 130.48 91.684 130.519 91.766 130.564L91.798 130.582L91.797 130.584C92.735 131.109 93.309 132.11 93.478 133.309C93.66 134.598 93.385 136.099 92.611 137.515L92.569 137.59H92.568C92.046 138.522 91.374 139.293 90.633 139.867C89.885 140.447 89.068 140.824 88.269 140.963L87.706 141.061L87.565 141.616L84.735 152.766L84.432 153.957L85.657 153.853C86.471 153.783 87.279 153.851 88.009 154.052C88.692 154.242 89.31 154.55 89.805 154.974C90.039 155.174 90.233 155.392 90.389 155.621C90.736 156.138 90.877 156.714 90.82 157.288C90.759 157.89 90.486 158.502 90.007 159.062C89.736 159.376 89.4 159.676 88.997 159.948C88.224 160.47 87.326 160.809 86.402 160.97C85.443 161.137 84.462 161.108 83.576 160.886L82.728 160.673L82.513 161.524L78.329 178.003L78.174 178.616L78.717 178.958C79.78 179.623 80.86 180.247 81.957 180.827C96.87 188.729 117.615 190.753 136.853 187.234C156.13 183.708 173.936 174.609 182.922 160.271C183.462 159.409 183.962 158.545 184.42 157.682L184.631 157.283L184.423 156.876L179.459 147.167L178.698 145.68L177.907 147.151C177.546 147.824 177.054 148.355 176.511 148.677C176.033 148.958 175.517 149.075 175.022 148.974V148.973L175 148.968C174.367 148.831 173.858 148.265 173.535 147.528C173.172 146.701 173.052 145.695 173.235 144.795L173.236 144.797L173.245 144.754C173.443 143.84 173.753 143.228 174.143 142.803C174.523 142.389 175.007 142.13 175.551 141.93L176.183 141.696L176.121 141.024C175.73 136.899 174.541 135.417 172.986 133.481C172.187 132.484 171.282 131.355 170.358 129.622L169.983 128.918L169.25 129.225C168.102 129.705 166.749 129.479 165.48 128.757C164.086 127.964 162.807 126.586 161.98 124.874C161.174 123.209 160.909 121.499 161.12 120.019C161.323 118.585 161.974 117.378 163.003 116.671L163.472 116.35L163.37 115.793L163.241 115.08C162.697 112.082 162.443 110.689 161.803 109.436C161.242 108.337 160.457 107.485 158.994 105.893C158.563 105.424 158.066 104.883 157.451 104.199L156.76 103.43L156.115 104.239C155.854 104.564 155.554 104.844 155.22 105.066L155.222 105.067C154.909 105.275 154.566 105.431 154.195 105.526L154.196 105.527L154.162 105.535V105.536C153.006 105.818 151.785 105.442 150.744 104.601C149.637 103.707 148.734 102.299 148.297 100.585L148.274 100.495H148.272C147.87 98.848 147.971 97.236 148.462 95.929C148.933 94.68 149.758 93.721 150.826 93.311L151.736 92.962L151.291 92.093L141.232 72.422L140.864 71.705L140.121 72.012C138.846 72.537 137.309 72.464 135.798 71.874C134.252 71.27 132.744 70.134 131.549 68.544C131.113 67.964 130.745 67.355 130.444 66.731C130.137 66.097 129.904 65.449 129.743 64.804L129.577 64.137L128.886 64.142C126.612 64.167 124.362 63.994 122.113 63.822ZM128.228 65.897C126.075 65.885 124.029 65.729 121.983 65.571C117.659 65.241 113.334 64.91 108.462 65.968C105.111 72.694 104.609 76.493 103.783 82.745C103.621 83.966 103.448 85.277 103.261 86.59C104.154 86.984 104.985 87.622 105.684 88.448C106.519 89.436 107.176 90.704 107.53 92.154C108.015 94.126 107.846 96.079 107.184 97.64C106.487 99.282 105.245 100.506 103.624 100.92C102.778 101.136 101.915 101.105 101.082 100.865C100.628 100.735 100.187 100.543 99.766 100.296C97.985 105.611 96.641 109.901 95.519 114.238C94.364 118.702 93.44 123.226 92.512 128.982L92.612 129.034L92.619 129.038L92.652 129.057H92.655C94.097 129.866 94.968 131.338 95.214 133.072C95.446 134.715 95.108 136.605 94.144 138.363L94.141 138.369L94.098 138.447V138.45C93.459 139.59 92.628 140.54 91.703 141.256C90.899 141.879 90.021 142.326 89.134 142.569L86.717 152.089C87.319 152.12 87.911 152.214 88.476 152.371C89.4 152.628 90.249 153.054 90.944 153.647C91.304 153.957 91.604 154.293 91.843 154.646C92.426 155.508 92.661 156.485 92.563 157.465C92.467 158.42 92.053 159.369 91.336 160.207C90.963 160.644 90.508 161.049 89.976 161.408C88.994 162.072 87.857 162.503 86.696 162.704C85.8 162.86 84.883 162.877 84.008 162.758L80.185 177.817C81.013 178.319 81.875 178.807 82.77 179.283C97.341 187.003 117.66 188.97 136.536 185.516C155.372 182.073 172.734 173.238 181.438 159.35C181.857 158.68 182.263 157.986 182.655 157.268L178.553 149.248C178.202 149.627 177.813 149.945 177.399 150.19C176.555 150.688 175.608 150.886 174.662 150.693H174.656L174.633 150.688C173.398 150.421 172.465 149.459 171.926 148.23C171.426 147.091 171.261 145.697 171.519 144.447V144.443L171.528 144.398V144.394C171.799 143.141 172.258 142.264 172.85 141.62C173.285 141.149 173.775 140.814 174.306 140.557C173.906 137.431 172.905 136.182 171.62 134.581C170.876 133.654 170.046 132.619 169.169 131.094C167.686 131.453 166.089 131.123 164.614 130.283C162.923 129.321 161.384 127.673 160.4 125.638C159.436 123.65 159.127 121.586 159.383 119.782C159.623 118.075 160.367 116.59 161.549 115.58L161.516 115.391C161.003 112.567 160.765 111.255 160.245 110.235C159.798 109.362 159.066 108.567 157.704 107.083C157.419 106.773 157.11 106.437 156.782 106.076C156.595 106.242 156.399 106.394 156.194 106.531H156.19C155.713 106.849 155.19 107.088 154.626 107.231H154.619L154.579 107.241H154.576C152.86 107.661 151.104 107.148 149.646 105.972C148.254 104.848 147.127 103.111 146.592 101.022V101.019L146.571 100.925V100.918C146.081 98.918 146.211 96.939 146.822 95.316C147.339 93.94 148.202 92.808 149.332 92.108L140.018 73.894C138.497 74.301 136.801 74.152 135.159 73.511C133.328 72.796 131.549 71.46 130.151 69.598C129.64 68.92 129.213 68.213 128.867 67.498C128.61 66.968 128.397 66.433 128.228 65.897Z" fill="black"></path> <path fill-rule="evenodd" clip-rule="evenodd" d="M119.126 94.9809C121.35 94.4239 123.742 96.3229 124.468 99.2239C125.195 102.124 123.98 104.925 121.756 105.482C119.533 106.04 117.14 104.139 116.415 101.24C115.688 98.3399 116.903 95.5379 119.126 94.9809ZM131.472 128.961C134.551 128.961 137.048 131.984 137.048 135.714C137.048 139.443 134.551 142.467 131.472 142.467C128.392 142.467 125.895 139.444 125.895 135.714C125.895 131.984 128.392 128.961 131.472 128.961ZM113.523 140.762C117.41 139.594 121.756 142.625 123.232 147.535C124.707 152.444 122.753 157.371 118.866 158.539C114.98 159.707 110.633 156.675 109.157 151.766C107.683 146.855 109.637 141.93 113.523 140.762ZM100.731 117.246C103.414 116.56 106.3 118.9 107.174 122.473C108.05 126.045 106.586 129.497 103.903 130.182C101.22 130.868 98.335 128.528 97.459 124.956C96.583 121.384 98.049 117.932 100.731 117.246ZM149.526 138.819C152.046 138.075 154.755 140.613 155.579 144.488C156.403 148.362 155.026 152.105 152.505 152.849C149.985 153.593 147.276 151.056 146.452 147.181C145.63 143.307 147.005 139.563 149.526 138.819ZM104.419 163.107C109.533 161.596 111.375 169.843 112.064 172.521C112.595 174.584 113.31 176.292 112.349 177.385C109.338 180.813 102.2 176.486 101.345 171.469C100.681 167.565 101.899 163.852 104.419 163.107ZM138.55 108.855C140.366 107.229 143.684 108.525 145.958 111.753C148.231 114.98 148.601 118.915 146.782 120.543C144.963 122.171 141.647 120.874 139.373 117.647C137.1 114.42 136.73 110.483 138.55 108.855ZM128.892 65.0209C121.882 65.0829 115.618 63.4089 107.865 65.2039C103.518 73.8029 103.69 77.679 102.289 87.168C104.259 87.719 106.027 89.6969 106.68 92.3579C107.555 95.9309 106.09 99.3819 103.407 100.068C101.991 100.43 100.518 99.949 99.315 98.887C95.358 110.611 93.477 117.3 91.54 129.518C91.764 129.592 91.982 129.686 92.191 129.801C94.62 131.131 95.131 134.811 93.332 138.018C92.148 140.128 90.26 141.508 88.415 141.828L85.585 152.979C87.374 152.827 89.16 153.271 90.374 154.309C92.455 156.09 92.057 158.942 89.485 160.677C87.699 161.883 85.336 162.233 83.361 161.739L79.177 178.218C108.703 196.724 167.013 188.66 183.643 157.277L178.678 147.568C177.814 149.177 176.302 150.133 174.838 149.834C172.941 149.443 171.918 146.742 172.385 144.574C172.854 142.407 173.925 141.596 175.247 141.107C174.678 135.07 172.265 135.062 169.585 130.035C166.712 131.238 162.974 128.948 161.189 125.257C159.403 121.564 160.05 117.635 162.507 115.949C161.228 108.927 161.581 110.106 156.799 104.787C156.173 105.573 155.361 106.137 154.41 106.38C151.501 107.124 148.371 104.586 147.421 100.712C146.523 97.0449 147.898 93.4979 150.513 92.4959C147.159 85.9389 143.806 79.3819 140.453 72.8249C137.497 74.0429 133.466 72.5569 130.849 69.0739C129.888 67.7929 129.235 66.3979 128.892 65.0209Z" fill="#FAA54C"></path> <path fill-rule="evenodd" clip-rule="evenodd" d="M91.429 183.908C93.186 184.143 94.658 184.576 98.277 185.31C100.856 185.831 107.09 186.712 110.998 186.978C117.907 187.449 136.81 186.25 141.275 180.205C144.235 176.197 142.579 171.578 142.579 166.864C142.715 170.312 146.533 176.539 150.101 177.781C152.46 178.601 158.732 177.373 163.781 175.257C165.414 174.572 170.43 171.524 174.532 168.953C154.771 187.281 117.67 192.7 91.429 183.908Z" fill="black"></path> <path d="M91.429 183.908C93.186 184.143 94.658 184.576 98.277 185.31C100.856 185.831 107.09 186.712 110.998 186.978C117.907 187.449 136.81 186.25 141.275 180.205C144.235 176.197 142.579 171.578 142.579 166.864C142.715 170.312 146.533 176.539 150.101 177.781C152.46 178.601 158.732 177.373 163.781 175.257C165.414 174.572 170.43 171.524 174.532 168.953" stroke="black" stroke-width="0.216" stroke-miterlimit="22.926"></path> <path d="M109.779 65.391C114.314 75.847 117.314 84.137 119.511 94.91M134.043 141.709C139.787 155.898 142.763 167.143 146.708 182.248L134.043 141.709ZM122.313 105.286C124.58 114.326 126.46 120.699 129.856 129.248L122.313 105.286Z" stroke="black" stroke-width="0.7089" stroke-miterlimit="22.926"></path> <path fill-rule="evenodd" clip-rule="evenodd" d="M156.89 194.335C156.597 194.445 156.326 194.556 156.074 194.663C152.472 196.211 150.347 197.969 149.363 199.926L149.365 199.928C148.4 201.847 148.529 204.002 149.428 206.375C149.461 206.461 149.492 206.543 149.526 206.617C150.445 208.754 152.533 210.164 155.217 210.737C157.979 211.325 161.363 211.029 164.779 209.734C165.087 209.617 165.382 209.499 165.661 209.379C169.567 207.7 173.104 205.392 175.262 202.86C177.067 200.746 177.884 198.485 177.075 196.355C177.057 196.308 177.04 196.264 177.024 196.225C176.104 194.087 172.933 192.939 169.101 192.642C165.15 192.336 160.536 192.953 156.89 194.335Z" fill="black"></path> <path fill-rule="evenodd" clip-rule="evenodd" d="M155.854 194.143C163.317 190.937 175.682 191.114 177.596 196.157C179.507 201.198 173.339 206.694 165.877 209.9C158.416 213.106 150.816 211.62 148.904 206.578C146.994 201.533 148.392 197.35 155.854 194.143Z" fill="#AD0637"></path> <path fill-rule="evenodd" clip-rule="evenodd" d="M173.973 203.58C172.441 204.57 170.9 205.83 169.414 207.342C166.012 210.808 163.575 214.935 162.388 218.805C161.22 222.6 161.257 226.123 162.775 228.471C163.015 228.84 163.283 229.169 163.577 229.458C164.852 230.71 166.655 231.226 168.726 231.056C170.872 230.879 173.296 229.975 175.741 228.395C177.273 227.405 178.815 226.145 180.3 224.633C183.7 221.166 186.139 217.039 187.327 213.172C188.494 209.375 188.457 205.851 186.938 203.503V203.504C186.7 203.135 186.431 202.805 186.137 202.517C184.861 201.265 183.059 200.748 180.987 200.92C178.842 201.096 176.416 202 173.973 203.58ZM168.612 206.554C170.15 204.987 171.758 203.676 173.364 202.637C175.969 200.953 178.575 199.988 180.899 199.797C183.294 199.6 185.4 200.221 186.924 201.716C187.275 202.061 187.596 202.453 187.879 202.892V202.895C189.588 205.537 189.66 209.397 188.4 213.501C187.162 217.531 184.629 221.823 181.099 225.421C179.56 226.988 177.954 228.298 176.346 229.338C173.742 231.022 171.136 231.987 168.814 232.179C166.417 232.374 164.312 231.756 162.787 230.259C162.434 229.913 162.115 229.521 161.832 229.083V229.08C160.123 226.438 160.049 222.578 161.311 218.474C162.551 214.443 165.083 210.15 168.612 206.554Z" fill="white"></path> <path fill-rule="evenodd" clip-rule="evenodd" d="M204.103 185C203.776 184.949 201.152 182.906 199.68 181.76V181.758C199.243 181.419 198.907 181.157 198.804 181.08C197.898 180.392 196.533 179.442 194.632 178.894C192.735 178.346 190.289 178.195 187.196 179.083C186.47 179.426 185.89 179.704 185.401 179.941C184.071 180.582 183.382 180.915 182.635 181.161L182.634 181.16C181.922 181.395 181.194 181.545 179.863 181.8C181.055 182.084 182.343 182.446 182.788 182.945C183.104 183.298 183.028 183.632 182.678 183.945V183.947C182.297 184.287 181.252 184.668 180.525 184.931L180.492 184.944C180.758 185.091 181.133 185.285 181.529 185.49C182.728 186.109 184.093 186.81 184.283 187.658C184.448 188.398 183.9 189.037 182.064 189.447C181.888 189.488 181.733 189.635 181.546 189.818C181.073 190.274 180.458 190.871 178.799 191.185C177.904 195.876 177.818 195.927 176.425 196.705C176.003 196.941 175.432 197.26 174.613 197.92C174.773 197.941 174.926 197.958 175.072 197.973C175.524 198.015 175.902 198.026 176.225 198.015H176.227C176.949 197.994 177.404 197.858 177.796 197.743C178.35 197.579 178.803 197.444 179.608 197.591H179.611C179.894 197.644 179.963 197.759 180.071 197.946L180.072 197.944C180.144 198.069 180.324 198.376 181.624 198.762C181.987 198.87 182.27 198.637 182.519 198.432C183.151 197.911 183.68 197.473 184.607 198.495V198.498C186.036 200.07 185.367 201.068 184.343 201.998C184.221 202.105 184.039 202.26 183.859 202.412C183.408 202.791 182.949 203.178 182.75 203.582H182.749C181.657 205.804 180.781 207.677 180.083 209.619C179.408 211.5 178.894 213.457 178.504 215.877C178.96 215.729 179.836 215.246 180.88 214.67C183.256 213.362 186.426 211.615 188.848 211.912C189.838 212.033 190.042 212.244 190.509 212.717C190.562 212.773 190.622 212.833 190.688 212.899C190.716 212.926 190.746 212.95 190.778 212.97C190.937 213.073 191.144 213.055 191.356 212.975C191.643 212.866 191.927 212.652 192.149 212.426C192.265 212.306 192.363 212.19 192.428 212.087L192.426 212.086C192.975 211.237 193.375 210.359 193.691 209.493C194.015 208.605 194.252 207.724 194.47 206.885L194.59 206.418L195.07 206.466C196.016 206.564 196.163 207.261 196.068 208.18C196.041 208.451 195.995 208.719 195.946 208.994C195.8 209.848 195.638 210.795 196.174 210.93L196.514 211.015L196.588 211.36L196.59 211.37L196.597 211.411C196.609 211.498 196.642 212.037 196.613 212.754C196.587 213.467 196.5 214.378 196.279 215.254C196.086 216.02 195.791 216.764 195.345 217.354C195.879 217.185 196.454 216.9 196.979 216.433C197.918 215.595 198.757 213.484 199.325 212.055C199.427 211.798 199.521 211.562 199.583 211.41C199.779 210.937 200.058 210.807 200.422 210.959V210.96C200.827 211.128 200.835 211.665 200.847 212.376C200.859 213.015 200.873 213.87 201.003 214.33C201.164 214.102 201.453 213.645 201.769 213.142C202.238 212.394 202.765 211.554 203.211 211.039C204.356 209.713 205.32 208.79 206.103 208.2C207.12 207.43 207.916 207.186 208.456 207.332C208.87 207.444 209.174 207.806 209.411 208.453C209.59 208.944 209.751 209.647 209.924 210.593C209.982 210.908 209.997 211.236 210.001 211.583C210.444 210.548 211.027 209.357 211.726 208.448C212.485 207.459 213.76 207.102 214.465 206.969C214.387 203.717 214.984 202.13 215.549 200.634C215.882 199.749 216.204 198.898 216.34 197.726C216.352 197.624 216.274 197.722 216.19 197.549C215.711 196.583 214.583 194.299 214.425 190.687C214.409 190.316 214.04 189.943 213.691 189.589C213.534 189.431 213.379 189.276 213.248 189.116V189.114C211.87 187.462 210.304 187.107 209.17 186.849C208.607 186.723 208.135 186.616 207.759 186.389C206.428 185.592 206.765 183.988 210.446 177.846C210.572 177.635 210.755 177.261 210.975 176.782C208.83 179.904 206.767 182.288 205.579 183.657C205.102 184.206 204.774 184.585 204.662 184.755L204.462 185.058L204.103 185Z" fill="black"></path> <path fill-rule="evenodd" clip-rule="evenodd" d="M225.481 148.277C226.233 153.501 231.024 161.578 237.585 157.712C240.186 156.18 241.767 152.626 241.599 149.67C241.332 144.981 237.082 141.559 234.339 145.233C233.105 146.886 234.509 149.216 234.633 150.608C234.861 153.191 232.667 154.134 230.984 153.086C229.779 152.336 229.015 150.262 228.758 148.432C226.657 133.473 229.486 117.591 226.947 102.151C223.354 80.306 212.118 59.667 187.769 46.572C171.65 37.903 156.456 32.393 138.204 32.387C131.469 32.386 125.042 33.266 119.31 34.519C118.778 34.636 118.27 34.741 117.79 34.849C117.029 35.02 115.669 36.17 118.912 35.563C119.92 35.375 121.049 35.409 122.256 35.333C136.338 34.444 142.774 34.94 150.485 36.588C155.008 37.555 159.657 38.352 166.587 41.084C202.023 55.055 220.741 82.186 223.893 118.708C224.675 127.775 223.911 137.399 225.481 148.277Z" fill="#E49846"></path> <path fill-rule="evenodd" clip-rule="evenodd" d="M169.131 207.129C175.924 200.206 183.995 198.563 187.157 203.453C190.319 208.347 187.376 217.923 180.583 224.847C173.788 231.769 165.718 233.413 162.556 228.521C159.392 223.628 162.337 214.052 169.131 207.129Z" fill="#AD0637"></path> <path fill-rule="evenodd" clip-rule="evenodd" d="M204.189 184.445C203.955 184.41 199.767 181.107 199.142 180.633C197.256 179.202 193.459 176.681 186.993 178.556C181.818 181.005 183.302 180.56 177.677 181.646C176.482 181.875 181.594 182.449 182.371 183.318C182.661 183.644 180.417 184.352 179.794 184.606C178.038 185.321 187.581 187.638 181.944 188.9C181.006 189.109 181.092 190.289 178.32 190.695C176.962 197.856 177.52 194.433 173.336 198.283C174.637 198.53 175.556 198.599 176.244 198.577C177.962 198.523 178.251 197.913 179.51 198.142C179.647 198.165 179.532 198.726 181.463 199.3C182.862 199.718 183.126 197.699 184.192 198.872C186.128 201.007 183.006 201.79 182.247 203.334C180.044 207.811 178.719 210.89 177.919 215.987C177.563 218.255 184.611 211.958 188.779 212.469C189.7 212.582 189.773 212.785 190.296 213.297C191.134 214.119 192.438 213.103 192.9 212.387C194.046 210.616 194.569 208.735 195.012 207.024C196.501 207.176 194.096 210.986 196.037 211.474C196.061 211.48 196.436 217.571 193.271 217.995C192.761 218.062 195.369 218.618 197.352 216.848C198.549 215.78 199.525 213.024 200.101 211.621C200.541 210.55 199.853 215.714 201.161 214.96C201.543 214.742 202.788 212.385 203.635 211.404C206.031 208.627 207.6 207.679 208.309 207.872C208.752 207.993 209.038 208.862 209.371 210.691C209.532 211.574 209.322 212.701 209.563 214.051C209.623 214.38 210.61 210.82 212.171 208.784C213.101 207.571 215.042 207.462 215.041 207.437C214.801 201.858 216.515 201.075 216.895 197.786C216.926 197.516 215.179 195.149 214.985 190.658C214.95 189.869 214.153 189.322 213.676 188.751C209.469 183.708 205.664 190.342 213.277 179.036C215.809 175.275 212.979 173.936 213.683 172.659L212.415 175.229C208.983 180.685 204.682 183.693 204.189 184.445Z" fill="#E49846"></path> <path fill-rule="evenodd" clip-rule="evenodd" d="M66.544 56.2059C69.158 51.6219 70.342 42.3059 62.791 41.3249C59.796 40.9369 56.367 42.7689 54.684 45.2049C52.013 49.0679 53.265 54.3809 57.686 53.1659C59.676 52.6189 59.999 49.9189 60.757 48.7439C62.163 46.5659 64.474 47.1689 65.158 49.0309C65.647 50.3639 64.976 52.469 64.054 54.072C56.522 67.164 44.094 77.392 37.051 91.702C27.378 111.36 25.166 135.57 36.334 160.862C41.028 171.49 45.585 179.849 52.131 187.97C52.949 188.986 54.179 190.468 55.253 191.091C59.359 193.476 55.395 189.658 54.599 188.446C53.713 187.098 52.352 185.237 51.76 184.327C50.341 182.145 49.094 180.692 47.162 176.966C29.739 143.351 31.671 112.252 49.633 80.5129C54.115 72.5919 61.1 65.7539 66.544 56.2059Z" fill="#E49846"></path> <path fill-rule="evenodd" clip-rule="evenodd" d="M160.044 195.432C162.933 195.112 164.51 195.881 164.699 196.795C154.187 200.566 153.53 205.104 153.53 205.104C153.53 205.104 151.539 204.821 151.217 203.135C150.63 200.051 157.035 195.766 160.044 195.432Z" fill="white"></path> <path fill-rule="evenodd" clip-rule="evenodd" d="M174.77 206.496C176.683 205.654 177.162 207.373 177.162 207.373C177.162 207.373 168.419 215.283 168.95 221.045C168.419 221.639 164.859 220.873 164.354 218.52C164.997 215.477 171.932 207.744 174.77 206.496Z" fill="white"></path> <path fill-rule="evenodd" clip-rule="evenodd" d="M151.876 216.535C152.189 217.121 151.429 217.742 152.345 218.631C145.894 219.135 138.372 228.162 138.372 228.162L137.448 224.81C137.448 224.811 141.679 216.791 151.876 216.535Z" fill="white"></path> <path fill-rule="evenodd" clip-rule="evenodd" d="M127.573 215.671C128.726 216.347 129.536 217.076 130.053 218.651C121.787 218.495 118.069 221.713 116.995 223.201C115.01 223.279 114.846 221.083 114.846 221.083C114.846 221.083 121.375 214.494 127.573 215.671Z" fill="white"></path> <path fill-rule="evenodd" clip-rule="evenodd" d="M87.783 216.842C89.394 218.5 89.948 218.913 90.65 219.412C92.555 220.766 97.567 223.264 98.929 221.355C100.429 218.152 97.107 216.008 92.945 215.279C88.869 214.566 88.21 217.692 80.677 219.116C79.948 219.114 80.232 218.577 80.549 218.539C86.664 217.807 88.298 213.129 94.207 214.454C98.342 215.381 101.757 218.254 100.122 222.137C97.976 225.103 90.934 221.469 89.249 220.039C88.028 219.004 86.566 217.172 85.613 215.63C85.563 215.547 86.892 216.238 87.244 216.311L87.783 216.842Z" fill="#E49846"></path> <path fill-rule="evenodd" clip-rule="evenodd" d="M210.048 184.908C210.048 184.908 206.095 183.98 204.827 184.832C203.385 185.801 200.576 185.84 200.576 185.84C200.576 185.84 195.737 183.326 196.717 183.75C197.695 184.172 192.775 182.312 192.775 182.312L192.774 182.508C192.774 182.508 199.249 185.16 199.011 185.615C198.499 186.339 191.049 185.101 191.049 185.101L191.045 185.414C191.045 185.414 195.874 186.317 197.634 186.443C199.393 186.568 203.006 186.623 203.006 186.623L200.202 190.182L197.323 190.45L194.245 190.137L187.915 189.467C187.915 189.467 186.292 187.615 184.389 187.939C184.106 188.016 183.889 188.352 184.656 188.36C186.037 188.25 186.915 189.724 186.915 189.724C186.915 189.724 183.605 190.825 183.107 190.913C182.904 191.082 182.674 191.264 183.093 191.355C183.51 191.444 187.765 189.892 190.695 190.564C191.639 190.902 186.36 192.22 186.265 192.35C186.172 192.48 185.847 192.557 186.253 192.789C187.941 192.985 191.221 190.888 192.206 190.977C193.191 191.069 197.269 191.392 197.269 191.392L200.091 191.094C200.091 191.094 199.82 192.608 198.605 194.627C197.579 196.438 193.095 201.803 191.623 203.769C190.15 205.737 190.546 208.006 190.546 208.006L191.168 208.071C191.168 208.071 191.006 205.431 192.401 203.886C193.936 202.187 197.363 197.9 197.363 197.9C197.363 197.9 197.562 199.402 197.417 200.643C197.275 201.882 195.731 204.126 195.567 204.72C195.405 205.311 195.524 206.488 195.524 206.488L195.983 206.671C195.983 206.671 195.904 206.066 196.108 205.029C196.313 203.994 197.499 202.935 197.931 201.652C198.376 200.332 198.282 196.722 198.282 196.722C198.282 196.722 200.547 193.775 200.995 190.951C201.898 189.107 203.508 187.263 203.508 187.263C203.508 187.263 203.522 191.274 205.883 192.38C207.018 193.007 206.81 193.095 207.447 193.644C208.231 194.317 208.193 194.341 208.286 195.196C208.381 196.049 207.015 198.737 206.929 199.197C206.843 199.657 206.586 200.888 206.586 200.888L207.099 200.849C207.099 200.849 207.213 199.681 207.4 199.23C207.587 198.78 207.789 198.171 208.517 196.683C209.246 195.196 209.705 197.253 209.705 197.253L210.206 199.97L210.814 200.319L210.206 196.58C210.206 196.58 208.342 193.163 207.087 192.4C206.655 192.138 207.986 191.968 208.973 192.81C210.528 194.136 212.956 196.173 213.518 196.033C214.141 195.787 214.02 195.986 213.786 195.855C211.53 194.613 211.394 193.824 209.329 192.245C207.871 191.131 206.695 191.883 206.101 191.482C205.645 191.172 205.278 190.576 205.278 190.576C205.278 190.576 204.495 189.811 204.414 188.104C204.334 186.396 205.661 185.767 206.226 185.57C206.79 185.372 209.398 186.302 209.398 186.302L210.048 184.908Z" fill="white"></path> <path fill-rule="evenodd" clip-rule="evenodd" d="M211.816 173.923C212.515 172.062 216.331 171.456 217.075 171.409C220.752 170.665 219.761 164.921 218.456 165.293C217.991 165.481 212.92 168.911 211.384 171.17C209.69 173.66 211.118 175.786 211.816 173.923Z" fill="#E49846"></path> </svg> 