<?xml version="1.0" encoding="utf-8"?>
<!-- Generator: Adobe Illustrator 16.0.0, SVG Export Plug-In . SVG Version: 6.00 Build 0)  -->
<!DOCTYPE svg PUBLIC "-//W3C//DTD SVG 1.1//EN" "http://www.w3.org/Graphics/SVG/1.1/DTD/svg11.dtd">
<svg version="1.1" id="Layer_1" xmlns="http://www.w3.org/2000/svg" xmlns:xlink="http://www.w3.org/1999/xlink" x="0px" y="0px"
	 width="639.001px" height="402.311px" viewBox="-42.623 9.794 639.001 402.311"
	 enable-background="new -42.623 9.794 639.001 402.311" xml:space="preserve">
<g>
	<path d="M341.927,76.639c-11.529-17.436-29.604-30.284-51.486-34.413c-21.885-4.131-43.436,1.238-60.59,13.262
		c-17.156,12.023-29.914,30.7-34.207,53.181l-0.002,0.005c-4.293,22.486,0.695,44.516,12.227,61.957
		c11.529,17.433,29.6,30.28,51.48,34.412l0.006,0.001c21.883,4.13,43.438-1.24,60.588-13.264
		c17.16-12.022,29.918-30.703,34.211-53.187C358.446,116.108,353.46,94.078,341.927,76.639z M290.62,41.26
		c22.16,4.182,40.459,17.19,52.129,34.841c11.668,17.647,16.717,39.933,12.375,62.674c-4.342,22.747-17.252,41.645-34.611,53.81
		c-17.352,12.161-39.15,17.595-61.287,13.434l0,0l-0.053-0.009c-22.156-4.182-40.455-17.191-52.127-34.841
		c-11.662-17.632-16.709-39.898-12.385-62.622v-0.002l0.01-0.05c4.342-22.745,17.25-41.644,34.609-53.809
		C246.647,42.515,268.466,37.079,290.62,41.26z"/>
	<path fill="#E49846" d="M263.704,210.773c0.629,0.39-1.068,0.778-2.34,0.302c-1.24-0.464-3.324-2.221-3.949-2.904
		c-4.299-4.71-11.635-17.898-19.695-15.145c-1.186,0.617-1.541,2.274-0.625,4.225c0.064,0.136-1.125-0.522-1.307-0.797
		c0.158,0.441-1.191-3.07,1.307-4.38c7.973-4.375,17.393,11.235,21.881,15.371c1.277,1.176,2.361,2.12,3.57,2.271L263.704,210.773z"
		/>
	<path fill="#FFFFFF" d="M279.122,197.175c-1.898-1.292-4.297-2.041-7.564-1.744c-3.305,0.307-6.246,1.463-8.328,3.095
		c-2.031,1.589-3.236,3.618-3.139,5.709c0.014,0.286,0.039,0.571,0.078,0.85c0.232,1.737,0.947,3.306,2.424,4.393
		c1.514,1.113,3.836,1.745,7.264,1.584c0.748-0.037,1.537-0.109,2.381-0.222c4.326-0.577,7.697-1.733,9.807-3.185
		c0.877-0.599,1.527-1.245,1.93-1.914c0.381-0.631,0.537-1.289,0.447-1.946c-0.064-0.494-0.268-0.997-0.613-1.503
		C282.483,200.365,281.046,198.484,279.122,197.175z M271.476,194.45c3.525-0.323,6.125,0.494,8.197,1.906
		c2.051,1.396,3.561,3.362,4.941,5.371c0.436,0.637,0.691,1.282,0.775,1.929c0.121,0.891-0.082,1.764-0.582,2.593
		c-0.477,0.792-1.223,1.541-2.215,2.224c-2.234,1.528-5.75,2.744-10.234,3.344c-0.875,0.119-1.693,0.194-2.457,0.229
		c-3.676,0.177-6.197-0.529-7.885-1.771c-1.719-1.266-2.549-3.068-2.816-5.056c-0.039-0.306-0.066-0.618-0.084-0.935
		c-0.115-2.432,1.238-4.752,3.518-6.537C264.858,196.006,267.983,194.769,271.476,194.45z"/>
	<path fill="#AD0637" d="M271.53,195.106c6.658-0.608,9.795,3.069,12.441,6.928c2.646,3.856-2.281,7.876-11.676,9.133
		c-9.389,1.256-12.227-2.492-12.439-6.929C259.644,199.805,264.872,195.715,271.53,195.106z"/>
	<path fill="#FFFFFF" d="M299.134,196.461c-3.271-0.54-7.367-0.127-10.957,0.956c-0.268,0.079-0.533,0.169-0.797,0.267
		c-2.969,1.097-5.332,3.127-6.793,5.409c-1.439,2.249-1.996,4.729-1.383,6.767c0.037,0.127,0.072,0.231,0.1,0.311
		c0.029,0.077,0.059,0.148,0.088,0.22v-0.001c0.814,1.942,2.691,3.233,5.117,3.773c2.488,0.555,5.547,0.312,8.643-0.829
		c0.275-0.102,0.541-0.206,0.799-0.314c3.453-1.446,6.688-3.82,8.75-6.388c1.828-2.279,2.727-4.693,1.988-6.693
		C303.978,198.012,301.854,196.909,299.134,196.461z M287.894,196.471c3.723-1.122,7.979-1.548,11.391-0.985
		c3.059,0.504,5.469,1.805,6.318,4.11c0.873,2.366-0.104,5.114-2.143,7.656c-2.162,2.691-5.537,5.172-9.137,6.681
		c-0.291,0.123-0.568,0.233-0.836,0.328c-3.27,1.208-6.521,1.457-9.189,0.862c-2.732-0.606-4.861-2.097-5.805-4.353v-0.002
		c-0.039-0.088-0.074-0.174-0.104-0.261c-0.051-0.14-0.092-0.262-0.123-0.361v-0.003c-0.701-2.322-0.094-5.101,1.494-7.586
		c1.57-2.45,4.102-4.63,7.283-5.805C287.321,196.651,287.604,196.558,287.894,196.471z"/>
	<path fill="#AD0637" d="M288.114,197.111c6.676-2.013,15.117-1.708,16.77,2.768c1.648,4.474-4.168,10.657-10.791,13.437
		c-6.623,2.776-13.334,1.4-14.984-3.076C277.458,205.766,281.44,199.124,288.114,197.111z"/>
	<path fill="#A74C15" d="M266.554,88.156c-4.73,12.89,3.818,11.05,5.281,13.28c3.68,5.604,0.275,12.699-11.113,2.038
		c-1.85-1.729-1.428-5.195-1.949-5.495c-1.396-0.803,1.402-5.854,2.531-7.337C262.325,89.297,267.028,86.865,266.554,88.156z"/>
	<path d="M269.618,100.401c-2.875-1.053-6.844-2.51-3.248-12.312c0.02-0.056,0.027-0.086,0.021-0.098l0,0
		c-0.008-0.017-0.09-0.014-0.219,0.003c-0.203,0.026-0.479,0.109-0.795,0.233c-1.328,0.521-3.311,1.73-3.918,2.534
		c-0.277,0.364-0.658,0.948-1.055,1.636c-0.578,1.005-1.186,2.227-1.531,3.282c-0.326,0.99-0.428,1.811-0.055,2.097
		c0.018,0.011,0.033,0.022,0.051,0.032v0.001c0.27,0.154,0.342,0.694,0.438,1.429c0.162,1.217,0.402,3.021,1.547,4.094
		c4.094,3.83,7.133,5.346,9.162,5.457c0.846,0.046,1.512-0.156,1.996-0.534c0.486-0.378,0.801-0.937,0.945-1.606
		c0.314-1.426-0.127-3.337-1.287-5.105C271.337,101.032,270.538,100.739,269.618,100.401z M266.739,88.225
		c-3.463,9.434,0.295,10.812,3.014,11.809c0.982,0.36,1.84,0.675,2.248,1.296c1.219,1.855,1.676,3.879,1.344,5.401
		c-0.166,0.759-0.525,1.397-1.088,1.834c-0.561,0.437-1.313,0.667-2.26,0.616c-2.115-0.115-5.238-1.662-9.408-5.563
		c-1.25-1.167-1.5-3.055-1.668-4.328c-0.084-0.623-0.146-1.082-0.244-1.141l0,0c-0.031-0.016-0.061-0.037-0.092-0.061
		c-0.541-0.41-0.461-1.388-0.084-2.532c0.355-1.078,0.977-2.326,1.568-3.355c0.4-0.7,0.791-1.301,1.078-1.677
		c0.648-0.854,2.713-2.124,4.09-2.662c0.342-0.135,0.648-0.226,0.883-0.256c0.311-0.04,0.531,0.021,0.625,0.21v0.001
		C266.798,87.925,266.8,88.061,266.739,88.225z"/>
	<path fill="#A74C15" d="M276.757,120.014c-4.73,12.89,3.818,11.051,5.279,13.28c3.682,5.604,0.277,12.695-11.113,2.039
		c-1.848-1.73-1.426-5.195-1.945-5.496c-1.398-0.803,1.4-5.854,2.527-7.337C272.53,121.154,277.231,118.724,276.757,120.014z"/>
	<path d="M279.821,132.259c-2.873-1.054-6.846-2.511-3.248-12.313c0.02-0.055,0.025-0.087,0.021-0.097
		c-0.008-0.017-0.09-0.014-0.221,0.004c-0.203,0.025-0.477,0.109-0.793,0.231c-1.328,0.521-3.309,1.731-3.92,2.534
		c-0.277,0.363-0.658,0.949-1.053,1.636c-0.578,1.005-1.186,2.227-1.531,3.28c-0.326,0.992-0.43,1.813-0.055,2.098h0.004
		c0.014,0.014,0.029,0.022,0.047,0.033v0.002c0.27,0.154,0.34,0.693,0.438,1.428c0.162,1.217,0.402,3.021,1.547,4.095
		c4.092,3.831,7.131,5.345,9.16,5.456c0.848,0.047,1.514-0.156,1.998-0.533c0.486-0.377,0.801-0.936,0.945-1.607
		c0.311-1.426-0.127-3.336-1.287-5.104C281.538,132.89,280.739,132.597,279.821,132.259z M276.942,120.081
		c-3.463,9.434,0.295,10.812,3.014,11.809c0.982,0.361,1.84,0.675,2.248,1.295c1.219,1.856,1.674,3.881,1.342,5.402
		c-0.164,0.76-0.527,1.398-1.088,1.834c-0.561,0.437-1.313,0.669-2.26,0.617c-2.113-0.115-5.24-1.661-9.408-5.563
		c-1.25-1.168-1.498-3.057-1.666-4.328c-0.084-0.623-0.146-1.082-0.246-1.141l0,0c-0.029-0.016-0.063-0.037-0.09-0.061
		c-0.541-0.411-0.459-1.391-0.084-2.533c0.354-1.076,0.975-2.324,1.566-3.353c0.402-0.701,0.793-1.303,1.078-1.679
		c0.65-0.854,2.713-2.123,4.09-2.662c0.344-0.133,0.648-0.225,0.885-0.256c0.309-0.041,0.529,0.021,0.625,0.211l0,0
		C276.999,119.782,277.003,119.918,276.942,120.081z"/>
	<path d="M340.927,30.938c-19.734-11.529-42.961-19.489-66.605-18.052c-30.691,1.868-61.563,17.515-81.055,40.563
		c-24.82,29.352-33.883,78.564-18.844,114.29c7.34,17.434,21.109,34.151,36.482,45.803c8.91,5.206,20.463,12.399,30.672,15.047
		c12.648,3.279,30.545,3.813,44.354,2.489c41.627-3.988,79.916-33.445,95.094-68.845c8.674-20.231,11.654-46.628,6.479-67.687
		c-3.635-14.791-11.498-28.335-21.33-40.638C359.075,45.027,349.796,37.661,340.927,30.938z M266.222,10.336
		c38.322-3.67,73.996,11.554,97.428,37.899l0.154,0.172l0.379,0.429c15.059,16.991,25.033,38.593,27.346,62.733
		c5.91,61.699-40.43,116.614-103.504,122.656c-38.322,3.671-73.998-11.554-97.428-37.9l-0.152-0.171
		c-0.127-0.142-0.25-0.286-0.379-0.427c-7.193-8.117-13.227-17.286-17.818-27.279c-5.021-10.931-8.318-22.846-9.527-35.456
		c-4.133-43.139,16.686-84.789,52.094-105.082C230.208,19.087,247.249,12.153,266.222,10.336z"/>
	<path fill="#A74C15" d="M255.571,149.212c-1.508,2.258-5.504,12.858,6.887,16.666c2.191,0.673,0.324,2.249-2.035,2.76
		c-4.789,1.042-6.799,0.945-10.76-2.591c-3.318-2.961-3.061-6.694-2.939-10.754C246.81,152.408,252.509,146.415,255.571,149.212z"/>
	<path d="M254.159,151.914c0.357-1.161,0.807-2.1,1.156-2.664c-0.463-0.376-0.984-0.549-1.531-0.565
		c-0.777-0.024-1.621,0.266-2.439,0.748c-0.828,0.484-1.633,1.17-2.322,1.926c-1.215,1.328-2.072,2.867-2.104,3.94l-0.016,0.478
		c-0.117,3.825-0.229,7.341,2.891,10.126c1.953,1.741,3.42,2.637,4.979,2.966c1.563,0.327,3.24,0.093,5.609-0.422
		c1.035-0.226,1.969-0.659,2.48-1.119c0.18-0.167,0.305-0.328,0.352-0.48c0.041-0.127,0.023-0.246-0.059-0.356
		c-0.117-0.159-0.361-0.306-0.754-0.424c-1.773-0.546-3.217-1.229-4.385-2.011c-2.586-1.727-3.813-3.92-4.26-6.104
		C253.312,155.771,253.638,153.606,254.159,151.914z M255.735,149.321c-0.346,0.516-0.824,1.48-1.203,2.709
		c-0.502,1.64-0.82,3.738-0.391,5.841c0.43,2.091,1.607,4.199,4.094,5.858c1.137,0.761,2.545,1.427,4.281,1.961
		c0.477,0.146,0.787,0.339,0.953,0.562v0.001c0.168,0.221,0.199,0.462,0.119,0.709c-0.068,0.222-0.23,0.443-0.461,0.654
		c-0.561,0.507-1.563,0.976-2.66,1.215c-2.42,0.525-4.143,0.764-5.771,0.421c-1.635-0.345-3.154-1.268-5.162-3.059
		c-3.256-2.906-3.143-6.507-3.02-10.428l0.014-0.478c0.037-1.165,0.934-2.802,2.205-4.193c0.715-0.783,1.549-1.494,2.416-2.002
		c0.877-0.515,1.789-0.826,2.648-0.802c0.689,0.021,1.342,0.257,1.908,0.774l0.125,0.116L255.735,149.321z"/>
	<path fill="#A74C15" d="M280.446,100.905c2.473,1.125,11.451,8.029,2.928,17.795c-1.51,1.727,0.91,2.08,3.184,1.273
		c4.619-1.637,6.277-2.78,7.779-7.87c1.262-4.267-0.924-7.305-3.166-10.69C289.577,99.007,281.577,96.916,280.446,100.905z"/>
	<path d="M282.812,102.755c-0.963-0.844-1.879-1.413-2.447-1.67l-0.154-0.069l0.049-0.163c0.207-0.739,0.635-1.282,1.213-1.665
		c0.715-0.473,1.656-0.689,2.674-0.714c1.004-0.023,2.086,0.141,3.105,0.429c1.814,0.514,3.441,1.431,4.084,2.401l0.266,0.398
		c2.168,3.269,4.162,6.271,2.928,10.457c-0.764,2.58-1.57,4.164-2.775,5.316c-1.207,1.15-2.795,1.856-5.131,2.684
		c-1.059,0.374-2.158,0.504-2.898,0.369c-0.307-0.057-0.563-0.16-0.736-0.31c-0.199-0.17-0.301-0.394-0.273-0.67
		c0.023-0.276,0.186-0.603,0.516-0.979c1.191-1.367,2.037-2.676,2.605-3.921c1.236-2.724,1.129-5.132,0.391-7.136
		C285.481,105.499,284.104,103.882,282.812,102.755z M280.685,100.803c0.596,0.296,1.469,0.858,2.385,1.656
		c1.332,1.163,2.754,2.834,3.521,4.919c0.77,2.093,0.887,4.604-0.402,7.435c-0.582,1.274-1.447,2.618-2.668,4.017
		c-0.271,0.311-0.402,0.563-0.42,0.758c-0.014,0.139,0.037,0.249,0.139,0.335c0.121,0.104,0.309,0.179,0.553,0.223
		c0.676,0.124,1.699,0,2.699-0.354c2.283-0.809,3.834-1.493,4.986-2.598c1.154-1.1,1.93-2.634,2.668-5.144
		c1.186-4.01-0.758-6.938-2.875-10.129l-0.266-0.397c-0.594-0.895-2.129-1.75-3.863-2.241c-0.984-0.278-2.029-0.437-2.99-0.415
		c-0.951,0.023-1.814,0.22-2.465,0.65C281.229,99.818,280.88,100.241,280.685,100.803z"/>
	<path fill="#A74C15" d="M291.11,127.44c1.934,1.906,7.99,11.479-3.369,17.715c-2.012,1.104,0.139,2.268,2.551,2.293
		c4.898,0.051,6.85-0.452,10.014-4.717c2.646-3.57,1.643-7.178,0.701-11.126C300.337,128.798,293.544,124.083,291.11,127.44z"/>
	<path d="M292.698,129.989c-0.621-1.126-1.285-1.975-1.727-2.41l-0.119-0.117l0.1-0.137c0.451-0.621,1.041-0.986,1.711-1.146
		c0.838-0.198,1.793-0.078,2.756,0.248c0.951,0.324,1.912,0.85,2.77,1.473c1.527,1.107,2.74,2.526,3.008,3.661l0,0l0.111,0.464
		c0.914,3.813,1.752,7.32-0.848,10.824c-1.604,2.16-2.904,3.371-4.434,4.038c-1.527,0.667-3.26,0.781-5.738,0.757
		c-1.127-0.013-2.203-0.27-2.854-0.65c-0.268-0.161-0.471-0.343-0.584-0.545c-0.125-0.227-0.145-0.473-0.025-0.723
		c0.117-0.251,0.381-0.503,0.82-0.744c1.588-0.873,2.838-1.811,3.797-2.783c2.098-2.131,2.824-4.43,2.822-6.569
		C294.259,133.483,293.522,131.494,292.698,129.989z M291.37,127.425c0.459,0.483,1.088,1.313,1.672,2.377
		c0.852,1.549,1.611,3.605,1.613,5.829c0.004,2.231-0.752,4.626-2.936,6.843c-0.982,0.998-2.258,1.961-3.887,2.854
		c-0.359,0.199-0.568,0.391-0.652,0.566c-0.059,0.126-0.049,0.249,0.016,0.362c0.08,0.142,0.23,0.276,0.441,0.399
		c0.596,0.35,1.596,0.584,2.654,0.598c2.424,0.023,4.115-0.086,5.58-0.723c1.459-0.639,2.717-1.813,4.275-3.914
		c2.494-3.36,1.674-6.779,0.781-10.5l-0.109-0.463c-0.25-1.045-1.402-2.379-2.857-3.435c-0.828-0.601-1.756-1.107-2.666-1.418
		c-0.898-0.305-1.779-0.418-2.539-0.236C292.222,126.688,291.745,126.965,291.37,127.425z"/>
	<path fill="#A74C15" d="M264.231,130.314c-1.51,2.257-5.504,12.858,6.885,16.666c2.193,0.675,0.322,2.247-2.035,2.763
		c-4.785,1.041-6.801,0.943-10.758-2.593c-3.318-2.962-3.061-6.696-2.941-10.755C255.466,133.511,261.167,127.518,264.231,130.314z"
		/>
	<path d="M262.817,133.017c0.357-1.16,0.805-2.1,1.156-2.664c-0.463-0.377-0.986-0.549-1.531-0.566
		c-0.781-0.022-1.621,0.266-2.438,0.747c-0.83,0.487-1.633,1.172-2.322,1.927c-1.215,1.328-2.07,2.867-2.104,3.942l-0.016,0.476
		c-0.117,3.826-0.229,7.342,2.891,10.125c1.951,1.744,3.42,2.639,4.982,2.967c1.559,0.328,3.238,0.094,5.607-0.42
		c1.033-0.227,1.967-0.659,2.477-1.119v-0.004c0.182-0.164,0.307-0.326,0.352-0.479c0.039-0.127,0.025-0.245-0.055-0.354h-0.004
		c-0.117-0.158-0.361-0.305-0.752-0.426c-1.773-0.544-3.217-1.228-4.383-2.009c-2.588-1.728-3.814-3.921-4.262-6.106
		C261.97,136.875,262.3,134.706,262.817,133.017z M264.394,130.424c-0.346,0.515-0.824,1.481-1.201,2.71
		c-0.504,1.639-0.822,3.738-0.393,5.841c0.432,2.095,1.605,4.198,4.094,5.858c1.137,0.761,2.547,1.426,4.281,1.96
		c0.477,0.146,0.787,0.342,0.953,0.562v0.002c0.168,0.221,0.197,0.462,0.119,0.71c-0.07,0.221-0.232,0.442-0.461,0.651h-0.004
		c-0.557,0.508-1.559,0.977-2.658,1.215c-2.418,0.527-4.141,0.766-5.77,0.422c-1.635-0.346-3.154-1.266-5.162-3.059
		c-3.256-2.905-3.143-6.509-3.02-10.428l0.014-0.479c0.033-1.164,0.936-2.803,2.205-4.193c0.715-0.783,1.551-1.492,2.416-2
		c0.877-0.518,1.789-0.826,2.646-0.802c0.691,0.021,1.342,0.257,1.91,0.775l0.125,0.112L264.394,130.424z"/>
	<path fill="#A74C15" d="M251.251,109.601c-4.73,12.892,3.816,11.053,5.281,13.282c3.678,5.604,3.295,11.448-8.096,0.79
		c-1.852-1.73-1.428-5.196-1.949-5.496c-1.398-0.803-1.615-4.604-0.488-6.087C247.022,110.743,251.726,108.312,251.251,109.601z"/>
	<path d="M254.313,121.849c-2.875-1.055-6.844-2.511-3.246-12.313c0.021-0.055,0.025-0.086,0.021-0.098
		c-0.008-0.018-0.088-0.014-0.221,0.004c-0.201,0.025-0.477,0.109-0.793,0.232c-1.328,0.521-3.309,1.73-3.92,2.533
		c-0.055,0.072-0.107,0.15-0.152,0.232c-0.43,0.748-0.594,1.912-0.504,3.002c0.09,1.075,0.418,2.066,0.971,2.486h0.002
		c0.037,0.031,0.078,0.056,0.117,0.079c0.268,0.154,0.338,0.694,0.436,1.429c0.162,1.217,0.402,3.021,1.547,4.093
		c3.99,3.734,6.607,5.426,8.162,5.805c0.609,0.151,1.033,0.091,1.299-0.127h-0.002c0.264-0.218,0.383-0.603,0.381-1.11
		c-0.012-1.266-0.787-3.195-2.041-5.107C256.032,122.479,255.231,122.185,254.313,121.849z M251.435,109.67
		c-3.461,9.435,0.295,10.812,3.016,11.81c0.982,0.361,1.84,0.675,2.248,1.295c1.291,1.971,2.092,3.98,2.102,5.319
		c0.006,0.626-0.158,1.12-0.518,1.417l0,0c-0.363,0.297-0.9,0.388-1.641,0.205c-1.613-0.396-4.293-2.117-8.338-5.901
		c-1.246-1.169-1.5-3.056-1.668-4.328c-0.082-0.623-0.145-1.083-0.244-1.14c-0.057-0.033-0.109-0.068-0.16-0.107h0.002
		c-0.65-0.492-1.029-1.591-1.127-2.766c-0.094-1.162,0.086-2.411,0.557-3.229c0.055-0.099,0.117-0.189,0.18-0.274
		c0.65-0.854,2.715-2.122,4.092-2.662c0.34-0.134,0.645-0.226,0.885-0.256c0.307-0.042,0.529,0.02,0.623,0.21v0.002
		C251.495,109.372,251.495,109.507,251.435,109.67z"/>
	<path d="M265.302,91.746c1.18-0.26,2.383,0.095,3.383,0.888c0.969,0.771,1.75,1.964,2.107,3.396v0.001
		c0.359,1.433,0.232,2.851-0.26,3.988c-0.521,1.204-1.451,2.102-2.666,2.405s-2.457-0.049-3.484-0.863
		c-0.969-0.771-1.748-1.965-2.107-3.398l-0.025-0.097v-0.002c-0.328-1.397-0.195-2.777,0.283-3.89
		c0.523-1.204,1.455-2.103,2.668-2.405l0.094-0.023H265.302z M265.571,93.256l-0.016,0.003c-0.723,0.187-1.289,0.755-1.621,1.521
		c-0.365,0.841-0.451,1.912-0.174,3.013l0.002,0.015c0.275,1.092,0.855,1.989,1.57,2.558c0.662,0.524,1.434,0.758,2.162,0.576
		c0.727-0.183,1.299-0.753,1.635-1.525c0.365-0.842,0.453-1.912,0.178-3.012c-0.273-1.099-0.857-2.001-1.576-2.571
		C267.069,93.309,266.298,93.074,265.571,93.256z M279.017,124.398c0.773,0.937,1.25,2.239,1.25,3.688
		c0,1.446-0.475,2.747-1.248,3.682h-0.002c-0.738,0.894-1.748,1.448-2.85,1.448c-1.107,0-2.115-0.555-2.855-1.448h-0.002
		c-0.771-0.935-1.25-2.235-1.25-3.682c0-1.447,0.479-2.749,1.252-3.683v-0.005c0.736-0.892,1.746-1.444,2.855-1.444
		C277.269,122.954,278.282,123.507,279.017,124.398z M276.167,121.421c-1.584,0-3.01,0.766-4.035,2.006l0,0
		c-0.99,1.197-1.604,2.848-1.604,4.658c0,1.809,0.613,3.455,1.604,4.654v0.004c1.021,1.239,2.449,2.006,4.035,2.006
		c1.584,0,3.008-0.767,4.031-2.006v-0.004c0.992-1.199,1.604-2.846,1.604-4.654c0-1.81-0.611-3.457-1.604-4.656
		C279.175,122.188,277.747,121.421,276.167,121.421z M265.085,134.086c1.396,0.976,2.559,2.565,3.152,4.54
		c0.592,1.977,0.502,3.946-0.127,5.53c-0.605,1.524-1.711,2.688-3.17,3.127c-1.463,0.439-3.027,0.079-4.375-0.858
		c-1.396-0.977-2.559-2.566-3.15-4.541c-0.594-1.977-0.506-3.945,0.125-5.529c0.604-1.524,1.711-2.688,3.172-3.129
		C262.175,132.786,263.737,133.147,265.085,134.086z M260.272,131.759c-1.932,0.58-3.379,2.079-4.152,4.031
		c-0.752,1.895-0.869,4.221-0.176,6.531c0.695,2.313,2.076,4.191,3.746,5.355c1.725,1.202,3.756,1.655,5.686,1.076
		c1.934-0.582,3.381-2.08,4.154-4.035c0.752-1.891,0.869-4.219,0.176-6.527c-0.697-2.313-2.078-4.191-3.748-5.356
		C264.235,131.632,262.204,131.178,260.272,131.759z M249.54,112.688c0.91-0.22,1.873,0.078,2.695,0.742
		c0.883,0.712,1.6,1.835,1.949,3.202h0.002l0.018,0.073v-0.001c0.342,1.395,0.23,2.755-0.223,3.827
		c-0.428,1.002-1.154,1.742-2.082,1.978v0.001l-0.027,0.008v0.002c-0.912,0.221-1.875-0.077-2.697-0.74
		c-0.883-0.713-1.602-1.837-1.949-3.203l-0.02-0.072l0,0c-0.34-1.395-0.23-2.756,0.225-3.826c0.426-1.002,1.152-1.742,2.08-1.979
		l0.029-0.007V112.688z M249.134,111.213h-0.002c-1.414,0.363-2.5,1.431-3.109,2.865c-0.578,1.362-0.727,3.068-0.303,4.792v0.006
		l0.02,0.074v0.003c0.432,1.694,1.346,3.105,2.477,4.017c1.189,0.959,2.621,1.379,4.02,1.033h0.01l0.031-0.006h0.002
		c1.416-0.363,2.5-1.432,3.109-2.866c0.576-1.363,0.725-3.067,0.303-4.79v-0.007l-0.02-0.076v-0.003
		c-0.434-1.694-1.346-3.104-2.477-4.016c-1.188-0.959-2.621-1.377-4.021-1.033h-0.004L249.134,111.213z M292.304,131.492
		c0.736-0.157,1.516,0.129,2.205,0.736c0.768,0.675,1.414,1.728,1.795,3.021c0.063,0.208,0.117,0.427,0.166,0.656
		c0.328,1.547,0.221,3.06-0.217,4.253c-0.404,1.099-1.08,1.904-1.934,2.155c-0.047,0.016-0.098,0.026-0.156,0.039
		c-0.736,0.155-1.518-0.13-2.205-0.736c-0.768-0.675-1.414-1.728-1.797-3.021c-0.059-0.208-0.117-0.427-0.164-0.655
		c-0.328-1.547-0.223-3.062,0.219-4.254c0.402-1.099,1.078-1.904,1.932-2.156C292.194,131.517,292.247,131.503,292.304,131.492z
		 M291.716,130.062c-1.346,0.398-2.373,1.553-2.939,3.098c-0.533,1.448-0.668,3.264-0.277,5.1c0.055,0.258,0.121,0.516,0.195,0.77
		c0.467,1.58,1.279,2.885,2.252,3.739c1.051,0.927,2.295,1.347,3.539,1.083c0.084-0.018,0.172-0.039,0.266-0.066
		c1.346-0.397,2.373-1.552,2.941-3.098c0.531-1.448,0.666-3.262,0.279-5.098c-0.059-0.26-0.125-0.517-0.197-0.77
		c-0.467-1.58-1.279-2.885-2.252-3.74c-1.051-0.926-2.297-1.348-3.537-1.086C291.901,130.013,291.812,130.035,291.716,130.062z
		 M257.925,158.357c0.189,0.64,0.344,1.253,0.465,1.729v0.004l0.084,0.327h0.002c0.088,0.341,0.16,0.598,0.229,0.849
		c0.34,1.209,0.619,2.213,0.186,2.708c-0.379,0.43-0.859,0.672-1.395,0.765c-0.674,0.114-1.441-0.004-2.217-0.298
		c-0.816-0.312-1.627-0.813-2.34-1.442c-1.178-1.03-2.088-2.394-2.328-3.813c-0.273-1.604-0.158-3.155,0.285-4.363
		c0.391-1.062,1.027-1.836,1.857-2.079C255.603,151.899,257.132,155.67,257.925,158.357z M252.325,151.274
		c-1.334,0.393-2.311,1.512-2.863,3.018c-0.533,1.449-0.68,3.279-0.359,5.146c0.303,1.784,1.408,3.469,2.828,4.715
		c0.854,0.749,1.822,1.347,2.803,1.721c1.02,0.387,2.061,0.54,3.014,0.378c0.873-0.15,1.666-0.554,2.293-1.271
		c0.98-1.113,0.6-2.477,0.141-4.121c-0.08-0.288-0.166-0.585-0.225-0.817h0.004l-0.084-0.328l0,0
		c-0.121-0.48-0.275-1.088-0.482-1.788C258.423,154.636,256.462,150.052,252.325,151.274z M283.005,105.083
		c0.504-0.355,1.195-0.385,1.943-0.139c0.855,0.28,1.766,0.906,2.58,1.82c0.227,0.251,0.447,0.528,0.664,0.835
		c0.914,1.3,1.447,2.729,1.563,3.991c0.111,1.154-0.127,2.138-0.729,2.677c-0.043,0.04-0.09,0.078-0.146,0.117
		c-0.504,0.355-1.195,0.385-1.943,0.138c-0.855-0.279-1.764-0.906-2.582-1.82c-0.225-0.25-0.445-0.529-0.662-0.836
		c-0.916-1.299-1.447-2.729-1.564-3.989c-0.109-1.155,0.127-2.138,0.729-2.677C282.897,105.163,282.944,105.122,283.005,105.083z
		 M281.837,104.062c-0.986,0.881-1.383,2.329-1.232,3.951c0.143,1.518,0.766,3.217,1.836,4.734c0.24,0.342,0.5,0.666,0.775,0.975
		c1.002,1.118,2.146,1.895,3.248,2.256c1.203,0.396,2.371,0.311,3.295-0.342l0.004-0.002c0.092-0.066,0.186-0.143,0.285-0.229
		c0.982-0.881,1.383-2.329,1.229-3.951c-0.141-1.519-0.762-3.217-1.834-4.736c-0.24-0.34-0.498-0.665-0.775-0.972
		c-1.002-1.119-2.145-1.897-3.246-2.259c-1.207-0.396-2.373-0.309-3.297,0.343C282.03,103.896,281.937,103.972,281.837,104.062z
		 M267.993,65.302c-3.992-0.306-7.986-0.611-12.613,0.461l-0.352,0.08l-0.162,0.32c-3.184,6.304-3.641,9.741-4.396,15.466
		c-0.152,1.146-0.316,2.391-0.549,3.95l-0.094,0.665l0.65,0.183c0.723,0.202,1.418,0.683,1.998,1.368
		c0.584,0.691,1.045,1.583,1.297,2.607c0.342,1.396,0.23,2.758-0.227,3.832c-0.422,1.002-1.15,1.741-2.076,1.978
		c-0.475,0.122-0.959,0.104-1.426-0.029c-0.504-0.146-1.002-0.433-1.455-0.835l-0.861-0.76l-0.369,1.093
		c-1.73,5.132-3.01,9.168-4.07,13.264c-1.063,4.1-1.9,8.25-2.75,13.609l-0.102,0.645l0.619,0.203
		c0.07,0.023,0.146,0.053,0.227,0.087v-0.002c0.066,0.028,0.137,0.062,0.209,0.102l0.027,0.015l-0.002,0.002
		c0.82,0.459,1.32,1.332,1.469,2.379c0.16,1.127-0.082,2.438-0.756,3.675l-0.039,0.064l0,0c-0.455,0.813-1.041,1.487-1.689,1.989
		c-0.652,0.506-1.367,0.836-2.064,0.957l-0.492,0.084l-0.123,0.486l-2.471,9.736l-0.264,1.041l1.07-0.09
		c0.709-0.063,1.414-0.003,2.051,0.172c0.598,0.166,1.137,0.436,1.572,0.807c0.203,0.174,0.371,0.365,0.508,0.565
		c0.303,0.45,0.426,0.952,0.375,1.455c-0.053,0.525-0.289,1.061-0.709,1.55c-0.236,0.273-0.529,0.535-0.883,0.771
		c-0.674,0.457-1.459,0.752-2.264,0.893c-0.84,0.146-1.697,0.121-2.469-0.072l-0.742-0.187l-0.186,0.743l-3.656,14.391l-0.135,0.536
		l0.475,0.3c0.928,0.579,1.871,1.125,2.828,1.631c13.023,6.9,31.143,8.669,47.943,5.596c16.834-3.08,32.385-11.024,40.23-23.547
		c0.473-0.754,0.91-1.508,1.309-2.262l0.186-0.348l-0.184-0.355l-4.334-8.479l-0.664-1.299l-0.691,1.284
		c-0.316,0.589-0.744,1.052-1.217,1.333c-0.42,0.246-0.869,0.348-1.305,0.26v-0.001l-0.016-0.005c-0.553-0.119-1-0.613-1.279-1.258
		c-0.318-0.722-0.424-1.6-0.264-2.386l0.002,0.001l0.006-0.037c0.174-0.799,0.445-1.332,0.785-1.705
		c0.332-0.361,0.754-0.588,1.229-0.762l0.553-0.205l-0.055-0.586c-0.34-3.604-1.379-4.896-2.736-6.588
		c-0.699-0.87-1.488-1.855-2.295-3.369l-0.328-0.615l-0.641,0.268c-1.002,0.42-2.184,0.223-3.291-0.408
		c-1.219-0.692-2.334-1.896-3.057-3.391c-0.705-1.455-0.936-2.947-0.752-4.24c0.178-1.252,0.746-2.307,1.645-2.924l0.41-0.28
		l-0.09-0.487l-0.113-0.621c-0.475-2.619-0.697-3.836-1.256-4.93c-0.488-0.959-1.174-1.703-2.453-3.094
		c-0.375-0.409-0.811-0.882-1.346-1.479l-0.605-0.672l-0.563,0.707c-0.229,0.283-0.49,0.527-0.781,0.721l0.002,0.002
		c-0.273,0.182-0.572,0.316-0.896,0.4v0.001l-0.029,0.007v0.001c-1.01,0.245-2.076-0.083-2.986-0.817
		c-0.965-0.78-1.754-2.01-2.137-3.507l-0.02-0.078h-0.002c-0.35-1.438-0.262-2.847,0.166-3.988c0.412-1.09,1.133-1.928,2.064-2.285
		l0.795-0.307l-0.389-0.758l-8.783-17.179l-0.322-0.627l-0.648,0.27c-1.115,0.458-2.455,0.395-3.775-0.121
		c-1.352-0.527-2.666-1.52-3.711-2.908c-0.381-0.507-0.701-1.039-0.965-1.584c-0.268-0.553-0.471-1.119-0.611-1.682l-0.146-0.583
		l-0.604,0.005C271.923,65.603,269.956,65.452,267.993,65.302z M273.333,67.114c-1.881-0.012-3.668-0.148-5.455-0.286
		c-3.775-0.288-7.553-0.577-11.807,0.347c-2.928,5.874-3.365,9.191-4.086,14.651c-0.141,1.066-0.293,2.211-0.457,3.357
		c0.781,0.346,1.506,0.902,2.119,1.623c0.727,0.863,1.299,1.971,1.609,3.236c0.426,1.723,0.277,3.429-0.303,4.791
		c-0.607,1.435-1.691,2.504-3.107,2.865c-0.738,0.188-1.492,0.161-2.219-0.048c-0.398-0.115-0.783-0.281-1.15-0.498
		c-1.557,4.643-2.73,8.389-3.709,12.176c-1.012,3.899-1.814,7.85-2.627,12.877l0.088,0.045l0.006,0.004l0.029,0.017h0.002
		c1.262,0.706,2.02,1.991,2.234,3.506c0.203,1.435-0.092,3.086-0.934,4.62l-0.004,0.006l-0.035,0.068v0.002
		c-0.561,0.996-1.285,1.826-2.094,2.45c-0.703,0.545-1.469,0.935-2.242,1.146l-2.111,8.314c0.527,0.026,1.043,0.109,1.537,0.246
		c0.807,0.226,1.547,0.599,2.154,1.114c0.314,0.271,0.576,0.563,0.785,0.874c0.51,0.751,0.715,1.604,0.629,2.46
		c-0.084,0.836-0.445,1.663-1.072,2.395c-0.326,0.382-0.723,0.735-1.189,1.051c-0.855,0.578-1.85,0.955-2.861,1.131
		c-0.783,0.136-1.584,0.15-2.35,0.047l-3.336,13.149c0.721,0.439,1.475,0.865,2.258,1.283c12.723,6.741,30.467,8.459,46.953,5.442
		c16.449-3.006,31.611-10.722,39.211-22.853c0.367-0.583,0.723-1.19,1.064-1.817l-3.582-7.004c-0.307,0.332-0.648,0.61-1.008,0.822
		c-0.736,0.436-1.564,0.609-2.391,0.441h-0.006l-0.02-0.006c-1.078-0.233-1.893-1.073-2.365-2.146
		c-0.436-0.995-0.58-2.211-0.354-3.303v-0.004l0.006-0.039v-0.004c0.238-1.095,0.639-1.859,1.156-2.422
		c0.379-0.412,0.809-0.704,1.271-0.93c-0.348-2.729-1.225-3.82-2.346-5.219c-0.65-0.809-1.375-1.713-2.139-3.045
		c-1.297,0.313-2.693,0.025-3.98-0.708c-1.477-0.841-2.82-2.279-3.68-4.056c-0.842-1.736-1.113-3.54-0.887-5.115
		c0.209-1.49,0.857-2.787,1.889-3.67l-0.027-0.164c-0.447-2.467-0.654-3.613-1.109-4.504c-0.391-0.762-1.029-1.457-2.219-2.752
		c-0.25-0.271-0.521-0.564-0.807-0.88c-0.162,0.146-0.336,0.278-0.514,0.397h-0.004c-0.416,0.278-0.873,0.486-1.365,0.611h-0.004
		l-0.037,0.01h-0.002c-1.5,0.366-3.033-0.082-4.305-1.109c-1.217-0.98-2.199-2.498-2.668-4.322v-0.003l-0.02-0.083v-0.005
		c-0.426-1.747-0.313-3.475,0.221-4.893c0.451-1.201,1.207-2.189,2.191-2.801l-8.135-15.907c-1.328,0.355-2.809,0.226-4.242-0.334
		c-1.6-0.625-3.152-1.792-4.373-3.418c-0.447-0.592-0.82-1.209-1.121-1.834C273.667,68.048,273.481,67.581,273.333,67.114z"/>
	<path fill="#FAA54C" d="M265.384,92.512c1.943-0.486,4.031,1.172,4.666,3.706c0.635,2.533-0.428,4.979-2.369,5.465
		c-1.941,0.487-4.031-1.172-4.664-3.705C262.384,95.445,263.442,92.999,265.384,92.512z M276.167,122.187
		c2.688,0,4.867,2.641,4.867,5.898c0,3.256-2.18,5.896-4.867,5.896c-2.689,0-4.871-2.641-4.871-5.896
		C271.296,124.827,273.478,122.187,276.167,122.187z M260.491,132.493c3.395-1.021,7.189,1.627,8.479,5.914
		c1.287,4.287-0.42,8.591-3.813,9.611c-3.393,1.02-7.191-1.629-8.479-5.916S257.099,133.513,260.491,132.493z M249.319,111.956
		c2.344-0.599,4.865,1.444,5.627,4.564c0.766,3.119-0.514,6.135-2.857,6.732c-2.342,0.6-4.861-1.443-5.627-4.563
		C245.696,115.57,246.978,112.556,249.319,111.956z M291.931,130.796c2.203-0.649,4.568,1.566,5.289,4.951
		c0.717,3.382-0.484,6.651-2.686,7.303c-2.203,0.649-4.568-1.566-5.287-4.95C288.53,134.716,289.731,131.446,291.931,130.796z
		 M252.542,152.008c4.465-1.32,6.074,5.882,6.674,8.222c0.465,1.801,1.09,3.291,0.25,4.246c-2.631,2.994-8.863-0.783-9.609-5.166
		C249.276,155.899,250.341,152.657,252.542,152.008z M282.347,104.628c1.586-1.42,4.482-0.287,6.469,2.531s2.309,6.256,0.721,7.678
		c-1.588,1.421-4.484,0.288-6.471-2.531C281.081,109.489,280.757,106.051,282.347,104.628z M273.913,66.349
		c-6.121,0.054-11.594-1.408-18.363,0.16c-3.797,7.509-3.646,10.895-4.869,19.181c1.721,0.48,3.264,2.208,3.836,4.531
		c0.764,3.121-0.518,6.135-2.859,6.733c-1.236,0.316-2.523-0.104-3.572-1.031c-3.457,10.238-5.1,16.08-6.791,26.75
		c0.195,0.066,0.385,0.147,0.566,0.248c2.123,1.162,2.568,4.375,0.998,7.176c-1.033,1.843-2.682,3.047-4.295,3.327l-2.471,9.739
		c1.563-0.134,3.121,0.254,4.182,1.16c1.818,1.557,1.471,4.046-0.777,5.563c-1.557,1.053-3.621,1.357-5.348,0.927l-3.654,14.392
		c25.787,16.161,76.709,9.119,91.23-18.287l-4.336-8.48c-0.754,1.405-2.074,2.24-3.352,1.979c-1.656-0.34-2.551-2.699-2.143-4.594
		c0.408-1.892,1.346-2.601,2.5-3.027c-0.496-5.271-2.604-5.279-4.945-9.669c-2.51,1.051-5.773-0.948-7.332-4.173
		s-0.996-6.656,1.152-8.129c-1.117-6.132-0.809-5.103-4.986-9.748c-0.547,0.688-1.256,1.18-2.086,1.392
		c-2.539,0.651-5.273-1.566-6.104-4.95c-0.783-3.202,0.416-6.3,2.701-7.175c-2.93-5.727-5.857-11.452-8.785-17.179
		c-2.584,1.064-6.102-0.234-8.391-3.275C274.784,68.769,274.21,67.55,273.913,66.349z"/>
	<path d="M241.196,170.174c1.535,0.204,2.82,0.582,5.982,1.224c2.252,0.454,7.693,1.225,11.109,1.457
		c6.031,0.41,22.539-0.636,26.439-5.915c2.584-3.501,1.139-7.534,1.139-11.651c0.117,3.012,3.453,8.449,6.57,9.535
		c2.057,0.715,7.535-0.358,11.945-2.206c1.426-0.598,5.807-3.26,9.389-5.506C296.515,173.117,264.112,177.852,241.196,170.174z"/>
	<path fill="none" stroke="#000000" stroke-width="0.1886" stroke-miterlimit="22.926" d="M241.196,170.174
		c1.535,0.204,2.82,0.582,5.982,1.224c2.252,0.454,7.693,1.225,11.109,1.457c6.031,0.41,22.539-0.636,26.439-5.915
		c2.584-3.501,1.139-7.534,1.139-11.651c0.117,3.012,3.453,8.449,6.57,9.535c2.057,0.715,7.535-0.358,11.945-2.206
		c1.426-0.598,5.807-3.26,9.389-5.506"/>
	<path fill="none" stroke="#000000" stroke-width="0.6191" stroke-miterlimit="22.926" d="M257.222,66.671
		c3.961,9.132,6.58,16.372,8.498,25.779 M278.411,133.32c5.018,12.392,7.617,22.212,11.061,35.402L278.411,133.32z M268.167,101.512
		c1.98,7.895,3.621,13.461,6.588,20.927L268.167,101.512z"/>
	<path d="M298.364,179.279c-0.256,0.096-0.494,0.193-0.713,0.286c-3.146,1.351-5.002,2.887-5.861,4.595l0.002,0.003
		c-0.842,1.677-0.73,3.558,0.055,5.631c0.029,0.075,0.057,0.146,0.084,0.211c0.805,1.865,2.629,3.098,4.973,3.597
		c2.41,0.514,5.367,0.256,8.35-0.875c0.27-0.102,0.527-0.206,0.77-0.31c3.41-1.467,6.5-3.481,8.387-5.694
		c1.574-1.846,2.287-3.821,1.582-5.68c-0.016-0.042-0.029-0.08-0.045-0.114c-0.803-1.867-3.57-2.869-6.918-3.129
		C305.577,177.533,301.548,178.071,298.364,179.279z"/>
	<path fill="#AD0637" d="M297.458,179.111c6.52-2.799,17.316-2.645,18.988,1.759c1.67,4.401-3.719,9.201-10.234,12.001
		c-6.516,2.801-13.152,1.502-14.822-2.9C289.722,185.565,290.942,181.911,297.458,179.111z"/>
	<path fill="#FFFFFF" d="M313.282,187.353c-1.34,0.865-2.684,1.965-3.982,3.285c-2.971,3.027-5.096,6.632-6.135,10.01
		c-1.02,3.315-0.988,6.393,0.338,8.442c0.211,0.321,0.443,0.608,0.701,0.863c1.113,1.092,2.688,1.543,4.496,1.395
		c1.873-0.154,3.99-0.943,6.127-2.324c1.338-0.864,2.684-1.966,3.98-3.286c2.969-3.027,5.098-6.631,6.137-10.008
		c1.02-3.317,0.988-6.394-0.34-8.444v0.001c-0.207-0.322-0.443-0.611-0.699-0.861c-1.115-1.094-2.688-1.546-4.5-1.395
		C317.534,185.183,315.417,185.973,313.282,187.353z M308.601,189.949c1.344-1.369,2.746-2.514,4.148-3.421
		c2.275-1.471,4.553-2.313,6.582-2.479c2.09-0.173,3.93,0.369,5.262,1.675c0.307,0.302,0.586,0.645,0.834,1.028v0.002
		c1.492,2.308,1.555,5.678,0.453,9.263c-1.078,3.52-3.293,7.268-6.373,10.409c-1.346,1.369-2.748,2.513-4.152,3.42
		c-2.275,1.472-4.549,2.313-6.578,2.482c-2.094,0.17-3.93-0.37-5.264-1.677c-0.307-0.302-0.586-0.645-0.832-1.026v-0.002
		c-1.494-2.309-1.559-5.679-0.457-9.264C303.308,196.839,305.519,193.091,308.601,189.949z"/>
	<path d="M339.595,171.126c-0.287-0.044-2.576-1.828-3.861-2.83v-0.001c-0.383-0.295-0.678-0.524-0.766-0.592
		c-0.791-0.602-1.982-1.431-3.643-1.909c-1.658-0.479-3.795-0.611-6.496,0.166c-0.631,0.299-1.139,0.54-1.568,0.747
		c-1.16,0.561-1.762,0.851-2.414,1.066v-0.001c-0.623,0.205-1.258,0.337-2.422,0.561c1.041,0.247,2.166,0.563,2.557,0.999
		c0.273,0.308,0.207,0.599-0.098,0.872v0.003c-0.332,0.297-1.244,0.629-1.881,0.859l-0.027,0.012
		c0.23,0.127,0.559,0.298,0.906,0.476c1.047,0.542,2.236,1.153,2.404,1.894c0.145,0.646-0.334,1.205-1.938,1.563
		c-0.154,0.036-0.291,0.162-0.453,0.324c-0.414,0.397-0.951,0.92-2.398,1.194c-0.781,4.096-0.857,4.14-2.072,4.819
		c-0.369,0.206-0.867,0.484-1.584,1.061c0.141,0.019,0.273,0.032,0.402,0.046c0.393,0.037,0.727,0.046,1.006,0.037l0,0
		c0.633-0.018,1.029-0.138,1.373-0.237c0.482-0.144,0.877-0.261,1.582-0.133h0.002c0.248,0.046,0.309,0.146,0.402,0.31v-0.003
		c0.064,0.11,0.221,0.379,1.355,0.715c0.316,0.096,0.563-0.108,0.783-0.288c0.549-0.454,1.014-0.838,1.822,0.057v0.002
		c1.248,1.373,0.664,2.245-0.23,3.057c-0.105,0.094-0.266,0.229-0.424,0.361c-0.393,0.332-0.793,0.669-0.969,1.021l0,0
		c-0.953,1.941-1.717,3.576-2.33,5.272c-0.588,1.644-1.035,3.352-1.377,5.465c0.396-0.129,1.164-0.55,2.074-1.054
		c2.074-1.144,4.844-2.668,6.959-2.408c0.865,0.106,1.043,0.289,1.449,0.702c0.049,0.051,0.102,0.102,0.158,0.16
		c0.023,0.022,0.051,0.045,0.078,0.062c0.141,0.09,0.32,0.074,0.504,0.004c0.25-0.096,0.5-0.281,0.693-0.479
		c0.102-0.104,0.188-0.206,0.244-0.297l-0.004-0.001c0.48-0.741,0.832-1.508,1.105-2.264c0.283-0.775,0.49-1.546,0.682-2.278
		l0.105-0.408l0.418,0.042c0.826,0.086,0.955,0.695,0.873,1.497c-0.025,0.236-0.064,0.472-0.109,0.711
		c-0.125,0.746-0.266,1.572,0.201,1.691l0.297,0.074l0.064,0.301l0.002,0.009l0.006,0.035c0.01,0.077,0.039,0.548,0.016,1.173
		c-0.023,0.623-0.102,1.42-0.293,2.184c-0.17,0.668-0.428,1.318-0.814,1.835c0.465-0.147,0.967-0.396,1.426-0.805
		c0.82-0.732,1.551-2.575,2.049-3.823c0.09-0.225,0.17-0.431,0.227-0.564c0.17-0.413,0.414-0.525,0.73-0.394l0,0
		c0.354,0.147,0.361,0.617,0.373,1.237c0.012,0.559,0.02,1.306,0.135,1.708c0.143-0.2,0.393-0.6,0.67-1.039
		c0.406-0.653,0.869-1.386,1.258-1.837c1-1.157,1.842-1.964,2.525-2.478c0.889-0.674,1.582-0.888,2.057-0.759
		c0.361,0.098,0.625,0.414,0.834,0.979c0.154,0.428,0.295,1.042,0.447,1.868c0.051,0.276,0.064,0.563,0.066,0.865
		c0.387-0.904,0.896-1.944,1.508-2.738c0.66-0.864,1.775-1.176,2.391-1.292c-0.068-2.839,0.453-4.226,0.947-5.531
		c0.291-0.774,0.572-1.516,0.691-2.54c0.01-0.09-0.059-0.003-0.133-0.156c-0.418-0.842-1.402-2.837-1.541-5.99
		c-0.014-0.324-0.336-0.65-0.639-0.96c-0.139-0.138-0.275-0.273-0.387-0.413v-0.001c-1.205-1.443-2.572-1.754-3.563-1.978
		c-0.494-0.11-0.904-0.204-1.234-0.402c-1.16-0.696-0.865-2.098,2.348-7.462c0.109-0.183,0.27-0.511,0.461-0.927
		c-1.873,2.725-3.674,4.808-4.711,6.003c-0.416,0.479-0.703,0.811-0.803,0.959l-0.174,0.265L339.595,171.126z"/>
	<path fill="#E49846" d="M358.265,139.056c0.654,4.563,4.84,11.617,10.57,8.24c2.271-1.338,3.652-4.442,3.506-7.023
		c-0.232-4.096-3.945-7.084-6.34-3.875c-1.08,1.443,0.148,3.479,0.256,4.694c0.199,2.256-1.717,3.079-3.186,2.163
		c-1.053-0.653-1.723-2.466-1.945-4.064c-1.834-13.063,0.635-26.933-1.582-40.417c-3.139-19.076-12.949-37.101-34.213-48.537
		c-14.076-7.57-27.346-12.382-43.285-12.388c-5.883,0-11.494,0.768-16.502,1.861c-0.463,0.103-0.908,0.194-1.324,0.289
		c-0.666,0.149-1.854,1.154,0.977,0.623c0.883-0.164,1.867-0.134,2.92-0.201c12.299-0.775,17.92-0.343,24.654,1.097
		c3.951,0.845,8.01,1.54,14.063,3.927c30.945,12.2,47.291,35.895,50.045,67.788C357.56,121.151,356.894,129.556,358.265,139.056z"/>
	<path fill="#AD0637" d="M309.054,190.452c5.932-6.047,12.98-7.481,15.742-3.211c2.76,4.275,0.191,12.637-5.74,18.686
		c-5.934,6.044-12.982,7.479-15.742,3.207C300.548,204.861,303.12,196.497,309.054,190.452z"/>
	<path fill="#E49846" d="M339.673,170.642c-0.205-0.03-3.863-2.914-4.412-3.33c-1.646-1.25-4.961-3.45-10.607-1.813
		c-4.52,2.138-3.223,1.75-8.137,2.699c-1.043,0.2,3.42,0.7,4.1,1.46c0.254,0.284-1.705,0.901-2.25,1.124
		c-1.535,0.623,6.799,2.648,1.877,3.75c-0.82,0.183-0.742,1.213-3.164,1.567c-1.186,6.253-0.699,3.266-4.354,6.627
		c1.135,0.216,1.939,0.276,2.541,0.257c1.498-0.047,1.752-0.579,2.852-0.38c0.117,0.02,0.02,0.51,1.705,1.011
		c1.223,0.365,1.453-1.398,2.383-0.374c1.689,1.864-1.035,2.548-1.697,3.897c-1.924,3.909-3.082,6.599-3.781,11.05
		c-0.311,1.979,5.844-3.518,9.484-3.072c0.805,0.1,0.869,0.275,1.324,0.723c0.732,0.717,1.871-0.168,2.275-0.795
		c1-1.546,1.457-3.188,1.844-4.685c1.299,0.134-0.799,3.462,0.896,3.888c0.02,0.005,0.346,5.324-2.416,5.694
		c-0.445,0.059,1.83,0.545,3.563-1.002c1.047-0.932,1.898-3.339,2.402-4.564c0.383-0.935-0.217,3.575,0.926,2.916
		c0.334-0.189,1.42-2.249,2.158-3.104c2.094-2.426,3.463-3.253,4.082-3.085c0.389,0.106,0.639,0.864,0.93,2.462
		c0.139,0.771-0.043,1.755,0.168,2.934c0.051,0.288,0.914-2.821,2.275-4.6c0.814-1.06,2.508-1.154,2.508-1.175
		c-0.211-4.874,1.287-5.556,1.617-8.43c0.027-0.235-1.498-2.303-1.668-6.224c-0.029-0.689-0.727-1.168-1.143-1.666
		c-3.674-4.405-6.996,1.39-0.348-8.484c2.211-3.283-0.262-4.453,0.354-5.569l-1.105,2.245
		C343.854,167.358,340.101,169.986,339.673,170.642z"/>
	<path fill="#E49846" d="M219.464,58.65c2.283-4.004,3.316-12.14-3.277-12.997c-2.615-0.338-5.609,1.262-7.08,3.39
		c-2.332,3.373-1.24,8.013,2.621,6.952c1.738-0.477,2.02-2.836,2.682-3.861c1.229-1.902,3.246-1.376,3.844,0.25
		c0.428,1.164-0.158,3.002-0.963,4.402c-6.578,11.434-17.432,20.365-23.584,32.862c-8.445,17.168-10.379,38.312-0.625,60.397
		c4.1,9.282,8.08,16.583,13.795,23.673c0.715,0.89,1.789,2.183,2.727,2.727c3.586,2.083,0.125-1.25-0.57-2.311
		c-0.773-1.176-1.963-2.803-2.48-3.597c-1.238-1.905-2.326-3.175-4.014-6.428c-15.217-29.355-13.529-56.516,2.156-84.233
		C208.61,72.96,214.71,66.987,219.464,58.65z"/>
	<path fill="#FFFFFF" d="M301.118,180.236c2.523-0.279,3.9,0.392,4.066,1.189c-9.18,3.295-9.756,7.258-9.756,7.258
		s-1.738-0.248-2.02-1.72C292.897,184.27,298.491,180.528,301.118,180.236z"/>
	<path fill="#FFFFFF" d="M313.978,189.898c1.672-0.735,2.09,0.767,2.09,0.767s-7.637,6.907-7.172,11.94
		c-0.465,0.518-3.572-0.151-4.016-2.207C305.442,197.74,311.501,190.989,313.978,189.898z"/>
	<path fill="#FFFFFF" d="M293.983,198.666c0.275,0.512-0.389,1.055,0.412,1.83c-5.635,0.439-12.205,8.323-12.205,8.323l-0.805-2.926
		C281.386,205.894,285.079,198.89,293.983,198.666z"/>
	<path fill="#FFFFFF" d="M272.761,197.911c1.008,0.592,1.713,1.227,2.166,2.603c-7.219-0.135-10.467,2.674-11.404,3.974
		c-1.732,0.067-1.875-1.85-1.875-1.85S267.347,196.883,272.761,197.911z"/>
	<path fill="#E49846" d="M238.011,198.933c1.408,1.448,1.893,1.81,2.506,2.246c1.662,1.183,6.039,3.363,7.23,1.698
		c1.309-2.798-1.594-4.672-5.229-5.308c-3.559-0.623-4.133,2.105-10.713,3.351c-0.635-0.001-0.389-0.471-0.111-0.504
		c5.342-0.639,6.768-4.724,11.928-3.566c3.611,0.81,6.594,3.317,5.166,6.708c-1.875,2.591-8.023-0.583-9.496-1.831
		c-1.066-0.904-2.342-2.505-3.176-3.852c-0.043-0.071,1.117,0.531,1.426,0.595L238.011,198.933z"/>
	<path fill="#FFFFFF" d="M344.786,171.046c0,0-3.451-0.811-4.559-0.066c-1.26,0.846-3.713,0.881-3.713,0.881
		s-4.227-2.195-3.369-1.825c0.854,0.367-3.441-1.256-3.441-1.256l-0.004,0.171c0,0,5.656,2.315,5.449,2.713
		c-0.449,0.633-6.955-0.447-6.955-0.447l-0.004,0.272c0,0,4.219,0.788,5.756,0.898c1.535,0.109,4.689,0.156,4.689,0.156
		l-2.447,3.108l-2.516,0.234l-2.688-0.274l-5.527-0.585c0,0-1.418-1.615-3.08-1.334c-0.246,0.067-0.436,0.36,0.234,0.368
		c1.205-0.097,1.973,1.192,1.973,1.192s-2.891,0.96-3.326,1.036c-0.176,0.148-0.379,0.309-0.012,0.387
		c0.363,0.077,4.082-1.277,6.639-0.69c0.824,0.296-3.789,1.446-3.867,1.56c-0.082,0.113-0.367,0.18-0.012,0.384
		c1.473,0.17,4.338-1.66,5.197-1.584c0.861,0.08,4.422,0.364,4.422,0.364l2.465-0.261c0,0-0.236,1.321-1.297,3.086
		c-0.896,1.581-4.813,6.266-6.098,7.983s-0.939,3.699-0.939,3.699l0.541,0.056c0,0-0.141-2.304,1.078-3.652
		c1.338-1.484,4.334-5.227,4.334-5.227s0.174,1.311,0.047,2.394c-0.125,1.082-1.475,3.043-1.617,3.561
		c-0.141,0.516-0.037,1.544-0.037,1.544l0.4,0.161c0,0-0.066-0.529,0.109-1.435c0.18-0.905,1.215-1.829,1.592-2.949
		c0.391-1.153,0.309-4.306,0.309-4.306s1.977-2.574,2.369-5.04c0.789-1.61,2.193-3.221,2.193-3.221s0.012,3.502,2.074,4.47
		c0.99,0.546,0.811,0.623,1.367,1.103c0.684,0.587,0.65,0.609,0.73,1.355c0.084,0.744-1.109,3.093-1.184,3.495
		c-0.076,0.402-0.301,1.476-0.301,1.476l0.449-0.033c0,0,0.1-1.021,0.262-1.415c0.166-0.393,0.34-0.925,0.977-2.224
		s1.037,0.498,1.037,0.498l0.438,2.371l0.531,0.305l-0.531-3.264c0,0-1.627-2.985-2.725-3.65c-0.379-0.229,0.785-0.378,1.648,0.358
		c1.357,1.157,3.477,2.937,3.967,2.813c0.545-0.214,0.439-0.04,0.236-0.154c-1.971-1.085-2.09-1.772-3.893-3.153
		c-1.273-0.973-2.301-0.316-2.82-0.665c-0.398-0.271-0.719-0.791-0.719-0.791s-0.682-0.67-0.754-2.161
		c-0.068-1.49,1.088-2.039,1.584-2.211c0.49-0.174,2.771,0.638,2.771,0.638L344.786,171.046z"/>
	<path fill="#E49846" d="M346.331,161.453c0.611-1.627,3.941-2.156,4.592-2.195c3.213-0.649,2.348-5.665,1.205-5.342
		c-0.404,0.164-4.834,3.16-6.174,5.133C344.474,161.222,345.722,163.08,346.331,161.453z"/>
</g>
<g>
	<g>
		<path fill="#AD0637" d="M471.374,351.316c0.025,0.113,0.051,0.216,0.078,0.338h0.006
			C471.438,351.572,471.409,351.451,471.374,351.316z"/>
		<path fill="#AD0637" d="M471.522,347.161c-0.236,0.32-0.371,0.593-0.479,0.883c-0.074,0.207-0.146,0.423-0.168,0.699
			c-0.004,0.061,0.016,0.118,0.016,0.177c0.002-0.611,0.221-1.211,0.898-2.13c0.035-0.048,0.084-0.096,0.125-0.141
			c-0.037,0.038-0.074,0.075-0.117,0.125C471.714,346.876,471.62,347.021,471.522,347.161z"/>
		<path fill="#AD0637" d="M471.97,346.592c0.004-0.006,0.008-0.01,0.014-0.016c-0.025,0.025-0.045,0.05-0.068,0.073
			C471.935,346.632,471.956,346.612,471.97,346.592z"/>
		<path fill="#AD0637" d="M472.038,346.515c0.008-0.011,0.018-0.037,0.031-0.062c-0.02,0.037-0.053,0.079-0.086,0.125
			C472.003,346.558,472.019,346.538,472.038,346.515z"/>
		<path fill="#AD0637" d="M470.938,349.585c0.035,0.17,0.068,0.341,0.107,0.515c0,0.01,0.016,0.01,0.018,0.017
			c0.074,0.322,0.213,0.829,0.311,1.2c-0.191-0.817-0.373-1.411-0.449-1.927C470.933,349.455,470.925,349.519,470.938,349.585z"/>
		<path fill="#AD0637" d="M52.646,292.8c-8.191-1.717-15.342,6.487-18.693,13.875c-4.373,9.639-1.375,37.669,5.26,45.214
			c0.52,0.591,4.285,1.182,3.758-2.049c-0.531-3.266-3.076-11.103-4.115-18.709c-0.955-6.976-0.049-13.896-0.041-16.299
			c0.004-0.471,6.148,4.233,12.484,6.709c4.777,1.869,9.549,2.165,11.527,2.105c0.035,0.096-2.596,22.395-1.322,24.945
			c0.828,1.669,0.982,1.675,1.996,0.119c2.248-3.438,4.336-13.193,5.453-22.21c1.035-8.362,1.867-13.795-1.51-21.802
			C64.937,298.762,59.364,294.212,52.646,292.8z M62.88,316.056c-0.326,0.319-5.229-0.208-10.428-1.861
			c-6.658-2.113-13.838-5.721-12.859-7.963c2.723-6.25,13.143-8.143,17.863-4.756C62.604,305.168,65.271,313.71,62.88,316.056z"/>
		<path fill="#AD0637" d="M122.569,322.158c-3.992-5.295-10.836-7.204-15.99-5.744c-6.934,1.963-10.643,8.899-11.822,14.43
			c-0.768,3.604,0.066,6.823-0.049,6.954c-0.268,0.302-5.248-13.905-3.34-13.965c4.109-0.129,12.732-9.359,16.561-16.285
			c5.654-10.234,16.326-46.658,0.416-51.438c-15.057-4.525-23.363,16.272-25.967,35.457c-0.572,4.219-0.67,8.379-0.57,12.171
			c0.252,9.457,0.99,15.138,3.781,24.316c0.785,2.195,1.645,4.48,2.475,6.711c2.303,6.185,7.105,12.494,11.449,15.998
			c6.299,5.074,14.941,5.282,19.971,1.431c4.969-3.808,7.344-11.098,6.504-18.415C125.462,329.201,124.778,325.087,122.569,322.158z
			 M88.763,317.917c-3.896-2.51-3.037-20.195-2.166-25.626c1.729-10.784,6.463-24.786,14.059-30.382
			c5.109-3.764,9.092,2.656,10.141,8.53C113.925,287.93,95.45,322.22,88.763,317.917z M108.978,348.745
			c-16.932-1.852-9.549-29.087,2.9-26.436c6.059,1.288,8.99,10.442,9.109,15.123C121.132,343.354,117.321,349.659,108.978,348.745z"
			/>
		<path fill="#AD0637" d="M448.804,236.258c-1.654,0.188,0.709,7.562,0.271,17.04c-0.186,3.968-1.088,10.732-4.076,17.935
			c-4.955,11.939-10.641,21.095-15.373,20.514c-1.814-0.223-2.262-8.159-2.293-10.049c-0.063-3.854-0.293-4.181-0.406-8.289
			c-0.227-8.222-1.732-16.762-2.854-20.11c-1.709-5.104-3.342-8.23-5.002-7.141c-1.768,1.158-0.934,5.497-0.256,11.004
			c0.719,5.88,3.105,22.253,2.49,43.495c-0.588,20.365-3.594,35.876-3.447,45.938c0.109,7.765,3.98,8.286,5.455,1.124
			c1.57-7.63,5.059-42.847,6.459-42.975c1.559-0.146,5.096,1.701,7.441,6.33c3.377,6.669,5.422,16.909,5.43,27.842
			c0.006,4.923,0,11.544,2.559,14.696c1.861,2.294,3.949-1.593,3.824-4.862c-0.137-3.469-1.387-2.009-1.564-6.683
			c-0.348-9.247,0.582-19.459-0.863-28.503c-1.248-7.796-4.559-15.594-11.893-18.167c-0.35-0.123,6.799-5.325,12.422-16.233
			c4.004-7.766,6.863-14.355,7.295-25.632C454.708,245.98,452.632,235.822,448.804,236.258z"/>
		<path fill="#AD0637" d="M9.761,233.452c-7.15-2.137-13.826,1.065-20.449,8.042c-5.5,5.793-9.465,16.37-11.039,20.441
			c-6.162,15.924-0.195,59.569-0.174,71.16c0.016,8.046-0.139,16.493-4.915,15.906c-2.31-0.285-5.114-13.144-13.782-10.928
			c-4.344,1.109-0.948,16.375,12.354,16.204c9.832-0.122,11.723-6.721,12.895-13.113c1.404-7.671,1.215-18.036,1.238-21.804
			c0.074-11.651-2.121-25.257-0.398-37.097c2.41-16.587,6.633-27.958,8.559-32.473c1.994-4.685,7.463-15.023,13.984-12.143
			c2.76,1.22,4.406,3.864,6.135,6.766c4.004,6.727,4.914,20.167,4.406,27.827c-0.9,13.532-7.711,49.042-3.471,68.018
			c1.055,4.713,3.607,8.738,8.014,9.043c1.355,0.093-1.998-1.941-2.748-4.308c-2.553-8.076-2.242-14.864-2.123-22.957
			c0.275-18.509,6.346-38.313,7.66-58.853C26.716,250.48,22.476,237.248,9.761,233.452z"/>
		<path fill="#AD0637" d="M167.735,275.932c-3.15-1.268-2.58,10.325-3.891,15.798c-1.994,8.338-5.359,16.655-10.889,23.076
			c-1.799,2.087-3.883,3.921-5.697,4.331c-2.094,0.475-2.803-0.569-2.48-2.319c1.07-5.782,0.084-30.092-2.828-30.919
			c-4.113-1.17-4.098,5.875-3.006,13.929c0.916,6.75,1.098,20.498,0.299,31.007c-0.189,2.5-1.475,25.254,3.275,19.192
			c1.299-1.659,2.115-15.556,2.066-19.014c-0.049-3.538,0.18-5.932,5.408-5.348c9.803,1.099,7.441,26.813,9.262,28.293
			c2.475,2.014,3.529-7.941,3.52-14.205c-0.018-8.304-2.625-12.4-7.684-19.063c1.895-2.051,9.346-10.032,12.959-20.678
			C169.659,295.27,173.729,278.34,167.735,275.932z"/>
		<path fill="#AD0637" d="M223.683,314.878c-1.664,1.374-3.119,3.159-4.322,3.021c-0.549-0.062-0.578-0.18-0.51-0.612
			c-1.041-12.909-10.119-31.586-25.553-25.396c-5.561,2.233-10.283,7.279-13.291,12.424c-4.82,8.249-4.844,30.938,1.1,40.831
			c1.848,3.075,5.613,10.341,8.59,5.435c0.666-1.1-1.061-3.063-2.314-5.907c-2.279-5.181-4.82-12.843-4.82-19.687
			c0-0.829-0.012-17.842,2.297-9.617c1.439,5.133,5.895,8.215,11.139,10.206c1.156,0.438,5.188,1.761,9.586,1.669
			c3.473-0.075,6.678-1.362,6.609-1.04c-2.471,11.784-2.691,19.292-2.326,22.714c0.467,4.365,2.043,2.568,3.043,0.176
			c1.191-2.86,2.357-7.893,2.504-8.724c0.355-1.989,2.305-15.13,3.393-16.307c2.164-2.351,4.906-3.079,6.604-5.361
			C227.685,315.643,229.345,310.208,223.683,314.878z M211.87,320.012c-0.143,1.099-8.029,1.315-13.963-1.102
			c-4.082-1.66-7.25-5.333-9.064-8.832c-4.596-8.866,7.383-12.77,12.498-11.036C208.864,301.589,212.618,314.281,211.87,320.012z"/>
		<path fill="#AD0637" d="M546.634,322.158c-3.99-5.293-10.836-7.204-15.992-5.744c-6.936,1.963-10.643,8.899-11.822,14.428
			c-0.768,3.606,0.066,6.825-0.051,6.956c-0.266,0.302-5.248-13.905-3.342-13.967c4.113-0.129,12.734-9.357,16.564-16.285
			c5.652-10.232,16.324-46.656,0.416-51.437c-15.059-4.525-23.361,16.272-25.971,35.457c-0.57,4.219-0.666,8.379-0.564,12.171
			c0.246,9.46,0.986,15.138,3.777,24.316c0.785,2.195,1.641,4.48,2.475,6.711c2.305,6.185,7.105,12.492,11.451,15.998
			c6.297,5.074,14.939,5.282,19.969,1.431c4.971-3.808,7.344-11.096,6.504-18.415C549.526,329.201,548.845,325.085,546.634,322.158z
			 M512.825,317.917c-3.896-2.51-3.037-20.197-2.168-25.626c1.729-10.784,6.465-24.786,14.061-30.382
			c5.109-3.764,9.094,2.656,10.141,8.53C537.989,287.928,519.515,322.218,512.825,317.917z M533.063,348.794
			c-16.932-1.852-9.549-29.088,2.9-26.436c6.061,1.288,8.992,10.441,9.109,15.122C545.216,343.403,541.409,349.707,533.063,348.794z
			"/>
		<path fill="#AD0637" d="M594.196,304.699c-2.502-5.938-8.074-10.487-14.795-11.899c-8.189-1.717-15.34,6.487-18.691,13.875
			c-4.373,9.639-1.375,37.669,5.26,45.214c0.52,0.591,4.283,1.182,3.758-2.049c-0.535-3.266-3.076-11.103-4.115-18.709
			c-0.955-6.976-0.051-13.896-0.043-16.299c0.002-0.471,6.148,4.233,12.484,6.709c4.779,1.869,9.549,2.165,11.529,2.105
			c0.031,0.096-2.596,22.395-1.324,24.945c0.832,1.669,0.98,1.675,1.996,0.119c2.248-3.438,4.332-13.193,5.455-22.21
			C596.745,318.139,597.575,312.706,594.196,304.699z M589.638,316.056c-0.326,0.319-5.229-0.208-10.43-1.861
			c-6.656-2.113-13.836-5.721-12.861-7.963c2.723-6.25,13.146-8.143,17.865-4.756C589.36,305.168,592.028,313.71,589.638,316.056z"
			/>
		<path fill="#AD0637" d="M390.479,296.289c-8.188-1.716-13.6,2.998-16.949,10.384c-0.875,1.931-2.209,11.488-1.16,20.592
			c1.242,10.773,5.125,22.202,7.068,37.903c1.477,11.927,1.252,26.772,0.877,36.36c-0.07,1.801-0.148,3.42-0.215,4.794
			c-0.191,3.691,0.004,5.246,1.029,5.581c0.717,0.234,1.947,0.985,3.27-3.292c3.047-9.894,2.094-37.239,1.807-39.326
			c-0.998-7.23-2.258-13.515-3.244-17.905c0-0.002-0.002,0-0.002-0.002c-0.008-0.038-0.018-0.082-0.025-0.125
			c-0.822-3.649-1.445-5.965-1.549-6.373c-0.977-3.813-2.283-8.831-2.953-13.749c-0.473-3.468-0.486-6.926-0.383-9.813
			c0.281-7.681,3.336-13.242,7.158-15.915c5.922-4.139,11.684-0.599,14.721,6.046c2.445,5.349,3.123,12.713,0.695,19.705
			c-1.385,3.982-4.865,9.869-8.574,12.129c-3.674,2.238-8.488,3.56-9.818,3.506c-0.217-0.008-0.363-0.038-0.328,0.092l0.096,0.377
			l0.512,2.109c0.025,0.103,0.047,0.237,0.078,0.363c0.105,0.462,0.242,1.037,0.346,1.523c0.01,0.043,0.018,0.085,0.027,0.127
			c0.01,0.034,0.045,0.01,0.141,0.032c1.238,0.266,10.76-0.655,17.326-7.41c8.297-8.527,9.355-25.117,4.848-35.813
			C402.771,302.249,397.202,297.7,390.479,296.289z"/>
		<path fill="#AD0637" d="M334.181,316.252c-7.111-0.475-12.873,4.756-15.811,9.518c-1.91,3.1-2.205,6.379-2.355,6.461
			c-0.508,0.12-1.018-7.681,0.152-16.815c1.105-8.63,1.322-11.663,3.607-17.785c1.879-5.039-0.604-6.327-3.57-1.551
			c-4.684,7.536-5.043,15.49-5.449,24.042c0.002,2.308,0.043,4.723,0.074,7.077c0.094,6.528,2.471,14.005,5.354,18.713
			c4.182,6.819,12.164,9.884,18.135,7.967c5.895-1.896,10.531-7.897,12.178-14.994c1.031-4.438,1.764-8.5,0.678-11.963
			C345.212,320.659,339.472,316.604,334.181,316.252z M339.56,340.009c-1.629,4.944-6.645,9.035-13.279,5.815
			c-12.988-6.298,2.088-27.897,10.203-21.019C339.757,327.579,340.784,336.29,339.56,340.009z"/>
		<path fill="#AD0637" d="M353.089,293.106c-1.359-0.16-2.514,2.113-2.482,5.777c0.088,10.034,2.324,18.454,2.143,29.464
			c-0.148,8.995-1.68,21.47-0.898,23.56c0.805,2.137,0.932,2.137,1.697,0.025c1.695-4.666,4.326-17.329,4.734-29.252
			c0.313-9.287-0.912-16.349-2.67-24.359C354.991,295.492,354.312,293.249,353.089,293.106z"/>
		<path fill="#AD0637" d="M299.515,253.89c-14.949-7.428-27.365,12.854-33.52,32.465c-1.357,4.313-2.203,8.653-2.773,12.638
			c-1.43,9.944-1.672,16.018-0.395,26.127c1.734,9.876,3.547,18.363,10.514,26.257c5.684,6.437,14.688,8.201,20.645,5.065
			c3.373-1.774,5.047-3.254,6.807-7.069c2.621-5.703-1.641-10.484-7.176-2.024c-2.109,3.223-4.361,3.571-9.615,2.071
			c-5.793-1.652-10.186-12.254-12.262-22.857c-2.258-11.535-1.779-33.647,3.127-45.003c4.105-9.49,8.242-19.293,15.563-22.971
			c4.199-2.109,6.494,1.027,8.229,5.002C301.999,271.259,307.687,259.009,299.515,253.89z"/>
		<path fill="#AD0637" d="M478.88,296.289c-8.188-1.716-13.598,2.998-16.949,10.384c-0.875,1.931-2.195,11.486-1.156,20.592
			c0.674,5.936,1.473,12.25,3.664,19.004c1.797,5.53,6.984,5.426,7.014,5.386c-0.027-0.122-0.053-0.225-0.08-0.338
			c-0.096-0.371-0.236-0.88-0.309-1.202c-0.002-0.007-0.018-0.007-0.02-0.015c-0.037-0.174-0.07-0.347-0.107-0.515
			c-0.012-0.068-0.004-0.13-0.012-0.195c0.076,0.516,0.258,1.109,0.447,1.927c0.035,0.135,0.064,0.256,0.08,0.338h-0.002
			c0.002,0.006,0.002,0.008,0.002,0.014c0.01,0.039,0.053,0.01,0.154,0.033c1.232,0.266,10.654-0.944,17.221-7.699
			c8.295-8.527,9.355-25.117,4.846-35.813C491.173,302.249,485.601,297.7,478.88,296.289z M472.038,346.515
			c-0.02,0.023-0.035,0.043-0.055,0.063c-0.006,0.006-0.01,0.008-0.014,0.014c-0.016,0.021-0.035,0.04-0.055,0.058
			c-0.041,0.045-0.09,0.093-0.125,0.141c-0.678,0.922-0.896,1.519-0.898,2.13c0-0.059-0.02-0.114-0.016-0.177
			c0.02-0.276,0.094-0.492,0.168-0.699c0.107-0.29,0.242-0.563,0.479-0.883c0.098-0.141,0.191-0.285,0.275-0.387
			c0.043-0.05,0.08-0.087,0.117-0.125c0.023-0.021,0.041-0.046,0.064-0.071c0.035-0.048,0.068-0.088,0.088-0.125
			C472.056,346.478,472.046,346.504,472.038,346.515z M489.022,331.153c-1.383,3.979-4.801,9.976-8.572,12.129
			c-4.266,2.435-7.186,2.589-8.367,3.071c-0.016,0.006,0.006,0.008,0.012,0.022c0.004,0.008-0.004,0.021-0.004,0.035
			c0,0.013-0.01,0.022-0.02,0.036c0.023-0.04,0.029-0.071,0.01-0.102c-0.006-0.006-0.012-0.014-0.018-0.02
			c-3.172-2.798-3.111-5.285-4.139-9.252l-1.092-5.943c-0.631-3.442-0.484-6.926-0.383-9.813c0.283-7.681,3.336-13.242,7.16-15.915
			c5.92-4.139,11.682-0.599,14.719,6.046C490.772,316.797,491.45,324.161,489.022,331.153z"/>
	</g>
</g>
</svg>
