<?xml version="1.0" encoding="utf-8"?>
<!-- Generator: Adobe Illustrator 16.0.0, SVG Export Plug-In . SVG Version: 6.00 Build 0)  -->
<!DOCTYPE svg PUBLIC "-//W3C//DTD SVG 1.1//EN" "http://www.w3.org/Graphics/SVG/1.1/DTD/svg11.dtd">
<svg version="1.1" id="Layer_1" xmlns="http://www.w3.org/2000/svg" xmlns:xlink="http://www.w3.org/1999/xlink" x="0px" y="0px"
	 width="474.281px" height="451.777px" viewBox="0 0 474.281 451.777" enable-background="new 0 0 474.281 451.777"
	 xml:space="preserve">
<path fill="#FFFFFF" d="M212.746,0.775c54.83-5.251,105.869,16.53,139.394,54.221l0.221,0.248l0.543,0.615
	c21.543,24.31,35.813,55.216,39.125,89.752c8.453,88.275-57.846,166.843-148.086,175.49c-54.83,5.252-105.873-16.533-139.395-54.225
	l-0.218-0.248c-0.182-0.202-0.357-0.406-0.543-0.609c-10.29-11.615-18.924-24.731-25.49-39.027
	c-7.185-15.64-11.9-32.687-13.631-50.727c-5.913-61.722,23.873-121.31,74.531-150.344C161.221,13.295,185.6,3.374,212.746,0.775z"/>
<path d="M291.443,194.777l-6.039-11.814l-0.926-1.81l-0.963,1.788c-0.439,0.821-1.037,1.467-1.695,1.855
	c-0.586,0.343-1.211,0.488-1.82,0.365v-0.001l-0.02-0.007c-0.771-0.166-1.395-0.855-1.783-1.755
	c-0.441-1.006-0.59-2.229-0.369-3.324l0.002,0.001l0.012-0.052c0.242-1.113,0.619-1.856,1.094-2.376
	c0.463-0.5,1.053-0.819,1.713-1.061l0.771-0.286l-0.076-0.817c-0.477-5.022-1.922-6.823-3.814-9.18
	c-0.975-1.212-2.072-2.585-3.197-4.694l-0.455-0.857l-0.896,0.375c-1.396,0.585-3.045,0.311-4.588-0.568
	c-1.697-0.965-3.252-2.643-4.258-4.725c-0.982-2.028-1.309-4.106-1.049-5.909c0.248-1.744,1.039-3.216,2.293-4.074l0.57-0.391
	l-0.125-0.679l-0.158-0.865c-0.66-3.65-0.971-5.345-1.75-6.87c-0.68-1.336-1.637-2.373-3.418-4.311
	c-0.521-0.57-1.131-1.229-1.875-2.062l-0.844-0.936l-0.785,0.985c-0.318,0.395-0.682,0.735-1.088,1.004l0.004,0.003
	c-0.381,0.255-0.797,0.44-1.25,0.558v0.001l-0.039,0.01v0.001c-1.408,0.342-2.891-0.115-4.158-1.136
	c-1.346-1.087-2.443-2.804-2.98-4.888l-0.027-0.108h-0.002c-0.488-2.004-0.365-3.969,0.229-5.558
	c0.574-1.518,1.58-2.686,2.877-3.184l1.107-0.427l-0.545-1.058l-12.236-23.939l-0.447-0.873l-0.904,0.377
	c-1.552,0.639-3.422,0.55-5.26-0.168c-1.885-0.735-3.715-2.121-5.171-4.053c-0.53-0.707-0.977-1.448-1.344-2.207
	c-0.375-0.771-0.658-1.561-0.852-2.344l-0.204-0.813l-0.842,0.007c-2.765,0.027-5.505-0.181-8.241-0.39
	c-5.563-0.426-11.128-0.852-17.577,0.643l-0.489,0.112l-0.226,0.446c-4.438,8.784-5.075,13.571-6.125,21.551
	c-0.212,1.596-0.439,3.331-0.766,5.504l-0.13,0.927l0.903,0.254c1.01,0.282,1.977,0.952,2.785,1.906
	c0.813,0.961,1.456,2.206,1.808,3.631c0.477,1.947,0.32,3.846-0.316,5.34c-0.588,1.396-1.603,2.426-2.893,2.758
	c-0.662,0.17-1.336,0.145-1.987-0.041c-0.703-0.204-1.396-0.603-2.028-1.164l-1.2-1.059l-0.514,1.523
	c-2.409,7.151-4.194,12.775-5.67,18.482c-1.48,5.715-2.646,11.497-3.832,18.964l-0.144,0.901l0.862,0.28
	c0.099,0.033,0.204,0.077,0.318,0.124v-0.005c0.09,0.04,0.191,0.089,0.292,0.144l0.036,0.021l-0.002,0.002
	c1.142,0.64,1.839,1.857,2.047,3.315c0.222,1.57-0.115,3.397-1.054,5.123l-0.055,0.087c-0.634,1.133-1.45,2.073-2.352,2.772
	c-0.909,0.705-1.905,1.164-2.877,1.333l-0.686,0.117l-0.171,0.678l-3.443,13.564l-0.368,1.451l1.492-0.125
	c0.987-0.088,1.969-0.004,2.857,0.24c0.833,0.23,1.584,0.609,2.189,1.127c0.282,0.242,0.518,0.505,0.709,0.785
	c0.422,0.626,0.594,1.326,0.522,2.027c-0.075,0.732-0.403,1.478-0.988,2.159c-0.329,0.381-0.737,0.746-1.232,1.076
	c-0.939,0.636-2.033,1.048-3.155,1.244c-1.17,0.204-2.363,0.168-3.439-0.101l-1.033-0.261l-0.26,1.037l-5.096,20.053l-0.188,0.747
	l0.662,0.417c1.293,0.808,2.605,1.568,3.939,2.273c18.146,9.615,43.398,12.08,66.81,7.8c23.457-4.292,45.126-15.363,56.058-32.813
	c0.658-1.053,1.268-2.104,1.824-3.154l0.26-0.485L291.443,194.777z M217.202,129.077c-0.467,1.073-1.265,1.87-2.277,2.123
	c-1.016,0.256-2.09-0.073-3.014-0.801c-0.996-0.793-1.805-2.045-2.188-3.566l-0.003-0.02c-0.384-1.537-0.267-3.027,0.244-4.2
	c0.462-1.068,1.25-1.86,2.257-2.119l0.022-0.004c1.014-0.254,2.087,0.074,3.011,0.806c1.003,0.792,1.815,2.05,2.193,3.581
	C217.835,126.414,217.713,127.904,217.202,129.077z M211.569,177.388c1.945,1.359,3.566,3.572,4.392,6.327
	c0.825,2.754,0.698,5.499-0.178,7.706c-0.842,2.123-2.385,3.746-4.418,4.359c-2.038,0.609-4.217,0.107-6.095-1.196
	c-1.947-1.362-3.567-3.577-4.39-6.328c-0.828-2.755-0.705-5.498,0.175-7.706c0.842-2.121,2.384-3.744,4.419-4.359
	C207.513,175.576,209.689,176.079,211.569,177.388z M201.591,211.208c0.263,0.894,0.479,1.746,0.648,2.41v0.005l0.117,0.456h0.003
	c0.122,0.475,0.222,0.833,0.317,1.183c0.475,1.685,0.862,3.083,0.261,3.772c-0.53,0.599-1.197,0.938-1.945,1.066
	c-0.94,0.158-2.007-0.007-3.091-0.416c-1.135-0.435-2.267-1.132-3.261-2.008c-1.642-1.436-2.91-3.338-3.244-5.313
	c-0.378-2.235-0.219-4.395,0.397-6.078c0.546-1.48,1.431-2.561,2.588-2.896C198.356,202.209,200.486,207.464,201.591,211.208z
	 M189.906,147.569c1.27-0.306,2.611,0.109,3.755,1.035c1.231,0.992,2.23,2.556,2.716,4.461h0.003l0.025,0.103v-0.001
	c0.478,1.943,0.319,3.839-0.312,5.332c-0.597,1.397-1.606,2.426-2.9,2.757v0.001l-0.037,0.011v0.003
	c-1.271,0.31-2.611-0.108-3.758-1.031c-1.23-0.995-2.234-2.561-2.717-4.462l-0.027-0.1l0,0c-0.474-1.946-0.321-3.84,0.313-5.332
	c0.595-1.396,1.605-2.428,2.898-2.757l0.04-0.012V147.569L189.906,147.569z M249.496,173.773c1.027-0.219,2.113,0.18,3.072,1.024
	c1.072,0.94,1.971,2.41,2.502,4.21c0.088,0.289,0.164,0.595,0.23,0.913c0.459,2.157,0.311,4.264-0.301,5.926
	c-0.563,1.532-1.506,2.652-2.695,3.001c-0.066,0.025-0.139,0.038-0.217,0.055c-1.025,0.216-2.115-0.182-3.072-1.025
	c-1.072-0.942-1.971-2.409-2.504-4.209c-0.084-0.291-0.164-0.595-0.23-0.913c-0.457-2.156-0.311-4.267,0.307-5.928
	c0.559-1.531,1.502-2.651,2.691-3.003C249.344,173.808,249.42,173.789,249.496,173.773z M236.539,136.973
	c0.702-0.495,1.666-0.538,2.707-0.196c1.189,0.39,2.461,1.263,3.596,2.536c0.316,0.35,0.623,0.736,0.926,1.164
	c1.273,1.811,2.016,3.804,2.176,5.562c0.156,1.608-0.176,2.979-1.014,3.73c-0.061,0.056-0.125,0.108-0.205,0.163
	c-0.701,0.494-1.664,0.536-2.707,0.193c-1.189-0.388-2.457-1.261-3.598-2.535c-0.314-0.348-0.619-0.737-0.922-1.165
	c-1.276-1.813-2.016-3.803-2.18-5.559c-0.149-1.61,0.178-2.98,1.018-3.73C236.39,137.084,236.452,137.027,236.539,136.973z
	 M230.983,163.888c1.077,1.308,1.742,3.121,1.742,5.14c0,2.014-0.663,3.828-1.739,5.131h-0.003
	c-1.029,1.248-2.437,2.018-3.972,2.018c-1.543,0-2.948-0.773-3.979-2.018h-0.003c-1.074-1.303-1.741-3.113-1.741-5.131
	s0.667-3.831,1.744-5.134v-0.007c1.025-1.242,2.434-2.011,3.979-2.011C228.547,161.875,229.96,162.646,230.983,163.888z"/>
<path d="M318.644,97.336c-16.063-24.296-41.25-42.2-71.742-47.954c-30.497-5.757-60.527,1.726-84.432,18.479
	c-23.906,16.754-41.686,42.781-47.667,74.109l-0.003,0.006c-5.982,31.335,0.969,62.032,17.039,86.337
	c16.063,24.291,41.248,42.193,71.735,47.951l0.009,0.002c30.493,5.756,60.53-1.729,84.428-18.482
	c23.912-16.754,41.688-42.784,47.672-74.118C341.666,152.335,334.719,121.639,318.644,97.336z M247.15,48.037
	c30.879,5.827,56.377,23.954,72.641,48.55c16.26,24.592,23.297,55.648,17.244,87.335c-6.051,31.698-24.041,58.034-48.229,74.984
	c-24.184,16.945-54.555,24.519-85.403,18.72l0,0l-0.075-0.013c-30.873-5.825-56.373-23.955-72.637-48.549
	c-16.251-24.57-23.284-55.599-17.258-87.264v-0.003l0.014-0.07c6.051-31.694,24.038-58.032,48.227-74.983
	C185.876,49.784,216.279,42.21,247.15,48.037z"/>
<path fill="#E3A045" d="M209.644,284.249c0.876,0.547-1.489,1.086-3.262,0.424c-1.728-0.647-4.63-3.097-5.502-4.047
	c-5.99-6.563-16.215-24.94-27.444-21.106c-1.653,0.86-2.148,3.17-0.871,5.891c0.089,0.189-1.568-0.729-1.821-1.11
	c0.22,0.612-1.66-4.278,1.821-6.103c11.11-6.098,24.237,15.652,30.492,21.416c1.779,1.641,3.289,2.955,4.973,3.164L209.644,284.249z
	"/>
<path fill="#FFFFFF" d="M231.129,265.301c-2.645-1.801-5.987-2.844-10.54-2.431c-4.606,0.429-8.704,2.039-11.605,4.313
	c-2.83,2.217-4.508,5.043-4.375,7.957c0.021,0.397,0.054,0.795,0.109,1.186c0.321,2.42,1.319,4.607,3.377,6.121
	c2.11,1.552,5.345,2.434,10.123,2.207c1.042-0.051,2.143-0.148,3.317-0.31c6.028-0.805,10.726-2.415,13.667-4.438
	c1.222-0.836,2.127-1.732,2.69-2.664c0.529-0.883,0.748-1.799,0.621-2.713c-0.088-0.689-0.373-1.391-0.854-2.094
	C235.812,269.749,233.81,267.125,231.129,265.301z M220.475,261.504c4.912-0.45,8.535,0.687,11.42,2.653
	c2.86,1.945,4.964,4.686,6.886,7.484c0.607,0.889,0.961,1.787,1.078,2.688c0.168,1.243-0.113,2.458-0.811,3.614
	c-0.664,1.104-1.705,2.146-3.087,3.098c-3.112,2.131-8.013,3.824-14.261,4.66c-1.219,0.166-2.357,0.271-3.423,0.32
	c-5.123,0.246-8.635-0.737-10.988-2.47c-2.396-1.764-3.553-4.272-3.923-7.045c-0.054-0.426-0.093-0.86-0.118-1.301
	c-0.159-3.394,1.727-6.623,4.903-9.11C211.253,263.672,215.607,261.947,220.475,261.504z"/>
<path fill="#B01C3C" d="M220.549,262.418c9.277-0.847,13.649,4.276,17.335,9.655c3.688,5.371-3.179,10.976-16.271,12.728
	c-13.084,1.75-17.04-3.474-17.333-9.657C203.988,268.965,211.272,263.267,220.549,262.418z"/>
<path fill="#FFFFFF" d="M259.013,264.306c-4.559-0.754-10.266-0.177-15.27,1.332c-0.373,0.109-0.738,0.234-1.107,0.371
	c-4.139,1.531-7.432,4.357-9.466,7.538c-2.006,3.134-2.782,6.589-1.928,9.429c0.052,0.178,0.1,0.322,0.138,0.437
	c0.043,0.106,0.084,0.202,0.126,0.306v-0.001c1.132,2.707,3.749,4.507,7.128,5.259c3.467,0.772,7.73,0.434,12.043-1.156
	c0.385-0.144,0.756-0.285,1.117-0.438c4.809-2.014,9.318-5.32,12.189-8.9c2.547-3.177,3.801-6.539,2.771-9.328
	C265.765,266.467,262.804,264.931,259.013,264.306z M243.351,264.32c5.189-1.563,11.119-2.157,15.873-1.373
	c4.264,0.705,7.623,2.519,8.805,5.728c1.217,3.298-0.145,7.127-2.986,10.669c-3.014,3.749-7.717,7.208-12.732,9.311
	c-0.404,0.172-0.789,0.324-1.166,0.457c-4.557,1.684-9.086,2.029-12.803,1.201c-3.807-0.846-6.772-2.924-8.088-6.068v-0.002
	c-0.056-0.122-0.104-0.242-0.146-0.363c-0.071-0.193-0.127-0.363-0.171-0.504v-0.003c-0.979-3.235-0.132-7.106,2.08-10.571
	c2.188-3.414,5.718-6.451,10.15-8.088C242.554,264.57,242.949,264.441,243.351,264.32z"/>
<path fill="#B01C3C" d="M243.658,265.211c9.305-2.806,21.064-2.38,23.367,3.858c2.297,6.234-5.807,14.852-15.035,18.724
	c-9.23,3.869-18.581,1.953-20.88-4.283C228.81,277.271,234.359,268.017,243.658,265.211z"/>
<path fill="#A74C15" d="M213.615,113.386c-6.591,17.962,5.321,15.398,7.359,18.504c5.129,7.81,0.382,17.696-15.484,2.84
	c-2.58-2.408-1.991-7.24-2.717-7.658c-1.945-1.118,1.954-8.156,3.525-10.224C207.722,114.975,214.275,111.587,213.615,113.386z"/>
<path d="M217.886,130.447c-4.007-1.467-9.538-3.497-4.527-17.156c0.029-0.078,0.038-0.119,0.031-0.136l0,0
	c-0.013-0.026-0.127-0.022-0.308,0.004c-0.282,0.033-0.667,0.149-1.107,0.322c-1.852,0.727-4.615,2.411-5.459,3.531
	c-0.386,0.508-0.917,1.322-1.472,2.279c-0.805,1.4-1.653,3.105-2.134,4.574c-0.454,1.38-0.597,2.524-0.076,2.922
	c0.025,0.018,0.047,0.031,0.071,0.044v0.001c0.375,0.215,0.478,0.968,0.611,1.991c0.225,1.698,0.56,4.211,2.156,5.708
	c5.705,5.336,9.938,7.449,12.768,7.604c1.178,0.064,2.107-0.218,2.78-0.744c0.678-0.527,1.117-1.307,1.316-2.238
	c0.438-1.987-0.177-4.65-1.794-7.112C220.28,131.33,219.166,130.92,217.886,130.447z M213.871,113.481
	c-4.825,13.148,0.412,15.068,4.201,16.458c1.368,0.5,2.564,0.94,3.133,1.806c1.697,2.583,2.335,5.405,1.873,7.524
	c-0.23,1.061-0.73,1.947-1.517,2.555c-0.783,0.612-1.829,0.929-3.149,0.859c-2.946-0.161-7.299-2.316-13.109-7.751
	c-1.741-1.626-2.089-4.259-2.324-6.031c-0.116-0.868-0.203-1.508-0.34-1.592l0,0c-0.042-0.022-0.085-0.052-0.127-0.084
	c-0.753-0.572-0.644-1.935-0.118-3.529c0.494-1.502,1.363-3.242,2.185-4.673c0.557-0.976,1.103-1.816,1.503-2.339
	c0.901-1.189,3.78-2.96,5.699-3.71c0.479-0.187,0.902-0.313,1.231-0.355c0.433-0.057,0.738,0.029,0.871,0.292v0.001
	C213.954,113.063,213.957,113.252,213.871,113.481z"/>
<path fill="#A74C15" d="M227.832,157.778c-6.591,17.961,5.321,15.399,7.357,18.505c5.13,7.809,0.385,17.689-15.487,2.842
	c-2.573-2.412-1.985-7.24-2.709-7.659c-1.946-1.118,1.95-8.158,3.521-10.224C221.942,159.367,228.494,155.981,227.832,157.778z"/>
<path d="M232.102,174.841c-4.002-1.468-9.539-3.499-4.525-17.159c0.028-0.076,0.033-0.121,0.029-0.134
	c-0.012-0.023-0.126-0.02-0.309,0.006c-0.282,0.035-0.664,0.152-1.104,0.322c-1.851,0.725-4.611,2.41-5.462,3.531
	c-0.387,0.503-0.917,1.319-1.469,2.279c-0.806,1.4-1.654,3.103-2.133,4.571c-0.454,1.379-0.601,2.526-0.077,2.923h0.005
	c0.02,0.02,0.04,0.029,0.064,0.046v0.003c0.376,0.214,0.476,0.964,0.609,1.989c0.226,1.696,0.562,4.21,2.156,5.706
	c5.703,5.339,9.938,7.451,12.766,7.603c1.183,0.066,2.11-0.215,2.783-0.742c0.679-0.525,1.115-1.304,1.318-2.237
	c0.432-1.987-0.181-4.648-1.796-7.113C234.494,175.722,233.382,175.313,232.102,174.841z M228.09,157.872
	c-4.825,13.146,0.412,15.066,4.2,16.456c1.368,0.504,2.563,0.94,3.133,1.805c1.697,2.586,2.334,5.408,1.869,7.528
	c-0.229,1.059-0.733,1.946-1.515,2.555c-0.784,0.609-1.83,0.933-3.151,0.86c-2.941-0.161-7.301-2.314-13.107-7.753
	c-1.742-1.627-2.087-4.26-2.322-6.03c-0.117-0.868-0.203-1.509-0.342-1.589l0,0c-0.04-0.022-0.087-0.052-0.125-0.088
	c-0.755-0.57-0.641-1.938-0.118-3.527c0.494-1.499,1.358-3.238,2.181-4.674c0.561-0.977,1.105-1.815,1.504-2.339
	c0.904-1.19,3.779-2.958,5.697-3.709c0.479-0.185,0.902-0.313,1.234-0.356c0.431-0.057,0.736,0.029,0.871,0.294l0,0
	C228.171,157.458,228.176,157.646,228.09,157.872z"/>
<path d="M317.254,33.652c-27.5-16.065-59.865-27.155-92.814-25.155c-42.766,2.604-85.788,24.406-112.949,56.524
	c-34.586,40.901-47.216,109.476-26.259,159.26c10.229,24.294,29.415,47.589,50.835,63.828c12.416,7.254,28.516,17.274,42.742,20.967
	c17.623,4.57,42.563,5.314,61.804,3.469c58.01-5.559,111.363-46.605,132.514-95.936c12.09-28.19,16.238-64.975,9.029-94.32
	c-5.066-20.611-16.021-39.484-29.723-56.628C342.541,53.284,329.611,43.021,317.254,33.652z M213.153,4.944
	c53.402-5.114,103.113,16.1,135.765,52.809l0.215,0.241l0.527,0.599c20.982,23.677,34.883,53.779,38.105,87.416
	c8.234,85.977-56.338,162.5-144.23,170.92c-53.4,5.115-103.114-16.102-135.764-52.813l-0.211-0.24
	c-0.177-0.197-0.349-0.396-0.529-0.596C97.009,251.969,88.6,239.193,82.202,225.27c-6.997-15.233-11.591-31.836-13.274-49.406
	c-5.76-60.115,23.251-118.151,72.592-146.43C162.968,17.139,186.714,7.476,213.153,4.944z"/>
<path fill="#A74C15" d="M198.31,198.466c-2.103,3.146-7.67,17.915,9.598,23.223c3.054,0.938,0.452,3.134-2.836,3.846
	c-6.673,1.451-9.473,1.316-14.993-3.61c-4.624-4.126-4.267-9.328-4.095-14.985C186.102,202.921,194.044,194.568,198.31,198.466z"/>
<path d="M196.344,202.23c0.497-1.618,1.124-2.928,1.608-3.712c-0.646-0.524-1.368-0.764-2.131-0.788
	c-1.083-0.031-2.259,0.373-3.398,1.042c-1.154,0.675-2.276,1.631-3.236,2.684c-1.693,1.851-2.886,3.996-2.933,5.491l-0.022,0.666
	c-0.163,5.33-0.32,10.231,4.029,14.11c2.722,2.426,4.767,3.677,6.938,4.136c2.177,0.453,4.515,0.129,7.815-0.59
	c1.442-0.316,2.745-0.917,3.455-1.558c0.252-0.232,0.426-0.458,0.49-0.67c0.058-0.176,0.032-0.343-0.083-0.494
	c-0.162-0.222-0.502-0.429-1.051-0.594c-2.47-0.76-4.481-1.711-6.109-2.801c-3.604-2.406-5.313-5.463-5.937-8.505
	C195.162,207.604,195.616,204.587,196.344,202.23z M198.537,198.617c-0.481,0.721-1.146,2.063-1.676,3.776
	c-0.699,2.287-1.142,5.208-0.545,8.14c0.6,2.914,2.24,5.85,5.706,8.161c1.585,1.063,3.546,1.99,5.966,2.733
	c0.665,0.204,1.095,0.472,1.327,0.785v0.001c0.234,0.308,0.278,0.644,0.166,0.988c-0.094,0.309-0.32,0.617-0.642,0.911
	c-0.782,0.707-2.178,1.359-3.707,1.694c-3.372,0.728-5.774,1.063-8.041,0.585c-2.278-0.479-4.396-1.77-7.192-4.265
	c-4.539-4.047-4.381-9.067-4.209-14.531l0.02-0.666c0.051-1.623,1.302-3.906,3.071-5.843c0.997-1.092,2.159-2.082,3.367-2.789
	c1.222-0.718,2.493-1.152,3.69-1.118c0.959,0.029,1.869,0.358,2.658,1.077l0.175,0.161L198.537,198.617z"/>
<path fill="#A74C15" d="M232.973,131.151c3.446,1.567,15.957,11.187,4.081,24.797c-2.106,2.407,1.268,2.897,4.438,1.772
	c6.436-2.281,8.744-3.874,10.838-10.967c1.762-5.946-1.287-10.179-4.412-14.894C245.697,128.506,234.551,125.592,232.973,131.151z"
	/>
<path d="M236.271,133.729c-1.342-1.177-2.617-1.97-3.41-2.327l-0.214-0.097l0.068-0.229c0.288-1.029,0.886-1.786,1.69-2.32
	c0.996-0.658,2.307-0.958,3.727-0.995c1.398-0.03,2.906,0.198,4.324,0.597c2.529,0.719,4.795,1.997,5.691,3.347l0.373,0.555
	c3.02,4.556,5.799,8.738,4.08,14.572c-1.066,3.594-2.188,5.801-3.867,7.405c-1.684,1.603-3.895,2.587-7.15,3.742
	c-1.477,0.521-3.008,0.702-4.037,0.512c-0.43-0.079-0.785-0.22-1.024-0.431c-0.277-0.237-0.42-0.55-0.381-0.934
	c0.032-0.384,0.26-0.842,0.721-1.365c1.657-1.902,2.838-3.729,3.627-5.463c1.725-3.795,1.574-7.152,0.547-9.944
	C239.99,137.552,238.072,135.299,236.271,133.729z M233.308,131.008c0.829,0.413,2.046,1.196,3.321,2.308
	c1.857,1.621,3.839,3.949,4.908,6.854c1.072,2.916,1.234,6.415-0.561,10.36c-0.813,1.775-2.016,3.648-3.718,5.6
	c-0.378,0.433-0.562,0.783-0.586,1.056c-0.021,0.192,0.051,0.347,0.192,0.466c0.169,0.145,0.433,0.25,0.771,0.311
	c0.942,0.173,2.368,0,3.762-0.492c3.18-1.13,5.342-2.081,6.947-3.623c1.605-1.533,2.689-3.669,3.717-7.167
	c1.652-5.588-1.057-9.669-4.006-14.114l-0.371-0.554c-0.828-1.247-2.967-2.438-5.383-3.121c-1.371-0.387-2.828-0.61-4.166-0.578
	c-1.325,0.03-2.528,0.307-3.436,0.904C234.065,129.635,233.577,130.228,233.308,131.008z"/>
<path fill="#A74C15" d="M247.834,168.126c2.695,2.656,11.133,15.997-4.693,24.687c-2.805,1.54,0.191,3.162,3.553,3.196
	c6.826,0.071,9.547-0.63,13.957-6.575c3.688-4.973,2.287-10.002,0.977-15.504C260.691,170.019,251.224,163.449,247.834,168.126z"/>
<path d="M250.047,171.68c-0.863-1.571-1.791-2.753-2.408-3.357l-0.164-0.164l0.139-0.19c0.629-0.866,1.453-1.374,2.385-1.598
	c1.17-0.275,2.498-0.108,3.842,0.346c1.326,0.452,2.664,1.184,3.859,2.053c2.129,1.542,3.818,3.52,4.191,5.102l0,0l0.156,0.646
	c1.271,5.314,2.439,10.201-1.186,15.083c-2.232,3.01-4.043,4.697-6.18,5.627c-2.125,0.929-4.541,1.088-7.994,1.054
	c-1.568-0.018-3.068-0.375-3.977-0.903c-0.373-0.225-0.656-0.481-0.813-0.76c-0.176-0.318-0.203-0.661-0.035-1.01
	c0.162-0.35,0.531-0.701,1.143-1.037c2.213-1.216,3.957-2.522,5.291-3.875c2.926-2.973,3.938-6.176,3.932-9.155
	C252.22,176.546,251.195,173.776,250.047,171.68z M248.197,168.105c0.641,0.673,1.516,1.829,2.328,3.313
	c1.188,2.158,2.244,5.022,2.246,8.123c0.008,3.106-1.047,6.446-4.092,9.536c-1.367,1.39-3.146,2.732-5.414,3.978
	c-0.5,0.275-0.793,0.544-0.91,0.787c-0.082,0.175-0.068,0.348,0.023,0.504c0.109,0.198,0.318,0.384,0.613,0.555
	c0.83,0.489,2.225,0.814,3.697,0.834c3.379,0.03,5.734-0.12,7.775-1.008c2.033-0.891,3.787-2.525,5.957-5.454
	c3.475-4.681,2.334-9.445,1.088-14.631l-0.152-0.646c-0.348-1.456-1.953-3.315-3.979-4.787c-1.152-0.838-2.447-1.543-3.715-1.976
	c-1.252-0.425-2.479-0.583-3.539-0.329C249.385,167.079,248.719,167.465,248.197,168.105z"/>
<path fill="#A74C15" d="M210.379,172.131c-2.105,3.145-7.669,17.918,9.595,23.224c3.055,0.941,0.448,3.13-2.836,3.852
	c-6.667,1.451-9.479,1.312-14.992-3.615c-4.622-4.128-4.266-9.329-4.097-14.987C198.164,176.586,206.109,168.234,210.379,172.131z"
	/>
<path d="M208.406,175.897c0.497-1.616,1.123-2.925,1.611-3.712c-0.646-0.525-1.374-0.765-2.134-0.787
	c-1.087-0.031-2.26,0.37-3.398,1.041c-1.157,0.676-2.274,1.632-3.233,2.685c-1.694,1.851-2.886,3.996-2.934,5.492l-0.023,0.665
	c-0.163,5.333-0.319,10.23,4.029,14.109c2.717,2.43,4.766,3.677,6.941,4.134c2.173,0.458,4.511,0.13,7.813-0.585
	c1.44-0.316,2.741-0.918,3.452-1.559v-0.006c0.254-0.228,0.428-0.454,0.491-0.666c0.055-0.178,0.034-0.342-0.078-0.494h-0.005
	c-0.164-0.22-0.502-0.424-1.048-0.593c-2.47-0.758-4.484-1.713-6.108-2.799c-3.605-2.411-5.313-5.466-5.938-8.51
	C207.227,181.274,207.687,178.251,208.406,175.897z M210.606,172.284c-0.483,0.718-1.148,2.063-1.674,3.776
	c-0.702,2.284-1.146,5.209-0.548,8.14c0.603,2.918,2.234,5.85,5.706,8.163c1.584,1.06,3.549,1.987,5.964,2.731
	c0.667,0.204,1.098,0.477,1.329,0.783v0.003c0.233,0.31,0.273,0.644,0.166,0.989c-0.099,0.31-0.322,0.616-0.644,0.908H220.9
	c-0.776,0.708-2.172,1.36-3.704,1.693c-3.37,0.735-5.771,1.069-8.041,0.587c-2.279-0.481-4.394-1.763-7.192-4.261
	c-4.538-4.049-4.381-9.07-4.208-14.531l0.019-0.669c0.046-1.622,1.306-3.906,3.074-5.842c0.996-1.09,2.16-2.078,3.366-2.787
	c1.222-0.723,2.49-1.15,3.687-1.118c0.962,0.03,1.87,0.358,2.66,1.081l0.174,0.155L210.606,172.284z"/>
<path fill="#A74C15" d="M192.29,143.268c-6.591,17.967,5.317,15.402,7.359,18.509c5.125,7.809,4.591,15.954-11.283,1.101
	c-2.581-2.411-4.965-14.075-3.396-16.141C186.397,144.86,192.952,141.472,192.29,143.268z"/>
<path d="M196.557,160.335c-4.005-1.469-9.536-3.499-4.522-17.157c0.029-0.079,0.035-0.119,0.029-0.139
	c-0.012-0.025-0.124-0.019-0.308,0.005c-0.28,0.036-0.666,0.152-1.105,0.324c-1.851,0.726-4.612,2.409-5.463,3.531
	c-0.077,0.098-0.147,0.207-0.211,0.32c-0.602,1.042-0.827,2.665-0.702,4.183c0.126,1.499,2.688,9.778,4.281,11.27
	c5.56,5.204,9.208,7.563,11.374,8.092c0.848,0.208,1.438,0.126,1.812-0.177h-0.004c0.369-0.307,0.535-0.843,0.532-1.547
	c-0.018-1.764-1.097-4.453-2.844-7.116C198.952,161.213,197.837,160.803,196.557,160.335z M192.547,143.365
	c-4.822,13.146,0.411,15.065,4.204,16.456c1.366,0.503,2.563,0.942,3.133,1.805c1.797,2.749,2.915,5.546,2.929,7.412
	c0.009,0.873-0.219,1.562-0.721,1.976l0,0c-0.506,0.413-1.255,0.54-2.288,0.285c-2.248-0.553-5.983-2.951-11.62-8.223
	c-1.736-1.629-3.224-3.569-3.458-5.343c-0.114-0.867-0.043-2.241-0.043-2.241c-0.904-0.686-0.815-2.402-0.953-4.038
	c-0.131-1.619,0.12-3.359,0.777-4.499c0.076-0.14,0.162-0.264,0.251-0.382c0.904-1.189,3.782-2.957,5.702-3.71
	c0.474-0.186,0.899-0.313,1.232-0.356c0.429-0.059,0.737,0.03,0.868,0.292v0.002C192.632,142.949,192.632,143.138,192.547,143.365z"
	/>
<path fill="#F6A846" d="M211.985,119.455c2.708-0.677,5.617,1.633,6.501,5.165c0.886,3.529-0.596,6.937-3.299,7.615
	c-2.706,0.679-5.618-1.633-6.5-5.163C207.805,123.542,209.278,120.134,211.985,119.455z M227.012,160.806
	c3.746,0,6.781,3.683,6.781,8.22s-3.038,8.215-6.781,8.215c-3.747,0-6.789-3.68-6.789-8.215
	C220.223,164.486,223.264,160.806,227.012,160.806z M205.166,175.168c4.73-1.423,10.017,2.267,11.815,8.24
	c1.794,5.973-0.585,11.972-5.313,13.392c-4.729,1.423-10.021-2.271-11.816-8.245C198.059,182.582,200.441,176.588,205.166,175.168z
	 M189.598,146.55c3.267-0.836,6.779,2.01,7.84,6.358c1.069,4.346-0.716,8.55-3.979,9.382c-3.264,0.836-6.773-2.012-7.841-6.359
	C184.549,151.585,186.336,147.385,189.598,146.55z M248.978,172.803c3.068-0.906,6.365,2.18,7.369,6.899
	c1,4.712-0.674,9.266-3.742,10.176c-3.07,0.904-6.367-2.183-7.367-6.898C244.238,178.265,245.912,173.708,248.978,172.803z
	 M194.09,202.361c6.222-1.84,8.464,8.196,9.3,11.457c0.648,2.513,1.52,4.586,0.349,5.917c-3.666,4.172-12.351-1.091-13.389-7.199
	C189.537,207.783,191.023,203.268,194.09,202.361z M235.624,136.338c2.209-1.979,6.245-0.4,9.014,3.527
	c2.768,3.924,3.219,8.717,1.006,10.699c-2.215,1.98-6.25,0.401-9.018-3.528C233.858,143.113,233.407,138.321,235.624,136.338z
	 M223.869,82.998c-8.528,0.075-16.156-1.962-25.588,0.223c-5.292,10.463-5.081,15.182-6.785,26.728
	c2.398,0.669,4.55,3.077,5.346,6.313c1.064,4.35-0.723,8.549-3.982,9.383c-1.722,0.438-3.516-0.145-4.978-1.437
	c-4.816,14.267-7.108,22.408-9.462,37.276c0.27,0.091,0.534,0.203,0.786,0.345c2.959,1.62,3.579,6.097,1.392,10
	c-1.438,2.567-3.738,4.245-5.985,4.636l-3.442,13.571c2.178-0.188,4.35,0.354,5.827,1.616c2.533,2.17,2.052,5.638-1.083,7.752
	c-2.17,1.467-5.045,1.891-7.452,1.292l-5.092,20.057c35.936,22.521,106.893,12.708,127.127-25.483l-6.043-11.816
	c-1.053,1.958-2.891,3.122-4.674,2.758c-2.305-0.473-3.555-3.761-2.984-6.401c0.566-2.638,1.875-3.627,3.484-4.219
	c-0.691-7.346-3.631-7.357-6.893-13.474c-3.496,1.465-8.043-1.321-10.217-5.813c-2.172-4.496-1.389-9.276,1.605-11.328
	c-1.559-8.548-1.129-7.113-6.949-13.584c-0.762,0.958-1.75,1.645-2.906,1.939c-3.535,0.908-7.348-2.182-8.508-6.898
	c-1.09-4.462,0.582-8.779,3.766-9.998c-4.082-7.98-8.16-15.958-12.242-23.938c-3.601,1.481-8.502-0.327-11.692-4.564
	C225.084,86.368,224.283,84.671,223.869,82.998z"/>
<path d="M178.279,227.676c2.138,0.283,3.929,0.812,8.336,1.705c3.139,0.634,10.721,1.709,15.479,2.028
	c8.402,0.572,31.409-0.885,36.841-8.24c3.602-4.878,1.586-10.497,1.586-16.234c0.164,4.197,4.813,11.773,9.158,13.287
	c2.865,0.996,10.498-0.499,16.643-3.074c1.986-0.835,8.092-4.544,13.084-7.675C255.367,231.777,210.212,238.375,178.279,227.676z"/>
<path fill="none" stroke="#000000" stroke-width="0.1886" stroke-miterlimit="22.926" d="M178.279,227.676
	c2.138,0.283,3.929,0.812,8.336,1.705c3.139,0.634,10.721,1.709,15.479,2.028c8.402,0.572,31.409-0.885,36.841-8.24
	c3.602-4.878,1.586-10.497,1.586-16.234c0.164,4.197,4.813,11.773,9.158,13.287c2.865,0.996,10.498-0.499,16.643-3.074
	c1.986-0.835,8.092-4.544,13.084-7.675"/>
<path fill="none" stroke="#000000" stroke-width="0.6191" stroke-miterlimit="22.926" d="M199.684,82.354
	c5.52,12.725,10.096,23.908,12.769,37.016 M230.138,176.319c6.992,17.271,10.614,30.955,15.415,49.332L230.138,176.319z
	 M215.863,131.996c2.758,11.004,5.046,18.758,9.182,29.162L215.863,131.996z"/>
<path d="M257.941,240.363c-0.355,0.136-0.688,0.27-0.994,0.398c-4.385,1.885-6.969,4.025-8.168,6.405l0.006,0.003
	c-1.174,2.338-1.02,4.959,0.076,7.848c0.039,0.104,0.08,0.203,0.117,0.295c1.121,2.599,3.664,4.314,6.93,5.01
	c3.359,0.72,7.479,0.357,11.637-1.219c0.377-0.142,0.732-0.287,1.072-0.432c4.752-2.043,9.059-4.852,11.689-7.936
	c2.191-2.57,3.186-5.324,2.203-7.914c-0.021-0.059-0.039-0.111-0.063-0.159c-1.119-2.603-4.975-3.997-9.643-4.358
	C267.992,237.931,262.379,238.679,257.941,240.363z"/>
<path fill="#B01C3C" d="M256.679,240.128c9.088-3.898,24.129-3.686,26.459,2.454c2.328,6.131-5.184,12.817-14.26,16.724
	c-9.082,3.902-18.326,2.094-20.652-4.041C245.9,249.123,247.599,244.031,256.679,240.128z"/>
<path fill="#FFFFFF" d="M278.728,251.615c-1.867,1.205-3.74,2.736-5.549,4.576c-4.141,4.219-7.102,9.242-8.549,13.949
	c-1.42,4.619-1.375,8.91,0.473,11.764c0.293,0.447,0.617,0.848,0.975,1.203c1.553,1.521,3.746,2.149,6.268,1.943
	c2.609-0.215,5.561-1.314,8.537-3.238c1.863-1.201,3.74-2.74,5.547-4.578c4.135-4.219,7.102-9.24,8.551-13.946
	c1.422-4.621,1.377-8.91-0.473-11.765l0,0c-0.289-0.449-0.619-0.851-0.977-1.199c-1.553-1.523-3.746-2.153-6.27-1.942
	C284.654,248.59,281.703,249.691,278.728,251.615z M272.209,255.234c1.871-1.908,3.826-3.506,5.777-4.771
	c3.17-2.05,6.346-3.224,9.172-3.454c2.912-0.24,5.479,0.516,7.332,2.334c0.43,0.42,0.816,0.901,1.162,1.434v0.002
	c2.08,3.216,2.168,7.912,0.633,12.908c-1.502,4.906-4.588,10.131-8.881,14.504c-1.875,1.908-3.83,3.502-5.785,4.767
	c-3.172,2.051-6.338,3.226-9.166,3.46c-2.918,0.236-5.477-0.518-7.336-2.342c-0.43-0.418-0.816-0.895-1.158-1.426v-0.002
	c-2.08-3.221-2.176-7.916-0.639-12.912C264.832,264.833,267.914,259.611,272.209,255.234z"/>
<path d="M315.396,229.002c-0.4-0.062-3.588-2.547-5.381-3.943v-0.001c-0.531-0.411-0.943-0.731-1.066-0.825
	c-1.102-0.84-2.762-1.996-5.078-2.66c-2.309-0.668-5.287-0.852-9.051,0.231c-0.881,0.417-1.588,0.752-2.186,1.041
	c-1.613,0.782-2.457,1.185-3.361,1.484v-0.002c-0.869,0.286-1.756,0.47-3.377,0.784c1.449,0.345,3.018,0.784,3.564,1.392
	c0.381,0.43,0.287,0.835-0.139,1.217v0.004c-0.463,0.414-1.732,0.875-2.623,1.193l-0.035,0.02c0.318,0.178,0.779,0.416,1.262,0.662
	c1.459,0.756,3.113,1.608,3.35,2.641c0.205,0.902-0.465,1.679-2.699,2.18c-0.217,0.05-0.406,0.227-0.631,0.452
	c-0.578,0.551-1.328,1.28-3.344,1.661c-1.088,5.709-1.191,5.771-2.885,6.716c-0.516,0.287-1.207,0.675-2.209,1.479
	c0.197,0.025,0.381,0.043,0.561,0.063c0.547,0.052,1.014,0.063,1.402,0.052l0,0c0.883-0.027,1.434-0.193,1.912-0.33
	c0.672-0.203,1.221-0.363,2.205-0.186h0.002c0.346,0.064,0.434,0.203,0.561,0.432v-0.004c0.088,0.154,0.307,0.527,1.887,0.996
	c0.441,0.137,0.785-0.148,1.092-0.4c0.766-0.634,1.412-1.168,2.539,0.08v0.004c1.738,1.914,0.926,3.129-0.318,4.26
	c-0.146,0.131-0.371,0.318-0.594,0.502c-0.547,0.464-1.104,0.934-1.35,1.423l0,0c-1.328,2.706-2.393,4.983-3.248,7.348
	c-0.818,2.29-1.439,4.671-1.918,7.615c0.551-0.181,1.621-0.769,2.893-1.468c2.889-1.598,6.748-3.719,9.695-3.356
	c1.205,0.146,1.453,0.402,2.02,0.979c0.068,0.07,0.143,0.143,0.219,0.223c0.033,0.029,0.072,0.063,0.107,0.086
	c0.199,0.125,0.445,0.104,0.705,0.006c0.348-0.134,0.695-0.393,0.965-0.667c0.143-0.146,0.262-0.286,0.34-0.415l-0.006-0.002
	c0.668-1.031,1.16-2.102,1.537-3.154c0.395-1.078,0.686-2.153,0.951-3.176l0.146-0.566l0.582,0.06
	c1.152,0.121,1.33,0.968,1.217,2.086c-0.035,0.328-0.088,0.658-0.15,0.992c-0.174,1.039-0.371,2.188,0.281,2.354l0.412,0.104
	l0.088,0.419l0.004,0.013l0.01,0.049c0.014,0.107,0.055,0.765,0.021,1.635c-0.031,0.867-0.143,1.98-0.408,3.046
	c-0.236,0.93-0.598,1.836-1.135,2.557c0.648-0.204,1.348-0.552,1.988-1.12c1.143-1.021,2.162-3.589,2.855-5.328
	c0.125-0.314,0.236-0.601,0.314-0.787c0.238-0.574,0.58-0.729,1.02-0.549l0,0c0.494,0.203,0.502,0.86,0.52,1.726
	c0.016,0.778,0.029,1.819,0.188,2.38c0.201-0.279,0.551-0.838,0.936-1.447c0.564-0.91,1.211-1.934,1.752-2.561
	c1.395-1.611,2.566-2.738,3.52-3.455c1.238-0.939,2.205-1.236,2.867-1.059c0.502,0.137,0.871,0.578,1.162,1.364
	c0.213,0.599,0.41,1.452,0.621,2.604c0.072,0.385,0.088,0.785,0.092,1.205c0.539-1.26,1.248-2.709,2.104-3.815
	c0.918-1.204,2.473-1.64,3.332-1.801c-0.096-3.955,0.631-5.888,1.318-7.708c0.404-1.076,0.795-2.111,0.963-3.539
	c0.014-0.125-0.084-0.004-0.186-0.215c-0.582-1.174-1.955-3.954-2.146-8.348c-0.021-0.451-0.471-0.906-0.893-1.338
	c-0.195-0.191-0.383-0.382-0.541-0.576l0,0c-1.676-2.013-3.584-2.445-4.965-2.756c-0.688-0.154-1.26-0.285-1.719-0.562
	c-1.615-0.972-1.205-2.925,3.271-10.399c0.152-0.257,0.379-0.711,0.645-1.291c-2.609,3.796-5.119,6.699-6.564,8.364
	c-0.58,0.667-0.982,1.13-1.121,1.337l-0.242,0.369L315.396,229.002z"/>
<path fill="#E3A045" d="M341.414,184.313c0.91,6.359,6.744,16.189,14.729,11.483c3.164-1.864,5.088-6.191,4.885-9.788
	c-0.32-5.708-5.496-9.871-8.832-5.399c-1.508,2.011,0.203,4.849,0.354,6.542c0.277,3.144-2.393,4.291-4.439,3.014
	c-1.467-0.91-2.398-3.436-2.709-5.664c-2.555-18.202,0.887-37.53-2.203-56.32c-4.377-26.579-18.047-51.699-47.678-67.636
	c-19.613-10.546-38.105-17.254-60.315-17.261c-8.197,0-16.018,1.072-22.995,2.593c-0.646,0.143-1.266,0.268-1.846,0.402
	c-0.926,0.206-2.583,1.606,1.362,0.868c1.23-0.228,2.603-0.187,4.07-0.28c17.138-1.08,24.971-0.477,34.354,1.529
	c5.506,1.178,11.162,2.146,19.596,5.472c43.119,17,65.9,50.021,69.738,94.461C340.429,159.362,339.504,171.075,341.414,184.313z"/>
<path fill="#B01C3C" d="M272.84,255.933c8.266-8.428,18.086-10.426,21.936-4.475c3.848,5.955,0.266,17.607-7.998,26.038
	c-8.27,8.422-18.092,10.421-21.936,4.468C260.984,276.011,264.568,264.357,272.84,255.933z"/>
<path fill="#E3A045" d="M315.506,228.328c-0.287-0.043-5.383-4.06-6.148-4.641c-2.293-1.741-6.912-4.808-14.779-2.525
	c-6.301,2.979-4.49,2.439-11.338,3.761c-1.455,0.277,4.766,0.974,5.713,2.035c0.354,0.394-2.377,1.254-3.137,1.565
	c-2.137,0.867,9.477,3.688,2.615,5.226c-1.141,0.256-1.031,1.69-4.408,2.183c-1.652,8.713-0.975,4.553-6.066,9.234
	c1.58,0.3,2.699,0.384,3.541,0.357c2.088-0.065,2.441-0.808,3.975-0.529c0.162,0.029,0.029,0.71,2.375,1.41
	c1.705,0.507,2.025-1.947,3.32-0.521c2.354,2.598-1.439,3.553-2.363,5.43c-2.68,5.448-4.295,9.195-5.268,15.398
	c-0.436,2.758,8.145-4.902,13.215-4.279c1.123,0.141,1.209,0.383,1.846,1.008c1.02,1,2.605-0.232,3.168-1.107
	c1.395-2.154,2.031-4.443,2.57-6.53c1.811,0.188-1.113,4.823,1.248,5.421c0.027,0.006,0.482,7.416-3.367,7.932
	c-0.619,0.084,2.551,0.76,4.965-1.396c1.459-1.299,2.645-4.652,3.35-6.357c0.533-1.306-0.305,4.98,1.289,4.063
	c0.465-0.265,1.98-3.133,3.008-4.325c2.918-3.381,4.826-4.533,5.688-4.299c0.543,0.146,0.893,1.204,1.297,3.432
	c0.195,1.074-0.061,2.444,0.234,4.09c0.07,0.4,1.271-3.932,3.17-6.412c1.133-1.477,3.496-1.605,3.496-1.637
	c-0.293-6.791,1.793-7.742,2.25-11.746c0.039-0.328-2.084-3.211-2.324-8.676c-0.039-0.959-1.012-1.629-1.594-2.322
	c-5.119-6.137-9.748,1.938-0.482-11.819c3.08-4.575-0.365-6.206,0.492-7.761l-1.539,3.129
	C321.33,223.751,316.101,227.414,315.506,228.328z"/>
<path fill="#E3A045" d="M147.996,72.269c3.182-5.58,4.62-16.917-4.566-18.111c-3.645-0.471-7.814,1.761-9.866,4.726
	c-3.249,4.7-1.726,11.166,3.653,9.688c2.422-0.667,2.815-3.952,3.738-5.38c1.714-2.651,4.523-1.918,5.357,0.348
	c0.596,1.622-0.221,4.183-1.343,6.134c-9.166,15.932-24.292,28.375-32.863,45.79c-11.768,23.924-14.463,53.39-0.872,84.164
	c5.713,12.935,11.259,23.108,19.223,32.987c0.998,1.24,2.494,3.043,3.802,3.8c4.997,2.903,0.174-1.741-0.793-3.22
	c-1.077-1.639-2.736-3.906-3.456-5.012c-1.726-2.656-3.241-4.428-5.595-8.959c-21.204-40.904-18.852-78.753,3.004-117.375
	C132.87,92.209,141.371,83.886,147.996,72.269z"/>
<path fill="#FFFFFF" d="M261.779,241.695c3.516-0.385,5.436,0.55,5.666,1.658c-12.793,4.592-13.596,10.113-13.596,10.113
	s-2.422-0.346-2.814-2.396C250.324,247.318,258.117,242.103,261.779,241.695z"/>
<path fill="#FFFFFF" d="M279.699,255.16c2.332-1.02,2.912,1.072,2.912,1.072s-10.639,9.623-9.992,16.635
	c-0.646,0.725-4.979-0.209-5.598-3.075C267.804,266.091,276.248,256.681,279.699,255.16z"/>
<path fill="#FFFFFF" d="M251.838,267.379c0.383,0.713-0.543,1.47,0.574,2.552c-7.854,0.608-17.008,11.594-17.008,11.594
	l-1.122-4.076C234.282,277.451,239.429,267.691,251.838,267.379z"/>
<path fill="#FFFFFF" d="M222.264,266.328c1.406,0.824,2.389,1.707,3.019,3.626c-10.06-0.188-14.585,3.728-15.891,5.536
	c-2.413,0.096-2.613-2.577-2.613-2.577S214.721,264.894,222.264,266.328z"/>
<path fill="#E3A045" d="M173.842,267.751c1.961,2.018,2.638,2.523,3.492,3.13c2.316,1.647,8.415,4.687,10.074,2.365
	c1.824-3.897-2.222-6.511-7.287-7.397c-4.96-0.867-5.759,2.934-14.929,4.672c-0.885-0.002-0.542-0.656-0.154-0.703
	c7.445-0.892,9.433-6.584,16.622-4.969c5.031,1.131,9.189,4.623,7.199,9.348c-2.613,3.609-11.18-0.813-13.232-2.553
	c-1.485-1.259-3.264-3.49-4.426-5.365c-0.061-0.102,1.556,0.738,1.987,0.828L173.842,267.751z"/>
<path fill="#FFFFFF" d="M322.629,228.89c0,0-4.807-1.133-6.352-0.093c-1.758,1.183-5.178,1.228-5.178,1.228
	s-5.889-3.057-4.691-2.539c1.189,0.509-4.797-1.751-4.797-1.751l-0.006,0.238c0,0,7.883,3.224,7.596,3.781
	c-0.625,0.881-9.691-0.623-9.691-0.623l-0.006,0.377c0,0,5.879,1.098,8.021,1.252c2.139,0.152,6.531,0.217,6.531,0.217l-3.408,4.328
	l-3.506,0.327l-3.744-0.382l-7.701-0.814c0,0-1.977-2.25-4.293-1.859c-0.344,0.094-0.607,0.503,0.326,0.515
	c1.678-0.135,2.75,1.66,2.75,1.66s-4.031,1.338-4.635,1.444c-0.246,0.203-0.529,0.43-0.018,0.537
	c0.506,0.108,5.688-1.778,9.25-0.961c1.148,0.414-5.277,2.017-5.387,2.176c-0.115,0.158-0.512,0.25-0.018,0.535
	c2.053,0.236,6.045-2.313,7.238-2.207c1.201,0.111,6.164,0.506,6.164,0.506l3.436-0.362c0,0-0.326,1.839-1.807,4.301
	c-1.248,2.203-6.707,8.731-8.5,11.122c-1.789,2.393-1.309,5.155-1.309,5.155l0.754,0.075c0,0-0.195-3.209,1.504-5.086
	c1.863-2.067,6.039-7.285,6.039-7.285s0.242,1.828,0.064,3.339c-0.174,1.508-2.057,4.239-2.25,4.961
	c-0.199,0.721-0.055,2.151-0.055,2.151l0.559,0.226c0,0-0.092-0.737,0.15-2c0.252-1.261,1.691-2.549,2.221-4.108
	c0.545-1.607,0.43-6.004,0.43-6.004s2.756-3.584,3.301-7.021c1.102-2.244,3.057-4.49,3.057-4.49s0.018,4.88,2.891,6.229
	c1.379,0.763,1.131,0.867,1.904,1.537c0.953,0.818,0.904,0.851,1.016,1.889c0.119,1.035-1.545,4.312-1.648,4.867
	c-0.105,0.562-0.422,2.061-0.422,2.061l0.627-0.046c0,0,0.141-1.425,0.365-1.974c0.23-0.547,0.473-1.287,1.361-3.098
	c0.887-1.813,1.445,0.693,1.445,0.693l0.607,3.303l0.74,0.426l-0.74-4.549c0,0-2.266-4.158-3.797-5.086
	c-0.529-0.318,1.094-0.525,2.295,0.498c1.891,1.611,4.846,4.094,5.529,3.921c0.76-0.298,0.609-0.056,0.326-0.215
	c-2.746-1.513-2.91-2.468-5.426-4.392c-1.771-1.358-3.205-0.44-3.928-0.928c-0.555-0.378-1.002-1.103-1.002-1.103
	s-0.951-0.935-1.051-3.011c-0.094-2.078,1.516-2.842,2.207-3.082c0.682-0.241,3.859,0.89,3.859,0.89L322.629,228.89z"/>
<path fill="#E3A045" d="M324.781,215.523c0.854-2.267,5.492-3.004,6.4-3.059c4.477-0.904,3.271-7.894,1.68-7.443
	c-0.563,0.228-6.736,4.404-8.604,7.153C322.195,215.201,323.935,217.791,324.781,215.523z"/>
<g>
	<path fill="#B01C3C" d="M372.136,407.755c0.02,0.084,0.039,0.158,0.057,0.244h0.004
		C372.185,407.941,372.164,407.853,372.136,407.755z"/>
	<path fill="#B01C3C" d="M372.246,404.746c-0.172,0.232-0.271,0.432-0.348,0.643c-0.055,0.148-0.105,0.305-0.123,0.506
		c-0.004,0.043,0.012,0.084,0.012,0.129c0.004-0.443,0.16-0.877,0.65-1.545c0.025-0.033,0.061-0.07,0.09-0.104
		c-0.025,0.027-0.053,0.057-0.084,0.092C372.385,404.541,372.314,404.646,372.246,404.746z"/>
	<path fill="#B01C3C" d="M372.568,404.335c0.004-0.004,0.008-0.008,0.012-0.012c-0.02,0.02-0.033,0.037-0.051,0.051
		C372.545,404.365,372.558,404.349,372.568,404.335z"/>
	<path fill="#B01C3C" d="M372.617,404.279c0.008-0.008,0.016-0.027,0.023-0.043c-0.016,0.025-0.039,0.055-0.063,0.09
		C372.594,404.31,372.605,404.296,372.617,404.279z"/>
	<path fill="#B01C3C" d="M371.822,406.503c0.025,0.121,0.049,0.246,0.076,0.371c0,0.008,0.014,0.008,0.016,0.016
		c0.053,0.23,0.152,0.598,0.225,0.867c-0.139-0.592-0.271-1.021-0.324-1.396C371.818,406.41,371.812,406.455,371.822,406.503z"/>
	<path fill="#B01C3C" d="M68.914,365.382c-5.931-1.244-11.109,4.697-13.535,10.047c-3.167,6.979-0.995,27.277,3.809,32.742
		c0.376,0.428,3.104,0.855,2.722-1.482c-0.384-2.365-2.228-8.043-2.979-13.549c-0.691-5.055-0.035-10.063-0.029-11.803
		c0.002-0.344,4.452,3.063,9.041,4.855c3.458,1.355,6.915,1.568,8.347,1.525c0.025,0.068-1.881,16.217-0.958,18.063
		c0.601,1.209,0.71,1.213,1.445,0.086c1.628-2.49,3.142-9.553,3.949-16.084c0.749-6.055,1.351-9.988-1.094-15.787
		C77.816,369.699,73.78,366.406,68.914,365.382z M76.325,382.222c-0.235,0.23-3.786-0.15-7.552-1.348
		c-4.821-1.529-10.021-4.145-9.312-5.768c1.972-4.525,9.518-5.896,12.936-3.443C76.125,374.339,78.058,380.523,76.325,382.222z"/>
	<path fill="#B01C3C" d="M119.549,386.642c-2.89-3.836-7.848-5.217-11.578-4.16c-5.022,1.422-7.708,6.443-8.563,10.449
		c-0.557,2.609,0.048,4.941-0.035,5.035c-0.194,0.221-3.8-10.068-2.418-10.111c2.976-0.094,9.221-6.777,11.993-11.791
		c4.095-7.414,11.823-33.789,0.301-37.25c-10.903-3.277-16.918,11.783-18.804,25.676c-0.414,3.057-0.484,6.068-0.413,8.813
		c0.184,6.848,0.717,10.965,2.738,17.607c0.568,1.59,1.191,3.246,1.792,4.859c1.668,4.48,5.145,9.049,8.29,11.586
		c4.562,3.674,10.82,3.826,14.462,1.037c3.599-2.758,5.318-8.037,4.71-13.336C121.645,391.742,121.15,388.763,119.549,386.642z
		 M95.07,383.57c-2.821-1.818-2.2-14.625-1.567-18.557c1.251-7.811,4.68-17.949,10.181-22.002c3.7-2.727,6.584,1.922,7.344,6.176
		C113.29,361.855,99.911,386.687,95.07,383.57z M109.707,405.894c-12.26-1.342-6.914-21.063,2.101-19.146
		c4.388,0.936,6.51,7.564,6.597,10.953C118.51,401.99,115.748,406.556,109.707,405.894z"/>
	<path fill="#B01C3C" d="M355.793,324.437c-1.197,0.135,0.516,5.475,0.195,12.34c-0.133,2.873-0.785,7.771-2.949,12.986
		c-3.588,8.646-7.705,15.275-11.133,14.855c-1.313-0.162-1.639-5.908-1.66-7.277c-0.045-2.791-0.215-3.027-0.293-6
		c-0.166-5.957-1.256-12.141-2.068-14.564c-1.236-3.695-2.418-5.959-3.621-5.17c-1.279,0.836-0.676,3.979-0.186,7.969
		c0.52,4.258,2.248,16.113,1.803,31.496c-0.426,14.746-2.604,25.98-2.496,33.268c0.08,5.621,2.883,6,3.951,0.813
		c1.137-5.525,3.662-31.027,4.678-31.121c1.127-0.104,3.689,1.232,5.387,4.584c2.447,4.83,3.928,12.244,3.934,20.162
		c0.006,3.564,0,8.361,1.854,10.641c1.348,1.662,2.857-1.15,2.77-3.518c-0.1-2.516-1.004-1.455-1.133-4.842
		c-0.252-6.697,0.422-14.092-0.623-20.641c-0.904-5.646-3.305-11.293-8.613-13.156c-0.254-0.09,4.922-3.855,8.994-11.754
		c2.9-5.625,4.971-10.396,5.283-18.563C360.068,331.476,358.564,324.121,355.793,324.437z"/>
	<path fill="#B01C3C" d="M37.86,322.406c-5.177-1.549-10.011,0.77-14.808,5.822c-3.982,4.197-6.854,11.854-7.994,14.803
		c-4.462,11.529-0.141,43.137-0.126,51.529c0.012,5.826-0.102,11.943-3.561,11.518c-1.673-0.205-3.702-9.518-9.979-7.912
		c-3.146,0.803-0.687,11.857,8.946,11.732c7.119-0.088,8.488-4.867,9.338-9.494c1.017-5.555,0.88-13.061,0.896-15.791
		c0.054-8.436-1.536-18.289-0.288-26.863c1.745-12.012,4.804-20.246,6.198-23.516c1.444-3.393,5.405-10.879,10.126-8.793
		c2,0.885,3.19,2.797,4.443,4.9c2.899,4.871,3.559,14.604,3.19,20.15c-0.651,9.797-5.585,35.514-2.515,49.254
		c0.765,3.414,2.612,6.328,5.805,6.549c0.98,0.068-1.447-1.404-1.99-3.119c-1.85-5.85-1.624-10.764-1.536-16.623
		c0.197-13.406,4.596-27.746,5.547-42.621C50.138,334.736,47.068,325.154,37.86,322.406z"/>
	<path fill="#B01C3C" d="M152.256,353.167c-2.28-0.92-1.868,7.477-2.817,11.439c-1.444,6.037-3.88,12.061-7.886,16.711
		c-1.304,1.51-2.813,2.838-4.125,3.137c-1.518,0.344-2.03-0.412-1.796-1.682c0.773-4.186,0.061-21.791-2.049-22.389
		c-2.979-0.848-2.968,4.254-2.177,10.088c0.663,4.889,0.795,14.844,0.217,22.453c-0.137,1.811-1.068,18.287,2.371,13.896
		c0.941-1.201,1.532-11.266,1.496-13.77c-0.035-2.563,0.13-4.295,3.916-3.871c7.1,0.795,5.389,19.416,6.708,20.486
		c1.792,1.457,2.557-5.752,2.549-10.285c-0.012-6.016-1.9-8.98-5.563-13.807c1.372-1.484,6.767-7.264,9.383-14.975
		C153.651,367.169,156.598,354.912,152.256,353.167z"/>
	<path fill="#B01C3C" d="M192.772,381.369c-1.205,0.996-2.258,2.289-3.13,2.189c-0.397-0.047-0.417-0.133-0.369-0.443
		c-0.753-9.35-7.328-22.873-18.504-18.391c-4.028,1.617-7.447,5.271-9.625,8.996c-3.491,5.973-3.508,22.404,0.796,29.566
		c1.339,2.229,4.064,7.488,6.221,3.939c0.482-0.799-0.768-2.219-1.675-4.279c-1.65-3.752-3.491-9.299-3.491-14.258
		c0-0.598-0.008-12.918,1.664-6.961c1.042,3.717,4.271,5.947,8.067,7.391c0.836,0.314,3.756,1.275,6.941,1.209
		c2.515-0.055,4.836-0.986,4.785-0.754c-1.79,8.531-1.948,13.971-1.684,16.449c0.338,3.16,1.479,1.855,2.203,0.127
		c0.862-2.072,1.706-5.717,1.813-6.318c0.257-1.439,1.669-10.957,2.457-11.809c1.567-1.703,3.554-2.23,4.783-3.881
		C195.67,381.923,196.871,377.988,192.772,381.369z M184.218,385.087c-0.104,0.797-5.814,0.953-10.112-0.799
		c-2.955-1.201-5.25-3.859-6.563-6.395c-3.328-6.42,5.347-9.248,9.05-7.992C182.039,371.746,184.76,380.939,184.218,385.087z"/>
	<path fill="#B01C3C" d="M471.601,381.369c-1.205,0.996-2.258,2.289-3.129,2.189c-0.398-0.047-0.418-0.133-0.369-0.443
		c-0.754-9.35-7.328-22.873-18.504-18.391c-4.029,1.617-7.447,5.271-9.625,8.996c-3.49,5.973-3.508,22.404,0.795,29.566
		c1.34,2.229,4.064,7.488,6.221,3.939c0.482-0.799-0.768-2.219-1.674-4.279c-1.65-3.752-3.49-9.299-3.49-14.258
		c0-0.598-0.01-12.918,1.662-6.961c1.043,3.717,4.271,5.947,8.068,7.391c0.836,0.314,3.756,1.275,6.941,1.209
		c2.514-0.055,4.836-0.986,4.783-0.754c-1.789,8.531-1.947,13.971-1.684,16.449c0.338,3.16,1.479,1.855,2.203,0.127
		c0.861-2.072,1.707-5.717,1.813-6.318c0.256-1.439,1.67-10.957,2.457-11.809c1.568-1.703,3.555-2.23,4.783-3.881
		C474.5,381.923,475.703,377.988,471.601,381.369z M463.049,385.087c-0.105,0.797-5.814,0.953-10.113-0.799
		c-2.955-1.201-5.25-3.859-6.563-6.395c-3.328-6.42,5.348-9.248,9.051-7.992C460.871,371.746,463.59,380.939,463.049,385.087z"/>
	<path fill="#B01C3C" d="M426.638,386.642c-2.889-3.832-7.848-5.217-11.58-4.16c-5.025,1.422-7.709,6.443-8.563,10.447
		c-0.557,2.611,0.047,4.943-0.037,5.037c-0.193,0.221-3.801-10.068-2.42-10.113c2.979-0.094,9.221-6.775,11.994-11.791
		c4.094-7.412,11.82-33.787,0.301-37.25c-10.904-3.275-16.916,11.783-18.807,25.676c-0.414,3.057-0.48,6.068-0.408,8.814
		c0.178,6.85,0.715,10.963,2.736,17.607c0.566,1.59,1.188,3.246,1.789,4.859c1.67,4.479,5.146,9.047,8.293,11.586
		c4.561,3.674,10.818,3.826,14.461,1.037c3.602-2.758,5.32-8.037,4.711-13.336C428.73,391.742,428.238,388.763,426.638,386.642z
		 M402.152,383.57c-2.82-1.818-2.197-14.627-1.568-18.557c1.252-7.811,4.682-17.949,10.184-22.002
		c3.699-2.727,6.586,1.922,7.344,6.176C420.377,361.853,407,386.685,402.152,383.57z M416.81,405.931
		c-12.264-1.346-6.916-21.064,2.098-19.146c4.391,0.934,6.514,7.563,6.598,10.949C425.609,402.025,422.853,406.593,416.81,405.931z"
		/>
	<path fill="#B01C3C" d="M313.558,367.908c-5.93-1.244-9.85,2.172-12.275,7.521c-0.633,1.396-1.6,8.318-0.84,14.91
		c0.898,7.803,3.711,16.076,5.119,27.447c1.068,8.639,0.906,19.387,0.635,26.328c-0.051,1.309-0.107,2.479-0.154,3.475
		c-0.141,2.672,0.002,3.797,0.744,4.041c0.52,0.17,1.408,0.713,2.367-2.385c2.205-7.166,1.518-26.967,1.311-28.477
		c-0.725-5.236-1.637-9.789-2.352-12.967h-0.002c-0.004-0.029-0.012-0.063-0.016-0.092c-0.596-2.643-1.047-4.32-1.123-4.615
		c-0.709-2.764-1.654-6.395-2.137-9.955c-0.346-2.514-0.354-5.018-0.279-7.107c0.203-5.563,2.416-9.59,5.184-11.523
		c4.289-2.998,8.463-0.436,10.66,4.379c1.771,3.873,2.262,9.205,0.504,14.268c-1.004,2.885-3.521,7.146-6.209,8.785
		c-2.66,1.619-6.145,2.578-7.107,2.537c-0.158-0.004-0.266-0.025-0.238,0.068l0.07,0.271l0.369,1.527
		c0.02,0.072,0.033,0.17,0.057,0.262c0.076,0.334,0.176,0.752,0.252,1.104c0.008,0.029,0.012,0.063,0.02,0.092
		c0.008,0.023,0.031,0.008,0.104,0.021c0.896,0.193,7.791-0.473,12.545-5.365c6.01-6.176,6.773-18.188,3.512-25.934
		C322.461,372.224,318.426,368.931,313.558,367.908z"/>
	<path fill="#B01C3C" d="M272.789,382.365c-5.148-0.346-9.32,3.445-11.449,6.893c-1.383,2.244-1.598,4.619-1.705,4.68
		c-0.367,0.086-0.738-5.564,0.107-12.176c0.803-6.248,0.959-8.447,2.613-12.879c1.361-3.65-0.439-4.584-2.586-1.123
		c-3.391,5.455-3.65,11.215-3.945,17.408c0.002,1.672,0.031,3.422,0.055,5.125c0.068,4.727,1.791,10.143,3.877,13.551
		c3.027,4.938,8.809,7.156,13.133,5.771c4.27-1.375,7.625-5.719,8.818-10.859c0.746-3.213,1.275-6.154,0.49-8.662
		C280.777,385.556,276.621,382.619,272.789,382.365z M276.683,399.568c-1.178,3.58-4.813,6.543-9.615,4.211
		c-9.406-4.563,1.512-20.201,7.389-15.223C276.828,390.566,277.57,396.875,276.683,399.568z"/>
	<path fill="#B01C3C" d="M286.48,365.603c-0.982-0.115-1.822,1.531-1.797,4.184c0.063,7.268,1.684,13.363,1.551,21.336
		c-0.105,6.514-1.217,15.549-0.646,17.063c0.582,1.549,0.674,1.549,1.227,0.018c1.229-3.379,3.133-12.549,3.43-21.182
		c0.227-6.727-0.662-11.84-1.934-17.643C287.857,367.332,287.367,365.707,286.48,365.603z"/>
	<path fill="#B01C3C" d="M247.685,337.205c-10.826-5.379-19.817,9.311-24.274,23.51c-0.98,3.125-1.596,6.268-2.007,9.152
		c-1.037,7.201-1.212,11.602-0.286,18.92c1.254,7.152,2.567,13.297,7.613,19.016c4.116,4.658,10.635,5.938,14.95,3.666
		c2.441-1.283,3.654-2.357,4.93-5.117c1.898-4.129-1.189-7.594-5.195-1.467c-1.527,2.336-3.158,2.588-6.963,1.5
		c-4.194-1.197-7.377-8.873-8.88-16.553c-1.635-8.354-1.288-24.363,2.266-32.59c2.972-6.869,5.968-13.971,11.269-16.633
		c3.041-1.529,4.703,0.744,5.959,3.621C249.482,349.783,253.603,340.912,247.685,337.205z"/>
	<path fill="#B01C3C" d="M377.574,367.908c-5.93-1.244-9.85,2.172-12.273,7.521c-0.633,1.396-1.59,8.316-0.838,14.91
		c0.488,4.301,1.066,8.871,2.652,13.764c1.303,4.004,5.059,3.928,5.078,3.896c-0.018-0.086-0.037-0.16-0.057-0.242
		c-0.068-0.27-0.17-0.639-0.223-0.871c-0.002-0.006-0.016-0.006-0.018-0.012c-0.025-0.125-0.049-0.25-0.076-0.371
		c-0.008-0.051-0.002-0.094-0.008-0.143c0.053,0.373,0.188,0.805,0.322,1.396c0.023,0.098,0.047,0.186,0.057,0.242l0,0
		c0,0.008,0,0.01,0,0.014c0.01,0.027,0.039,0.008,0.111,0.023c0.895,0.191,7.717-0.684,12.471-5.576
		c6.008-6.176,6.775-18.188,3.512-25.934C386.474,372.224,382.439,368.931,377.574,367.908z M372.617,404.279
		c-0.014,0.018-0.023,0.031-0.037,0.047c-0.006,0.004-0.008,0.006-0.012,0.01c-0.014,0.016-0.025,0.029-0.041,0.041
		c-0.029,0.033-0.064,0.07-0.092,0.104c-0.49,0.668-0.646,1.102-0.648,1.545c0-0.045-0.016-0.084-0.012-0.129
		c0.016-0.201,0.068-0.357,0.121-0.506c0.076-0.211,0.176-0.408,0.348-0.643c0.07-0.102,0.139-0.205,0.199-0.279
		c0.031-0.035,0.059-0.063,0.084-0.092c0.018-0.016,0.029-0.031,0.047-0.049c0.025-0.037,0.049-0.064,0.063-0.092
		C372.633,404.251,372.625,404.271,372.617,404.279z M384.92,393.154c-1.004,2.883-3.48,7.227-6.209,8.785
		c-3.088,1.764-5.203,1.875-6.061,2.223c-0.012,0.004,0.006,0.006,0.01,0.018c0.004,0.006-0.004,0.014-0.004,0.023
		c0,0.012-0.008,0.018-0.014,0.027c0.016-0.029,0.021-0.051,0.006-0.076c-0.004-0.004-0.008-0.01-0.014-0.014
		c-2.295-2.025-2.25-3.826-2.996-6.701l-0.791-4.301c-0.457-2.494-0.35-5.018-0.277-7.107c0.205-5.563,2.416-9.59,5.188-11.523
		c4.285-2.998,8.459-0.436,10.658,4.379C386.185,382.759,386.676,388.093,384.92,393.154z"/>
</g>
<circle fill="#E3A045" cx="157.394" cy="264.951" r="3.941"/>
<circle fill="#E3A045" cx="150.945" cy="258.74" r="2.568"/>
<circle fill="#E3A045" cx="145.331" cy="253.365" r="2.209"/>
</svg>
