<?xml version="1.0" encoding="utf-8"?>
<!-- Generator: Adobe Illustrator 16.0.0, SVG Export Plug-In . SVG Version: 6.00 Build 0)  -->
<!DOCTYPE svg PUBLIC "-//W3C//DTD SVG 1.1//EN" "http://www.w3.org/Graphics/SVG/1.1/DTD/svg11.dtd">
<svg version="1.1" id="Layer_1" xmlns="http://www.w3.org/2000/svg" xmlns:xlink="http://www.w3.org/1999/xlink" x="0px" y="0px"
	 width="639px" height="402.311px" viewBox="0 0 639 402.311" enable-background="new 0 0 639 402.311" xml:space="preserve">
<path d="M364.787,136.772l-4.334-8.479l-0.664-1.299l-0.69,1.284c-0.316,0.589-0.744,1.052-1.217,1.332
	c-0.421,0.246-0.869,0.349-1.306,0.261v-0.001l-0.016-0.005c-0.553-0.119-1-0.613-1.279-1.259c-0.317-0.722-0.424-1.6-0.264-2.386
	l0.002,0.001l0.006-0.037c0.174-0.799,0.445-1.332,0.785-1.705c0.332-0.36,0.754-0.588,1.229-0.762l0.554-0.205l-0.056-0.586
	c-0.34-3.604-1.379-4.896-2.735-6.588c-0.699-0.87-1.488-1.855-2.295-3.369l-0.328-0.615l-0.642,0.269
	c-1.002,0.42-2.184,0.223-3.291-0.408c-1.219-0.692-2.334-1.896-3.057-3.391c-0.705-1.455-0.937-2.947-0.752-4.24
	c0.178-1.252,0.746-2.308,1.645-2.924l0.41-0.28l-0.09-0.487l-0.113-0.621c-0.475-2.619-0.696-3.836-1.256-4.93
	c-0.488-0.959-1.174-1.703-2.453-3.094c-0.375-0.409-0.811-0.882-1.346-1.479l-0.605-0.672l-0.563,0.707
	c-0.229,0.283-0.49,0.527-0.781,0.721l0.003,0.002c-0.273,0.183-0.572,0.316-0.896,0.4v0.001l-0.029,0.007v0.001
	c-1.01,0.245-2.075-0.083-2.985-0.816c-0.965-0.78-1.754-2.011-2.138-3.507l-0.02-0.078h-0.002
	c-0.351-1.438-0.262-2.848,0.166-3.988c0.412-1.09,1.133-1.928,2.063-2.285l0.795-0.307l-0.389-0.758l-8.783-17.18l-0.321-0.627
	l-0.648,0.271c-1.115,0.458-2.455,0.395-3.775-0.121c-1.352-0.527-2.666-1.521-3.711-2.908c-0.381-0.507-0.7-1.039-0.965-1.584
	c-0.268-0.553-0.471-1.119-0.61-1.682l-0.146-0.583l-0.604,0.005c-1.984,0.021-3.951-0.129-5.914-0.279
	c-3.992-0.306-7.986-0.611-12.613,0.461l-0.353,0.08l-0.161,0.32c-3.185,6.304-3.642,9.74-4.396,15.466
	c-0.152,1.146-0.316,2.391-0.549,3.95l-0.094,0.665l0.649,0.183c0.724,0.202,1.418,0.683,1.998,1.368
	c0.584,0.69,1.045,1.583,1.297,2.606c0.342,1.396,0.23,2.759-0.227,3.832c-0.422,1.002-1.15,1.741-2.076,1.979
	c-0.475,0.122-0.959,0.104-1.426-0.029c-0.504-0.146-1.002-0.433-1.455-0.835l-0.861-0.76l-0.369,1.093
	c-1.729,5.132-3.01,9.168-4.069,13.264c-1.063,4.101-1.9,8.25-2.75,13.609l-0.103,0.646l0.619,0.202
	c0.07,0.023,0.146,0.054,0.228,0.088v-0.003c0.065,0.028,0.137,0.063,0.209,0.103l0.026,0.015l-0.002,0.002
	c0.82,0.459,1.32,1.332,1.469,2.379c0.16,1.127-0.082,2.438-0.756,3.676l-0.039,0.063c-0.455,0.813-1.041,1.487-1.688,1.989
	c-0.652,0.506-1.367,0.836-2.064,0.957l-0.492,0.084l-0.123,0.486l-2.471,9.735l-0.264,1.041l1.07-0.09
	c0.709-0.063,1.413-0.003,2.051,0.172c0.598,0.166,1.137,0.437,1.571,0.808c0.203,0.174,0.371,0.364,0.509,0.564
	c0.303,0.45,0.426,0.952,0.375,1.455c-0.054,0.525-0.289,1.061-0.709,1.55c-0.236,0.273-0.529,0.535-0.884,0.771
	c-0.674,0.457-1.459,0.752-2.264,0.893c-0.84,0.146-1.697,0.121-2.469-0.072l-0.742-0.187l-0.186,0.743l-3.656,14.391l-0.135,0.536
	l0.475,0.3c0.928,0.579,1.871,1.125,2.828,1.631c13.022,6.9,31.143,8.669,47.943,5.597c16.833-3.08,32.385-11.024,40.229-23.547
	c0.473-0.755,0.91-1.509,1.309-2.263l0.187-0.348L364.787,136.772z M311.511,89.623c-0.336,0.771-0.908,1.342-1.635,1.524
	c-0.729,0.183-1.5-0.052-2.162-0.575c-0.715-0.569-1.295-1.467-1.57-2.559l-0.002-0.015c-0.277-1.102-0.191-2.172,0.174-3.013
	c0.332-0.767,0.898-1.335,1.621-1.521l0.016-0.003c0.728-0.182,1.498,0.053,2.16,0.578c0.72,0.569,1.304,1.472,1.576,2.57
	C311.964,87.711,311.876,88.781,311.511,89.623z M307.467,124.292c1.396,0.976,2.559,2.564,3.151,4.54
	c0.593,1.977,0.502,3.946-0.127,5.53c-0.604,1.523-1.711,2.688-3.17,3.127c-1.463,0.438-3.026,0.078-4.375-0.858
	c-1.396-0.977-2.559-2.566-3.149-4.541c-0.595-1.977-0.506-3.945,0.125-5.529c0.604-1.523,1.711-2.688,3.172-3.129
	C304.557,122.992,306.118,123.353,307.467,124.292z M300.307,148.563c0.188,0.641,0.344,1.253,0.465,1.729v0.004l0.084,0.327h0.002
	c0.088,0.341,0.16,0.598,0.229,0.849c0.34,1.209,0.619,2.213,0.186,2.708c-0.379,0.43-0.858,0.672-1.395,0.766
	c-0.675,0.113-1.441-0.005-2.218-0.299c-0.815-0.312-1.627-0.813-2.34-1.441c-1.178-1.03-2.088-2.395-2.328-3.813
	c-0.272-1.604-0.157-3.154,0.285-4.362c0.392-1.063,1.027-1.837,1.857-2.079C297.985,142.105,299.514,145.876,300.307,148.563z
	 M291.922,102.894c0.91-0.22,1.873,0.078,2.694,0.742c0.884,0.712,1.601,1.835,1.949,3.202h0.002l0.019,0.073v-0.001
	c0.342,1.395,0.229,2.755-0.224,3.827c-0.428,1.002-1.153,1.741-2.082,1.978v0.001l-0.026,0.008v0.002
	c-0.912,0.222-1.875-0.077-2.697-0.739c-0.883-0.714-1.603-1.838-1.949-3.203l-0.02-0.072l0,0c-0.34-1.396-0.23-2.756,0.225-3.826
	c0.426-1.002,1.152-1.742,2.08-1.979l0.029-0.008V102.894L291.922,102.894z M334.686,121.698c0.736-0.157,1.516,0.129,2.205,0.735
	c0.768,0.675,1.414,1.729,1.795,3.021c0.063,0.208,0.117,0.427,0.166,0.656c0.328,1.547,0.221,3.06-0.217,4.253
	c-0.404,1.099-1.08,1.903-1.935,2.154c-0.047,0.017-0.098,0.026-0.155,0.039c-0.736,0.155-1.519-0.13-2.205-0.735
	c-0.769-0.676-1.414-1.729-1.797-3.021c-0.06-0.208-0.117-0.427-0.164-0.655c-0.328-1.547-0.224-3.062,0.219-4.254
	c0.402-1.099,1.078-1.903,1.932-2.155C334.575,121.723,334.629,121.709,334.686,121.698z M325.387,95.289
	c0.504-0.355,1.195-0.385,1.942-0.14c0.855,0.28,1.767,0.906,2.58,1.82c0.228,0.251,0.447,0.528,0.664,0.835
	c0.914,1.3,1.447,2.729,1.563,3.991c0.11,1.154-0.127,2.138-0.729,2.677c-0.043,0.04-0.09,0.078-0.146,0.117
	c-0.504,0.355-1.195,0.385-1.943,0.138c-0.854-0.278-1.764-0.905-2.582-1.819c-0.225-0.25-0.444-0.529-0.662-0.836
	c-0.916-1.3-1.446-2.729-1.563-3.989c-0.109-1.155,0.127-2.138,0.729-2.677C325.279,95.369,325.325,95.328,325.387,95.289z
	 M321.399,114.604c0.773,0.938,1.25,2.239,1.25,3.688c0,1.446-0.475,2.747-1.248,3.682h-0.002c-0.738,0.895-1.748,1.448-2.85,1.448
	c-1.107,0-2.115-0.555-2.855-1.448h-0.002c-0.771-0.935-1.25-2.234-1.25-3.682s0.479-2.749,1.252-3.684v-0.005
	c0.736-0.892,1.746-1.443,2.855-1.443C319.651,113.16,320.664,113.713,321.399,114.604z"/>
<path d="M384.309,66.845c-11.529-17.436-29.604-30.284-51.486-34.413c-21.885-4.131-43.436,1.238-60.59,13.262
	c-17.156,12.023-29.914,30.7-34.207,53.182l-0.002,0.005c-4.293,22.486,0.695,44.516,12.228,61.957
	c11.528,17.433,29.6,30.28,51.479,34.412l0.006,0.001c21.883,4.13,43.438-1.24,60.588-13.264
	c17.16-12.022,29.918-30.703,34.211-53.188C400.827,106.314,395.842,84.284,384.309,66.845z M333.002,31.466
	c22.159,4.182,40.458,17.19,52.128,34.841c11.668,17.647,16.718,39.934,12.375,62.674c-4.342,22.747-17.252,41.646-34.61,53.811
	c-17.353,12.161-39.15,17.595-61.287,13.434l0,0l-0.053-0.009c-22.156-4.182-40.455-17.191-52.127-34.841
	c-11.662-17.632-16.709-39.898-12.385-62.622v-0.002l0.01-0.05c4.342-22.745,17.25-41.645,34.608-53.81
	C289.029,32.721,310.848,27.285,333.002,31.466z"/>
<path fill="#E49846" d="M306.086,200.979c0.629,0.391-1.068,0.778-2.341,0.303c-1.239-0.465-3.323-2.222-3.948-2.904
	c-4.299-4.71-11.636-17.898-19.695-15.146c-1.186,0.617-1.541,2.274-0.625,4.226c0.064,0.136-1.125-0.522-1.307-0.797
	c0.157,0.44-1.191-3.07,1.307-4.38c7.973-4.375,17.393,11.234,21.881,15.37c1.277,1.177,2.361,2.12,3.57,2.271L306.086,200.979z"/>
<path fill="#FFFFFF" d="M321.504,187.381c-1.898-1.292-4.297-2.041-7.564-1.744c-3.305,0.308-6.246,1.463-8.328,3.095
	c-2.03,1.59-3.235,3.618-3.139,5.709c0.014,0.286,0.039,0.571,0.078,0.851c0.231,1.737,0.947,3.306,2.424,4.393
	c1.514,1.113,3.836,1.745,7.264,1.584c0.748-0.037,1.537-0.108,2.381-0.222c4.326-0.577,7.697-1.733,9.808-3.185
	c0.877-0.6,1.527-1.245,1.93-1.914c0.381-0.632,0.537-1.289,0.447-1.946c-0.064-0.494-0.269-0.997-0.613-1.503
	C324.865,190.572,323.428,188.69,321.504,187.381z M313.858,184.656c3.525-0.323,6.125,0.493,8.197,1.905
	c2.051,1.396,3.561,3.362,4.94,5.371c0.437,0.638,0.691,1.282,0.775,1.93c0.121,0.891-0.082,1.764-0.582,2.593
	c-0.477,0.792-1.223,1.541-2.215,2.224c-2.234,1.528-5.75,2.744-10.234,3.344c-0.875,0.119-1.692,0.194-2.457,0.229
	c-3.676,0.177-6.196-0.529-7.885-1.771c-1.719-1.266-2.549-3.067-2.815-5.056c-0.039-0.306-0.066-0.618-0.085-0.935
	c-0.114-2.433,1.238-4.752,3.519-6.537C307.24,186.212,310.365,184.975,313.858,184.656z"/>
<path fill="#AD0637" d="M313.911,185.312c6.658-0.607,9.796,3.069,12.441,6.929c2.646,3.855-2.281,7.876-11.676,9.133
	c-9.39,1.256-12.228-2.492-12.439-6.93C302.026,190.011,307.254,185.921,313.911,185.312z"/>
<path fill="#FFFFFF" d="M341.516,186.667c-3.271-0.54-7.367-0.127-10.957,0.956c-0.268,0.079-0.533,0.169-0.797,0.267
	c-2.969,1.098-5.332,3.127-6.793,5.409c-1.439,2.249-1.996,4.729-1.383,6.767c0.037,0.127,0.071,0.231,0.1,0.312
	c0.029,0.077,0.059,0.147,0.088,0.22v-0.001c0.814,1.942,2.691,3.233,5.117,3.773c2.488,0.555,5.547,0.312,8.643-0.829
	c0.275-0.103,0.541-0.206,0.8-0.314c3.452-1.445,6.688-3.819,8.749-6.388c1.828-2.279,2.728-4.693,1.988-6.693
	C346.36,188.218,344.236,187.115,341.516,186.667z M330.276,186.677c3.724-1.122,7.979-1.548,11.391-0.985
	c3.06,0.505,5.47,1.806,6.318,4.11c0.873,2.366-0.104,5.114-2.143,7.656c-2.162,2.69-5.537,5.172-9.138,6.681
	c-0.29,0.123-0.567,0.233-0.836,0.328c-3.27,1.208-6.521,1.457-9.188,0.862c-2.732-0.606-4.861-2.098-5.805-4.354v-0.002
	c-0.039-0.088-0.074-0.174-0.104-0.261c-0.051-0.14-0.092-0.262-0.123-0.361v-0.003c-0.701-2.322-0.094-5.101,1.494-7.586
	c1.57-2.45,4.102-4.63,7.283-5.805C329.702,186.857,329.986,186.764,330.276,186.677z"/>
<path fill="#AD0637" d="M330.495,187.317c6.677-2.013,15.117-1.708,16.771,2.769c1.647,4.474-4.168,10.657-10.791,13.437
	c-6.623,2.776-13.334,1.4-14.984-3.075C319.84,195.972,323.822,189.33,330.495,187.317z"/>
<path fill="#A74C15" d="M308.936,78.363c-4.73,12.89,3.818,11.05,5.281,13.279c3.68,5.604,0.274,12.699-11.113,2.038
	c-1.85-1.729-1.428-5.195-1.949-5.495c-1.396-0.803,1.402-5.854,2.531-7.337C304.707,79.503,309.409,77.072,308.936,78.363z"/>
<path d="M312,90.607c-2.875-1.053-6.845-2.51-3.248-12.312c0.02-0.056,0.026-0.086,0.021-0.098l0,0
	c-0.008-0.018-0.09-0.015-0.219,0.003c-0.203,0.025-0.479,0.108-0.795,0.232c-1.328,0.521-3.312,1.73-3.918,2.534
	c-0.277,0.364-0.658,0.948-1.056,1.636c-0.577,1.005-1.186,2.228-1.53,3.282c-0.326,0.99-0.429,1.812-0.056,2.097
	c0.019,0.012,0.033,0.022,0.052,0.032v0.001c0.27,0.154,0.342,0.694,0.438,1.429c0.162,1.218,0.402,3.021,1.547,4.095
	c4.094,3.83,7.133,5.346,9.162,5.457c0.846,0.046,1.512-0.156,1.996-0.534c0.486-0.378,0.801-0.938,0.945-1.606
	c0.313-1.426-0.127-3.337-1.287-5.104C313.719,91.239,312.92,90.946,312,90.607z M309.12,78.431
	c-3.463,9.435,0.296,10.813,3.015,11.81c0.981,0.359,1.84,0.675,2.248,1.296c1.219,1.854,1.676,3.879,1.344,5.4
	c-0.166,0.76-0.525,1.397-1.088,1.834c-0.562,0.438-1.313,0.667-2.26,0.616c-2.115-0.115-5.238-1.662-9.408-5.563
	c-1.25-1.167-1.5-3.056-1.668-4.328c-0.084-0.623-0.146-1.082-0.244-1.142l0,0c-0.031-0.016-0.061-0.037-0.092-0.061
	c-0.541-0.41-0.461-1.388-0.084-2.532c0.354-1.078,0.977-2.326,1.567-3.354c0.4-0.7,0.791-1.302,1.078-1.678
	c0.648-0.854,2.713-2.124,4.09-2.662c0.343-0.135,0.648-0.226,0.884-0.256c0.311-0.04,0.53,0.021,0.625,0.21v0.001
	C309.18,78.131,309.182,78.267,309.12,78.431z"/>
<path fill="#A74C15" d="M319.139,110.22c-4.73,12.89,3.818,11.051,5.279,13.28c3.682,5.604,0.276,12.695-11.113,2.039
	c-1.848-1.73-1.426-5.195-1.945-5.496c-1.397-0.803,1.4-5.854,2.527-7.337C314.911,111.36,319.613,108.93,319.139,110.22z"/>
<path d="M322.202,122.465c-2.872-1.054-6.846-2.511-3.247-12.313c0.02-0.055,0.024-0.087,0.021-0.097
	c-0.008-0.017-0.09-0.014-0.221,0.004c-0.203,0.025-0.478,0.109-0.793,0.231c-1.328,0.521-3.31,1.73-3.92,2.534
	c-0.277,0.362-0.658,0.948-1.054,1.636c-0.578,1.005-1.186,2.227-1.53,3.28c-0.326,0.991-0.431,1.813-0.056,2.098h0.004
	c0.015,0.014,0.029,0.021,0.047,0.033v0.002c0.271,0.154,0.341,0.692,0.438,1.428c0.162,1.217,0.402,3.021,1.547,4.095
	c4.092,3.831,7.131,5.346,9.16,5.456c0.848,0.047,1.514-0.155,1.998-0.533c0.486-0.377,0.801-0.936,0.945-1.606
	c0.311-1.426-0.128-3.336-1.287-5.104C323.92,123.096,323.12,122.803,322.202,122.465z M319.323,110.287
	c-3.463,9.434,0.295,10.812,3.015,11.809c0.981,0.361,1.84,0.675,2.248,1.295c1.219,1.856,1.674,3.881,1.342,5.402
	c-0.164,0.76-0.527,1.397-1.088,1.834c-0.562,0.437-1.313,0.669-2.261,0.617c-2.112-0.115-5.239-1.661-9.407-5.563
	c-1.25-1.168-1.498-3.057-1.666-4.328c-0.084-0.623-0.146-1.082-0.246-1.141l0,0c-0.029-0.016-0.063-0.037-0.09-0.062
	c-0.541-0.41-0.459-1.391-0.084-2.532c0.354-1.076,0.975-2.324,1.565-3.354c0.402-0.701,0.793-1.303,1.078-1.679
	c0.65-0.854,2.713-2.123,4.09-2.662c0.344-0.133,0.648-0.225,0.885-0.256c0.31-0.041,0.529,0.021,0.625,0.211l0,0
	C319.381,109.989,319.385,110.124,319.323,110.287z"/>
<path d="M383.309,21.144C363.574,9.615,340.348,1.656,316.703,3.092c-30.69,1.868-61.563,17.515-81.055,40.563
	c-24.82,29.352-33.883,78.563-18.844,114.29c7.34,17.434,21.109,34.15,36.481,45.803c8.91,5.206,20.464,12.398,30.673,15.047
	c12.647,3.279,30.545,3.813,44.354,2.489c41.627-3.988,79.916-33.445,95.094-68.846c8.674-20.23,11.654-46.628,6.479-67.687
	c-3.636-14.791-11.498-28.335-21.33-40.638C401.456,35.233,392.178,27.867,383.309,21.144z M308.604,0.542
	c38.322-3.67,73.996,11.554,97.428,37.898l0.154,0.173l0.379,0.429c15.059,16.991,25.033,38.593,27.346,62.732
	c5.91,61.699-40.43,116.614-103.504,122.656c-38.321,3.671-73.998-11.554-97.428-37.899l-0.152-0.172
	c-0.127-0.142-0.25-0.285-0.379-0.427c-7.192-8.117-13.227-17.286-17.817-27.278c-5.021-10.932-8.318-22.847-9.527-35.456
	c-4.133-43.14,16.686-84.789,52.094-105.082C272.59,9.293,289.631,2.359,308.604,0.542z"/>
<path fill="#A74C15" d="M297.952,139.418c-1.508,2.258-5.504,12.857,6.888,16.666c2.19,0.673,0.324,2.249-2.035,2.76
	c-4.789,1.042-6.799,0.945-10.76-2.591c-3.318-2.961-3.062-6.694-2.939-10.754C289.192,142.615,294.891,136.621,297.952,139.418z"/>
<path d="M296.541,142.12c0.356-1.161,0.807-2.101,1.155-2.664c-0.463-0.376-0.983-0.549-1.53-0.565
	c-0.777-0.023-1.621,0.267-2.439,0.748c-0.828,0.484-1.633,1.17-2.322,1.926c-1.215,1.328-2.071,2.867-2.104,3.94l-0.017,0.478
	c-0.116,3.825-0.229,7.342,2.892,10.126c1.953,1.741,3.42,2.638,4.979,2.967c1.563,0.326,3.24,0.093,5.609-0.422
	c1.035-0.227,1.969-0.659,2.479-1.119c0.181-0.167,0.306-0.328,0.353-0.48c0.041-0.127,0.022-0.246-0.06-0.355
	c-0.116-0.159-0.36-0.307-0.754-0.425c-1.772-0.546-3.217-1.229-4.385-2.011c-2.586-1.727-3.813-3.92-4.26-6.104
	C295.694,145.977,296.02,143.812,296.541,142.12z M298.116,139.527c-0.346,0.517-0.823,1.48-1.203,2.71
	c-0.502,1.64-0.819,3.737-0.391,5.841c0.43,2.091,1.607,4.198,4.094,5.857c1.138,0.762,2.545,1.428,4.281,1.961
	c0.478,0.146,0.787,0.339,0.953,0.563v0.001c0.168,0.221,0.199,0.462,0.119,0.709c-0.068,0.222-0.23,0.443-0.461,0.654
	c-0.562,0.507-1.563,0.976-2.66,1.215c-2.42,0.524-4.144,0.764-5.771,0.421c-1.635-0.345-3.153-1.269-5.161-3.06
	c-3.257-2.905-3.144-6.507-3.021-10.428l0.014-0.478c0.037-1.165,0.935-2.803,2.205-4.193c0.715-0.783,1.549-1.494,2.416-2.002
	c0.877-0.515,1.789-0.826,2.648-0.802c0.688,0.021,1.342,0.257,1.908,0.773l0.125,0.116L298.116,139.527z"/>
<path fill="#A74C15" d="M322.827,91.112c2.474,1.125,11.451,8.028,2.929,17.795c-1.511,1.727,0.91,2.08,3.184,1.272
	c4.619-1.637,6.277-2.78,7.779-7.87c1.262-4.267-0.924-7.305-3.166-10.689C331.959,89.213,323.959,87.122,322.827,91.112z"/>
<path d="M325.194,92.961c-0.963-0.844-1.879-1.413-2.446-1.67l-0.154-0.069l0.049-0.163c0.207-0.738,0.635-1.282,1.213-1.665
	c0.715-0.473,1.656-0.688,2.674-0.714c1.004-0.022,2.086,0.142,3.105,0.429c1.813,0.515,3.44,1.432,4.084,2.401l0.266,0.398
	c2.168,3.269,4.162,6.271,2.929,10.457c-0.765,2.58-1.57,4.164-2.775,5.315c-1.207,1.15-2.795,1.856-5.131,2.685
	c-1.06,0.374-2.158,0.504-2.898,0.368c-0.307-0.057-0.563-0.159-0.735-0.31c-0.199-0.17-0.302-0.394-0.273-0.67
	c0.023-0.276,0.186-0.604,0.516-0.979c1.191-1.366,2.037-2.676,2.605-3.921c1.236-2.724,1.129-5.132,0.391-7.136
	C327.863,95.705,326.486,94.088,325.194,92.961z M323.067,91.009c0.596,0.296,1.469,0.858,2.385,1.656
	c1.332,1.163,2.755,2.834,3.521,4.919c0.77,2.093,0.887,4.604-0.402,7.435c-0.582,1.274-1.446,2.618-2.668,4.018
	c-0.271,0.311-0.401,0.563-0.42,0.758c-0.014,0.139,0.037,0.249,0.139,0.335c0.121,0.104,0.31,0.179,0.554,0.223
	c0.676,0.124,1.699,0,2.699-0.354c2.282-0.81,3.834-1.493,4.985-2.599c1.154-1.1,1.931-2.634,2.668-5.144
	c1.187-4.01-0.758-6.938-2.875-10.129l-0.266-0.397c-0.594-0.895-2.129-1.75-3.863-2.24c-0.983-0.278-2.029-0.438-2.99-0.415
	c-0.95,0.022-1.813,0.22-2.465,0.649C323.611,90.024,323.262,90.448,323.067,91.009z"/>
<path fill="#A74C15" d="M333.491,117.646c1.935,1.906,7.99,11.479-3.368,17.716c-2.013,1.104,0.139,2.268,2.551,2.293
	c4.897,0.051,6.85-0.452,10.014-4.718c2.646-3.569,1.643-7.178,0.701-11.126C342.719,119.004,335.926,114.289,333.491,117.646z"/>
<path d="M335.079,120.196c-0.62-1.127-1.284-1.976-1.727-2.41l-0.119-0.117l0.101-0.137c0.45-0.621,1.041-0.986,1.711-1.146
	c0.838-0.198,1.793-0.078,2.756,0.248c0.951,0.324,1.912,0.85,2.77,1.473c1.527,1.107,2.74,2.526,3.008,3.661l0,0l0.111,0.464
	c0.914,3.813,1.752,7.32-0.848,10.824c-1.604,2.16-2.904,3.371-4.435,4.038c-1.526,0.667-3.26,0.781-5.737,0.757
	c-1.127-0.013-2.203-0.27-2.854-0.649c-0.268-0.161-0.471-0.344-0.584-0.545c-0.125-0.228-0.145-0.474-0.024-0.724
	c0.116-0.251,0.381-0.503,0.819-0.744c1.588-0.873,2.838-1.811,3.797-2.782c2.099-2.132,2.824-4.431,2.822-6.569
	C336.641,123.689,335.904,121.7,335.079,120.196z M333.752,117.631c0.459,0.483,1.088,1.313,1.672,2.377
	c0.852,1.549,1.61,3.605,1.612,5.829c0.005,2.23-0.752,4.626-2.936,6.843c-0.982,0.998-2.258,1.961-3.887,2.854
	c-0.359,0.198-0.568,0.391-0.652,0.565c-0.059,0.126-0.049,0.249,0.016,0.362c0.08,0.142,0.23,0.276,0.441,0.399
	c0.596,0.35,1.596,0.584,2.654,0.598c2.424,0.022,4.114-0.086,5.58-0.723c1.459-0.64,2.717-1.813,4.274-3.914
	c2.494-3.36,1.674-6.779,0.781-10.5l-0.109-0.464c-0.25-1.045-1.402-2.379-2.856-3.435c-0.828-0.601-1.756-1.107-2.666-1.418
	c-0.898-0.305-1.779-0.418-2.539-0.236C334.604,116.894,334.127,117.171,333.752,117.631z"/>
<path fill="#A74C15" d="M306.613,120.52c-1.51,2.257-5.504,12.858,6.886,16.666c2.192,0.676,0.321,2.247-2.035,2.764
	c-4.785,1.041-6.802,0.942-10.759-2.594c-3.317-2.962-3.061-6.695-2.94-10.755C297.848,123.717,303.549,117.724,306.613,120.52z"/>
<path d="M305.198,123.223c0.357-1.16,0.806-2.1,1.156-2.664c-0.463-0.377-0.986-0.549-1.531-0.565
	c-0.78-0.022-1.621,0.266-2.438,0.747c-0.83,0.486-1.633,1.172-2.322,1.927c-1.215,1.328-2.07,2.867-2.104,3.941l-0.017,0.477
	c-0.117,3.826-0.229,7.342,2.892,10.125c1.95,1.744,3.42,2.639,4.981,2.967c1.56,0.328,3.238,0.094,5.607-0.42
	c1.033-0.227,1.967-0.659,2.477-1.119v-0.004c0.183-0.164,0.308-0.326,0.353-0.479c0.039-0.127,0.024-0.245-0.056-0.354h-0.004
	c-0.117-0.158-0.36-0.305-0.752-0.426c-1.772-0.544-3.217-1.229-4.383-2.009c-2.588-1.729-3.814-3.921-4.262-6.106
	C304.352,127.081,304.682,124.912,305.198,123.223z M306.776,120.63c-0.346,0.515-0.824,1.481-1.201,2.71
	c-0.504,1.639-0.821,3.738-0.393,5.841c0.432,2.095,1.604,4.198,4.094,5.858c1.137,0.761,2.547,1.426,4.281,1.96
	c0.477,0.146,0.787,0.342,0.953,0.562v0.002c0.168,0.222,0.197,0.462,0.119,0.71c-0.07,0.222-0.232,0.442-0.461,0.651h-0.004
	c-0.558,0.508-1.56,0.977-2.658,1.215c-2.418,0.527-4.142,0.767-5.771,0.422c-1.635-0.346-3.153-1.266-5.162-3.059
	c-3.256-2.905-3.143-6.509-3.02-10.428l0.014-0.479c0.033-1.164,0.937-2.803,2.205-4.192c0.715-0.783,1.551-1.492,2.416-2
	c0.877-0.519,1.789-0.826,2.646-0.803c0.69,0.021,1.342,0.257,1.909,0.775l0.125,0.112L306.776,120.63z"/>
<path fill="#A74C15" d="M293.633,99.807c-4.73,12.893,3.815,11.053,5.281,13.282c3.678,5.604,3.295,11.448-8.097,0.79
	c-1.852-1.73-3.563-10.1-2.437-11.583C289.404,100.949,294.108,98.518,293.633,99.807z"/>
<path d="M296.695,112.055c-2.875-1.055-6.844-2.511-3.246-12.313c0.021-0.056,0.025-0.086,0.021-0.099
	c-0.008-0.018-0.088-0.014-0.221,0.004c-0.201,0.025-0.478,0.109-0.793,0.232c-1.328,0.521-3.31,1.729-3.921,2.533
	c-0.055,0.071-0.106,0.149-0.151,0.231c-0.431,0.748-0.594,1.912-0.504,3.002c0.09,1.075,1.928,7.016,3.072,8.087
	c3.99,3.734,6.607,5.427,8.162,5.806c0.609,0.15,1.033,0.091,1.3-0.127h-0.003c0.265-0.219,0.384-0.604,0.382-1.11
	c-0.013-1.266-0.787-3.195-2.041-5.106C298.414,112.685,297.613,112.391,296.695,112.055z M293.817,99.876
	c-3.461,9.435,0.295,10.812,3.017,11.81c0.981,0.361,1.84,0.676,2.248,1.295c1.29,1.972,2.092,3.98,2.102,5.319
	c0.006,0.626-0.158,1.12-0.518,1.417l0,0c-0.363,0.297-0.9,0.388-1.642,0.205c-1.613-0.396-4.293-2.117-8.338-5.901
	c-1.246-1.169-2.314-2.562-2.482-3.834c-0.082-0.622-0.031-1.609-0.031-1.609c-0.649-0.492-0.585-1.723-0.684-2.897
	c-0.094-1.162,0.086-2.411,0.558-3.229c0.055-0.1,0.116-0.189,0.18-0.274c0.65-0.854,2.715-2.122,4.092-2.662
	c0.34-0.134,0.646-0.226,0.885-0.256c0.308-0.042,0.529,0.021,0.623,0.21v0.002C293.877,99.578,293.877,99.713,293.817,99.876z"/>
<path fill="#FAA54C" d="M307.766,82.718c1.943-0.486,4.031,1.172,4.666,3.706c0.635,2.533-0.428,4.979-2.369,5.465
	c-1.941,0.487-4.031-1.172-4.664-3.705S305.823,83.205,307.766,82.718z M318.549,112.393c2.688,0,4.867,2.642,4.867,5.898
	c0,3.256-2.181,5.896-4.867,5.896c-2.689,0-4.871-2.641-4.871-5.896C313.678,115.033,315.86,112.393,318.549,112.393z
	 M302.873,122.699c3.395-1.021,7.188,1.627,8.479,5.914c1.287,4.286-0.42,8.591-3.813,9.61c-3.394,1.021-7.191-1.629-8.479-5.916
	S299.481,123.719,302.873,122.699z M291.7,102.162c2.345-0.6,4.865,1.443,5.627,4.563c0.767,3.119-0.514,6.136-2.856,6.732
	c-2.342,0.6-4.861-1.443-5.627-4.563C288.077,105.776,289.36,102.762,291.7,102.162z M334.313,121.002
	c2.203-0.649,4.568,1.565,5.289,4.951c0.717,3.382-0.484,6.65-2.686,7.303c-2.203,0.649-4.568-1.566-5.287-4.95
	C330.911,124.922,332.113,121.652,334.313,121.002z M294.924,142.214c4.465-1.32,6.074,5.882,6.674,8.222
	c0.465,1.802,1.09,3.291,0.25,4.246c-2.631,2.994-8.863-0.783-9.609-5.166C291.657,146.105,292.723,142.864,294.924,142.214z
	 M324.729,94.834c1.586-1.42,4.482-0.287,6.469,2.531c1.987,2.817,2.31,6.256,0.722,7.678c-1.589,1.421-4.484,0.288-6.472-2.531
	C323.463,99.696,323.139,96.257,324.729,94.834z M316.295,56.555c-6.121,0.054-11.595-1.408-18.363,0.16
	c-3.797,7.509-3.646,10.895-4.869,19.181c1.721,0.48,3.264,2.208,3.836,4.531c0.764,3.121-0.518,6.135-2.858,6.733
	c-1.236,0.315-2.523-0.104-3.572-1.031c-3.457,10.238-5.101,16.08-6.791,26.75c0.194,0.066,0.385,0.146,0.565,0.248
	c2.123,1.162,2.568,4.375,0.998,7.176c-1.032,1.843-2.682,3.047-4.295,3.327l-2.471,9.739c1.563-0.135,3.121,0.254,4.182,1.16
	c1.818,1.557,1.472,4.046-0.776,5.563c-1.558,1.053-3.621,1.357-5.349,0.927l-3.653,14.393
	c25.787,16.161,76.708,9.119,91.229-18.287l-4.336-8.48c-0.754,1.405-2.074,2.24-3.353,1.979c-1.655-0.34-2.551-2.699-2.143-4.594
	c0.408-1.893,1.346-2.602,2.5-3.027c-0.496-5.271-2.604-5.279-4.945-9.669c-2.51,1.051-5.772-0.948-7.332-4.173
	c-1.559-3.226-0.996-6.656,1.152-8.129c-1.117-6.133-0.809-5.104-4.986-9.748c-0.547,0.688-1.256,1.18-2.086,1.392
	c-2.538,0.651-5.272-1.566-6.104-4.95c-0.783-3.202,0.416-6.3,2.701-7.175c-2.931-5.727-5.857-11.452-8.785-17.179
	c-2.584,1.063-6.102-0.234-8.391-3.275C317.166,58.975,316.592,57.756,316.295,56.555z"/>
<path d="M283.577,160.38c1.535,0.204,2.82,0.582,5.982,1.224c2.252,0.454,7.693,1.226,11.109,1.457
	c6.03,0.41,22.539-0.636,26.438-5.915c2.584-3.501,1.139-7.533,1.139-11.65c0.117,3.012,3.453,8.449,6.57,9.535
	c2.058,0.715,7.535-0.358,11.945-2.206c1.426-0.599,5.807-3.261,9.389-5.507C338.897,163.323,306.493,168.058,283.577,160.38z"/>
<path fill="none" stroke="#000000" stroke-width="0.1886" stroke-miterlimit="22.926" d="M283.577,160.38
	c1.535,0.204,2.82,0.582,5.982,1.224c2.252,0.454,7.693,1.226,11.109,1.457c6.03,0.41,22.539-0.636,26.438-5.915
	c2.584-3.501,1.139-7.533,1.139-11.65c0.117,3.012,3.453,8.449,6.57,9.535c2.058,0.715,7.535-0.358,11.945-2.206
	c1.426-0.599,5.807-3.261,9.389-5.507"/>
<path fill="none" stroke="#000000" stroke-width="0.6191" stroke-miterlimit="22.926" d="M298.938,56.093
	c3.961,9.132,7.246,17.156,9.164,26.563 M320.793,123.526c5.018,12.393,7.616,22.213,11.061,35.402L320.793,123.526z
	 M310.549,91.718c1.979,7.896,3.621,13.461,6.588,20.927L310.549,91.718z"/>
<path d="M340.745,169.485c-0.256,0.097-0.494,0.193-0.713,0.286c-3.146,1.352-5.002,2.888-5.86,4.596l0.002,0.003
	c-0.842,1.677-0.73,3.558,0.055,5.631c0.029,0.075,0.057,0.146,0.084,0.211c0.805,1.865,2.629,3.098,4.973,3.597
	c2.41,0.515,5.367,0.256,8.351-0.875c0.27-0.102,0.526-0.206,0.77-0.31c3.41-1.467,6.5-3.481,8.387-5.694
	c1.574-1.846,2.287-3.821,1.582-5.68c-0.016-0.042-0.028-0.08-0.045-0.114c-0.803-1.867-3.569-2.869-6.918-3.129
	C347.958,167.74,343.93,168.277,340.745,169.485z"/>
<path fill="#AD0637" d="M339.84,169.317c6.52-2.799,17.315-2.645,18.987,1.76c1.67,4.4-3.719,9.2-10.233,12.001
	c-6.517,2.801-13.152,1.502-14.822-2.9C332.104,175.771,333.323,172.117,339.84,169.317z"/>
<path fill="#FFFFFF" d="M355.663,177.559c-1.34,0.865-2.684,1.965-3.981,3.285c-2.972,3.027-5.097,6.632-6.136,10.01
	c-1.02,3.315-0.987,6.394,0.339,8.442c0.211,0.321,0.442,0.608,0.7,0.863c1.113,1.092,2.688,1.543,4.496,1.395
	c1.873-0.154,3.99-0.942,6.127-2.324c1.338-0.863,2.685-1.966,3.98-3.285c2.969-3.027,5.098-6.632,6.137-10.009
	c1.021-3.316,0.988-6.394-0.34-8.443v0.001c-0.207-0.322-0.443-0.611-0.699-0.861c-1.115-1.094-2.688-1.546-4.5-1.395
	C359.915,175.389,357.798,176.179,355.663,177.559z M350.983,180.156c1.344-1.369,2.746-2.515,4.147-3.422
	c2.275-1.471,4.554-2.313,6.582-2.479c2.091-0.173,3.931,0.369,5.263,1.675c0.307,0.302,0.586,0.646,0.834,1.028v0.002
	c1.492,2.308,1.555,5.678,0.453,9.263c-1.078,3.521-3.293,7.269-6.373,10.409c-1.347,1.369-2.748,2.513-4.152,3.42
	c-2.275,1.472-4.549,2.313-6.578,2.482c-2.094,0.17-3.93-0.37-5.264-1.678c-0.308-0.302-0.586-0.645-0.832-1.025v-0.002
	c-1.494-2.31-1.56-5.68-0.457-9.265C345.69,187.045,347.901,183.297,350.983,180.156z"/>
<path d="M381.977,161.332c-0.287-0.044-2.576-1.828-3.861-2.83v-0.001c-0.383-0.295-0.678-0.524-0.766-0.592
	c-0.791-0.603-1.982-1.432-3.644-1.909c-1.657-0.479-3.795-0.611-6.496,0.166c-0.631,0.299-1.139,0.54-1.567,0.747
	c-1.16,0.561-1.763,0.851-2.414,1.065v-0.001c-0.623,0.205-1.258,0.337-2.422,0.562c1.041,0.247,2.166,0.563,2.557,0.999
	c0.273,0.308,0.207,0.599-0.098,0.872v0.003c-0.332,0.297-1.244,0.629-1.881,0.858l-0.027,0.013
	c0.229,0.127,0.559,0.298,0.906,0.476c1.047,0.542,2.235,1.153,2.403,1.895c0.146,0.646-0.334,1.204-1.938,1.563
	c-0.154,0.036-0.291,0.162-0.453,0.324c-0.414,0.396-0.951,0.92-2.398,1.193c-0.78,4.097-0.856,4.141-2.071,4.819
	c-0.369,0.206-0.867,0.484-1.584,1.062c0.141,0.019,0.272,0.031,0.401,0.046c0.394,0.037,0.728,0.046,1.006,0.037l0,0
	c0.634-0.019,1.029-0.139,1.373-0.237c0.482-0.145,0.877-0.261,1.582-0.133h0.002c0.248,0.046,0.31,0.146,0.402,0.31v-0.003
	c0.064,0.11,0.221,0.379,1.355,0.715c0.315,0.097,0.563-0.107,0.782-0.288c0.55-0.454,1.015-0.838,1.822,0.058v0.002
	c1.248,1.373,0.664,2.245-0.229,3.057c-0.105,0.094-0.267,0.229-0.425,0.361c-0.393,0.332-0.793,0.669-0.969,1.021l0,0
	c-0.953,1.941-1.717,3.576-2.33,5.272c-0.588,1.644-1.035,3.352-1.377,5.465c0.396-0.129,1.164-0.55,2.074-1.054
	c2.074-1.145,4.844-2.668,6.959-2.408c0.865,0.105,1.043,0.289,1.449,0.702c0.049,0.051,0.102,0.102,0.158,0.16
	c0.022,0.021,0.051,0.045,0.077,0.062c0.142,0.09,0.32,0.074,0.505,0.004c0.25-0.096,0.5-0.281,0.692-0.479
	c0.103-0.104,0.188-0.206,0.244-0.297l-0.004-0.002c0.479-0.74,0.832-1.508,1.104-2.264c0.283-0.774,0.49-1.546,0.683-2.278
	l0.104-0.407l0.418,0.042c0.826,0.086,0.955,0.694,0.873,1.497c-0.024,0.235-0.063,0.472-0.108,0.711
	c-0.125,0.746-0.267,1.571,0.201,1.69l0.297,0.074l0.063,0.301l0.002,0.009l0.006,0.035c0.011,0.077,0.039,0.548,0.017,1.173
	c-0.023,0.623-0.103,1.421-0.293,2.185c-0.17,0.668-0.429,1.318-0.814,1.835c0.465-0.147,0.967-0.396,1.426-0.805
	c0.82-0.732,1.552-2.575,2.05-3.823c0.09-0.226,0.17-0.431,0.227-0.564c0.17-0.413,0.414-0.524,0.73-0.394l0,0
	c0.354,0.146,0.36,0.617,0.373,1.237c0.012,0.559,0.02,1.306,0.135,1.708c0.143-0.2,0.393-0.601,0.67-1.039
	c0.406-0.653,0.869-1.387,1.258-1.837c1-1.157,1.842-1.965,2.525-2.479c0.889-0.674,1.582-0.888,2.057-0.759
	c0.361,0.098,0.625,0.414,0.834,0.979c0.154,0.429,0.295,1.042,0.447,1.868c0.051,0.276,0.063,0.563,0.065,0.865
	c0.388-0.904,0.896-1.944,1.509-2.738c0.659-0.864,1.774-1.176,2.391-1.292c-0.068-2.839,0.453-4.226,0.947-5.531
	c0.291-0.773,0.571-1.516,0.69-2.54c0.01-0.09-0.059-0.003-0.133-0.155c-0.418-0.842-1.402-2.837-1.541-5.99
	c-0.014-0.324-0.336-0.65-0.639-0.96c-0.14-0.138-0.275-0.273-0.388-0.413v-0.001c-1.204-1.443-2.571-1.754-3.563-1.978
	c-0.494-0.11-0.904-0.204-1.234-0.402c-1.159-0.696-0.864-2.098,2.349-7.462c0.108-0.184,0.27-0.511,0.461-0.927
	c-1.873,2.725-3.674,4.808-4.711,6.003c-0.416,0.479-0.703,0.811-0.804,0.959l-0.174,0.265L381.977,161.332z"/>
<path fill="#E49846" d="M400.647,129.262c0.654,4.563,4.84,11.617,10.57,8.24c2.271-1.338,3.651-4.442,3.506-7.023
	c-0.232-4.096-3.945-7.084-6.34-3.875c-1.08,1.443,0.147,3.479,0.256,4.694c0.198,2.256-1.718,3.079-3.187,2.163
	c-1.053-0.653-1.723-2.466-1.944-4.064c-1.834-13.063,0.635-26.933-1.582-40.417c-3.14-19.075-12.949-37.101-34.214-48.537
	c-14.075-7.569-27.346-12.382-43.284-12.388c-5.883,0-11.494,0.769-16.502,1.861c-0.463,0.103-0.908,0.193-1.324,0.289
	c-0.666,0.148-1.854,1.153,0.977,0.623c0.884-0.164,1.867-0.134,2.921-0.201c12.299-0.775,17.92-0.343,24.653,1.097
	c3.951,0.846,8.01,1.54,14.063,3.927c30.944,12.2,47.291,35.896,50.045,67.788C399.942,111.357,399.276,119.762,400.647,129.262z"/>
<path fill="#AD0637" d="M351.436,180.658c5.932-6.047,12.979-7.481,15.742-3.211c2.76,4.274,0.19,12.637-5.74,18.686
	c-5.935,6.044-12.982,7.479-15.742,3.207C342.93,195.067,345.501,186.703,351.436,180.658z"/>
<path fill="#E49846" d="M382.055,160.848c-0.205-0.03-3.863-2.914-4.412-3.33c-1.646-1.25-4.961-3.45-10.607-1.813
	c-4.52,2.138-3.223,1.75-8.137,2.699c-1.043,0.199,3.42,0.699,4.1,1.46c0.254,0.283-1.705,0.9-2.25,1.124
	c-1.534,0.623,6.8,2.647,1.877,3.75c-0.819,0.183-0.741,1.213-3.164,1.566c-1.186,6.253-0.698,3.267-4.354,6.627
	c1.135,0.216,1.938,0.276,2.541,0.257c1.498-0.047,1.752-0.579,2.852-0.38c0.117,0.021,0.021,0.51,1.705,1.012
	c1.224,0.364,1.453-1.398,2.383-0.374c1.689,1.863-1.034,2.548-1.696,3.896c-1.924,3.909-3.082,6.599-3.781,11.05
	c-0.311,1.979,5.844-3.518,9.484-3.071c0.805,0.1,0.868,0.274,1.323,0.723c0.732,0.717,1.871-0.168,2.275-0.795
	c1-1.546,1.457-3.188,1.844-4.686c1.299,0.135-0.799,3.462,0.896,3.889c0.02,0.005,0.346,5.323-2.416,5.693
	c-0.445,0.06,1.83,0.545,3.563-1.002c1.047-0.932,1.898-3.339,2.402-4.563c0.383-0.936-0.217,3.575,0.926,2.916
	c0.334-0.189,1.42-2.249,2.158-3.104c2.094-2.426,3.463-3.253,4.082-3.085c0.389,0.106,0.639,0.864,0.93,2.462
	c0.14,0.771-0.043,1.755,0.168,2.935c0.051,0.288,0.914-2.821,2.275-4.601c0.813-1.06,2.508-1.153,2.508-1.175
	c-0.211-4.874,1.287-5.556,1.617-8.43c0.026-0.235-1.498-2.303-1.668-6.225c-0.029-0.688-0.728-1.168-1.144-1.666
	c-3.674-4.404-6.996,1.391-0.348-8.483c2.211-3.283-0.262-4.453,0.354-5.569l-1.105,2.245
	C386.236,157.564,382.483,160.192,382.055,160.848z"/>
<path fill="#E49846" d="M261.846,48.856c2.283-4.004,3.315-12.14-3.277-12.997c-2.615-0.338-5.608,1.263-7.08,3.391
	c-2.332,3.373-1.239,8.013,2.621,6.952c1.738-0.478,2.021-2.836,2.683-3.861c1.229-1.902,3.246-1.376,3.844,0.25
	c0.428,1.164-0.158,3.002-0.963,4.402c-6.578,11.434-17.433,20.364-23.584,32.861c-8.445,17.168-10.379,38.313-0.625,60.397
	c4.1,9.282,8.08,16.583,13.795,23.673c0.715,0.89,1.789,2.183,2.727,2.727c3.586,2.083,0.125-1.25-0.569-2.311
	c-0.773-1.176-1.964-2.803-2.48-3.597c-1.238-1.905-2.326-3.176-4.014-6.429c-15.217-29.354-13.529-56.516,2.155-84.232
	C250.991,63.166,257.092,57.193,261.846,48.856z"/>
<path fill="#FFFFFF" d="M343.499,170.442c2.523-0.278,3.9,0.393,4.066,1.189c-9.18,3.295-9.756,7.258-9.756,7.258
	s-1.738-0.248-2.02-1.72C335.279,174.476,340.872,170.734,343.499,170.442z"/>
<path fill="#FFFFFF" d="M356.36,180.104c1.672-0.734,2.09,0.768,2.09,0.768s-7.637,6.907-7.172,11.939
	c-0.465,0.519-3.572-0.15-4.016-2.207C347.823,187.947,353.883,181.196,356.36,180.104z"/>
<path fill="#FFFFFF" d="M336.365,188.872c0.275,0.512-0.389,1.055,0.412,1.83c-5.635,0.438-12.205,8.322-12.205,8.322l-0.805-2.926
	C323.768,196.1,327.461,189.096,336.365,188.872z"/>
<path fill="#FFFFFF" d="M315.143,188.117c1.008,0.592,1.713,1.227,2.166,2.603c-7.219-0.135-10.467,2.674-11.404,3.974
	c-1.731,0.067-1.875-1.85-1.875-1.85S309.729,187.089,315.143,188.117z"/>
<path fill="#E49846" d="M280.393,189.139c1.408,1.448,1.893,1.811,2.506,2.246c1.662,1.183,6.039,3.363,7.23,1.698
	c1.309-2.798-1.595-4.672-5.229-5.309c-3.559-0.623-4.133,2.105-10.713,3.352c-0.635-0.001-0.389-0.471-0.111-0.504
	c5.343-0.64,6.769-4.725,11.929-3.566c3.61,0.811,6.594,3.317,5.166,6.708c-1.875,2.591-8.023-0.583-9.496-1.831
	c-1.066-0.903-2.342-2.505-3.176-3.852c-0.044-0.071,1.116,0.531,1.426,0.595L280.393,189.139z"/>
<path fill="#FFFFFF" d="M387.167,161.252c0,0-3.45-0.812-4.559-0.066c-1.26,0.847-3.713,0.881-3.713,0.881s-4.228-2.194-3.369-1.824
	c0.854,0.366-3.441-1.256-3.441-1.256l-0.004,0.171c0,0,5.656,2.314,5.449,2.713c-0.449,0.633-6.955-0.447-6.955-0.447l-0.004,0.272
	c0,0,4.219,0.787,5.756,0.897c1.535,0.109,4.689,0.156,4.689,0.156l-2.447,3.107l-2.516,0.234l-2.688-0.274l-5.526-0.585
	c0,0-1.418-1.614-3.08-1.334c-0.246,0.067-0.437,0.36,0.233,0.368c1.205-0.097,1.974,1.192,1.974,1.192s-2.892,0.96-3.326,1.036
	c-0.176,0.147-0.379,0.309-0.012,0.387c0.362,0.077,4.081-1.277,6.639-0.69c0.824,0.297-3.789,1.446-3.867,1.561
	c-0.082,0.113-0.367,0.18-0.012,0.384c1.473,0.17,4.338-1.66,5.196-1.584c0.861,0.08,4.423,0.364,4.423,0.364l2.465-0.261
	c0,0-0.236,1.32-1.297,3.086c-0.896,1.581-4.813,6.266-6.099,7.982s-0.938,3.699-0.938,3.699l0.541,0.056
	c0,0-0.142-2.304,1.078-3.651c1.338-1.484,4.334-5.228,4.334-5.228s0.174,1.312,0.047,2.395c-0.125,1.082-1.476,3.043-1.617,3.561
	c-0.141,0.517-0.037,1.544-0.037,1.544l0.4,0.161c0,0-0.066-0.529,0.108-1.435c0.181-0.905,1.215-1.829,1.593-2.949
	c0.391-1.153,0.309-4.307,0.309-4.307s1.977-2.573,2.369-5.039c0.789-1.61,2.192-3.222,2.192-3.222s0.013,3.502,2.074,4.471
	c0.99,0.546,0.812,0.622,1.367,1.103c0.684,0.587,0.65,0.609,0.729,1.355c0.085,0.743-1.108,3.093-1.184,3.494
	c-0.076,0.402-0.301,1.477-0.301,1.477l0.449-0.033c0,0,0.1-1.021,0.262-1.415c0.166-0.393,0.34-0.925,0.977-2.224
	c0.638-1.299,1.037,0.498,1.037,0.498l0.438,2.371l0.53,0.305l-0.53-3.264c0,0-1.627-2.985-2.726-3.65
	c-0.379-0.229,0.785-0.378,1.648,0.358c1.356,1.156,3.477,2.937,3.967,2.813c0.545-0.214,0.439-0.04,0.236-0.154
	c-1.972-1.085-2.09-1.771-3.894-3.152c-1.272-0.974-2.301-0.316-2.819-0.665c-0.398-0.271-0.72-0.791-0.72-0.791
	s-0.682-0.67-0.754-2.161c-0.067-1.49,1.088-2.039,1.584-2.211c0.49-0.174,2.771,0.638,2.771,0.638L387.167,161.252z"/>
<path fill="#E49846" d="M388.712,151.659c0.611-1.627,3.941-2.156,4.593-2.195c3.213-0.649,2.348-5.665,1.205-5.342
	c-0.404,0.164-4.834,3.16-6.175,5.133C386.856,151.428,388.104,153.286,388.712,151.659z"/>
<g>
	<g>
		<path fill="#AD0637" d="M513.755,341.522c0.025,0.113,0.052,0.217,0.078,0.338h0.006
			C513.82,341.778,513.79,341.657,513.755,341.522z"/>
		<path fill="#AD0637" d="M513.904,337.367c-0.236,0.319-0.371,0.593-0.479,0.883c-0.074,0.207-0.146,0.423-0.168,0.699
			c-0.005,0.061,0.016,0.117,0.016,0.177c0.002-0.611,0.221-1.211,0.897-2.13c0.035-0.048,0.084-0.097,0.125-0.142
			c-0.036,0.038-0.073,0.075-0.116,0.125C514.096,337.082,514.001,337.227,513.904,337.367z"/>
		<path fill="#AD0637" d="M514.352,336.798c0.004-0.006,0.008-0.01,0.014-0.016c-0.024,0.024-0.045,0.05-0.067,0.072
			C514.317,336.838,514.337,336.818,514.352,336.798z"/>
		<path fill="#AD0637" d="M514.419,336.721c0.009-0.011,0.019-0.037,0.031-0.062c-0.02,0.037-0.053,0.079-0.086,0.125
			C514.385,336.764,514.401,336.744,514.419,336.721z"/>
		<path fill="#AD0637" d="M513.32,339.791c0.035,0.17,0.068,0.341,0.107,0.515c0,0.01,0.016,0.01,0.018,0.018
			c0.074,0.321,0.213,0.828,0.311,1.199c-0.19-0.816-0.372-1.41-0.448-1.927C513.315,339.661,513.307,339.725,513.32,339.791z"/>
		<path fill="#AD0637" d="M95.028,283.006c-8.19-1.717-15.342,6.487-18.692,13.875c-4.373,9.639-1.375,37.669,5.26,45.214
			c0.52,0.591,4.285,1.182,3.758-2.049c-0.531-3.266-3.076-11.104-4.115-18.709c-0.955-6.977-0.049-13.896-0.041-16.299
			c0.004-0.472,6.148,4.232,12.484,6.709c4.777,1.869,9.549,2.165,11.527,2.104c0.034,0.097-2.597,22.396-1.322,24.945
			c0.828,1.669,0.981,1.675,1.996,0.119c2.248-3.438,4.336-13.193,5.453-22.21c1.034-8.362,1.866-13.795-1.511-21.802
			C107.319,288.968,101.745,284.418,95.028,283.006z M105.262,306.262c-0.326,0.319-5.229-0.208-10.428-1.861
			c-6.658-2.112-13.839-5.721-12.859-7.963c2.723-6.25,13.143-8.143,17.863-4.756C104.986,295.374,107.653,303.916,105.262,306.262z
			"/>
		<path fill="#AD0637" d="M164.95,312.365c-3.991-5.296-10.836-7.204-15.989-5.744c-6.935,1.963-10.644,8.898-11.822,14.43
			c-0.769,3.604,0.066,6.823-0.049,6.954c-0.269,0.302-5.248-13.905-3.34-13.965c4.108-0.129,12.731-9.359,16.561-16.285
			c5.654-10.234,16.326-46.658,0.416-51.438c-15.057-4.524-23.363,16.272-25.967,35.457c-0.572,4.22-0.67,8.38-0.57,12.172
			c0.252,9.456,0.99,15.138,3.781,24.315c0.785,2.195,1.645,4.48,2.475,6.711c2.304,6.186,7.105,12.494,11.449,15.998
			c6.299,5.074,14.941,5.282,19.971,1.431c4.97-3.808,7.345-11.098,6.504-18.415C167.844,319.407,167.159,315.293,164.95,312.365z
			 M131.145,308.123c-3.896-2.51-3.037-20.195-2.166-25.626c1.729-10.784,6.463-24.786,14.059-30.382
			c5.109-3.765,9.093,2.655,10.142,8.529C156.307,278.136,137.832,312.426,131.145,308.123z M151.36,338.951
			c-16.932-1.853-9.549-29.087,2.9-26.437c6.059,1.288,8.99,10.442,9.108,15.123C163.514,333.56,159.702,339.865,151.36,338.951z"/>
		<path fill="#AD0637" d="M491.186,226.464c-1.654,0.188,0.709,7.562,0.271,17.04c-0.186,3.968-1.088,10.732-4.076,17.935
			c-4.954,11.939-10.641,21.096-15.372,20.515c-1.814-0.224-2.263-8.159-2.294-10.049c-0.063-3.854-0.293-4.182-0.405-8.289
			c-0.228-8.223-1.732-16.763-2.854-20.11c-1.709-5.104-3.342-8.23-5.002-7.141c-1.768,1.157-0.934,5.496-0.256,11.004
			c0.719,5.88,3.105,22.253,2.49,43.495c-0.588,20.364-3.594,35.876-3.447,45.938c0.109,7.765,3.98,8.286,5.455,1.124
			c1.57-7.63,5.059-42.847,6.459-42.975c1.559-0.146,5.096,1.7,7.441,6.329c3.377,6.67,5.422,16.909,5.43,27.843
			c0.006,4.923,0,11.544,2.559,14.695c1.861,2.294,3.949-1.593,3.824-4.861c-0.137-3.47-1.387-2.009-1.563-6.684
			c-0.349-9.247,0.582-19.459-0.863-28.503c-1.248-7.796-4.56-15.594-11.894-18.167c-0.35-0.123,6.8-5.325,12.423-16.232
			c4.004-7.767,6.862-14.355,7.295-25.632C497.089,236.186,495.014,226.029,491.186,226.464z"/>
		<path fill="#AD0637" d="M52.143,223.658c-7.15-2.138-13.826,1.064-20.449,8.042c-5.5,5.793-9.465,16.37-11.039,20.44
			c-6.162,15.924-0.194,59.569-0.174,71.16c0.017,8.046-0.139,16.493-4.915,15.906c-2.31-0.285-5.114-13.145-13.782-10.928
			c-4.344,1.108-0.947,16.375,12.354,16.203c9.832-0.122,11.723-6.721,12.895-13.112c1.404-7.671,1.216-18.036,1.238-21.805
			c0.074-11.65-2.121-25.257-0.397-37.097c2.409-16.587,6.633-27.958,8.559-32.473c1.994-4.686,7.463-15.023,13.984-12.144
			c2.76,1.221,4.405,3.864,6.135,6.767c4.004,6.727,4.914,20.167,4.406,27.827c-0.9,13.531-7.712,49.042-3.472,68.018
			c1.056,4.713,3.607,8.738,8.015,9.043c1.354,0.093-1.998-1.941-2.748-4.308c-2.554-8.076-2.242-14.864-2.123-22.957
			c0.274-18.51,6.346-38.313,7.66-58.854C69.098,240.686,64.858,227.454,52.143,223.658z"/>
		<path fill="#AD0637" d="M210.116,266.138c-3.149-1.268-2.58,10.325-3.891,15.798c-1.994,8.338-5.359,16.655-10.889,23.076
			c-1.8,2.087-3.884,3.921-5.697,4.331c-2.094,0.475-2.803-0.569-2.48-2.319c1.07-5.781,0.084-30.092-2.827-30.919
			c-4.113-1.17-4.099,5.875-3.007,13.93c0.916,6.75,1.099,20.498,0.3,31.007c-0.189,2.5-1.476,25.254,3.274,19.191
			c1.299-1.658,2.115-15.556,2.066-19.014c-0.049-3.538,0.18-5.932,5.408-5.348c9.803,1.099,7.44,26.813,9.262,28.293
			c2.475,2.014,3.529-7.941,3.52-14.205c-0.018-8.304-2.625-12.4-7.684-19.063c1.895-2.051,9.346-10.031,12.959-20.678
			C212.041,285.476,216.111,268.546,210.116,266.138z"/>
		<path fill="#AD0637" d="M266.065,305.084c-1.664,1.374-3.119,3.159-4.322,3.021c-0.549-0.062-0.577-0.18-0.51-0.611
			c-1.041-12.909-10.119-31.586-25.553-25.396c-5.562,2.233-10.283,7.279-13.291,12.424c-4.82,8.249-4.844,30.938,1.1,40.831
			c1.849,3.075,5.613,10.341,8.59,5.436c0.666-1.101-1.061-3.063-2.313-5.907c-2.279-5.181-4.82-12.843-4.82-19.688
			c0-0.828-0.012-17.842,2.297-9.616c1.439,5.133,5.896,8.215,11.14,10.206c1.155,0.438,5.188,1.761,9.586,1.669
			c3.473-0.075,6.678-1.362,6.608-1.04c-2.471,11.783-2.69,19.292-2.325,22.714c0.467,4.365,2.043,2.567,3.043,0.176
			c1.19-2.86,2.356-7.893,2.504-8.724c0.354-1.989,2.305-15.131,3.393-16.308c2.164-2.351,4.906-3.079,6.604-5.36
			C270.067,305.849,271.727,300.414,266.065,305.084z M254.252,310.218c-0.144,1.099-8.029,1.315-13.963-1.102
			c-4.082-1.66-7.25-5.333-9.064-8.832c-4.596-8.866,7.383-12.771,12.498-11.036C251.245,291.795,255,304.488,254.252,310.218z"/>
		<path fill="#AD0637" d="M589.016,312.365c-3.99-5.293-10.836-7.204-15.992-5.744c-6.937,1.963-10.644,8.898-11.822,14.428
			c-0.768,3.606,0.066,6.825-0.051,6.956c-0.267,0.302-5.248-13.905-3.342-13.967c4.112-0.129,12.733-9.357,16.563-16.285
			c5.652-10.232,16.324-46.656,0.416-51.438c-15.059-4.524-23.36,16.272-25.971,35.457c-0.57,4.22-0.666,8.379-0.564,12.171
			c0.246,9.46,0.986,15.139,3.777,24.316c0.785,2.195,1.641,4.48,2.475,6.711c2.306,6.186,7.105,12.492,11.451,15.998
			c6.297,5.074,14.939,5.282,19.969,1.431c4.972-3.808,7.345-11.096,6.505-18.415C591.907,319.407,591.227,315.291,589.016,312.365z
			 M555.206,308.123c-3.896-2.51-3.037-20.197-2.168-25.626c1.729-10.784,6.465-24.786,14.062-30.382
			c5.108-3.765,9.094,2.655,10.141,8.529C580.37,278.134,561.897,312.424,555.206,308.123z M575.445,339
			c-16.932-1.853-9.549-29.088,2.9-26.437c6.061,1.288,8.991,10.441,9.108,15.122C587.598,333.609,583.79,339.913,575.445,339z"/>
		<path fill="#AD0637" d="M636.577,294.906c-2.502-5.938-8.074-10.487-14.795-11.899c-8.188-1.717-15.34,6.487-18.69,13.875
			c-4.373,9.639-1.375,37.669,5.26,45.214c0.52,0.591,4.283,1.182,3.758-2.049c-0.535-3.266-3.076-11.104-4.115-18.709
			c-0.955-6.977-0.051-13.896-0.043-16.299c0.002-0.472,6.148,4.232,12.484,6.709c4.778,1.869,9.549,2.165,11.528,2.104
			c0.031,0.097-2.596,22.396-1.323,24.945c0.832,1.669,0.979,1.675,1.996,0.119c2.248-3.438,4.332-13.193,5.455-22.21
			C639.126,308.345,639.956,302.912,636.577,294.906z M632.02,306.262c-0.326,0.319-5.229-0.208-10.431-1.861
			c-6.655-2.112-13.836-5.721-12.86-7.963c2.723-6.25,13.146-8.143,17.865-4.756C631.741,295.374,634.409,303.916,632.02,306.262z"
			/>
		<path fill="#AD0637" d="M432.861,286.495c-8.188-1.716-13.6,2.998-16.949,10.384c-0.875,1.931-2.209,11.488-1.16,20.592
			c1.242,10.773,5.125,22.202,7.068,37.903c1.477,11.927,1.252,26.771,0.877,36.359c-0.07,1.802-0.148,3.421-0.215,4.795
			c-0.191,3.69,0.004,5.245,1.029,5.58c0.717,0.234,1.946,0.985,3.27-3.292c3.047-9.894,2.094-37.238,1.807-39.325
			c-0.998-7.23-2.258-13.516-3.243-17.905c0-0.002-0.002,0-0.002-0.002c-0.009-0.038-0.019-0.082-0.025-0.125
			c-0.822-3.649-1.445-5.965-1.549-6.373c-0.978-3.813-2.283-8.831-2.953-13.749c-0.473-3.468-0.486-6.926-0.383-9.813
			c0.28-7.681,3.336-13.241,7.157-15.915c5.923-4.139,11.685-0.599,14.722,6.047c2.444,5.349,3.123,12.713,0.694,19.704
			c-1.385,3.982-4.864,9.869-8.573,12.13c-3.675,2.237-8.488,3.56-9.818,3.506c-0.217-0.008-0.363-0.038-0.328,0.092l0.097,0.377
			l0.512,2.109c0.024,0.103,0.047,0.236,0.078,0.362c0.104,0.462,0.241,1.037,0.346,1.523c0.01,0.043,0.018,0.085,0.027,0.127
			c0.01,0.034,0.045,0.01,0.141,0.032c1.238,0.266,10.76-0.655,17.326-7.41c8.297-8.527,9.354-25.117,4.848-35.813
			C445.153,292.455,439.583,287.906,432.861,286.495z"/>
		<path fill="#AD0637" d="M376.563,306.458c-7.111-0.476-12.873,4.756-15.812,9.518c-1.909,3.101-2.205,6.379-2.354,6.461
			c-0.508,0.12-1.019-7.681,0.151-16.814c1.105-8.63,1.322-11.663,3.607-17.785c1.879-5.039-0.604-6.327-3.57-1.551
			c-4.684,7.536-5.043,15.489-5.448,24.042c0.002,2.308,0.043,4.723,0.073,7.077c0.095,6.527,2.472,14.005,5.354,18.713
			c4.182,6.818,12.164,9.884,18.135,7.967c5.896-1.896,10.531-7.897,12.178-14.994c1.031-4.438,1.765-8.5,0.679-11.963
			C387.594,310.865,381.854,306.81,376.563,306.458z M381.942,330.215c-1.629,4.944-6.646,9.035-13.279,5.815
			c-12.987-6.299,2.088-27.897,10.203-21.02C382.139,317.785,383.165,326.496,381.942,330.215z"/>
		<path fill="#AD0637" d="M395.471,283.312c-1.359-0.16-2.515,2.113-2.482,5.777c0.088,10.034,2.324,18.454,2.144,29.464
			c-0.148,8.995-1.681,21.47-0.898,23.561c0.805,2.137,0.932,2.137,1.697,0.024c1.694-4.666,4.325-17.329,4.733-29.252
			c0.313-9.287-0.912-16.349-2.67-24.359C397.372,285.698,396.694,283.455,395.471,283.312z"/>
		<path fill="#AD0637" d="M341.897,244.096c-14.949-7.428-27.365,12.854-33.52,32.465c-1.357,4.313-2.203,8.653-2.773,12.639
			c-1.43,9.943-1.672,16.018-0.395,26.127c1.733,9.876,3.547,18.362,10.514,26.257c5.684,6.437,14.688,8.201,20.645,5.064
			c3.373-1.773,5.047-3.254,6.808-7.068c2.62-5.703-1.642-10.484-7.176-2.024c-2.109,3.224-4.361,3.571-9.615,2.071
			c-5.793-1.652-10.187-12.254-12.262-22.857c-2.259-11.535-1.779-33.646,3.127-45.003c4.104-9.489,8.241-19.293,15.563-22.971
			c4.199-2.109,6.494,1.027,8.229,5.002C344.38,261.465,350.069,249.215,341.897,244.096z"/>
		<path fill="#AD0637" d="M521.262,286.495c-8.188-1.716-13.599,2.998-16.949,10.384c-0.875,1.931-2.195,11.486-1.156,20.592
			c0.674,5.937,1.473,12.25,3.664,19.004c1.797,5.53,6.984,5.426,7.014,5.386c-0.026-0.121-0.053-0.225-0.08-0.338
			c-0.096-0.371-0.235-0.88-0.309-1.201c-0.002-0.008-0.018-0.008-0.02-0.016c-0.037-0.174-0.07-0.347-0.107-0.515
			c-0.012-0.068-0.004-0.13-0.012-0.195c0.076,0.516,0.258,1.109,0.446,1.927c0.035,0.136,0.064,0.256,0.08,0.338h-0.002
			c0.002,0.007,0.002,0.009,0.002,0.015c0.011,0.039,0.054,0.01,0.154,0.033c1.232,0.266,10.654-0.944,17.221-7.699
			c8.295-8.527,9.355-25.117,4.847-35.813C533.555,292.455,527.983,287.906,521.262,286.495z M514.419,336.721
			c-0.02,0.023-0.034,0.043-0.055,0.063c-0.006,0.006-0.01,0.008-0.014,0.014c-0.017,0.021-0.035,0.04-0.056,0.058
			c-0.041,0.045-0.09,0.094-0.125,0.142c-0.678,0.922-0.896,1.519-0.897,2.13c0-0.06-0.021-0.114-0.016-0.177
			c0.02-0.276,0.094-0.492,0.168-0.699c0.106-0.29,0.241-0.563,0.479-0.883c0.098-0.142,0.191-0.285,0.275-0.388
			c0.043-0.05,0.08-0.087,0.116-0.125c0.023-0.021,0.041-0.046,0.064-0.07c0.035-0.048,0.068-0.088,0.088-0.125
			C514.438,336.684,514.428,336.71,514.419,336.721z M531.404,321.359c-1.383,3.979-4.801,9.977-8.572,12.13
			c-4.266,2.435-7.186,2.589-8.367,3.07c-0.016,0.006,0.007,0.008,0.013,0.022c0.004,0.008-0.004,0.021-0.004,0.035
			c0,0.013-0.011,0.021-0.021,0.036c0.023-0.04,0.029-0.071,0.01-0.103c-0.006-0.006-0.012-0.014-0.018-0.02
			c-3.172-2.799-3.111-5.285-4.139-9.252l-1.093-5.943c-0.631-3.442-0.483-6.926-0.383-9.813c0.283-7.681,3.336-13.241,7.16-15.915
			c5.92-4.139,11.683-0.599,14.719,6.047C533.154,307.003,533.831,314.367,531.404,321.359z"/>
	</g>
</g>
</svg>
